<svg xmlns="http://www.w3.org/2000/svg" xmlns:xlink="http://www.w3.org/1999/xlink" width="113" height="113" viewBox="0 0 113 113">
  <defs>
    <filter id="Trazado_982547" x="0" y="0" width="113" height="113" filterUnits="userSpaceOnUse">
      <feOffset dy="3" input="SourceAlpha"/>
      <feGaussianBlur stdDeviation="3" result="blur"/>
      <feFlood flood-opacity="0.161"/>
      <feComposite operator="in" in2="blur"/>
      <feComposite in="SourceGraphic"/>
    </filter>
  </defs>
  <g id="Grupo_1225937" data-name="Grupo 1225937" transform="translate(-585.509 -2377.121)">
    <g id="Grupo_1225640" data-name="Grupo 1225640" transform="translate(0 -2313.639)">
      <g id="Grupo_1225176" data-name="Grupo 1225176" transform="translate(0 -50.236)">
        <g id="Grupo_1224647" data-name="Grupo 1224647" transform="translate(0 1927)">
          <g id="Grupo_1224292" data-name="Grupo 1224292" transform="translate(0 859.245)">
            <g id="Grupo_1224092" data-name="Grupo 1224092" transform="translate(-88.49 -2620.317)">
              <g id="Grupo_1223184" data-name="Grupo 1223184" transform="translate(683 4581.069)">
                <g id="Grupo_1211216" data-name="Grupo 1211216" transform="translate(0)">
                  <g id="Grupo_1210737" data-name="Grupo 1210737">
                    <g id="Grupo_1210537" data-name="Grupo 1210537">
                      <g id="Grupo_1164202" data-name="Grupo 1164202">
                        <g id="Grupo_1158168" data-name="Grupo 1158168">
                          <g id="Grupo_1152576" data-name="Grupo 1152576">
                            <g id="Grupo_1148633" data-name="Grupo 1148633">
                              <g id="Grupo_1148525" data-name="Grupo 1148525">
                                <g transform="matrix(1, 0, 0, 1, -9, -6)" filter="url(#Trazado_982547)">
                                  <g id="Trazado_982547-2" data-name="Trazado 982547" transform="translate(9 6)" fill="#fdfbec">
                                    <path d="M 47.49999618530273 93.5 C 41.28936767578125 93.5 35.26533126831055 92.28396606445312 29.59518241882324 89.88570404052734 C 24.11771583557129 87.56893157958984 19.19812965393066 84.251953125 14.97308921813965 80.02690124511719 C 10.74803638458252 75.80186462402344 7.431062698364258 70.88227844238281 5.114289283752441 65.40480804443359 C 2.716022968292236 59.73466110229492 1.499996185302734 53.71062469482422 1.499996185302734 47.49999618530273 C 1.499996185302734 41.28936767578125 2.716022968292236 35.26533126831055 5.114289283752441 29.59518241882324 C 7.431062698364258 24.11771583557129 10.74803638458252 19.19812965393066 14.97308921813965 14.97308921813965 C 19.19812965393066 10.74803638458252 24.11771583557129 7.431062698364258 29.59518241882324 5.114289283752441 C 35.26533126831055 2.716022968292236 41.28936767578125 1.499996185302734 47.49999618530273 1.499996185302734 C 53.71062469482422 1.499996185302734 59.73466110229492 2.716022968292236 65.40480804443359 5.114289283752441 C 70.88227844238281 7.431062698364258 75.80186462402344 10.74803638458252 80.02690124511719 14.97308921813965 C 84.251953125 19.19812965393066 87.56893157958984 24.11771583557129 89.88570404052734 29.59518241882324 C 92.28396606445312 35.26533126831055 93.5 41.28936767578125 93.5 47.49999618530273 C 93.5 53.71062469482422 92.28396606445312 59.73466110229492 89.88570404052734 65.40480804443359 C 87.56893157958984 70.88227844238281 84.251953125 75.80186462402344 80.02690124511719 80.02690124511719 C 75.80186462402344 84.251953125 70.88227844238281 87.56893157958984 65.40480804443359 89.88570404052734 C 59.73466110229492 92.28396606445312 53.71062469482422 93.5 47.49999618530273 93.5 Z" stroke="none"/>
                                    <path d="M 47.49999618530273 2.999992370605469 C 41.4912109375 2.999992370605469 35.66376495361328 4.1761474609375 30.17950439453125 6.495796203613281 C 24.88084411621094 8.736953735351562 20.12152099609375 11.94598388671875 16.03375244140625 16.03375244140625 C 11.94598388671875 20.12152099609375 8.736953735351562 24.88084411621094 6.495796203613281 30.17950439453125 C 4.1761474609375 35.66376495361328 2.999992370605469 41.4912109375 2.999992370605469 47.49999618530273 C 2.999992370605469 53.50878143310547 4.1761474609375 59.33622741699219 6.495796203613281 64.82048797607422 C 8.736953735351562 70.11914825439453 11.94598388671875 74.87847137451172 16.03375244140625 78.96623992919922 C 20.12152099609375 83.05400848388672 24.88084411621094 86.26304626464844 30.17950439453125 88.50419616699219 C 35.66376495361328 90.82384490966797 41.4912109375 92 47.49999618530273 92 C 53.50878143310547 92 59.33622741699219 90.82384490966797 64.82048797607422 88.50419616699219 C 70.11914825439453 86.26304626464844 74.87847137451172 83.05400848388672 78.96623992919922 78.96623992919922 C 83.05400848388672 74.87847137451172 86.26304626464844 70.11914825439453 88.50419616699219 64.82048797607422 C 90.82384490966797 59.33622741699219 92 53.50878143310547 92 47.49999618530273 C 92 41.4912109375 90.82384490966797 35.66376495361328 88.50419616699219 30.17950439453125 C 86.26304626464844 24.88084411621094 83.05400848388672 20.12152099609375 78.96623992919922 16.03375244140625 C 74.87847137451172 11.94598388671875 70.11914825439453 8.736953735351562 64.82048797607422 6.495796203613281 C 59.33622741699219 4.1761474609375 53.50878143310547 2.999992370605469 47.49999618530273 2.999992370605469 M 47.49999618530273 -7.62939453125e-06 C 73.7335205078125 -7.62939453125e-06 95 21.26647186279297 95 47.49999618530273 C 95 73.7335205078125 73.7335205078125 95 47.49999618530273 95 C 21.26647186279297 95 -7.62939453125e-06 73.7335205078125 -7.62939453125e-06 47.49999618530273 C -7.62939453125e-06 21.26647186279297 21.26647186279297 -7.62939453125e-06 47.49999618530273 -7.62939453125e-06 Z" stroke="none" fill="#83793c"/>
                                  </g>
                                </g>
                              </g>
                            </g>
                          </g>
                        </g>
                      </g>
                    </g>
                  </g>
                </g>
              </g>
            </g>
          </g>
        </g>
      </g>
    </g>
    <g id="copywriter_4025112" transform="translate(613.232 2399)">
      <g id="Grupo_1225935" data-name="Grupo 1225935">
        <g id="Grupo_1225917" data-name="Grupo 1225917">
          <path id="Trazado_1057829" data-name="Trazado 1057829" d="M50.15,53.47l-6.71-4.2a1.544,1.544,0,0,0-.44-.19,1.528,1.528,0,0,0-.52-.08H19v4h5a1,1,0,0,1,1,1v2a1,1,0,0,1-1,1H19v4H42.48a1.528,1.528,0,0,0,.52-.08,1.544,1.544,0,0,0,.44-.19l6.71-4.2a1.8,1.8,0,0,0,0-3.06Z" fill="#fcd770"/>
        </g>
        <g id="Grupo_1225918" data-name="Grupo 1225918">
          <path id="Trazado_1057830" data-name="Trazado 1057830" d="M7,57v4H4a3,3,0,0,1-3-3V56a1,1,0,0,0,1,1Z" fill="#fcd770"/>
        </g>
        <g id="Grupo_1225919" data-name="Grupo 1225919">
          <path id="Trazado_1057831" data-name="Trazado 1057831" d="M7,49v4H2a1,1,0,0,0-1,1V52a3,3,0,0,1,3-3H7Z" fill="#fcd770"/>
        </g>
        <g id="Grupo_1225920" data-name="Grupo 1225920">
          <path id="Trazado_1057832" data-name="Trazado 1057832" d="M7,57H19v4H7Z" fill="#ffeaa7"/>
        </g>
        <g id="Grupo_1225921" data-name="Grupo 1225921">
          <path id="Trazado_1057833" data-name="Trazado 1057833" d="M19,49v4H7V49H19Z" fill="#ffeaa7"/>
        </g>
        <g id="Grupo_1225922" data-name="Grupo 1225922">
          <path id="Trazado_1057834" data-name="Trazado 1057834" d="M25,54v2a1,1,0,0,1-1,1H2a1,1,0,0,1-1-1V54a1,1,0,0,1,1-1H24A1,1,0,0,1,25,54Z" fill="#ffc729"/>
        </g>
        <g id="Grupo_1225923" data-name="Grupo 1225923">
          <path id="Trazado_1057835" data-name="Trazado 1057835" d="M13.49,11.11a16.851,16.851,0,0,0-8.1,4.5L5,16v8a11,11,0,0,0,8.8,10.78L13,38a9.032,9.032,0,0,0-5.24,2.69c-.2.21-.4.44-.58.67A6.74,6.74,0,0,1,5,36.39V36a7.241,7.241,0,0,1-4-6.47V16a15,15,0,0,1,30,0V29.53a7.243,7.243,0,0,1-1.08,3.8A7.383,7.383,0,0,1,27,36v.39a6.74,6.74,0,0,1-2.18,4.97c-.18-.23-.38-.46-.58-.67A9.032,9.032,0,0,0,19,38l-.8-3.22A11,11,0,0,0,27,24V17l-4.39-2.2a10.949,10.949,0,0,0-3.39-1.05,11.1,11.1,0,0,1-5.73-2.64Z" fill="#656d78"/>
        </g>
        <g id="Grupo_1225924" data-name="Grupo 1225924">
          <path id="Trazado_1057836" data-name="Trazado 1057836" d="M18.2,34.78,19,38l-.54,1.63A2.009,2.009,0,0,1,16.56,41H15.44a2.009,2.009,0,0,1-1.9-1.37L13,38l.8-3.22a11.11,11.11,0,0,0,4.4,0Z" fill="#f0d0b4"/>
        </g>
        <g id="Grupo_1225925" data-name="Grupo 1225925">
          <path id="Trazado_1057837" data-name="Trazado 1057837" d="M27,17v7a11,11,0,0,1-8.8,10.78,11.11,11.11,0,0,1-4.4,0A11,11,0,0,1,5,24V16l.39-.39a16.851,16.851,0,0,1,8.1-4.5,11.1,11.1,0,0,0,5.73,2.64,10.949,10.949,0,0,1,3.39,1.05Z" fill="#f0d0b4"/>
        </g>
        <g id="Grupo_1225926" data-name="Grupo 1225926">
          <circle id="Elipse_13592" data-name="Elipse 13592" cx="2" cy="2" r="2" transform="translate(19 19)" fill="#969faa"/>
        </g>
        <g id="Grupo_1225927" data-name="Grupo 1225927">
          <circle id="Elipse_13593" data-name="Elipse 13593" cx="2" cy="2" r="2" transform="translate(9 19)" fill="#969faa"/>
        </g>
        <g id="Grupo_1225928" data-name="Grupo 1225928">
          <path id="Trazado_1057838" data-name="Trazado 1057838" d="M13.54,39.63A2.009,2.009,0,0,0,15.44,41h1.12a2.009,2.009,0,0,0,1.9-1.37L19,38a9.032,9.032,0,0,1,5.24,2.69c.2.21.4.44.58.67a8.959,8.959,0,0,1,1.88,4.68L27,49H5l.3-2.96a8.959,8.959,0,0,1,1.88-4.68c.18-.23.38-.46.58-.67A9.032,9.032,0,0,1,13,38Z" fill="#ef7385"/>
        </g>
        <g id="Grupo_1225929" data-name="Grupo 1225929">
          <path id="Trazado_1057839" data-name="Trazado 1057839" d="M19,27l-.51,2.06a2.568,2.568,0,0,1-4.98,0L13,27Z" fill="#ef7385"/>
        </g>
        <g id="Grupo_1225930" data-name="Grupo 1225930">
          <circle id="Elipse_13594" data-name="Elipse 13594" cx="2" cy="2" r="2" transform="translate(55 39)" fill="#ef7385"/>
        </g>
        <g id="Grupo_1225931" data-name="Grupo 1225931">
          <circle id="Elipse_13595" data-name="Elipse 13595" cx="2" cy="2" r="2" transform="translate(47 39)" fill="#ef7385"/>
        </g>
        <g id="Grupo_1225932" data-name="Grupo 1225932">
          <circle id="Elipse_13596" data-name="Elipse 13596" cx="2" cy="2" r="2" transform="translate(39 39)" fill="#ef7385"/>
        </g>
        <g id="Grupo_1225933" data-name="Grupo 1225933">
          <path id="Trazado_1057840" data-name="Trazado 1057840" d="M61,9V29a2.006,2.006,0,0,1-2,2H51l-.76,3.03a1.278,1.278,0,0,1-2.48,0L47,31H39a2.006,2.006,0,0,1-2-2V9a2.006,2.006,0,0,1,2-2H59a2.006,2.006,0,0,1,2,2Z" fill="#e6e9ed"/>
        </g>
        <g id="Grupo_1225934" data-name="Grupo 1225934">
          <path id="Trazado_1057841" data-name="Trazado 1057841" d="M48.99,23a4,4,0,1,0-4-4A4,4,0,0,0,48.99,23Zm6.54-7.71A1,1,0,0,0,56.24,17h.75v4h-.75a1,1,0,0,0-.71,1.71l.53.53-2.82,2.83-.54-.53a1,1,0,0,0-1.71.7V27h-4v-.76a.993.993,0,0,0-1.7-.7l-.54.53-2.83-2.83.54-.53A1,1,0,0,0,41.75,21h-.76V17h.76a1,1,0,0,0,.71-1.71l-.54-.53,2.83-2.83.54.53a.993.993,0,0,0,1.7-.7V11h4v.76a1,1,0,0,0,1.71.7l.54-.53,2.82,2.83Z" fill="#fcd770"/>
        </g>
      </g>
      <g id="Grupo_1225936" data-name="Grupo 1225936">
        <path id="Trazado_1057842" data-name="Trazado 1057842" d="M57.479,14.757l-4.242-4.242-1.243,1.243V10h-6v1.758l-1.242-1.244L40.51,14.757,41.751,16H39.993v6h1.758l-1.242,1.243,4.242,4.243,1.242-1.243V28h6V26.243l1.243,1.242,4.242-4.242L56.236,22h1.757V16H56.236Zm-1.486,5.258a2,2,0,0,0-1.332,3.218l-1.436,1.435A2,2,0,0,0,50.007,26H47.978a2,2,0,0,0-3.218-1.333l-1.435-1.435a2,2,0,0,0-1.333-3.218V17.986a2,2,0,0,0,1.333-3.218l1.435-1.435A2,2,0,0,0,47.978,12h2.029a2,2,0,0,0,3.218,1.333l1.436,1.435a2,2,0,0,0,1.332,3.218Z"/>
        <path id="Trazado_1057843" data-name="Trazado 1057843" d="M48.993,14a5,5,0,1,0,5,5A5.006,5.006,0,0,0,48.993,14Zm0,8a3,3,0,1,1,3-3A3,3,0,0,1,48.993,22Z"/>
        <path id="Trazado_1057844" data-name="Trazado 1057844" d="M48,18h2v2H48Z"/>
        <path id="Trazado_1057845" data-name="Trazado 1057845" d="M59,6H39a3,3,0,0,0-3,3V29a3,3,0,0,0,3,3h7.22l.568,2.272a2.28,2.28,0,0,0,4.424,0L51.78,32H59a3,3,0,0,0,3-3V9A3,3,0,0,0,59,6Zm1,23a1,1,0,0,1-1,1H50.22l-.947,3.787a.291.291,0,0,1-.545,0L47.78,30H39a1,1,0,0,1-1-1V9a1,1,0,0,1,1-1H59a1,1,0,0,1,1,1Z"/>
        <path id="Trazado_1057846" data-name="Trazado 1057846" d="M52,41a3,3,0,1,0-3,3A3,3,0,0,0,52,41Zm-4,0a1,1,0,1,1,1,1A1,1,0,0,1,48,41Z"/>
        <path id="Trazado_1057847" data-name="Trazado 1057847" d="M57,38a3,3,0,1,0,3,3A3,3,0,0,0,57,38Zm0,4a1,1,0,1,1,1-1A1,1,0,0,1,57,42Z"/>
        <path id="Trazado_1057848" data-name="Trazado 1057848" d="M44,41a3,3,0,1,0-3,3A3,3,0,0,0,44,41Zm-4,0a1,1,0,1,1,1,1A1,1,0,0,1,40,41Z"/>
        <path id="Trazado_1057849" data-name="Trazado 1057849" d="M50.685,52.623l-6.718-4.2A2.8,2.8,0,0,0,42.483,48H27.905L27.7,45.937a10.02,10.02,0,0,0-1.581-4.491A7.758,7.758,0,0,0,28,36.594a8.189,8.189,0,0,0,4-7.066V16A16,16,0,0,0,0,16V29.528a8.185,8.185,0,0,0,4,7.065,7.758,7.758,0,0,0,1.88,4.852A10.02,10.02,0,0,0,4.3,45.936L4.1,48H4a4,4,0,0,0-4,4v6a4,4,0,0,0,4,4H42.483a2.8,2.8,0,0,0,1.484-.425l6.717-4.2A2.77,2.77,0,0,0,51.794,56H56V54H51.8a2.775,2.775,0,0,0-1.11-1.377ZM2,54H24v2H2Zm16-4v2H8V50Zm0,8v2H8V58Zm2,0h4a2,2,0,0,0,2-2V54a2,2,0,0,0-2-2H20V50H42V60H20ZM6,36.4V35.382l-.553-.276A6.2,6.2,0,0,1,2,29.528V16a14,14,0,0,1,28,0V29.528a6.2,6.2,0,0,1-3.447,5.578L26,35.382V36.4a5.746,5.746,0,0,1-1.174,3.466,10,10,0,0,0-5.012-2.732L19.406,35.5A12.015,12.015,0,0,0,28,24V16.385a8.909,8.909,0,0,0-5.629-8.313l-.742,1.856a6.917,6.917,0,0,1,4.294,5.415l-2.867-1.434a12.063,12.063,0,0,0-3.694-1.154,10.037,10.037,0,0,1-7.217-4.792l-.287-.478L10.143,8.514l.287.478a12.119,12.119,0,0,0,1.19,1.626,17.78,17.78,0,0,0-5.539,3.026A5.724,5.724,0,0,1,8.555,9.832L7.445,8.168A7.722,7.722,0,0,0,4,14.6V24a12.015,12.015,0,0,0,8.594,11.5l-.408,1.628A9.991,9.991,0,0,0,7.174,39.86,5.745,5.745,0,0,1,6,36.395ZM6,16.414l.1-.1a15.816,15.816,0,0,1,7.15-4.1,12.034,12.034,0,0,0,5.827,2.526,10.09,10.09,0,0,1,3.082.963L26,17.618V24A10,10,0,0,1,6,24ZM14.554,35.9a10.938,10.938,0,0,0,2.892,0l.514,2.056-.452,1.356a1,1,0,0,1-.949.684H15.442a1,1,0,0,1-.949-.684L14.04,37.96ZM6.292,46.136a8,8,0,0,1,6.039-6.983l.265.8A3,3,0,0,0,15.441,42h1.117A3,3,0,0,0,19.4,39.948l.265-.795a8.006,8.006,0,0,1,6.039,6.983L25.9,48H21.281l.588-2.351A4.438,4.438,0,0,0,22,44.58v-.166a4.385,4.385,0,0,0-1.293-3.122l-1.414,1.415A2.4,2.4,0,0,1,20,44.414v.166a2.446,2.446,0,0,1-.071.585L19.22,48H12.78l-.708-2.833A2.431,2.431,0,0,1,12,44.58v-.166a2.4,2.4,0,0,1,.707-1.707l-1.414-1.415A4.385,4.385,0,0,0,10,44.414v.166a4.405,4.405,0,0,0,.132,1.071L10.719,48H6.105ZM4,50H6v2H2a2,2,0,0,1,2-2ZM2,58H6v2H4a2,2,0,0,1-2-2Zm47.624-2.319L44,59.2V50.805l5.624,3.515a.8.8,0,0,1,0,1.361Z"/>
        <path id="Trazado_1057850" data-name="Trazado 1057850" d="M14,21a3,3,0,1,0-3,3A3,3,0,0,0,14,21Zm-4,0a1,1,0,1,1,1,1A1,1,0,0,1,10,21Z"/>
        <path id="Trazado_1057851" data-name="Trazado 1057851" d="M21,24a3,3,0,1,0-3-3A3,3,0,0,0,21,24Zm0-4a1,1,0,1,1-1,1A1,1,0,0,1,21,20Z"/>
        <path id="Trazado_1057852" data-name="Trazado 1057852" d="M12.545,29.3a3.561,3.561,0,0,0,6.91,0L20.28,26H11.72ZM17.72,28l-.2.817a1.563,1.563,0,0,1-3.032,0L14.28,28Z"/>
      </g>
    </g>
  </g>
</svg>
