<svg xmlns="http://www.w3.org/2000/svg" xmlns:xlink="http://www.w3.org/1999/xlink" width="113" height="113" viewBox="0 0 113 113">
  <defs>
    <filter id="Trazado_982547" x="0" y="0" width="113" height="113" filterUnits="userSpaceOnUse">
      <feOffset dy="3" input="SourceAlpha"/>
      <feGaussianBlur stdDeviation="3" result="blur"/>
      <feFlood flood-opacity="0.161"/>
      <feComposite operator="in" in2="blur"/>
      <feComposite in="SourceGraphic"/>
    </filter>
  </defs>
  <g id="Grupo_1225957" data-name="Grupo 1225957" transform="translate(-900.509 -2377.121)">
    <g id="Grupo_1225641" data-name="Grupo 1225641" transform="translate(0 -2313.639)">
      <g id="Grupo_1225177" data-name="Grupo 1225177" transform="translate(0 -50.236)">
        <g id="Grupo_1224648" data-name="Grupo 1224648" transform="translate(0 1927)">
          <g id="Grupo_1224293" data-name="Grupo 1224293" transform="translate(0 859.245)">
            <g id="Grupo_1224093" data-name="Grupo 1224093" transform="translate(226.51 -2620.317)">
              <g id="Grupo_1223184" data-name="Grupo 1223184" transform="translate(683 4581.069)">
                <g id="Grupo_1211216" data-name="Grupo 1211216" transform="translate(0)">
                  <g id="Grupo_1210737" data-name="Grupo 1210737">
                    <g id="Grupo_1210537" data-name="Grupo 1210537">
                      <g id="Grupo_1164202" data-name="Grupo 1164202">
                        <g id="Grupo_1158168" data-name="Grupo 1158168">
                          <g id="Grupo_1152576" data-name="Grupo 1152576">
                            <g id="Grupo_1148633" data-name="Grupo 1148633">
                              <g id="Grupo_1148525" data-name="Grupo 1148525">
                                <g transform="matrix(1, 0, 0, 1, -9, -6)" filter="url(#Trazado_982547)">
                                  <g id="Trazado_982547-2" data-name="Trazado 982547" transform="translate(9 6)" fill="#fdfbec">
                                    <path d="M 47.49999618530273 93.5 C 41.28936767578125 93.5 35.26533126831055 92.28396606445312 29.59518241882324 89.88570404052734 C 24.11771583557129 87.56893157958984 19.19812965393066 84.251953125 14.97308921813965 80.02690124511719 C 10.74803638458252 75.80186462402344 7.431062698364258 70.88227844238281 5.114289283752441 65.40480804443359 C 2.716022968292236 59.73466110229492 1.499996185302734 53.71062469482422 1.499996185302734 47.49999618530273 C 1.499996185302734 41.28936767578125 2.716022968292236 35.26533126831055 5.114289283752441 29.59518241882324 C 7.431062698364258 24.11771583557129 10.74803638458252 19.19812965393066 14.97308921813965 14.97308921813965 C 19.19812965393066 10.74803638458252 24.11771583557129 7.431062698364258 29.59518241882324 5.114289283752441 C 35.26533126831055 2.716022968292236 41.28936767578125 1.499996185302734 47.49999618530273 1.499996185302734 C 53.71062469482422 1.499996185302734 59.73466110229492 2.716022968292236 65.40480804443359 5.114289283752441 C 70.88227844238281 7.431062698364258 75.80186462402344 10.74803638458252 80.02690124511719 14.97308921813965 C 84.251953125 19.19812965393066 87.56893157958984 24.11771583557129 89.88570404052734 29.59518241882324 C 92.28396606445312 35.26533126831055 93.5 41.28936767578125 93.5 47.49999618530273 C 93.5 53.71062469482422 92.28396606445312 59.73466110229492 89.88570404052734 65.40480804443359 C 87.56893157958984 70.88227844238281 84.251953125 75.80186462402344 80.02690124511719 80.02690124511719 C 75.80186462402344 84.251953125 70.88227844238281 87.56893157958984 65.40480804443359 89.88570404052734 C 59.73466110229492 92.28396606445312 53.71062469482422 93.5 47.49999618530273 93.5 Z" stroke="none"/>
                                    <path d="M 47.49999618530273 2.999992370605469 C 41.4912109375 2.999992370605469 35.66376495361328 4.1761474609375 30.17950439453125 6.495796203613281 C 24.88084411621094 8.736953735351562 20.12152099609375 11.94598388671875 16.03375244140625 16.03375244140625 C 11.94598388671875 20.12152099609375 8.736953735351562 24.88084411621094 6.495796203613281 30.17950439453125 C 4.1761474609375 35.66376495361328 2.999992370605469 41.4912109375 2.999992370605469 47.49999618530273 C 2.999992370605469 53.50878143310547 4.1761474609375 59.33622741699219 6.495796203613281 64.82048797607422 C 8.736953735351562 70.11914825439453 11.94598388671875 74.87847137451172 16.03375244140625 78.96623992919922 C 20.12152099609375 83.05400848388672 24.88084411621094 86.26304626464844 30.17950439453125 88.50419616699219 C 35.66376495361328 90.82384490966797 41.4912109375 92 47.49999618530273 92 C 53.50878143310547 92 59.33622741699219 90.82384490966797 64.82048797607422 88.50419616699219 C 70.11914825439453 86.26304626464844 74.87847137451172 83.05400848388672 78.96623992919922 78.96623992919922 C 83.05400848388672 74.87847137451172 86.26304626464844 70.11914825439453 88.50419616699219 64.82048797607422 C 90.82384490966797 59.33622741699219 92 53.50878143310547 92 47.49999618530273 C 92 41.4912109375 90.82384490966797 35.66376495361328 88.50419616699219 30.17950439453125 C 86.26304626464844 24.88084411621094 83.05400848388672 20.12152099609375 78.96623992919922 16.03375244140625 C 74.87847137451172 11.94598388671875 70.11914825439453 8.736953735351562 64.82048797607422 6.495796203613281 C 59.33622741699219 4.1761474609375 53.50878143310547 2.999992370605469 47.49999618530273 2.999992370605469 M 47.49999618530273 -7.62939453125e-06 C 73.7335205078125 -7.62939453125e-06 95 21.26647186279297 95 47.49999618530273 C 95 73.7335205078125 73.7335205078125 95 47.49999618530273 95 C 21.26647186279297 95 -7.62939453125e-06 73.7335205078125 -7.62939453125e-06 47.49999618530273 C -7.62939453125e-06 21.26647186279297 21.26647186279297 -7.62939453125e-06 47.49999618530273 -7.62939453125e-06 Z" stroke="none" fill="#83793c"/>
                                  </g>
                                </g>
                              </g>
                            </g>
                          </g>
                        </g>
                      </g>
                    </g>
                  </g>
                </g>
              </g>
            </g>
          </g>
        </g>
      </g>
    </g>
    <g id="checklist_4098066" transform="translate(927.476 2400.864)">
      <g id="Grupo_1225955" data-name="Grupo 1225955" transform="translate(0.96 0.96)">
        <g id="Grupo_1225938" data-name="Grupo 1225938" transform="translate(42.236)">
          <path id="Trazado_1057853" data-name="Trazado 1057853" d="M45,1H56.519V12.519H45Z" transform="translate(-45 -1)" fill="#ff826e"/>
        </g>
        <g id="Grupo_1225939" data-name="Grupo 1225939" transform="translate(42.236 23.038)">
          <path id="Trazado_1057854" data-name="Trazado 1057854" d="M45,25H56.519V36.519H45Z" transform="translate(-45 -25)" fill="#ff826e"/>
        </g>
        <g id="Grupo_1225940" data-name="Grupo 1225940" transform="translate(13.439 51.834)">
          <path id="Trazado_1057855" data-name="Trazado 1057855" d="M15,55H49.556v5.759H15Z" transform="translate(-15 -55)" fill="#fcd770"/>
        </g>
        <g id="Grupo_1225941" data-name="Grupo 1225941" transform="translate(13.439 46.075)">
          <path id="Trazado_1057856" data-name="Trazado 1057856" d="M16.92,49H49.556v5.759H15V49Z" transform="translate(-15 -49)" fill="#ff826e"/>
        </g>
        <g id="Grupo_1225942" data-name="Grupo 1225942" transform="translate(9.599 46.075)">
          <path id="Trazado_1057857" data-name="Trazado 1057857" d="M14.84,54.759v5.759H11V49h3.84Z" transform="translate(-11 -49)" fill="#ffeaa7"/>
        </g>
        <g id="Grupo_1225943" data-name="Grupo 1225943" transform="translate(47.995 46.075)">
          <path id="Trazado_1057858" data-name="Trazado 1057858" d="M59.745,53.368a1.561,1.561,0,0,1,0,2.784L51,60.519V49Z" transform="translate(-51 -49)" fill="#ccd1d9"/>
        </g>
        <g id="Grupo_1225944" data-name="Grupo 1225944" transform="translate(0 46.075)">
          <path id="Trazado_1057859" data-name="Trazado 1057859" d="M10.6,49V60.519H6.759A5.768,5.768,0,0,1,1,54.759,5.764,5.764,0,0,1,6.759,49Z" transform="translate(-1 -49)" fill="#ccd1d9"/>
        </g>
        <g id="Grupo_1225945" data-name="Grupo 1225945" transform="translate(7.679 1.92)">
          <path id="Trazado_1057860" data-name="Trazado 1057860" d="M16.679,13.559a3.839,3.839,0,0,0-3.84,3.84h-.96a2.887,2.887,0,0,0-1.977.787,11,11,0,0,1,.758-10.175L13.8,3l.3.3A8.827,8.827,0,0,0,20.336,5.88h4.8A8.819,8.819,0,0,1,33.18,18.32a2.839,2.839,0,0,0-2.1-.922h-.96a1.925,1.925,0,0,0-1.92-1.92H18.6a1.934,1.934,0,0,1-1.92-1.92Z" transform="translate(-9 -3)" fill="#b27946"/>
        </g>
        <g id="Grupo_1225946" data-name="Grupo 1225946" transform="translate(20.158 31.408)">
          <path id="Trazado_1057861" data-name="Trazado 1057861" d="M29.468,36.12a10.526,10.526,0,0,1,3.091,7.468v1.92a2.876,2.876,0,0,1-2.88,2.88H26.8V36.868H22a3.824,3.824,0,0,0,3.763-3.148Z" transform="translate(-22 -33.72)" fill="#4fc1e9"/>
        </g>
        <g id="Grupo_1225947" data-name="Grupo 1225947" transform="translate(9.599 31.408)">
          <path id="Trazado_1057862" data-name="Trazado 1057862" d="M16.759,44.548v3.84H13.88A2.876,2.876,0,0,1,11,45.508v-1.92a10.556,10.556,0,0,1,6.8-9.868,3.824,3.824,0,0,0,3.763,3.148h-4.8Z" transform="translate(-11 -33.72)" fill="#4fc1e9"/>
        </g>
        <g id="Grupo_1225948" data-name="Grupo 1225948" transform="translate(15.358 34.556)">
          <path id="Trazado_1057863" data-name="Trazado 1057863" d="M19.15,42.759a1.92,1.92,0,0,0-1.718,1.065L17,44.679V37h9.6V48.519H20.84a1.925,1.925,0,0,0,1.92-1.92v-1.92a1.925,1.925,0,0,0-1.92-1.92Z" transform="translate(-17 -37)" fill="#e6e9ed"/>
        </g>
        <g id="Grupo_1225949" data-name="Grupo 1225949" transform="translate(15.358 40.316)">
          <path id="Trazado_1057864" data-name="Trazado 1057864" d="M22.759,44.92v1.92a1.925,1.925,0,0,1-1.92,1.92H17V44.92l.432-.854A1.92,1.92,0,0,1,19.15,43H20.84a1.925,1.925,0,0,1,1.92,1.92Z" transform="translate(-17 -43)" fill="#f0d0b4"/>
        </g>
        <g id="Grupo_1225950" data-name="Grupo 1225950" transform="translate(16.395 30.717)">
          <path id="Trazado_1057865" data-name="Trazado 1057865" d="M25.606,33.691a3.823,3.823,0,0,1-7.526,0,10.589,10.589,0,0,1,7.526,0Z" transform="translate(-18.08 -33)" fill="#f0d0b4"/>
        </g>
        <g id="Grupo_1225951" data-name="Grupo 1225951" transform="translate(28.797 16.318)">
          <path id="Trazado_1057866" data-name="Trazado 1057866" d="M34.062,18.922a2.876,2.876,0,0,1-2.1,4.838H31V18h.96a2.839,2.839,0,0,1,2.1.922Z" transform="translate(-31 -18)" fill="#f0d0b4"/>
        </g>
        <g id="Grupo_1225952" data-name="Grupo 1225952" transform="translate(11.519 12.479)">
          <path id="Trazado_1057867" data-name="Trazado 1057867" d="M30.278,17.84v6.719A7.677,7.677,0,0,1,22.6,32.238h-1.92A7.677,7.677,0,0,1,13,24.559V17.84A3.839,3.839,0,0,1,16.84,14a1.934,1.934,0,0,0,1.92,1.92h9.6A1.925,1.925,0,0,1,30.278,17.84Z" transform="translate(-13 -14)" fill="#f0d0b4"/>
        </g>
        <g id="Grupo_1225953" data-name="Grupo 1225953" transform="translate(7.679 16.318)">
          <path id="Trazado_1057868" data-name="Trazado 1057868" d="M12.84,18v5.759h-.96a2.878,2.878,0,0,1-2.035-4.915l.058-.058A2.887,2.887,0,0,1,11.88,18Z" transform="translate(-9 -18)" fill="#f0d0b4"/>
        </g>
        <g id="Grupo_1225954" data-name="Grupo 1225954" transform="translate(17.278 23.038)">
          <path id="Trazado_1057869" data-name="Trazado 1057869" d="M24.759,25v.96a2.88,2.88,0,1,1-5.759,0V25Z" transform="translate(-19 -25)" fill="#ff826e"/>
        </g>
      </g>
      <g id="Grupo_1225956" data-name="Grupo 1225956" transform="translate(0)">
        <path id="Trazado_1057870" data-name="Trazado 1057870" d="M58.125,50.6l-8.943-4.471H32.1a3.8,3.8,0,0,0,.534-1.92v-1.92a11.527,11.527,0,0,0-6.767-10.481,8.607,8.607,0,0,0,4.847-7.757,3.835,3.835,0,0,0,3.2-5.961,9.754,9.754,0,0,0-9.14-13.237h-4.8a7.813,7.813,0,0,1-5.561-2.3L13.265,1.4,9.491,7.442A11.825,11.825,0,0,0,8.45,17.931a3.8,3.8,0,0,0-.771,2.284,3.843,3.843,0,0,0,3.84,3.84,8.643,8.643,0,0,0,4.855,7.754A11.525,11.525,0,0,0,9.6,42.292v1.92a3.8,3.8,0,0,0,.534,1.92H6.719a6.719,6.719,0,0,0,0,13.439H49.181L58.124,55.1a2.513,2.513,0,0,0,0-4.5ZM13.439,48.051v9.6h-1.92v-9.6Zm3.348-14.314a4.732,4.732,0,0,0,.513.875H15.383A9.543,9.543,0,0,1,16.787,33.737Zm4.331-1.044a9.547,9.547,0,0,1,2.544.353,2.848,2.848,0,0,1-5.087,0A9.547,9.547,0,0,1,21.118,32.693Zm5.735,1.92H24.936a4.787,4.787,0,0,0,.513-.875A9.6,9.6,0,0,1,26.853,34.613Zm-1.9,1.92v9.6h-2.1a2.847,2.847,0,0,0,.177-.96v-1.92a2.883,2.883,0,0,0-2.88-2.88H18.465a2.892,2.892,0,0,0-1.186.254V36.532Zm-7.679,6.946.328-.657a.955.955,0,0,1,.858-.53h1.693a.961.961,0,0,1,.96.96v1.92a.961.961,0,0,1-.96.96h-2.88V43.478Zm0,4.573H47.995v3.84H15.358v-3.84h1.92Zm-1.92,5.759H47.995v3.84H15.358ZM30.717,42.292v1.92a1.922,1.922,0,0,1-1.92,1.92h-1.92v-3.84H28.8v-1.92h-1.92V34.631A9.581,9.581,0,0,1,30.717,42.292Zm0-20.158v-3.84a1.92,1.92,0,0,1,0,3.84ZM9.6,20.214a1.922,1.922,0,0,1,1.92-1.92v3.84A1.922,1.922,0,0,1,9.6,20.214Zm2.024-3.84h-.1a3.8,3.8,0,0,0-1.48.3,9.959,9.959,0,0,1,1.08-8.214L13.63,4.441a9.711,9.711,0,0,0,6.344,2.334h4.8a7.833,7.833,0,0,1,7.566,9.971,3.8,3.8,0,0,0-1.622-.372H30.54a2.876,2.876,0,0,0-2.7-1.92h-9.6a.96.96,0,0,1,0-1.92h.96v-1.92h-.96a2.886,2.886,0,0,0-2.74,1.99,4.806,4.806,0,0,0-3.875,3.77Zm1.815,7.679V17.334a2.886,2.886,0,0,1,2.122-2.779,2.884,2.884,0,0,0,2.677,1.819h9.6a.961.961,0,0,1,.96.96v6.719a6.718,6.718,0,0,1-6.719,6.719h-1.92A6.728,6.728,0,0,1,13.439,24.054Zm-1.92,20.158v-1.92a9.581,9.581,0,0,1,3.84-7.661v5.918a2.847,2.847,0,0,0-.96-.177h-.96v1.92h.96a.961.961,0,0,1,.96.96v2.88h-1.92a1.922,1.922,0,0,1-1.92-1.92Zm-9.6,8.639a4.8,4.8,0,0,1,4.8-4.8H9.6v9.6H6.719A4.8,4.8,0,0,1,1.92,52.851Zm55.346.531-7.351,3.675V48.644l7.352,3.675a.594.594,0,0,1,0,1.062Z" transform="translate(0 -0.056)"/>
        <path id="Trazado_1057871" data-name="Trazado 1057871" d="M18.84,21.88h1.92a2.88,2.88,0,1,0-5.759,0h1.92a.96.96,0,0,1,1.92,0Z" transform="translate(-0.602 -0.762)"/>
        <path id="Trazado_1057872" data-name="Trazado 1057872" d="M25.88,20.92a.961.961,0,0,1,.96.96h1.92a2.88,2.88,0,1,0-5.759,0h1.92A.961.961,0,0,1,25.88,20.92Z" transform="translate(-0.922 -0.762)"/>
        <path id="Trazado_1057873" data-name="Trazado 1057873" d="M25.679,25.92V24H18v1.92a3.84,3.84,0,0,0,7.679,0Zm-5.759,0h3.84a1.92,1.92,0,1,1-3.84,0Z" transform="translate(-0.722 -0.962)"/>
        <path id="Trazado_1057874" data-name="Trazado 1057874" d="M57.439,0H44V13.439H57.439Zm-1.92,11.519h-9.6V1.92h9.6Z" transform="translate(-1.764)"/>
        <path id="Trazado_1057875" data-name="Trazado 1057875" d="M54.41,5.65,53.052,4.293,49.891,7.454,48.65,6.213,47.293,7.57l2.6,2.6Z" transform="translate(-1.897 -0.172)"/>
        <path id="Trazado_1057876" data-name="Trazado 1057876" d="M44,16h1.92v1.92H44Z" transform="translate(-1.764 -0.642)"/>
        <path id="Trazado_1057877" data-name="Trazado 1057877" d="M48,16h9.6v1.92H48Z" transform="translate(-1.925 -0.642)"/>
        <path id="Trazado_1057878" data-name="Trazado 1057878" d="M44,20H57.439v1.92H44Z" transform="translate(-1.764 -0.802)"/>
        <path id="Trazado_1057879" data-name="Trazado 1057879" d="M57.439,24H44V37.439H57.439Zm-1.92,11.519h-9.6v-9.6h9.6Z" transform="translate(-1.764 -0.962)"/>
        <path id="Trazado_1057880" data-name="Trazado 1057880" d="M54.41,29.65l-1.357-1.357-3.161,3.161L48.65,30.213,47.293,31.57l2.6,2.6Z" transform="translate(-1.897 -1.135)"/>
        <path id="Trazado_1057881" data-name="Trazado 1057881" d="M44,40h1.92v1.92H44Z" transform="translate(-1.764 -1.604)"/>
        <path id="Trazado_1057882" data-name="Trazado 1057882" d="M48,40h9.6v1.92H48Z" transform="translate(-1.925 -1.604)"/>
        <path id="Trazado_1057883" data-name="Trazado 1057883" d="M44,44H57.439v1.92H44Z" transform="translate(-1.764 -1.764)"/>
      </g>
    </g>
  </g>
</svg>
