<svg xmlns="http://www.w3.org/2000/svg" xmlns:xlink="http://www.w3.org/1999/xlink" width="108" height="108" viewBox="0 0 108 108">
  <defs>
    <filter id="Trazado_904820" x="0" y="0" width="108" height="108" filterUnits="userSpaceOnUse">
      <feOffset dy="3" input="SourceAlpha"/>
      <feGaussianBlur stdDeviation="3" result="blur"/>
      <feFlood flood-opacity="0.161"/>
      <feComposite operator="in" in2="blur"/>
      <feComposite in="SourceGraphic"/>
    </filter>
  </defs>
  <g id="Grupo_1225996" data-name="Grupo 1225996" transform="translate(-166.232 -2757)">
    <g id="Grupo_1225644" data-name="Grupo 1225644" transform="translate(175.232 2763)">
      <g id="Grupo_1207936" data-name="Grupo 1207936" transform="translate(0 0)">
        <g id="Grupo_1201662" data-name="Grupo 1201662">
          <g id="Grupo_1173585" data-name="Grupo 1173585">
            <g id="Grupo_1173428" data-name="Grupo 1173428">
              <g id="Grupo_1171958" data-name="Grupo 1171958">
                <g id="Grupo_1167341" data-name="Grupo 1167341">
                  <g id="Grupo_1166792" data-name="Grupo 1166792">
                    <g transform="matrix(1, 0, 0, 1, -9, -6)" filter="url(#Trazado_904820)">
                      <g id="Trazado_904820-2" data-name="Trazado 904820" transform="translate(9 6)" fill="#edf3fc">
                        <path d="M 44.99999618530273 88.49999237060547 C 39.12687301635742 88.49999237060547 33.43022155761719 87.35006713867188 28.06829643249512 85.08216857910156 C 22.88852119445801 82.89130401611328 18.23629570007324 79.75457763671875 14.24084663391113 75.75914001464844 C 10.24540901184082 71.76369476318359 7.108683586120605 67.11146545410156 4.917821407318115 61.93169403076172 C 2.649921178817749 56.56976699829102 1.499996185302734 50.87311553955078 1.499996185302734 44.99999237060547 C 1.499996185302734 39.12686920166016 2.649921178817749 33.43021774291992 4.917821407318115 28.06829261779785 C 7.108683586120605 22.88851737976074 10.24540901184082 18.23630523681641 14.24084663391113 14.24085521697998 C 18.23629570007324 10.24540519714355 22.88852119445801 7.108692169189453 28.06829643249512 4.917829990386963 C 33.43022155761719 2.649929761886597 39.12687301635742 1.500004887580872 44.99999618530273 1.500004887580872 C 50.87311935424805 1.500004887580872 56.56977081298828 2.649929761886597 61.93169784545898 4.917829990386963 C 67.11147308349609 7.108692169189453 71.76369476318359 10.24540519714355 75.75914764404297 14.24085521697998 C 79.75458526611328 18.23630523681641 82.89131164550781 22.88851737976074 85.08216857910156 28.06829261779785 C 87.35007476806641 33.43021774291992 88.5 39.12686920166016 88.5 44.99999237060547 C 88.5 50.87311553955078 87.35007476806641 56.56976699829102 85.08216857910156 61.93169403076172 C 82.89131164550781 67.11146545410156 79.75458526611328 71.76369476318359 75.75914764404297 75.75914001464844 C 71.76369476318359 79.75457763671875 67.11147308349609 82.89130401611328 61.93169784545898 85.08216857910156 C 56.56977081298828 87.35006713867188 50.87311935424805 88.49999237060547 44.99999618530273 88.49999237060547 Z" stroke="none"/>
                        <path d="M 44.99999618530273 2.999992370605469 C 39.32870864868164 2.999992370605469 33.82865142822266 4.11004638671875 28.65262603759766 6.299331665039062 C 23.65165710449219 8.414566040039062 19.15968322753906 11.44333648681641 15.301513671875 15.30150604248047 C 11.44333648681641 19.15967559814453 8.414566040039062 23.65164947509766 6.299339294433594 28.65262222290039 C 4.110054016113281 33.82864761352539 2.999992370605469 39.32870483398438 2.999992370605469 44.99999237060547 C 2.999992370605469 50.67127990722656 4.110054016113281 56.17132186889648 6.299339294433594 61.34736633300781 C 8.414566040039062 66.34833526611328 11.44333648681641 70.84029388427734 15.301513671875 74.69846343994141 C 19.15968322753906 78.55663299560547 23.65165710449219 81.58540344238281 28.65262603759766 83.70063781738281 C 33.82865142822266 85.88992309570312 39.32870864868164 86.99997711181641 44.99999618530273 86.99997711181641 C 50.67128372192383 86.99997711181641 56.17134094238281 85.88992309570312 61.34736633300781 83.70063781738281 C 66.34834289550781 81.58540344238281 70.84030914306641 78.55663299560547 74.69847869873047 74.69846343994141 C 78.55665588378906 70.84029388427734 81.58542633056641 66.34833526611328 83.70065307617188 61.34736633300781 C 85.88993835449219 56.17132186889648 87 50.67127990722656 87 44.99999237060547 C 87 39.32870483398438 85.88993835449219 33.82864761352539 83.70065307617188 28.65262222290039 C 81.58542633056641 23.65164947509766 78.55665588378906 19.15967559814453 74.69847869873047 15.30150604248047 C 70.84030914306641 11.44333648681641 66.34834289550781 8.414566040039062 61.34736633300781 6.299331665039062 C 56.17134094238281 4.11004638671875 50.67128372192383 2.999992370605469 44.99999618530273 2.999992370605469 M 44.99999618530273 -7.62939453125e-06 C 69.85281372070312 -7.62939453125e-06 90 20.14717864990234 90 44.99999237060547 C 90 69.85279083251953 69.85281372070312 89.99997711181641 44.99999618530273 89.99997711181641 C 20.14717864990234 89.99997711181641 -7.62939453125e-06 69.85279083251953 -7.62939453125e-06 44.99999237060547 C -7.62939453125e-06 20.14717864990234 20.14717864990234 -7.62939453125e-06 44.99999618530273 -7.62939453125e-06 Z" stroke="none" fill="#2f4f7e"/>
                      </g>
                    </g>
                  </g>
                </g>
              </g>
            </g>
          </g>
        </g>
      </g>
    </g>
    <g id="annual-report_7038105" transform="translate(197 2778.604)">
      <g id="Grupo_1225994" data-name="Grupo 1225994" transform="translate(0.948 0.948)">
        <g id="Grupo_1225975" data-name="Grupo 1225975" transform="translate(19.913 16.553)">
          <path id="Trazado_1057907" data-name="Trazado 1057907" d="M184.5,147.65l.268.024a17.028,17.028,0,0,0-.235,2.813v.9a11.3,11.3,0,0,1-1.9,6.263l-.948-.948-.277.833a5.133,5.133,0,0,1-1.68,2.4h0a18.013,18.013,0,0,0-1.874-.29,18.289,18.289,0,0,0-1.859-.095V156.7a7.541,7.541,0,0,0,4.732-6.638h.958a2.845,2.845,0,0,0,2.812-2.412Z" transform="translate(-176 -147.65)" fill="#656d78"/>
        </g>
        <g id="Grupo_1225976" data-name="Grupo 1225976" transform="translate(1.896)">
          <path id="Trazado_1057908" data-name="Trazado 1057908" d="M50.518,24.553l.033-.433a2.845,2.845,0,0,0-2.845-2.845h-.948v-.948l-6.638-.948.7-1.4a2.346,2.346,0,0,0,.249-1.053,1.341,1.341,0,0,0-2.289-.948l-.556.556-.556-.556a1.334,1.334,0,0,0-.435-.29,1.348,1.348,0,0,0-.513-.1,1.344,1.344,0,0,0-1.341,1.341,2.346,2.346,0,0,0,.249,1.053l.7,1.4-6.638.948v.948h-.948A2.845,2.845,0,0,0,25.9,24.12l.033.433-.268.024c-.023-.133-.046-.266-.071-.4a17.051,17.051,0,0,0-.908-3.095A9.542,9.542,0,0,1,33.542,8a11.345,11.345,0,0,1,3.581.581l1.1.367,1.1-.367A11.4,11.4,0,0,1,42.906,8a9.539,9.539,0,0,1,8.859,13.085,17.013,17.013,0,0,0-.979,3.492Z" transform="translate(-24 -8)" fill="#656d78"/>
        </g>
        <g id="Grupo_1225977" data-name="Grupo 1225977" transform="translate(3.558 16.553)">
          <path id="Trazado_1057909" data-name="Trazado 1057909" d="M46.789,156.7v2.845L45,159.82l-1.5.23c-.079.012-.158.025-.236.039a5.116,5.116,0,0,1-1.894-2.556L41.1,156.7l-.948.948a11.3,11.3,0,0,1-1.9-6.263v-.9a17.028,17.028,0,0,0-.235-2.813l.268-.024a2.845,2.845,0,0,0,2.812,2.412h.958a7.538,7.538,0,0,0,4.732,6.638Z" transform="translate(-38.02 -147.65)" fill="#656d78"/>
        </g>
        <g id="Grupo_1225978" data-name="Grupo 1225978" transform="translate(13.465 31.292)">
          <path id="Trazado_1057910" data-name="Trazado 1057910" d="M126.91,273.328l-1.707,3.414h-1.9l-1.707-3.414L124.255,272Z" transform="translate(-121.6 -272)" fill="#fcd770"/>
        </g>
        <g id="Grupo_1225979" data-name="Grupo 1225979" transform="translate(17.068 28.542)">
          <path id="Trazado_1057911" data-name="Trazado 1057911" d="M161.482,259.136v12.327h-3.793V259.136a.948.948,0,0,0-.948-.948H153.9v-.948a.948.948,0,0,0-.948-.948H152l1.707-3.414,1.138.569L156.7,248.8a18.453,18.453,0,0,1,4.382,1,18.346,18.346,0,0,1,5.5,3.154l.59.492v7.183a1.893,1.893,0,0,0,.164.77l.134.3Z" transform="translate(-152 -248.8)" fill="#ff826e"/>
        </g>
        <g id="Grupo_1225980" data-name="Grupo 1225980" transform="translate(0 28.722)">
          <path id="Trazado_1057912" data-name="Trazado 1057912" d="M21.465,254.217l1.707,3.414H20.327a.948.948,0,0,0-.948.948v.948H16.534a.948.948,0,0,0-.948.948v4.741h-1.9a1.9,1.9,0,0,0-1.9,1.9V272.8A3.793,3.793,0,0,1,8,269.01v-7.917a10.666,10.666,0,0,1,8.809-10.5c.078-.014.156-.027.236-.039l1.5-.23,1.786,4.466Z" transform="translate(-8 -250.32)" fill="#ff826e"/>
        </g>
        <g id="Grupo_1225981" data-name="Grupo 1225981" transform="translate(10.541 28.447)">
          <path id="Trazado_1057913" data-name="Trazado 1057913" d="M108.161,248.095l-1.859,4.646-1.138-.569-2.655-1.328-2.655,1.328-1.138.569-1.786-4.466L98.716,248l3.793,1.9L106.3,248A18.293,18.293,0,0,1,108.161,248.095Z" transform="translate(-96.93 -248)" fill="#fc6e51"/>
        </g>
        <g id="Grupo_1225982" data-name="Grupo 1225982" transform="translate(32.24 24.654)">
          <path id="Trazado_1057914" data-name="Trazado 1057914" d="M287.586,216v15.172H280V216Z" transform="translate(-280 -216)" fill="#fcd770"/>
        </g>
        <g id="Grupo_1225983" data-name="Grupo 1225983" transform="translate(32.24 20.861)">
          <path id="Trazado_1057915" data-name="Trazado 1057915" d="M280,184h7.586v3.793H280Z" transform="translate(-280 -184)" fill="#ffeaa7"/>
        </g>
        <g id="Grupo_1225984" data-name="Grupo 1225984" transform="translate(32.24 15.172)">
          <path id="Trazado_1057916" data-name="Trazado 1057916" d="M287.586,139.793v1.9H280v-1.9a3.793,3.793,0,1,1,7.586,0Z" transform="translate(-280 -136)" fill="#ccd1d9"/>
        </g>
        <g id="Grupo_1225985" data-name="Grupo 1225985" transform="translate(32.24 39.826)">
          <path id="Trazado_1057917" data-name="Trazado 1057917" d="M287.586,344v.545a1.893,1.893,0,0,1-.164.77l-1.1,2.477h-5.057l-.967-2.175-.134-.3a1.894,1.894,0,0,1-.164-.77V344Z" transform="translate(-280 -344)" fill="#ccd1d9"/>
        </g>
        <g id="Grupo_1225986" data-name="Grupo 1225986" transform="translate(33.505 43.619)">
          <path id="Trazado_1057918" data-name="Trazado 1057918" d="M295.727,376l-2.528,5.69L290.67,376Z" transform="translate(-290.67 -376)" fill="#969faa"/>
        </g>
        <g id="Grupo_1225987" data-name="Grupo 1225987" transform="translate(25.603 51.205)">
          <path id="Trazado_1057919" data-name="Trazado 1057919" d="M243.913,440v3.793H224V440h19.913Z" transform="translate(-224 -440)" fill="#e6e9ed"/>
        </g>
        <g id="Grupo_1225988" data-name="Grupo 1225988" transform="translate(7.586 37.93)">
          <path id="Trazado_1057920" data-name="Trazado 1057920" d="M87.172,341.275v4.741a.948.948,0,0,1-.948.948H72.948a.948.948,0,0,1-.948-.948v-2.845h1.9a1.9,1.9,0,0,0,1.9-1.9v-3.793a1.9,1.9,0,0,0-1.9-1.9H72v-6.638a.948.948,0,0,1,.948-.948h2.845v.948a.948.948,0,0,0,.948.948h5.689a.948.948,0,0,0,.948-.948V328h2.845a.948.948,0,0,1,.948.948Z" transform="translate(-72 -328)" fill="#e6e9ed"/>
        </g>
        <g id="Grupo_1225989" data-name="Grupo 1225989" transform="translate(11.379 36.033)">
          <path id="Trazado_1057921" data-name="Trazado 1057921" d="M111.586,313.9v.948a.948.948,0,0,1-.948.948h-5.689a.948.948,0,0,1-.948-.948v-1.9a.948.948,0,0,1,.948-.948h5.689a.948.948,0,0,1,.948.948Z" transform="translate(-104 -312)" fill="#b4dd7f"/>
        </g>
        <g id="Grupo_1225990" data-name="Grupo 1225990" transform="translate(3.793 43.619)">
          <path id="Trazado_1057922" data-name="Trazado 1057922" d="M47.586,379.793v3.793a1.9,1.9,0,0,1-1.9,1.9H41.9a1.9,1.9,0,0,1-1.9-1.9V377.9a1.9,1.9,0,0,1,1.9-1.9h1.9v1.9h1.9A1.9,1.9,0,0,1,47.586,379.793Z" transform="translate(-40 -376)" fill="#f0d0b4"/>
        </g>
        <g id="Grupo_1225991" data-name="Grupo 1225991" transform="translate(24.645 13.275)">
          <path id="Trazado_1057923" data-name="Trazado 1057923" d="M216.878,120a2.845,2.845,0,0,1,2.845,2.845l-.033.433a2.845,2.845,0,0,1-2.812,2.412h-.958c.007-.121.009-.243.009-.365V120Z" transform="translate(-215.92 -120)" fill="#f0d0b4"/>
        </g>
        <g id="Grupo_1225992" data-name="Grupo 1225992" transform="translate(3.793 13.275)">
          <path id="Trazado_1057924" data-name="Trazado 1057924" d="M43.8,125.689h-.958a2.845,2.845,0,0,1-2.812-2.412L40,122.845A2.845,2.845,0,0,1,42.845,120h.948v5.324C43.793,125.447,43.8,125.569,43.8,125.689Z" transform="translate(-40 -120)" fill="#f0d0b4"/>
        </g>
        <g id="Grupo_1225993" data-name="Grupo 1225993" transform="translate(7.586 7.586)">
          <path id="Trazado_1057925" data-name="Trazado 1057925" d="M89.068,77.689v5.324c0,.122,0,.244-.009.365a7.541,7.541,0,0,1-4.732,6.638v2.845l-3.793,1.9-3.793-1.9V90.017a7.538,7.538,0,0,1-4.732-6.638C72,83.258,72,83.136,72,83.014V76.741l6.638-.948-.7-1.4a2.346,2.346,0,0,1-.249-1.053A1.344,1.344,0,0,1,79.03,72a1.348,1.348,0,0,1,.513.1,1.334,1.334,0,0,1,.435.29l.556.556.556-.556a1.342,1.342,0,0,1,2.289.948,2.346,2.346,0,0,1-.249,1.053l-.7,1.4,6.638.948Z" transform="translate(-72 -72)" fill="#f0d0b4"/>
        </g>
      </g>
      <g id="Grupo_1225995" data-name="Grupo 1225995" transform="translate(0 0)">
        <circle id="Elipse_13599" data-name="Elipse 13599" cx="1.387" cy="1.387" r="1.387" transform="translate(19.671 13.601)"/>
        <circle id="Elipse_13600" data-name="Elipse 13600" cx="1.387" cy="1.387" r="1.387" transform="translate(11.346 13.601)"/>
        <path id="Trazado_1057926" data-name="Trazado 1057926" d="M118.433,172.622a2.12,2.12,0,0,1-3.793,0l-.1-.2-1.7.848.1.2a4.017,4.017,0,0,0,7.186,0l.1-.2-1.7-.848Z" transform="translate(-99.468 -151.985)"/>
        <path id="Trazado_1057927" data-name="Trazado 1057927" d="M127.816,118.06l-1.133,4.531,2.577,1.288.848-1.7-1.216-.608.764-3.055Z" transform="translate(-111.667 -104.066)"/>
        <path id="Trazado_1057928" data-name="Trazado 1057928" d="M113.048,69.165l1.7-.848-.7-1.4a1.413,1.413,0,0,1-.148-.628.393.393,0,0,1,.67-.278l1.226,1.226,1.226-1.226a.393.393,0,0,1,.67.278,1.413,1.413,0,0,1-.148.628l-.7,1.4,1.7.848.7-1.4a3.317,3.317,0,0,0,.348-1.476,2.289,2.289,0,0,0-3.793-1.726A2.289,2.289,0,0,0,112,66.289a3.32,3.32,0,0,0,.348,1.476Z" transform="translate(-98.725 -56.414)"/>
        <path id="Trazado_1057929" data-name="Trazado 1057929" d="M82.567,63.084a2.274,2.274,0,0,1-.671-1.619V61.3a2.274,2.274,0,0,1,.671-1.619l-1.341-1.341A4.158,4.158,0,0,0,80,61.3v.163a4.158,4.158,0,0,0,1.226,2.96Z" transform="translate(-70.518 -51.428)"/>
        <path id="Trazado_1057930" data-name="Trazado 1057930" d="M186.343,63.083l1.341,1.341a4.158,4.158,0,0,0,1.226-2.96V61.3a4.158,4.158,0,0,0-1.226-2.96l-1.341,1.341a2.274,2.274,0,0,1,.671,1.619v.163A2.274,2.274,0,0,1,186.343,63.083Z" transform="translate(-164.256 -51.427)"/>
        <path id="Trazado_1057931" data-name="Trazado 1057931" d="M304,240h1.9v1.9H304Z" transform="translate(-267.967 -211.553)"/>
        <path id="Trazado_1057932" data-name="Trazado 1057932" d="M304,272h1.9v1.9H304Z" transform="translate(-267.967 -239.76)"/>
        <path id="Trazado_1057933" data-name="Trazado 1057933" d="M304,304h1.9v1.9H304Z" transform="translate(-267.967 -267.967)"/>
        <path id="Trazado_1057934" data-name="Trazado 1057934" d="M224,464h19.913v1.9H224Z" transform="translate(-197.449 -409.002)"/>
        <path id="Trazado_1057935" data-name="Trazado 1057935" d="M37.6,51.205l3.88-8.73a2.828,2.828,0,0,0,.245-1.155V19.913a4.741,4.741,0,1,0-9.482,0V32.164a19.322,19.322,0,0,0-5.862-2.908,6.042,6.042,0,0,0,.56-.976l.708.708.642-.962a12.2,12.2,0,0,0,2.056-6.79v-.9a15.959,15.959,0,0,1,1.146-5.952A10.49,10.49,0,0,0,21.751,0,12.248,12.248,0,0,0,17.87.63l-.8.267-.8-.267A12.251,12.251,0,0,0,12.386,0,10.49,10.49,0,0,0,2.647,14.385a15.96,15.96,0,0,1,1.146,5.952v.9a12.2,12.2,0,0,0,2.056,6.79l.642.962L7.2,28.28a6.007,6.007,0,0,0,.7,1.161A11.612,11.612,0,0,0,0,40.444v7.916a4.748,4.748,0,0,0,3.932,4.671A2.849,2.849,0,0,0,6.638,55h.948v1.9a1.9,1.9,0,0,0,1.9,1.9H22.758a1.9,1.9,0,0,0,1.9-1.9V39.826a1.9,1.9,0,0,0-1.9-1.9h-1.9a1.9,1.9,0,0,0-1.351-1.816l.637-1.274,1.211.606,1.97-4.924a17.421,17.421,0,0,1,8.663,3.852l.249.207v6.246L28.447,39.2v-.878a4.158,4.158,0,0,0-1.226-2.96L25.88,36.7a2.274,2.274,0,0,1,.671,1.619V49.309h1.9V41.265l4.323,1.853,3.595,8.088H26.551v1.9H46.464v-1.9ZM27.3,25.963,26.136,24.8l-.763,2.289a4.158,4.158,0,0,1-1.059,1.677,19.249,19.249,0,0,0-2.505-.291v-1.3a8.435,8.435,0,0,0,4.64-6.305h.1a3.769,3.769,0,0,0,1.9-.51v.884A10.307,10.307,0,0,1,27.3,25.963Zm-.753-10.791a1.9,1.9,0,0,1,0,3.793ZM12.386,1.9a10.358,10.358,0,0,1,3.281.532l1.4.467,1.4-.467A10.358,10.358,0,0,1,21.751,1.9a8.593,8.593,0,0,1,7.978,11.785q-.176.441-.328.889a3.79,3.79,0,0,0-2.235-1.244,4.255,4.255,0,0,0,1.281-3.057A4.3,4.3,0,0,0,28,8.355l-.6-1.193-1.7.848L26.3,9.2a2.382,2.382,0,0,1-1.065,3.2l-.579.29v6.859a6.563,6.563,0,0,1-4.145,6.122l-.6.238v2.9l-2.845,1.422L14.224,28.81v-2.9l-.6-.238a6.563,6.563,0,0,1-4.145-6.122V12.689L8.9,12.4A2.382,2.382,0,0,1,7.837,9.2l.6-1.193-1.7-.848-.6,1.193a4.3,4.3,0,0,0-.452,1.914,4.255,4.255,0,0,0,1.281,3.057A3.79,3.79,0,0,0,4.736,14.57q-.152-.448-.328-.889A8.593,8.593,0,0,1,12.386,1.9Zm1.387,30.931-.961-2.4.309-.048L15.9,31.766ZM5.689,17.068a1.9,1.9,0,0,1,1.9-1.9v3.793A1.9,1.9,0,0,1,5.689,17.068Zm1.143,8.895a10.307,10.307,0,0,1-1.143-4.728v-.884a3.768,3.768,0,0,0,1.9.51h.1a8.435,8.435,0,0,0,4.64,6.305v1.415l-2.313.356a4.14,4.14,0,0,1-1.251-1.854L8,24.8ZM1.9,48.361V40.444a9.667,9.667,0,0,1,8.241-9.607l.75-.115,1.889,4.724,1.212-.606.6,1.193h-1.31a1.9,1.9,0,0,0-1.9,1.9h-1.9a1.9,1.9,0,0,0-1.9,1.9v3.793H6.638a2.848,2.848,0,0,0-2.845,2.845v4.578A2.849,2.849,0,0,1,1.9,48.361ZM18.965,37.93v1.9H13.275v-1.9ZM5.689,52.154V46.464a.949.949,0,0,1,.948-.948h.948v1.9h2.845a.949.949,0,0,1,.948.948v3.793a.949.949,0,0,1-.948.948H6.638A.949.949,0,0,1,5.689,52.154ZM22.758,39.826V56.895H9.482V55h.948a2.848,2.848,0,0,0,2.845-2.845V48.361a2.848,2.848,0,0,0-2.845-2.845H9.482V39.826h1.9a1.9,1.9,0,0,0,1.9,1.9h5.689a1.9,1.9,0,0,0,1.9-1.9Zm-5.327-3.793h-.724l-1.021-2.041,1.383-.692,1.383.692Zm2.933-3.206-2.123-1.062,2.84-1.42.274.005Zm19.463-6.277V39.826H34.137V26.551Zm-5.689-1.9v-1.9h5.689v1.9Zm5.6,17.068-.843,1.9H35.069l-.843-1.9Zm-1.686,3.793-1.07,2.407-1.07-2.407Zm-1.07-28.447a2.848,2.848,0,0,1,2.845,2.845v.948H34.137v-.948A2.848,2.848,0,0,1,36.982,17.068Z" transform="translate(0 0)"/>
      </g>
    </g>
  </g>
</svg>
