<svg xmlns="http://www.w3.org/2000/svg" xmlns:xlink="http://www.w3.org/1999/xlink" width="108" height="108" viewBox="0 0 108 108">
  <defs>
    <filter id="Trazado_904820" x="0" y="0" width="108" height="108" filterUnits="userSpaceOnUse">
      <feOffset dy="3" input="SourceAlpha"/>
      <feGaussianBlur stdDeviation="3" result="blur"/>
      <feFlood flood-opacity="0.161"/>
      <feComposite operator="in" in2="blur"/>
      <feComposite in="SourceGraphic"/>
    </filter>
    <clipPath id="clip-path">
      <path id="path9540" d="M0-682.665H57.855v57.855H0Z" transform="translate(0 682.665)"/>
    </clipPath>
  </defs>
  <g id="Grupo_1225997" data-name="Grupo 1225997" transform="translate(-166.232 -3941)">
    <g id="Grupo_1225645" data-name="Grupo 1225645" transform="translate(175.232 3947)">
      <g id="Grupo_1207936" data-name="Grupo 1207936" transform="translate(0 0)">
        <g id="Grupo_1201662" data-name="Grupo 1201662">
          <g id="Grupo_1173585" data-name="Grupo 1173585">
            <g id="Grupo_1173428" data-name="Grupo 1173428">
              <g id="Grupo_1171958" data-name="Grupo 1171958">
                <g id="Grupo_1167341" data-name="Grupo 1167341">
                  <g id="Grupo_1166792" data-name="Grupo 1166792">
                    <g transform="matrix(1, 0, 0, 1, -9, -6)" filter="url(#Trazado_904820)">
                      <g id="Trazado_904820-2" data-name="Trazado 904820" transform="translate(9 6)" fill="#edf3fc">
                        <path d="M 44.99999618530273 88.49999237060547 C 39.12687301635742 88.49999237060547 33.43022155761719 87.35006713867188 28.06829643249512 85.08216857910156 C 22.88852119445801 82.89130401611328 18.23629570007324 79.75457763671875 14.24084663391113 75.75914001464844 C 10.24540901184082 71.76369476318359 7.108683586120605 67.11146545410156 4.917821407318115 61.93169403076172 C 2.649921178817749 56.56976699829102 1.499996185302734 50.87311553955078 1.499996185302734 44.99999237060547 C 1.499996185302734 39.12686920166016 2.649921178817749 33.43021774291992 4.917821407318115 28.06829261779785 C 7.108683586120605 22.88851737976074 10.24540901184082 18.23630523681641 14.24084663391113 14.24085521697998 C 18.23629570007324 10.24540519714355 22.88852119445801 7.108692169189453 28.06829643249512 4.917829990386963 C 33.43022155761719 2.649929761886597 39.12687301635742 1.500004887580872 44.99999618530273 1.500004887580872 C 50.87311935424805 1.500004887580872 56.56977081298828 2.649929761886597 61.93169784545898 4.917829990386963 C 67.11147308349609 7.108692169189453 71.76369476318359 10.24540519714355 75.75914764404297 14.24085521697998 C 79.75458526611328 18.23630523681641 82.89131164550781 22.88851737976074 85.08216857910156 28.06829261779785 C 87.35007476806641 33.43021774291992 88.5 39.12686920166016 88.5 44.99999237060547 C 88.5 50.87311553955078 87.35007476806641 56.56976699829102 85.08216857910156 61.93169403076172 C 82.89131164550781 67.11146545410156 79.75458526611328 71.76369476318359 75.75914764404297 75.75914001464844 C 71.76369476318359 79.75457763671875 67.11147308349609 82.89130401611328 61.93169784545898 85.08216857910156 C 56.56977081298828 87.35006713867188 50.87311935424805 88.49999237060547 44.99999618530273 88.49999237060547 Z" stroke="none"/>
                        <path d="M 44.99999618530273 2.999992370605469 C 39.32870864868164 2.999992370605469 33.82865142822266 4.11004638671875 28.65262603759766 6.299331665039062 C 23.65165710449219 8.414566040039062 19.15968322753906 11.44333648681641 15.301513671875 15.30150604248047 C 11.44333648681641 19.15967559814453 8.414566040039062 23.65164947509766 6.299339294433594 28.65262222290039 C 4.110054016113281 33.82864761352539 2.999992370605469 39.32870483398438 2.999992370605469 44.99999237060547 C 2.999992370605469 50.67127990722656 4.110054016113281 56.17132186889648 6.299339294433594 61.34736633300781 C 8.414566040039062 66.34833526611328 11.44333648681641 70.84029388427734 15.301513671875 74.69846343994141 C 19.15968322753906 78.55663299560547 23.65165710449219 81.58540344238281 28.65262603759766 83.70063781738281 C 33.82865142822266 85.88992309570312 39.32870864868164 86.99997711181641 44.99999618530273 86.99997711181641 C 50.67128372192383 86.99997711181641 56.17134094238281 85.88992309570312 61.34736633300781 83.70063781738281 C 66.34834289550781 81.58540344238281 70.84030914306641 78.55663299560547 74.69847869873047 74.69846343994141 C 78.55665588378906 70.84029388427734 81.58542633056641 66.34833526611328 83.70065307617188 61.34736633300781 C 85.88993835449219 56.17132186889648 87 50.67127990722656 87 44.99999237060547 C 87 39.32870483398438 85.88993835449219 33.82864761352539 83.70065307617188 28.65262222290039 C 81.58542633056641 23.65164947509766 78.55665588378906 19.15967559814453 74.69847869873047 15.30150604248047 C 70.84030914306641 11.44333648681641 66.34834289550781 8.414566040039062 61.34736633300781 6.299331665039062 C 56.17134094238281 4.11004638671875 50.67128372192383 2.999992370605469 44.99999618530273 2.999992370605469 M 44.99999618530273 -7.62939453125e-06 C 69.85281372070312 -7.62939453125e-06 90 20.14717864990234 90 44.99999237060547 C 90 69.85279083251953 69.85281372070312 89.99997711181641 44.99999618530273 89.99997711181641 C 20.14717864990234 89.99997711181641 -7.62939453125e-06 69.85279083251953 -7.62939453125e-06 44.99999237060547 C -7.62939453125e-06 20.14717864990234 20.14717864990234 -7.62939453125e-06 44.99999618530273 -7.62939453125e-06 Z" stroke="none" fill="#2f4f7e"/>
                      </g>
                    </g>
                  </g>
                </g>
              </g>
            </g>
          </g>
        </g>
      </g>
    </g>
    <g id="g9534" transform="translate(191.305 4645.738)">
      <g id="g9536" transform="translate(0 -682.665)">
        <g id="g9538" transform="translate(0 0)" clip-path="url(#clip-path)">
          <g id="g9544" transform="translate(20.999 2.666)">
            <path id="path9546" d="M-30.075-567.237H-2.064a2.785,2.785,0,0,0,2.785-2.785v-46.954a2.785,2.785,0,0,0-2.785-2.785H-30.075a2.785,2.785,0,0,0-2.785,2.785v46.954a2.785,2.785,0,0,0,2.785,2.785" transform="translate(32.86 619.761)" fill="#0ed2b3"/>
          </g>
          <g id="g9548" transform="translate(48.956 2.665)">
            <path id="path9550" d="M-30.65,0h-2.838A2.785,2.785,0,0,1-30.7,2.785V49.739a2.785,2.785,0,0,1-2.785,2.785h2.838a2.785,2.785,0,0,0,2.785-2.785V2.785A2.785,2.785,0,0,0-30.65,0" transform="translate(33.488)" fill="#019a8d"/>
          </g>
          <g id="g9552" transform="translate(20.999 2.666)">
            <path id="path9554" d="M0-130.2v37.683a2.785,2.785,0,0,0,2.785,2.785H30.8a2.785,2.785,0,0,0,2.785-2.785v-46.954a2.785,2.785,0,0,0-2.785-2.785H2.785A2.785,2.785,0,0,0,0-139.468v5.882" transform="translate(0 142.253)" fill="none" stroke="#000" stroke-linecap="round" stroke-linejoin="round" stroke-miterlimit="10" stroke-width="1.5"/>
          </g>
          <path id="path9556" d="M110.82-317.726h15.723v12.143H110.82Z" transform="translate(-101.428 348.654)" fill="#596c76"/>
          <path id="path9558" d="M264.061-317.726H266.8v12.143h-2.737Z" transform="translate(-241.682 348.654)" fill="#465a61"/>
          <g id="g9560" transform="translate(9.392 30.928)">
            <path id="path9562" d="M0-62.956l6.94,3.53a2.033,2.033,0,0,0,1.843,0l6.94-3.53v-5.829H0Z" transform="translate(0 68.785)" fill="#465a61"/>
          </g>
          <path id="path9564" d="M110.82-317.726h15.723v12.143H110.82Z" transform="translate(-101.428 348.654)" fill="none" stroke="#000" stroke-linecap="round" stroke-linejoin="round" stroke-miterlimit="10" stroke-width="1.5"/>
          <g id="g9566" transform="translate(27.441 6.52)">
            <path id="path9568" d="M-223.509-84.3v5.085a7.805,7.805,0,0,1-7.805,7.805H-236.4a7.805,7.805,0,0,1-7.806-7.805V-84.3a7.8,7.8,0,0,1,7.51-7.8c.1,0,.2-.006.3-.006h5.085c.1,0,.2,0,.3.006a7.8,7.8,0,0,1,7.51,7.8" transform="translate(244.205 92.101)" fill="#f5f8f9"/>
          </g>
          <g id="g9570" transform="translate(34.454 6.52)">
            <path id="path9572" d="M-72.025-45.863h-6.669l.5-4.241c.1,0,.2-.006.3-.006h5.085c.1,0,.2,0,.3.006Z" transform="translate(78.694 50.109)" fill="#01c1fa"/>
          </g>
          <g id="g9574" transform="translate(40.627 6.526)">
            <path id="path9576" d="M-5.363-45.8l-.5-4.241" transform="translate(5.86 50.037)" fill="none" stroke="#000" stroke-linecap="round" stroke-linejoin="round" stroke-miterlimit="10" stroke-width="1.5"/>
          </g>
          <g id="g9578" transform="translate(34.454 6.526)">
            <path id="path9580" d="M-5.365,0l-.5,4.241" transform="translate(5.861)" fill="none" stroke="#000" stroke-linecap="round" stroke-linejoin="round" stroke-miterlimit="10" stroke-width="1.5"/>
          </g>
          <g id="g9582" transform="translate(32.948 10.767)">
            <path id="path9584" d="M0-12.536a1.161,1.161,0,0,0,1.161,1.161h7.36a1.161,1.161,0,0,0,1.161-1.161A1.161,1.161,0,0,0,8.521-13.7H1.161A1.161,1.161,0,0,0,0-12.536" transform="translate(0 13.697)" fill="#596c76"/>
          </g>
          <g id="g9586" transform="translate(32.948 10.767)">
            <path id="path9588" d="M0-12.536a1.161,1.161,0,0,0,1.161,1.161h7.36a1.161,1.161,0,0,0,1.161-1.161A1.161,1.161,0,0,0,8.521-13.7H1.161A1.161,1.161,0,0,0,0-12.536Z" transform="translate(0 13.697)" fill="none" stroke="#000" stroke-linecap="round" stroke-linejoin="round" stroke-miterlimit="10" stroke-width="1.5"/>
          </g>
          <g id="g9590" transform="translate(32.547 13.088)">
            <path id="path9592" d="M-105.759-23.666a4.164,4.164,0,0,1-1.781-2.191h-5.539a4.164,4.164,0,0,1-1.781,2.191,1.4,1.4,0,0,0-.423,2.033l3.973,5.42a1.24,1.24,0,0,0,2,0l3.973-5.42a1.4,1.4,0,0,0-.423-2.033" transform="translate(115.552 25.857)" fill="#fddf30"/>
          </g>
          <g id="g9594" transform="translate(32.547 13.088)">
            <path id="path9596" d="M-105.759-23.666a4.164,4.164,0,0,1-1.781-2.191h-5.539a4.164,4.164,0,0,1-1.781,2.191,1.4,1.4,0,0,0-.423,2.033l3.973,5.42a1.24,1.24,0,0,0,2,0l3.973-5.42A1.4,1.4,0,0,0-105.759-23.666Z" transform="translate(115.552 25.857)" fill="none" stroke="#000" stroke-linecap="round" stroke-linejoin="round" stroke-miterlimit="10" stroke-width="1.5"/>
          </g>
          <g id="g9598" transform="translate(37.789 17.756)">
            <path id="path9600" d="M0,0V5.483" fill="none" stroke="#000" stroke-linecap="round" stroke-linejoin="round" stroke-miterlimit="10" stroke-width="1.5"/>
          </g>
          <g id="g9602" transform="translate(36.286 15.207)">
            <path id="path9604" d="M-16.114,0a1.492,1.492,0,0,0-1.492,1.492,1.492,1.492,0,0,0,1.492,1.492,1.492,1.492,0,0,0,1.492-1.492A1.492,1.492,0,0,0-16.114,0" transform="translate(17.607)" fill="#596c76"/>
          </g>
          <g id="g9606" transform="translate(36.286 15.207)">
            <path id="path9608" d="M-16.114,0a1.492,1.492,0,0,0-1.492,1.492,1.492,1.492,0,0,0,1.492,1.492,1.492,1.492,0,0,0,1.492-1.492A1.492,1.492,0,0,0-16.114,0Z" transform="translate(17.607)" fill="none" stroke="#000" stroke-linecap="round" stroke-linejoin="round" stroke-miterlimit="10" stroke-width="1.5"/>
          </g>
          <g id="g9610" transform="translate(27.441 6.52)">
            <path id="path9612" d="M-223.509-84.3v5.085a7.805,7.805,0,0,1-7.805,7.805H-236.4a7.805,7.805,0,0,1-7.806-7.805V-84.3a7.8,7.8,0,0,1,7.51-7.8c.1,0,.2-.006.3-.006h5.085c.1,0,.2,0,.3.006A7.8,7.8,0,0,1-223.509-84.3Z" transform="translate(244.205 92.101)" fill="none" stroke="#000" stroke-linecap="round" stroke-linejoin="round" stroke-miterlimit="10" stroke-width="1.5"/>
          </g>
          <g id="g9614" transform="translate(41.59 25.801)">
            <path id="path9616" d="M-160.831-1.261c-.521-.3-1.4-.038-2.266,1-3.358,4.009-11.117,14.235-12.626,19.7l4.41,2.546c3.982-4.042,8.958-15.874,10.751-20.787.464-1.27.253-2.16-.269-2.461" transform="translate(175.724 1.378)" fill="#fe9738"/>
          </g>
          <g id="g9618" transform="translate(44.026 25.801)">
            <path id="path9620" d="M-134.52-1.255a1.078,1.078,0,0,0-.88-.046,4.466,4.466,0,0,1-.448,1.586c-2.108,4.731-7.644,16.239-11.129,20.569L-145,21.993c3.982-4.042,8.958-15.874,10.751-20.787.464-1.27.253-2.16-.269-2.461" transform="translate(146.976 1.371)" fill="#fe7701"/>
          </g>
          <g id="g9622" transform="translate(41.59 44.256)">
            <path id="path9624" d="M-9.6,0a16.45,16.45,0,0,0-.889,2.364l4.41,2.546a16.448,16.448,0,0,0,1.6-1.952Z" transform="translate(10.488)" fill="#e8edf1"/>
          </g>
          <g id="g9626" transform="translate(41.59 25.801)">
            <path id="path9628" d="M-23.084-172.756a23.626,23.626,0,0,0-2.137,4.823l4.41,2.546c3.982-4.042,8.958-15.874,10.751-20.787.464-1.27.253-2.16-.269-2.461s-1.4-.038-2.266,1a122.27,122.27,0,0,0-8.851,12.12" transform="translate(25.221 188.752)" fill="none" stroke="#000" stroke-linecap="round" stroke-linejoin="round" stroke-miterlimit="10" stroke-width="1.5"/>
          </g>
          <g id="g9630" transform="translate(44.026 45.992)">
            <path id="path9632" d="M-15.756,0c-.513.78-1,1.469-1.459,2.035l1.974,1.139a16.663,16.663,0,0,0,1.6-1.952Z" transform="translate(17.215)" fill="#c5d3dd"/>
          </g>
          <g id="g9634" transform="translate(42.479 44.256)">
            <path id="path9636" d="M-55.334-31.948l-5.124-2.958" transform="translate(60.457 34.907)" fill="none" stroke="#000" stroke-linecap="round" stroke-linejoin="round" stroke-miterlimit="10" stroke-width="1.5"/>
          </g>
          <g id="g9638" transform="translate(38.036 46.62)">
            <path id="path9640" d="M-86-27.5l-4.41-2.546a3.711,3.711,0,0,0-3.028,4.766,2.884,2.884,0,0,1-.415,3.006.394.394,0,0,0,.218.663c6.63,1.038,8.08-4.229,7.635-5.889" transform="translate(93.968 30.043)" fill="#596c76"/>
          </g>
          <g id="g9642" transform="translate(38.037 48.156)">
            <path id="path9644" d="M-86-10.907l-1.749-1.01c.116,1.427-1.59,6.221-6.209,6.448a.388.388,0,0,0,.323.451C-87-3.98-85.551-9.247-86-10.907" transform="translate(93.959 11.917)" fill="#465a61"/>
          </g>
          <g id="g9646" transform="translate(38.036 46.62)">
            <path id="path9648" d="M-86-27.5l-4.41-2.546a3.711,3.711,0,0,0-3.028,4.766,2.884,2.884,0,0,1-.415,3.006.394.394,0,0,0,.218.663C-87.009-20.57-85.559-25.836-86-27.5Z" transform="translate(93.968 30.043)" fill="none" stroke="#000" stroke-linecap="round" stroke-linejoin="round" stroke-miterlimit="10" stroke-width="1.5"/>
          </g>
          <g id="g9650" transform="translate(4.141 46.364)">
            <path id="path9652" d="M-29.873,0a2.766,2.766,0,0,0-2.766,2.766,2.766,2.766,0,0,0,2.766,2.766H-10.4V0Z" transform="translate(32.639)" fill="#e8edf1"/>
          </g>
          <g id="g9654" transform="translate(4.14 46.364)">
            <path id="path9656" d="M-31.126-29.873a2.766,2.766,0,0,1,2.766-2.766h-2.882a2.766,2.766,0,0,0-2.766,2.766,2.766,2.766,0,0,0,2.766,2.766h2.882a2.766,2.766,0,0,1-2.766-2.766" transform="translate(34.008 32.639)" fill="#c5d3dd"/>
          </g>
          <g id="g9658" transform="translate(0.847 43.071)">
            <path id="path9660" d="M-35.564-65.437A2.766,2.766,0,0,1-32.8-68.2h21.04a.527.527,0,0,0,.527-.527v-2.239a.527.527,0,0,0-.527-.527H-32.8a6.059,6.059,0,0,0-6.059,6.059A6.059,6.059,0,0,0-32.8-59.378h21.04a.527.527,0,0,0,.527-.527v-2.239a.527.527,0,0,0-.527-.527H-32.8a2.766,2.766,0,0,1-2.766-2.766" transform="translate(38.857 71.496)" fill="#01c1fa"/>
          </g>
          <g id="g9662" transform="translate(0.848 43.071)">
            <path id="path9664" d="M-151-35.564h13.117a.527.527,0,0,0,.527-.527V-38.33a.527.527,0,0,0-.527-.527H-158.92A6.059,6.059,0,0,0-164.98-32.8a6.059,6.059,0,0,0,6.059,6.059h21.039a.527.527,0,0,0,.527-.527v-2.239a.527.527,0,0,0-.527-.527H-158.92a2.766,2.766,0,0,1-2.766-2.766,2.766,2.766,0,0,1,2.766-2.766h4.533" transform="translate(164.98 38.857)" fill="none" stroke="#000" stroke-linecap="round" stroke-linejoin="round" stroke-miterlimit="10" stroke-width="1.5"/>
          </g>
          <g id="g9666" transform="translate(26.376 46.364)">
            <path id="path9668" d="M0,0V5.532" fill="none" stroke="#000" stroke-linecap="round" stroke-linejoin="round" stroke-miterlimit="10" stroke-width="1.5"/>
          </g>
          <g id="g9670" transform="translate(3.356 22.977)">
            <path id="path9672" d="M-140.138-2.385l-12.5,6.358a.869.869,0,0,0,0,1.548l12.5,6.358a2.033,2.033,0,0,0,1.843,0l12.5-6.358a.868.868,0,0,0,0-1.548l-12.5-6.358a2.034,2.034,0,0,0-1.843,0" transform="translate(153.114 2.606)" fill="#7a8d98"/>
          </g>
          <g id="g9674" transform="translate(3.356 22.977)">
            <path id="path9676" d="M-140.138-2.385l-12.5,6.358a.869.869,0,0,0,0,1.548l12.5,6.358a2.033,2.033,0,0,0,1.843,0l12.5-6.358a.868.868,0,0,0,0-1.548l-12.5-6.358A2.034,2.034,0,0,0-140.138-2.385Z" transform="translate(153.114 2.606)" fill="none" stroke="#000" stroke-linecap="round" stroke-linejoin="round" stroke-miterlimit="10" stroke-width="1.5"/>
          </g>
          <g id="g9678" transform="translate(3.521 32.086)">
            <path id="path9680" d="M-84.506,0h-6.235a1.59,1.59,0,0,0-1.59,1.59V6.871" transform="translate(92.33)" fill="none" stroke="#000" stroke-linecap="round" stroke-linejoin="round" stroke-miterlimit="10" stroke-width="1.5"/>
          </g>
          <g id="g9682" transform="translate(1.68 37.116)">
            <path id="path9684" d="M-19.884,0a1.841,1.841,0,0,1,1.841,1.841V3.479a.2.2,0,0,1-.2.2h-3.275a.2.2,0,0,1-.2-.2V1.841A1.841,1.841,0,0,1-19.884,0" transform="translate(21.725)" fill="#fddf30"/>
          </g>
          <g id="g9686" transform="translate(1.68 37.116)">
            <path id="path9688" d="M-19.884,0a1.841,1.841,0,0,1,1.841,1.841V3.479a.2.2,0,0,1-.2.2h-3.275a.2.2,0,0,1-.2-.2V1.841A1.841,1.841,0,0,1-19.884,0Z" transform="translate(21.725)" fill="none" stroke="#000" stroke-linecap="round" stroke-linejoin="round" stroke-miterlimit="10" stroke-width="1.5"/>
          </g>
        </g>
      </g>
    </g>
  </g>
</svg>
