<svg xmlns="http://www.w3.org/2000/svg" xmlns:xlink="http://www.w3.org/1999/xlink" width="108" height="108" viewBox="0 0 108 108">
  <defs>
    <filter id="Trazado_904820" x="0" y="0" width="108" height="108" filterUnits="userSpaceOnUse">
      <feOffset dy="3" input="SourceAlpha"/>
      <feGaussianBlur stdDeviation="3" result="blur"/>
      <feFlood flood-opacity="0.161"/>
      <feComposite operator="in" in2="blur"/>
      <feComposite in="SourceGraphic"/>
    </filter>
  </defs>
  <g id="Grupo_1209216" data-name="Grupo 1209216" transform="translate(9 6)">
    <g id="Grupo_1208347" data-name="Grupo 1208347" transform="translate(0 0)">
      <g id="Grupo_1207936" data-name="Grupo 1207936">
        <g id="Grupo_1201662" data-name="Grupo 1201662">
          <g id="Grupo_1173585" data-name="Grupo 1173585">
            <g id="Grupo_1173428" data-name="Grupo 1173428">
              <g id="Grupo_1171958" data-name="Grupo 1171958">
                <g id="Grupo_1167341" data-name="Grupo 1167341">
                  <g id="Grupo_1166792" data-name="Grupo 1166792">
                    <g transform="matrix(1, 0, 0, 1, -9, -6)" filter="url(#Trazado_904820)">
                      <g id="Trazado_904820-2" data-name="Trazado 904820" transform="translate(9 6)" fill="#effbfe">
                        <path d="M 44.99999618530273 88.49999237060547 C 39.12687301635742 88.49999237060547 33.43022155761719 87.35006713867188 28.06829643249512 85.08216857910156 C 22.88852119445801 82.89130401611328 18.23629570007324 79.75457763671875 14.24084663391113 75.75914001464844 C 10.24540901184082 71.76369476318359 7.108683586120605 67.11146545410156 4.917821407318115 61.93169403076172 C 2.649921178817749 56.56976699829102 1.499996185302734 50.87311553955078 1.499996185302734 44.99999237060547 C 1.499996185302734 39.12686920166016 2.649921178817749 33.43021774291992 4.917821407318115 28.06829261779785 C 7.108683586120605 22.88851737976074 10.24540901184082 18.23630523681641 14.24084663391113 14.24085521697998 C 18.23629570007324 10.24540519714355 22.88852119445801 7.108692169189453 28.06829643249512 4.917829990386963 C 33.43022155761719 2.649929761886597 39.12687301635742 1.500004887580872 44.99999618530273 1.500004887580872 C 50.87311935424805 1.500004887580872 56.56977081298828 2.649929761886597 61.93169784545898 4.917829990386963 C 67.11147308349609 7.108692169189453 71.76369476318359 10.24540519714355 75.75914764404297 14.24085521697998 C 79.75458526611328 18.23630523681641 82.89131164550781 22.88851737976074 85.08216857910156 28.06829261779785 C 87.35007476806641 33.43021774291992 88.5 39.12686920166016 88.5 44.99999237060547 C 88.5 50.87311553955078 87.35007476806641 56.56976699829102 85.08216857910156 61.93169403076172 C 82.89131164550781 67.11146545410156 79.75458526611328 71.76369476318359 75.75914764404297 75.75914001464844 C 71.76369476318359 79.75457763671875 67.11147308349609 82.89130401611328 61.93169784545898 85.08216857910156 C 56.56977081298828 87.35006713867188 50.87311935424805 88.49999237060547 44.99999618530273 88.49999237060547 Z" stroke="none"/>
                        <path d="M 44.99999618530273 2.999992370605469 C 39.32870864868164 2.999992370605469 33.82865142822266 4.11004638671875 28.65262603759766 6.299331665039062 C 23.65165710449219 8.414566040039062 19.15968322753906 11.44333648681641 15.301513671875 15.30150604248047 C 11.44333648681641 19.15967559814453 8.414566040039062 23.65164947509766 6.299339294433594 28.65262222290039 C 4.110054016113281 33.82864761352539 2.999992370605469 39.32870483398438 2.999992370605469 44.99999237060547 C 2.999992370605469 50.67127990722656 4.110054016113281 56.17132186889648 6.299339294433594 61.34736633300781 C 8.414566040039062 66.34833526611328 11.44333648681641 70.84029388427734 15.301513671875 74.69846343994141 C 19.15968322753906 78.55663299560547 23.65165710449219 81.58540344238281 28.65262603759766 83.70063781738281 C 33.82865142822266 85.88992309570312 39.32870864868164 86.99997711181641 44.99999618530273 86.99997711181641 C 50.67128372192383 86.99997711181641 56.17134094238281 85.88992309570312 61.34736633300781 83.70063781738281 C 66.34834289550781 81.58540344238281 70.84030914306641 78.55663299560547 74.69847869873047 74.69846343994141 C 78.55665588378906 70.84029388427734 81.58542633056641 66.34833526611328 83.70065307617188 61.34736633300781 C 85.88993835449219 56.17132186889648 87 50.67127990722656 87 44.99999237060547 C 87 39.32870483398438 85.88993835449219 33.82864761352539 83.70065307617188 28.65262222290039 C 81.58542633056641 23.65164947509766 78.55665588378906 19.15967559814453 74.69847869873047 15.30150604248047 C 70.84030914306641 11.44333648681641 66.34834289550781 8.414566040039062 61.34736633300781 6.299331665039062 C 56.17134094238281 4.11004638671875 50.67128372192383 2.999992370605469 44.99999618530273 2.999992370605469 M 44.99999618530273 -7.62939453125e-06 C 69.85281372070312 -7.62939453125e-06 90 20.14717864990234 90 44.99999237060547 C 90 69.85279083251953 69.85281372070312 89.99997711181641 44.99999618530273 89.99997711181641 C 20.14717864990234 89.99997711181641 -7.62939453125e-06 69.85279083251953 -7.62939453125e-06 44.99999237060547 C -7.62939453125e-06 20.14717864990234 20.14717864990234 -7.62939453125e-06 44.99999618530273 -7.62939453125e-06 Z" stroke="none" fill="#497f88"/>
                      </g>
                    </g>
                  </g>
                </g>
              </g>
            </g>
          </g>
        </g>
      </g>
    </g>
    <g id="editor_4839669" transform="translate(13.967 16.339)">
      <g id="Grupo_1225885" data-name="Grupo 1225885" transform="translate(0.929 0.929)">
        <g id="Grupo_1225866" data-name="Grupo 1225866" transform="translate(14.858 44.798)">
          <path id="Trazado_1057686" data-name="Trazado 1057686" d="M27.828,60.161H17V49.24a3.943,3.943,0,0,0,1.152,2.786L25.2,59.074a3.718,3.718,0,0,0,2.628,1.087Z" transform="translate(-17 -49.24)" fill="#fcd770"/>
        </g>
        <g id="Grupo_1225867" data-name="Grupo 1225867" transform="translate(14.858 40.86)">
          <path id="Trazado_1057687" data-name="Trazado 1057687" d="M31.858,52.429v7.429h-4.03A3.718,3.718,0,0,1,25.2,58.772l-7.048-7.048a3.94,3.94,0,0,1,5.572-5.572L30,52.429Z" transform="translate(-17 -45)" fill="#fcd770"/>
        </g>
        <g id="Grupo_1225868" data-name="Grupo 1225868" transform="translate(18.796 40.86)">
          <path id="Trazado_1057688" data-name="Trazado 1057688" d="M30.3,52.429l-6.278-6.278A3.943,3.943,0,0,0,21.24,45h3.492A5.576,5.576,0,0,1,30.3,50.572Z" transform="translate(-21.24 -45)" fill="#fcd770"/>
        </g>
        <g id="Grupo_1225869" data-name="Grupo 1225869" transform="translate(29.717 48.289)">
          <path id="Trazado_1057689" data-name="Trazado 1057689" d="M36.715,56.715v3.715H33V53h3.715Z" transform="translate(-33 -53)" fill="#ffc729"/>
        </g>
        <g id="Grupo_1225870" data-name="Grupo 1225870" transform="translate(11.144 44.575)">
          <path id="Trazado_1057690" data-name="Trazado 1057690" d="M16.715,49.223V60.144H13V49.929A.931.931,0,0,1,13.929,49h2.786Z" transform="translate(-13 -49)" fill="#aab2bd"/>
        </g>
        <g id="Grupo_1225871" data-name="Grupo 1225871" transform="translate(42.718 44.575)">
          <path id="Trazado_1057691" data-name="Trazado 1057691" d="M47,49H58.144v7.429H47Z" transform="translate(-47 -49)" fill="#e6e9ed"/>
        </g>
        <g id="Grupo_1225872" data-name="Grupo 1225872" transform="translate(33.431 52.004)">
          <path id="Trazado_1057692" data-name="Trazado 1057692" d="M59.287,57v3.715H37V57H59.287Z" transform="translate(-37 -57)" fill="#cf9e76"/>
        </g>
        <g id="Grupo_1225873" data-name="Grupo 1225873">
          <path id="Trazado_1057693" data-name="Trazado 1057693" d="M36.288,12.394v9.537a3.613,3.613,0,0,0-1.857-.5H32.574a9.29,9.29,0,0,0-9.286-9.286H15.858A9.29,9.29,0,0,0,6.572,21.43H4.715a3.721,3.721,0,0,0-2.062.622l-.418-.622a7.361,7.361,0,0,1,.2-8.441L9.153,3.814a6.892,6.892,0,0,1,9.37-1.662l1.049.706,1.049-.706a6.892,6.892,0,0,1,9.37,1.662Z" transform="translate(-1 -1)" fill="#656d78"/>
        </g>
        <g id="Grupo_1225874" data-name="Grupo 1225874" transform="translate(35.288 11.144)">
          <path id="Trazado_1057694" data-name="Trazado 1057694" d="M39,22.788V13H53.858v5.572L55.3,21.46a1.51,1.51,0,0,0,2.693,0l1.439-2.888V26H51.072l-1.857,1.857L47.358,26H39Z" transform="translate(-39 -13)" fill="#e6e9ed"/>
        </g>
        <g id="Grupo_1225875" data-name="Grupo 1225875" transform="translate(50.147 7.429)">
          <path id="Trazado_1057695" data-name="Trazado 1057695" d="M60.572,9v9.286H55V9Z" transform="translate(-55 -9)" fill="#ff826e"/>
        </g>
        <g id="Grupo_1225876" data-name="Grupo 1225876" transform="translate(50.147 3.715)">
          <path id="Trazado_1057696" data-name="Trazado 1057696" d="M55,5h5.572V8.715H55Z" transform="translate(-55 -5)" fill="#ffeaa7"/>
        </g>
        <g id="Grupo_1225877" data-name="Grupo 1225877" transform="translate(50.147 0)">
          <path id="Trazado_1057697" data-name="Trazado 1057697" d="M60.572,2.857V4.715H55V2.857A1.863,1.863,0,0,1,56.857,1h1.857A1.863,1.863,0,0,1,60.572,2.857Z" transform="translate(-55 -1)" fill="#ccd1d9"/>
        </g>
        <g id="Grupo_1225878" data-name="Grupo 1225878" transform="translate(50.147 16.716)">
          <path id="Trazado_1057698" data-name="Trazado 1057698" d="M60.572,19l-1.439,2.888a1.51,1.51,0,0,1-2.693,0L55,19Z" transform="translate(-55 -19)" fill="#ccd1d9"/>
        </g>
        <g id="Grupo_1225879" data-name="Grupo 1225879" transform="translate(33.431 39.003)">
          <path id="Trazado_1057699" data-name="Trazado 1057699" d="M40.715,44.857v1.857H37V44.857A1.863,1.863,0,0,1,38.857,43a1.871,1.871,0,0,1,1.857,1.857Z" transform="translate(-37 -43)" fill="#ccd1d9"/>
        </g>
        <g id="Grupo_1225880" data-name="Grupo 1225880" transform="translate(33.431 42.718)">
          <path id="Trazado_1057700" data-name="Trazado 1057700" d="M37,47h3.715v5.572H37Z" transform="translate(-37 -47)" fill="#ff826e"/>
        </g>
        <g id="Grupo_1225881" data-name="Grupo 1225881" transform="translate(33.431 48.289)">
          <path id="Trazado_1057701" data-name="Trazado 1057701" d="M42.572,54.857v1.857H37V53h3.715A1.863,1.863,0,0,1,42.572,54.857Z" transform="translate(-37 -53)" fill="#f0d0b4"/>
        </g>
        <g id="Grupo_1225882" data-name="Grupo 1225882" transform="translate(0 11.144)">
          <path id="Trazado_1057702" data-name="Trazado 1057702" d="M36.288,26V22.788a3.613,3.613,0,0,0-1.857-.5H32.574A9.29,9.29,0,0,0,23.287,13H15.858a9.29,9.29,0,0,0-9.286,9.286H4.715a3.715,3.715,0,1,0,0,7.429H6.572v1.857A11.141,11.141,0,0,0,17.716,42.717H21.43A11.141,11.141,0,0,0,32.574,31.573V29.716h1.857A3.714,3.714,0,0,0,38.146,26Z" transform="translate(-1 -13)" fill="#f0d0b4"/>
        </g>
        <g id="Grupo_1225883" data-name="Grupo 1225883" transform="translate(20.43 18.573)">
          <circle id="Elipse_13583" data-name="Elipse 13583" cx="5.5" cy="5.5" r="5.5" transform="translate(0.429 0.286)" fill="#75b1f2"/>
        </g>
        <g id="Grupo_1225884" data-name="Grupo 1225884" transform="translate(5.572 18.573)">
          <circle id="Elipse_13584" data-name="Elipse 13584" cx="5.5" cy="5.5" r="5.5" transform="translate(0.287 0.286)" fill="#75b1f2"/>
        </g>
      </g>
      <g id="Grupo_1225886" data-name="Grupo 1225886" transform="translate(0)">
        <path id="Trazado_1057703" data-name="Trazado 1057703" d="M11.857,26.786a.929.929,0,1,1,1.857,0v.929h1.857v-.929a2.786,2.786,0,1,0-5.572,0v.929h1.857Z" transform="translate(-0.714 -1.713)"/>
        <path id="Trazado_1057704" data-name="Trazado 1057704" d="M27.857,26.786a.929.929,0,0,1,1.857,0v.929h1.857v-.929a2.786,2.786,0,1,0-5.572,0v.929h1.857Z" transform="translate(-1.855 -1.713)"/>
        <path id="Trazado_1057705" data-name="Trazado 1057705" d="M24.288,34.868a3.828,3.828,0,0,1-7.429,0l-.028-.111-1.8.457.026.107a5.686,5.686,0,0,0,11.031,0l.028-.111-1.8-.457Z" transform="translate(-1.073 -2.48)"/>
        <path id="Trazado_1057706" data-name="Trazado 1057706" d="M13.341,6.772a2.317,2.317,0,0,1,1.979-.9l.1-1.854a4.167,4.167,0,0,0-3.582,1.655L7.194,12.013l1.5,1.1Z" transform="translate(-0.513 -0.286)"/>
        <path id="Trazado_1057707" data-name="Trazado 1057707" d="M28.028,6.773l4.649,6.339,1.5-1.1L29.526,5.675a4.173,4.173,0,0,0-3.582-1.656l.1,1.854a2.315,2.315,0,0,1,1.979.9Z" transform="translate(-1.851 -0.286)"/>
        <path id="Trazado_1057708" data-name="Trazado 1057708" d="M57.576,2.786A2.789,2.789,0,0,0,54.79,0H52.933a2.789,2.789,0,0,0-2.786,2.786v8.358H36.5L30.671,3.192a7.812,7.812,0,0,0-10.633-1.88L19.5,1.67l-.537-.358A7.81,7.81,0,0,0,8.333,3.193L1.607,12.364A8.281,8.281,0,0,0,1.353,21.8a4.64,4.64,0,0,0,3.29,7.915h.929v.929A12.082,12.082,0,0,0,16.03,42.6a4.844,4.844,0,0,0-1.02,1.978H13a1.859,1.859,0,0,0-1.857,1.857V57.576H57.576V52H55.719V44.575h-13V52H40.86v-.929A2.782,2.782,0,0,0,39,48.46V41.789a2.786,2.786,0,1,0-5.572,0v6.5H29.717v-.929a6.506,6.506,0,0,0-3.4-5.71,12.089,12.089,0,0,0,7.111-11.005v-.929h.929A4.652,4.652,0,0,0,38.909,26H44.19l2.242,2.242L48.674,26h8.9Zm-4.643-.929H54.79a.93.93,0,0,1,.929.929v.929H52V2.786A.93.93,0,0,1,52.933,1.857ZM52,16.716V9.286h3.715v7.429Zm3.141,1.857-.77,1.54a.594.594,0,0,1-1.026,0l-.771-1.54ZM52,7.429V5.572h3.715V7.429ZM33.431,24.661V22.287h.929a2.773,2.773,0,0,1,.929.18v1.677A3.676,3.676,0,0,0,33.431,24.661ZM12.072,20.43a4.643,4.643,0,1,1-4.643,4.643A4.648,4.648,0,0,1,12.072,20.43Zm4.073-.416a6.483,6.483,0,0,0-8.669.467A8.368,8.368,0,0,1,15.787,13h7.429a8.368,8.368,0,0,1,8.31,7.48,6.481,6.481,0,0,0-8.668-.467,4.629,4.629,0,0,0-6.713,0Zm10.785.416a4.643,4.643,0,1,1-4.643,4.643A4.648,4.648,0,0,1,26.931,20.43ZM24.371,1.857a5.971,5.971,0,0,1,4.8,2.433l6.116,8.34v7.9a4.642,4.642,0,0,0-.929-.1h-.976a10.225,10.225,0,0,0-10.168-9.286H20.43V3.283l.639-.426a5.945,5.945,0,0,1,3.3-1ZM3.1,13.463,9.831,4.291a5.953,5.953,0,0,1,8.1-1.434l.638.425v7.861H15.787A10.225,10.225,0,0,0,5.619,20.43H4.643a4.614,4.614,0,0,0-1.742.345,6.423,6.423,0,0,1,.2-7.313Zm1.539,14.4a2.786,2.786,0,1,1,0-5.572h.929v2.374a3.676,3.676,0,0,0-1.857-.516V26a1.859,1.859,0,0,1,1.857,1.857ZM14.858,55.719H13V46.432h1.857ZM16.716,49.6l6.116,6.116H16.716Zm7.926,5.3L17.6,47.858A3.011,3.011,0,0,1,21.856,43.6l5.619,5.619-1.2,1.2,1.313,1.313,1.585-1.585h.544v5.572h-3.1A2.768,2.768,0,0,1,24.642,54.9Zm31.077.816H35.288V53.861h20.43Zm-1.857-9.286v1.857H44.575V46.432Zm-9.286,3.715h9.286V52H44.575ZM35.288,52V50.147h2.786a.929.929,0,0,1,.929.929V52Zm.929-11.144a.929.929,0,0,1,.929.929v.929H35.288v-.929A.929.929,0,0,1,36.217,40.86Zm-.929,3.715h1.857v3.715H35.288ZM33.431,55.719H31.574V50.147h1.857Zm-5.615-8.786L23.643,42.76A4.62,4.62,0,0,1,27.816,46.933ZM21.359,40.86H17.644A10.227,10.227,0,0,1,7.429,30.645V29.613a6.494,6.494,0,0,0,9.992-8.225,2.737,2.737,0,0,1,4.16,0,6.494,6.494,0,0,0,9.992,8.225v1.032A10.227,10.227,0,0,1,21.359,40.86Zm13-13h-.929A1.859,1.859,0,0,1,35.288,26h1.686A2.782,2.782,0,0,1,34.36,27.859Zm21.359-3.715H47.9l-1.473,1.473-1.473-1.473H37.146V13h13v4.862l1.54,3.08a2.433,2.433,0,0,0,4.032.483Z" transform="translate(0)"/>
        <path id="Trazado_1057709" data-name="Trazado 1057709" d="M42,16h1.857v1.857H42Z" transform="translate(-2.997 -1.142)"/>
        <path id="Trazado_1057710" data-name="Trazado 1057710" d="M46,16h5.572v1.857H46Z" transform="translate(-3.282 -1.142)"/>
        <path id="Trazado_1057711" data-name="Trazado 1057711" d="M42,20h9.286v1.857H42Z" transform="translate(-2.997 -1.427)"/>
        <circle id="Elipse_13585" data-name="Elipse 13585" cx="1" cy="1" r="1" transform="translate(45.788 31.788)"/>
        <circle id="Elipse_13586" data-name="Elipse 13586" cx="1" cy="1" r="1" transform="translate(48.788 31.788)"/>
        <circle id="Elipse_13587" data-name="Elipse 13587" cx="1" cy="1" r="1" transform="translate(41.788 31.788)"/>
      </g>
    </g>
  </g>
</svg>
