<svg xmlns="http://www.w3.org/2000/svg" xmlns:xlink="http://www.w3.org/1999/xlink" width="113" height="113" viewBox="0 0 113 113">
  <defs>
    <filter id="Trazado_982547" x="0" y="0" width="113" height="113" filterUnits="userSpaceOnUse">
      <feOffset dy="3" input="SourceAlpha"/>
      <feGaussianBlur stdDeviation="3" result="blur"/>
      <feFlood flood-opacity="0.161"/>
      <feComposite operator="in" in2="blur"/>
      <feComposite in="SourceGraphic"/>
    </filter>
  </defs>
  <g id="Grupo_1225894" data-name="Grupo 1225894" transform="translate(-1216.232 -1320.375)">
    <g id="Grupo_1225639" data-name="Grupo 1225639" transform="translate(0 -3370.384)">
      <g id="Grupo_1225179" data-name="Grupo 1225179" transform="translate(0 -50.236)">
        <g id="Grupo_1224650" data-name="Grupo 1224650" transform="translate(0 1927)">
          <g id="Grupo_1224294" data-name="Grupo 1224294" transform="translate(0.723 859.245)">
            <g id="Grupo_1224094" data-name="Grupo 1224094" transform="translate(541.51 -2620.317)">
              <g id="Grupo_1223184" data-name="Grupo 1223184" transform="translate(683 4581.069)">
                <g id="Grupo_1211216" data-name="Grupo 1211216" transform="translate(0)">
                  <g id="Grupo_1210737" data-name="Grupo 1210737">
                    <g id="Grupo_1210537" data-name="Grupo 1210537">
                      <g id="Grupo_1164202" data-name="Grupo 1164202">
                        <g id="Grupo_1158168" data-name="Grupo 1158168">
                          <g id="Grupo_1152576" data-name="Grupo 1152576">
                            <g id="Grupo_1148633" data-name="Grupo 1148633">
                              <g id="Grupo_1148525" data-name="Grupo 1148525">
                                <g transform="matrix(1, 0, 0, 1, -9, -6)" filter="url(#Trazado_982547)">
                                  <g id="Trazado_982547-2" data-name="Trazado 982547" transform="translate(9 6)" fill="#fdfbec">
                                    <path d="M 47.49999618530273 93.5 C 41.28936767578125 93.5 35.26533126831055 92.28396606445312 29.59518241882324 89.88570404052734 C 24.11771583557129 87.56893157958984 19.19812965393066 84.251953125 14.97308921813965 80.02690124511719 C 10.74803638458252 75.80186462402344 7.431062698364258 70.88227844238281 5.114289283752441 65.40480804443359 C 2.716022968292236 59.73466110229492 1.499996185302734 53.71062469482422 1.499996185302734 47.49999618530273 C 1.499996185302734 41.28936767578125 2.716022968292236 35.26533126831055 5.114289283752441 29.59518241882324 C 7.431062698364258 24.11771583557129 10.74803638458252 19.19812965393066 14.97308921813965 14.97308921813965 C 19.19812965393066 10.74803638458252 24.11771583557129 7.431062698364258 29.59518241882324 5.114289283752441 C 35.26533126831055 2.716022968292236 41.28936767578125 1.499996185302734 47.49999618530273 1.499996185302734 C 53.71062469482422 1.499996185302734 59.73466110229492 2.716022968292236 65.40480804443359 5.114289283752441 C 70.88227844238281 7.431062698364258 75.80186462402344 10.74803638458252 80.02690124511719 14.97308921813965 C 84.251953125 19.19812965393066 87.56893157958984 24.11771583557129 89.88570404052734 29.59518241882324 C 92.28396606445312 35.26533126831055 93.5 41.28936767578125 93.5 47.49999618530273 C 93.5 53.71062469482422 92.28396606445312 59.73466110229492 89.88570404052734 65.40480804443359 C 87.56893157958984 70.88227844238281 84.251953125 75.80186462402344 80.02690124511719 80.02690124511719 C 75.80186462402344 84.251953125 70.88227844238281 87.56893157958984 65.40480804443359 89.88570404052734 C 59.73466110229492 92.28396606445312 53.71062469482422 93.5 47.49999618530273 93.5 Z" stroke="none"/>
                                    <path d="M 47.49999618530273 2.999992370605469 C 41.4912109375 2.999992370605469 35.66376495361328 4.1761474609375 30.17950439453125 6.495796203613281 C 24.88084411621094 8.736953735351562 20.12152099609375 11.94598388671875 16.03375244140625 16.03375244140625 C 11.94598388671875 20.12152099609375 8.736953735351562 24.88084411621094 6.495796203613281 30.17950439453125 C 4.1761474609375 35.66376495361328 2.999992370605469 41.4912109375 2.999992370605469 47.49999618530273 C 2.999992370605469 53.50878143310547 4.1761474609375 59.33622741699219 6.495796203613281 64.82048797607422 C 8.736953735351562 70.11914825439453 11.94598388671875 74.87847137451172 16.03375244140625 78.96623992919922 C 20.12152099609375 83.05400848388672 24.88084411621094 86.26304626464844 30.17950439453125 88.50419616699219 C 35.66376495361328 90.82384490966797 41.4912109375 92 47.49999618530273 92 C 53.50878143310547 92 59.33622741699219 90.82384490966797 64.82048797607422 88.50419616699219 C 70.11914825439453 86.26304626464844 74.87847137451172 83.05400848388672 78.96623992919922 78.96623992919922 C 83.05400848388672 74.87847137451172 86.26304626464844 70.11914825439453 88.50419616699219 64.82048797607422 C 90.82384490966797 59.33622741699219 92 53.50878143310547 92 47.49999618530273 C 92 41.4912109375 90.82384490966797 35.66376495361328 88.50419616699219 30.17950439453125 C 86.26304626464844 24.88084411621094 83.05400848388672 20.12152099609375 78.96623992919922 16.03375244140625 C 74.87847137451172 11.94598388671875 70.11914825439453 8.736953735351562 64.82048797607422 6.495796203613281 C 59.33622741699219 4.1761474609375 53.50878143310547 2.999992370605469 47.49999618530273 2.999992370605469 M 47.49999618530273 -7.62939453125e-06 C 73.7335205078125 -7.62939453125e-06 95 21.26647186279297 95 47.49999618530273 C 95 73.7335205078125 73.7335205078125 95 47.49999618530273 95 C 21.26647186279297 95 -7.62939453125e-06 73.7335205078125 -7.62939453125e-06 47.49999618530273 C -7.62939453125e-06 21.26647186279297 21.26647186279297 -7.62939453125e-06 47.49999618530273 -7.62939453125e-06 Z" stroke="none" fill="#83793c"/>
                                  </g>
                                </g>
                              </g>
                            </g>
                          </g>
                        </g>
                      </g>
                    </g>
                  </g>
                </g>
              </g>
            </g>
          </g>
        </g>
      </g>
    </g>
    <g id="employee_3041287" transform="translate(1243.55 1340.317)">
      <path id="Trazado_1057783" data-name="Trazado 1057783" d="M31.693,37l10.295,2.746a15.464,15.464,0,0,1,11.48,14.942v7.056H2V54.688A15.464,15.464,0,0,1,13.48,39.746L23.775,37" transform="translate(-0.01 -0.368)" fill="#e7e4dd"/>
      <path id="Trazado_1057784" data-name="Trazado 1057784" d="M54.826,20,38,36.826l4.949,4.949L59.775,24.949" transform="translate(-0.379 -0.194)" fill="#78b75b"/>
      <path id="Trazado_1057785" data-name="Trazado 1057785" d="M37.959,37,34,45.908l8.908-3.959" transform="translate(-0.338 -0.368)" fill="#efbe9a"/>
      <path id="Trazado_1057786" data-name="Trazado 1057786" d="M39.481,43.507l-3.045-3.045L34,45.943Z" transform="translate(-0.338 -0.404)" fill="#606060"/>
      <path id="Trazado_1057787" data-name="Trazado 1057787" d="M24,32v4.949l3.959,1.98,3.959-1.98V32" transform="translate(-0.235 -0.317)" fill="#fadfb2"/>
      <path id="Trazado_1057788" data-name="Trazado 1057788" d="M43.673,61.867V50.98A1.979,1.979,0,0,0,41.693,49H13.98A1.979,1.979,0,0,0,12,50.98V61.867" transform="translate(-0.113 -0.491)" fill="#cbc3b6"/>
      <path id="Trazado_1057789" data-name="Trazado 1057789" d="M25,48.959,25.99,45h3.959l.99,3.959Z" transform="translate(-0.246 -0.45)" fill="#c1c8d1"/>
      <path id="Trazado_1057790" data-name="Trazado 1057790" d="M31.018,37.455l.9,4.5-1.98,2.969H25.98L24,41.953l.9-4.5,3.059,1.529Z" transform="translate(-0.235 -0.373)" fill="#8892a0"/>
      <path id="Trazado_1057791" data-name="Trazado 1057791" d="M36.786,17.836V16.249A5.938,5.938,0,0,0,33.9,11.157L31.836,9.918l-.642.642a7.946,7.946,0,0,1-5.618,2.327,7.945,7.945,0,0,0-4.767,1.589l-1.84,1.381v1.8l-2.424-4.87a5.2,5.2,0,0,1,.488-5.43,13.293,13.293,0,0,1,21.75.606,5.754,5.754,0,0,1,.207,6.023L36.8,17.836Z" transform="translate(-0.154 -0.01)" fill="#c18e59"/>
      <g id="Grupo_1225892" data-name="Grupo 1225892" transform="translate(14.857 9.908)">
        <path id="Trazado_1057792" data-name="Trazado 1057792" d="M36.818,23.278l0-6.947a5.938,5.938,0,0,0-2.883-5.091L31.867,10l-.642.642a7.946,7.946,0,0,1-5.618,2.327,7.945,7.945,0,0,0-4.767,1.589L19,15.939v7.325a9.9,9.9,0,0,0,3.456,7.515l1.966,1.685a5.365,5.365,0,0,0,6.969.01l1.948-1.659a9.9,9.9,0,0,0,3.479-7.537Z" transform="translate(-15.041 -10)" fill="#fadfb2"/>
        <path id="Trazado_1057793" data-name="Trazado 1057793" d="M37,18h1.98a1.98,1.98,0,1,1,0,3.959H37" transform="translate(-15.225 -10.082)" fill="#fadfb2"/>
        <path id="Trazado_1057794" data-name="Trazado 1057794" d="M18.959,18H16.98a1.98,1.98,0,1,0,0,3.959h1.98" transform="translate(-15 -10.082)" fill="#fadfb2"/>
      </g>
      <path id="Trazado_1057795" data-name="Trazado 1057795" d="M24,61.959a3.959,3.959,0,0,1,7.918,0" transform="translate(-0.235 -0.583)" fill="#d5cec2"/>
      <path id="Trazado_1057796" data-name="Trazado 1057796" d="M59.659,18.7l1.57,1.57a2.39,2.39,0,0,1,0,3.379l-1.28,1.28L55,19.98l1.28-1.28a2.39,2.39,0,0,1,3.379,0Z" transform="translate(-0.553 -0.174)" fill="#d5cec2"/>
      <g id="Grupo_1225893" data-name="Grupo 1225893" transform="translate(39.389 21.583)">
        <path id="Trazado_1057797" data-name="Trazado 1057797" d="M0,0H23.795V1.98H0Z" transform="translate(0 16.823) rotate(-45)" fill="#243242"/>
      </g>
      <path id="Trazado_1057798" data-name="Trazado 1057798" d="M24.9,37.455l-.9,4.5,1.98,2.969h1.334a10.747,10.747,0,0,0,2.443-6.837l-1.8.9Z" transform="translate(-0.235 -0.373)" fill="#a8b0bc"/>
      <path id="Trazado_1057799" data-name="Trazado 1057799" d="M61.376,19.395l-1.57-1.569a3.464,3.464,0,0,0-4.78,0l-1.279,1.28L36.922,35.932a.977.977,0,0,0-.2.3l0,0-.286.643-3.759-1V32.435l1.123-.957a10.868,10.868,0,0,0,3.828-8.29v-.411h.987a2.97,2.97,0,0,0,0-5.941h-.265L39.7,14.462A6.706,6.706,0,0,0,39.454,7.4a14.284,14.284,0,0,0-23.369-.65,6.161,6.161,0,0,0-.581,6.463l1.8,3.621h-.471a2.969,2.969,0,1,0,0,5.939h.99v.4a10.879,10.879,0,0,0,3.8,8.268l1.147.982v3.45l-9.56,2.55A16.454,16.454,0,0,0,1,54.319v7.057a.989.989,0,0,0,.99.99H53.457a.989.989,0,0,0,.99-.99V54.319a16.359,16.359,0,0,0-8.717-14.5L60.1,25.454l1.28-1.28a3.38,3.38,0,0,0,0-4.78Zm-6.928,1.81,1.074,1.074L40.1,37.705l-1.075-1.074ZM36.418,41.776l1.008,1.008-1.813.806Zm2.946.145-2.084-2.084.661-1.488,2.911,2.911ZM41.5,39.106,56.922,23.679,58,24.754,42.57,40.18Zm1.074,21.28h-10a4.948,4.948,0,0,0-9.7,0h-10v-9.9a.99.99,0,0,1,.99-.99H41.58a.99.99,0,0,1,.99.99v9.9Zm-12.059,0H24.936a2.951,2.951,0,0,1,5.573,0ZM24.754,33.892a6.2,6.2,0,0,0,5.938.006V36.02L27.723,37.5,24.753,36.02V33.892Zm1.267,13.627.495-1.98H28.93l.495,1.98Zm4.61-6.146L29.173,43.56h-2.9l-1.459-2.187.565-2.826,1.9.95a1.009,1.009,0,0,0,.443.1.994.994,0,0,0,.442-.1l1.9-.95ZM39.6,19.806a.991.991,0,0,1-.989.99h-.989v-1.98h.99A.99.99,0,0,1,39.6,19.806ZM17.672,7.935A12.3,12.3,0,0,1,37.8,8.5a4.737,4.737,0,0,1,.17,4.986l-.58,1.02A6.962,6.962,0,0,0,34.257,10.3L32.19,9.06a.994.994,0,0,0-1.209.148l-.642.642a6.9,6.9,0,0,1-4.916,2.037,8.989,8.989,0,0,0-5.361,1.787L18.52,14.83l-1.243-2.5a4.192,4.192,0,0,1,.395-4.4ZM16.836,20.8a.99.99,0,1,1,0-1.98h.99V20.8Zm2.969,2.375V16.341l1.444-1.084a7,7,0,0,1,4.173-1.391,8.874,8.874,0,0,0,6.317-2.617l.1-.1,1.4.842a4.97,4.97,0,0,1,2.4,4.242l0,6.947a8.894,8.894,0,0,1-3.133,6.783l-1.947,1.659a4.485,4.485,0,0,1-5.683-.009l-1.966-1.684a8.9,8.9,0,0,1-3.11-6.764ZM2.98,54.319A14.473,14.473,0,0,1,13.724,40.333l9.8-2.614-.733,3.668a.991.991,0,0,0,.146.743l1.737,2.605-.7,2.783H13.867A2.973,2.973,0,0,0,10.9,50.488v9.9H2.98Zm45.906-9.531a14.474,14.474,0,0,1,3.582,9.531v6.067H44.55v-9.9a2.973,2.973,0,0,0-2.969-2.969H31.465l-.7-2.784,1.737-2.605a.991.991,0,0,0,.146-.743l-.733-3.667,3.7.986-2.859,6.433a.99.99,0,0,0,1.307,1.306l8.908-3.959,0,0a.989.989,0,0,0,.3-.2l.986-.986a14.523,14.523,0,0,1,4.629,3.492ZM59.975,22.775l-.579.579-3.549-3.548.58-.58a1.434,1.434,0,0,1,1.98,0l1.569,1.57a1.4,1.4,0,0,1,0,1.98Z"/>
    </g>
  </g>
</svg>
