<svg xmlns="http://www.w3.org/2000/svg" xmlns:xlink="http://www.w3.org/1999/xlink" width="108" height="108" viewBox="0 0 108 108">
  <defs>
    <filter id="Trazado_904820" x="0" y="0" width="108" height="108" filterUnits="userSpaceOnUse">
      <feOffset dy="3" input="SourceAlpha"/>
      <feGaussianBlur stdDeviation="3" result="blur"/>
      <feFlood flood-opacity="0.161"/>
      <feComposite operator="in" in2="blur"/>
      <feComposite in="SourceGraphic"/>
    </filter>
  </defs>
  <g id="Grupo_1225725" data-name="Grupo 1225725" transform="translate(-166 -6360)">
    <g id="Grupo_1225324" data-name="Grupo 1225324" transform="translate(175 6366)">
      <g id="Grupo_1207936" data-name="Grupo 1207936" transform="translate(0 0)">
        <g id="Grupo_1201662" data-name="Grupo 1201662">
          <g id="Grupo_1173585" data-name="Grupo 1173585">
            <g id="Grupo_1173428" data-name="Grupo 1173428">
              <g id="Grupo_1171958" data-name="Grupo 1171958">
                <g id="Grupo_1167341" data-name="Grupo 1167341">
                  <g id="Grupo_1166792" data-name="Grupo 1166792">
                    <g transform="matrix(1, 0, 0, 1, -9, -6)" filter="url(#Trazado_904820)">
                      <g id="Trazado_904820-2" data-name="Trazado 904820" transform="translate(9 6)" fill="#edf3fc">
                        <path d="M 44.99999618530273 88.49999237060547 C 39.12687301635742 88.49999237060547 33.43022155761719 87.35006713867188 28.06829643249512 85.08216857910156 C 22.88852119445801 82.89130401611328 18.23629570007324 79.75457763671875 14.24084663391113 75.75914001464844 C 10.24540901184082 71.76369476318359 7.108683586120605 67.11146545410156 4.917821407318115 61.93169403076172 C 2.649921178817749 56.56976699829102 1.499996185302734 50.87311553955078 1.499996185302734 44.99999237060547 C 1.499996185302734 39.12686920166016 2.649921178817749 33.43021774291992 4.917821407318115 28.06829261779785 C 7.108683586120605 22.88851737976074 10.24540901184082 18.23630523681641 14.24084663391113 14.24085521697998 C 18.23629570007324 10.24540519714355 22.88852119445801 7.108692169189453 28.06829643249512 4.917829990386963 C 33.43022155761719 2.649929761886597 39.12687301635742 1.500004887580872 44.99999618530273 1.500004887580872 C 50.87311935424805 1.500004887580872 56.56977081298828 2.649929761886597 61.93169784545898 4.917829990386963 C 67.11147308349609 7.108692169189453 71.76369476318359 10.24540519714355 75.75914764404297 14.24085521697998 C 79.75458526611328 18.23630523681641 82.89131164550781 22.88851737976074 85.08216857910156 28.06829261779785 C 87.35007476806641 33.43021774291992 88.5 39.12686920166016 88.5 44.99999237060547 C 88.5 50.87311553955078 87.35007476806641 56.56976699829102 85.08216857910156 61.93169403076172 C 82.89131164550781 67.11146545410156 79.75458526611328 71.76369476318359 75.75914764404297 75.75914001464844 C 71.76369476318359 79.75457763671875 67.11147308349609 82.89130401611328 61.93169784545898 85.08216857910156 C 56.56977081298828 87.35006713867188 50.87311935424805 88.49999237060547 44.99999618530273 88.49999237060547 Z" stroke="none"/>
                        <path d="M 44.99999618530273 2.999992370605469 C 39.32870864868164 2.999992370605469 33.82865142822266 4.11004638671875 28.65262603759766 6.299331665039062 C 23.65165710449219 8.414566040039062 19.15968322753906 11.44333648681641 15.301513671875 15.30150604248047 C 11.44333648681641 19.15967559814453 8.414566040039062 23.65164947509766 6.299339294433594 28.65262222290039 C 4.110054016113281 33.82864761352539 2.999992370605469 39.32870483398438 2.999992370605469 44.99999237060547 C 2.999992370605469 50.67127990722656 4.110054016113281 56.17132186889648 6.299339294433594 61.34736633300781 C 8.414566040039062 66.34833526611328 11.44333648681641 70.84029388427734 15.301513671875 74.69846343994141 C 19.15968322753906 78.55663299560547 23.65165710449219 81.58540344238281 28.65262603759766 83.70063781738281 C 33.82865142822266 85.88992309570312 39.32870864868164 86.99997711181641 44.99999618530273 86.99997711181641 C 50.67128372192383 86.99997711181641 56.17134094238281 85.88992309570312 61.34736633300781 83.70063781738281 C 66.34834289550781 81.58540344238281 70.84030914306641 78.55663299560547 74.69847869873047 74.69846343994141 C 78.55665588378906 70.84029388427734 81.58542633056641 66.34833526611328 83.70065307617188 61.34736633300781 C 85.88993835449219 56.17132186889648 87 50.67127990722656 87 44.99999237060547 C 87 39.32870483398438 85.88993835449219 33.82864761352539 83.70065307617188 28.65262222290039 C 81.58542633056641 23.65164947509766 78.55665588378906 19.15967559814453 74.69847869873047 15.30150604248047 C 70.84030914306641 11.44333648681641 66.34834289550781 8.414566040039062 61.34736633300781 6.299331665039062 C 56.17134094238281 4.11004638671875 50.67128372192383 2.999992370605469 44.99999618530273 2.999992370605469 M 44.99999618530273 -7.62939453125e-06 C 69.85281372070312 -7.62939453125e-06 90 20.14717864990234 90 44.99999237060547 C 90 69.85279083251953 69.85281372070312 89.99997711181641 44.99999618530273 89.99997711181641 C 20.14717864990234 89.99997711181641 -7.62939453125e-06 69.85279083251953 -7.62939453125e-06 44.99999237060547 C -7.62939453125e-06 20.14717864990234 20.14717864990234 -7.62939453125e-06 44.99999618530273 -7.62939453125e-06 Z" stroke="none" fill="#2f4f7e"/>
                      </g>
                    </g>
                  </g>
                </g>
              </g>
            </g>
          </g>
        </g>
      </g>
    </g>
    <g id="pediatrician_5745357_1_" data-name="pediatrician_5745357 (1)" transform="translate(192.35 6382.075)">
      <path id="Trazado_1057452" data-name="Trazado 1057452" d="M135.374,188.41H152.5v13.157H135.374Z" transform="translate(-120.647 -168.226)" fill="#704444"/>
      <path id="Trazado_1057453" data-name="Trazado 1057453" d="M167.044,251.743v-2.868h-9.706v2.868a2.48,2.48,0,0,1-1.519,2.286l6.269,10.4,6.475-10.4A2.48,2.48,0,0,1,167.044,251.743Z" transform="translate(-138.902 -222.213)" fill="#fed2a4"/>
      <path id="Trazado_1057454" data-name="Trazado 1057454" d="M286.344,131.75h2.515a2.054,2.054,0,0,1,2.054,2.054,4.037,4.037,0,0,1-4.037,4.037H286.8Z" transform="translate(-255.443 -117.636)" fill="#fed2a4"/>
      <path id="Trazado_1057455" data-name="Trazado 1057455" d="M106.145,131.75H103.63a2.054,2.054,0,0,0-2.054,2.054,4.037,4.037,0,0,0,4.037,4.037h.078Z" transform="translate(-90.47 -117.636)" fill="#ffe5c2"/>
      <path id="Trazado_1057456" data-name="Trazado 1057456" d="M84.353,316.129l-.942-10.484a8.551,8.551,0,0,0-6.169-7.457l-3.882-1.109a2.49,2.49,0,0,1-.28-.1l-1.518,2.125a5.965,5.965,0,0,1-9.708,0l-1.517-2.124a2.484,2.484,0,0,1-.28.1l-3.948,1.128a8.553,8.553,0,0,0-6.161,7.363l-1.068,10.557a.115.115,0,0,0,.115.127h7.267v2.958H76.969v-2.958h7.269A.116.116,0,0,0,84.353,316.129Z" transform="translate(-43.419 -265.165)" fill="#0681af"/>
      <path id="Trazado_1057457" data-name="Trazado 1057457" d="M117.795,484.5H138.5v2.143H117.795Z" transform="translate(-104.951 -432.595)" fill="#017297"/>
      <path id="Trazado_1057458" data-name="Trazado 1057458" d="M25.458,418.214h-14.7a.117.117,0,0,1-.113-.085L7.753,408.011a.117.117,0,0,1,.113-.15H22.5Z" transform="translate(-6.694 -364.167)" fill="#fd6930"/>
      <path id="Trazado_1057459" data-name="Trazado 1057459" d="M41.732,407.861H38.059l1.249,4.372a3.011,3.011,0,0,1-2.895,3.838H29.288l.588,2.058a.117.117,0,0,0,.113.085h14.7Z" transform="translate(-25.926 -364.167)" fill="#fd5426"/>
      <path id="Trazado_1057460" data-name="Trazado 1057460" d="M47.154,394.055h-5.76a.117.117,0,0,0-.113.15l.778,2.723a.117.117,0,0,0,.113.085H48Z" transform="translate(-36.63 -351.84)" fill="#b4d2e2"/>
      <path id="Trazado_1057461" data-name="Trazado 1057461" d="M302.522,295.82h-1.505a1.851,1.851,0,0,0-1.851,1.851,3.636,3.636,0,0,0,3.636,3.636h.07Z" transform="translate(-266.892 -264.129)" fill="#ffdfcf"/>
      <path id="Trazado_1057462" data-name="Trazado 1057462" d="M452.623,295.82h-1.505l-.35,5.487h.07a3.636,3.636,0,0,0,3.636-3.636A1.85,1.85,0,0,0,452.623,295.82Z" transform="translate(-402.252 -264.129)" fill="#ffcebf"/>
      <path id="Trazado_1057463" data-name="Trazado 1057463" d="M348.635,372.354c2.271,0,4.244-2.266,5.235-4.144l-.3-.086a1.839,1.839,0,0,1-1.334-1.768v-2.127a6.368,6.368,0,0,1-7.2,0v2.127a1.839,1.839,0,0,1-1.334,1.768l-.3.087C344.391,370.088,346.364,372.354,348.635,372.354Z" transform="translate(-306.387 -325.209)" fill="#ffcebf"/>
      <path id="Trazado_1057464" data-name="Trazado 1057464" d="M299.254,401.882l-1.727-.493a5.918,5.918,0,0,1-10.47,0l-1.726.493a6.941,6.941,0,0,0-5.034,6.674v3.879h23.912a.08.08,0,0,0,.08-.08v-3.8A6.941,6.941,0,0,0,299.254,401.882Z" transform="translate(-250.043 -358.388)" fill="#fd4755"/>
      <path id="Trazado_1057465" data-name="Trazado 1057465" d="M299.253,402.969l-1.27-.363A6.937,6.937,0,0,1,300,407.5v0a3.877,3.877,0,0,1-3.877,3.877H280.3v2.143h23.912a.08.08,0,0,0,.08-.08v-3.8A6.941,6.941,0,0,0,299.253,402.969Z" transform="translate(-250.042 -359.475)" fill="#fb2b3a"/>
      <path id="Trazado_1057466" data-name="Trazado 1057466" d="M335.478,211.473l.4-5.584a4.772,4.772,0,0,0-4.76-5.112h-3.829a6.981,6.981,0,0,0-6.963,7.478l.24,3.357Z" transform="translate(-285.768 -179.268)" fill="#fd6930"/>
      <path id="Trazado_1057467" data-name="Trazado 1057467" d="M334.438,256l-4.272,1.479L325.893,256l-3.179,4.92.109,1.52a7.361,7.361,0,0,0,14.686,0l.109-1.521Z" transform="translate(-287.917 -228.575)" fill="#ffeee6"/>
      <path id="Trazado_1057468" data-name="Trazado 1057468" d="M352.744,256l-2.371.821.437.676a4.562,4.562,0,0,1,.719,2.8,7.367,7.367,0,0,1-8.312,6.773,7.361,7.361,0,0,0,12.6-4.631l.109-1.521Z" transform="translate(-306.224 -228.575)" fill="#ffdfcf"/>
      <path id="Trazado_1057469" data-name="Trazado 1057469" d="M139.4,47.188a8.585,8.585,0,0,1-8.567-8.038l-.521-8.158a9.106,9.106,0,1,1,18.176,0l-.521,8.158A8.585,8.585,0,0,1,139.4,47.188Z" transform="translate(-116.108 -19.023)" fill="#fff3de"/>
      <path id="Trazado_1057470" data-name="Trazado 1057470" d="M164.726,21.306a9.064,9.064,0,0,0-6.068,2.316,8,8,0,0,1,5.663,2.981l2.809,3.511.026.032a8.32,8.32,0,0,1,1.918,5.826l-.066,1.035a8.591,8.591,0,0,1-10.11,7.9,8.585,8.585,0,0,0,14.395-5.757l.521-8.158A9.106,9.106,0,0,0,164.726,21.306Z" transform="translate(-141.436 -19.023)" fill="#ffe5c2"/>
      <path id="Trazado_1057471" data-name="Trazado 1057471" d="M177.017,7.5a10.325,10.325,0,0,0-3.819.727,1.226,1.226,0,0,0-.6,1.77l2.051,3.419a8,8,0,0,1,6.248,3l2.809,3.511a2.349,2.349,0,0,0,1.834.882h1.722a.107.107,0,0,0,.107-.107V17.853A10.353,10.353,0,0,0,177.017,7.5Z" transform="translate(-153.728 -6.697)" fill="#855151"/>
      <path id="Trazado_1057472" data-name="Trazado 1057472" d="M126.644,28.761l-2.086-3.477a1.22,1.22,0,0,0-1.776-.357,10.337,10.337,0,0,0-4.125,8.271v2.35a.608.608,0,0,0,.608.608h1.529A2.713,2.713,0,0,0,122.3,35.7l.316-.211A9.125,9.125,0,0,0,126.6,29.1Z" transform="translate(-105.721 -22.042)" fill="#704444"/>
      <path id="Trazado_1057473" data-name="Trazado 1057473" d="M47.154,394.055h-5.76a.117.117,0,0,0-.113.15l.778,2.723a.117.117,0,0,0,.113.085H48Z" transform="translate(-36.63 -351.84)" fill="#b4d2e2"/>
      <path id="Trazado_1057474" data-name="Trazado 1057474" d="M201.489,156.513h.2a2.123,2.123,0,0,0,2.121-2.121v-1.727a.8.8,0,1,0-1.607,0v1.727a.515.515,0,0,1-.514.514h-.2a.8.8,0,0,0,0,1.607Z" transform="translate(-178.962 -135.592)"/>
      <path id="Trazado_1057475" data-name="Trazado 1057475" d="M180.622,208.6a7.453,7.453,0,0,0,6.635,0,.8.8,0,0,0-.719-1.437,5.839,5.839,0,0,1-5.2,0,.8.8,0,0,0-.719,1.437Z" transform="translate(-160.651 -184.896)"/>
      <path id="Trazado_1057476" data-name="Trazado 1057476" d="M161.653,345.145a9.775,9.775,0,0,0,6.055-2.116.8.8,0,0,0-1-1.258,8.114,8.114,0,0,1-10.182-.057.8.8,0,1,0-1.014,1.247A9.764,9.764,0,0,0,161.653,345.145Z" transform="translate(-138.363 -304.945)"/>
      <path id="Trazado_1057477" data-name="Trazado 1057477" d="M53.32,45.292A.8.8,0,1,0,52.072,46.3a6.157,6.157,0,0,1,1.37,3.865v3.075H50.447V51.089a.8.8,0,1,0-1.607,0v2.154H35.657V51.089a.8.8,0,1,0-1.607,0v2.154H31.056V50.168a6.164,6.164,0,0,1,4.452-5.9l1.131-.323a6.722,6.722,0,0,0,11.22,0l1.132.323c.154.044.307.094.457.15a.8.8,0,1,0,.561-1.506c-.189-.07-.383-.134-.577-.189l-2.029-.58a1.04,1.04,0,0,1-.751-1v-.94a8.269,8.269,0,0,0,2.33-2.26,4.446,4.446,0,0,0,4.044-4.422,2.658,2.658,0,0,0-2.415-2.643l.3-4.2a5.576,5.576,0,0,0-5.561-5.973H41.52a7.784,7.784,0,0,0-7.765,8.339l.131,1.836a2.637,2.637,0,0,0-1.232.435V20.854a4.825,4.825,0,0,0,3.618-4.685A2.863,2.863,0,0,0,34.446,13.5V11.156A11.163,11.163,0,0,0,19.173.784a2.025,2.025,0,0,0-1.112,1.077,2.009,2.009,0,0,0-1.485.384,11.074,11.074,0,0,0-4.444,8.912V13.5a2.862,2.862,0,0,0-1.83,2.667,4.824,4.824,0,0,0,3.621,4.686V25.2a.8.8,0,1,0,1.607,0v-.346a9.474,9.474,0,0,0,2.1,2.207V29.53a1.672,1.672,0,0,1-1.216,1.612l-.886.253V28.953a.8.8,0,0,0-1.607,0v2.9l-1.455.415A9.311,9.311,0,0,0,5.73,40.324l-.11,1.087H4.764a.921.921,0,0,0-.885,1.174l.087.305H1.172a.921.921,0,0,0-.885,1.174L3.177,54.183a.925.925,0,0,0,.886.668h50.1a.884.884,0,0,0,.884-.884v-3.8a7.769,7.769,0,0,0-1.728-4.877Zm-7.037-1.907a5.115,5.115,0,0,1-8.07,0,2.656,2.656,0,0,0,1.24-2.238v-.138a8.1,8.1,0,0,0,5.591,0v.138A2.655,2.655,0,0,0,46.283,43.384ZM42.248,39.9a6.581,6.581,0,0,1-6.541-6.091l-.089-1.252,2.691-4.165,3.677,1.273a.8.8,0,0,0,.526,0l3.677-1.273,2.691,4.165-.089,1.253A6.581,6.581,0,0,1,42.248,39.9Zm9.17-6.375A2.835,2.835,0,0,1,49.968,36a8.089,8.089,0,0,0,.425-2.073l.1-1.438a1.049,1.049,0,0,1,.923,1.04ZM37,24.281a6.115,6.115,0,0,1,4.521-1.968h3.829a3.969,3.969,0,0,1,3.958,4.251l-.238,3.325-1.874-2.9a.8.8,0,0,0-.938-.323l-4.01,1.388-4.01-1.388a.8.8,0,0,0-.938.323l-1.874,2.9-.068-.959A6.115,6.115,0,0,1,37,24.281Zm-3,8.2.1,1.438A8.087,8.087,0,0,0,34.529,36a2.835,2.835,0,0,1-1.451-2.472A1.049,1.049,0,0,1,34,32.485ZM30.158,31.14a1.674,1.674,0,0,1-1.212-1.61V27.065a9.475,9.475,0,0,0,2.1-2.207v6.537Zm2.567-12,.269-4.218h.422a1.252,1.252,0,0,1,1.25,1.251A3.224,3.224,0,0,1,32.725,19.136Zm-13.2-16.6a.417.417,0,0,1,.244-.257,9.555,9.555,0,0,1,13.072,8.879v2.154H31.813a1.538,1.538,0,0,1-1.207-.58L27.8,9.22a8.757,8.757,0,0,0-6.413-3.292L19.56,2.886a.417.417,0,0,1-.037-.352ZM13.74,11.156a9.48,9.48,0,0,1,3.8-7.629.4.4,0,0,1,.317-.071.425.425,0,0,1,.286.2l1.941,3.236-.008.063a8.324,8.324,0,0,1-3.633,5.824,2.321,2.321,0,0,1-1.375.531H13.74Zm-1.83,5.012a1.252,1.252,0,0,1,1.251-1.251h.424l.269,4.219a3.224,3.224,0,0,1-1.944-2.968Zm3.621,4a.807.807,0,0,0-.006-.09c-.024-.374.1,1.6-.33-5.166a4.187,4.187,0,0,0,2.52-1.062,9.932,9.932,0,0,0,3.9-6.3,7.157,7.157,0,0,1,4.929,2.668c3.141,3.926,2.817,3.521,2.843,3.553a3.135,3.135,0,0,0,2,1.112c-.014.22-.318,4.991-.332,5.195a.823.823,0,0,0-.006.087,7.781,7.781,0,0,1-15.517,0Zm7.759,8.8a9.325,9.325,0,0,0,4.049-.922V29.53a3.275,3.275,0,0,0,1.171,2.515l-1.02,1.429a5.162,5.162,0,0,1-8.4,0l-1.021-1.429A3.275,3.275,0,0,0,19.24,29.53V28.047A9.325,9.325,0,0,0,23.289,28.968ZM10.3,44.37H6.059l-.386-1.351c6.827,0,2.171,0,4.245,0Zm6.3,5.03,1.1,3.844H4.58L2.082,44.5H4.425l.232.811a.925.925,0,0,0,.886.668h5.827a.8.8,0,0,0,.641-.32c.338-.448.043-.892,0-1.159H15.2l.366,1.281a.8.8,0,1,0,1.545-.441l-.533-1.864a.8.8,0,0,0-.773-.583H11.553l-.256-.9a.8.8,0,0,0-.773-.583H7.235l.094-.926a7.712,7.712,0,0,1,5.581-6.672l2.028-.579.021-.006,1.644-.47,1.178,1.649a6.769,6.769,0,0,0,11.016,0l1.177-1.648,1.517.434a2.666,2.666,0,0,0-.021.331,4.446,4.446,0,0,0,4.045,4.422,8.268,8.268,0,0,0,2.33,2.261v.939a1.04,1.04,0,0,1-.751,1l-2.029.58a7.785,7.785,0,0,0-5.5,6.085h-3.11a.8.8,0,0,0-.8.8v1.479a.8.8,0,0,0,1.607,0v-.675h2.185v2.83H19.37l-1.224-4.285A.8.8,0,1,0,16.6,49.4Z" transform="translate(0 0)"/>
      <path id="Trazado_1057478" data-name="Trazado 1057478" d="M379.177,295.078h.185a1.992,1.992,0,0,0,1.99-1.99v-1.555a.8.8,0,0,0-1.607,0v1.555a.383.383,0,0,1-.383.383h-.185a.8.8,0,0,0,0,1.607Z" transform="translate(-337.614 -259.583)"/>
      <path id="Trazado_1057479" data-name="Trazado 1057479" d="M364.987,334.359a3.059,3.059,0,0,1-4.322,0,.8.8,0,0,0-1.136,1.136,4.668,4.668,0,0,0,6.594,0,.8.8,0,0,0-1.136-1.136Z" transform="translate(-320.578 -298.329)"/>
    </g>
  </g>
</svg>
