<svg xmlns="http://www.w3.org/2000/svg" xmlns:xlink="http://www.w3.org/1999/xlink" width="108" height="108" viewBox="0 0 108 108">
  <defs>
    <filter id="Trazado_904820" x="0" y="0" width="108" height="108" filterUnits="userSpaceOnUse">
      <feOffset dy="3" input="SourceAlpha"/>
      <feGaussianBlur stdDeviation="3" result="blur"/>
      <feFlood flood-opacity="0.161"/>
      <feComposite operator="in" in2="blur"/>
      <feComposite in="SourceGraphic"/>
    </filter>
  </defs>
  <g id="Grupo_1225825" data-name="Grupo 1225825" transform="translate(-169 -7079)">
    <g id="Grupo_1225329" data-name="Grupo 1225329" transform="translate(178 7085)">
      <g id="Grupo_1207936" data-name="Grupo 1207936" transform="translate(0 0)">
        <g id="Grupo_1201662" data-name="Grupo 1201662">
          <g id="Grupo_1173585" data-name="Grupo 1173585">
            <g id="Grupo_1173428" data-name="Grupo 1173428">
              <g id="Grupo_1171958" data-name="Grupo 1171958">
                <g id="Grupo_1167341" data-name="Grupo 1167341">
                  <g id="Grupo_1166792" data-name="Grupo 1166792">
                    <g transform="matrix(1, 0, 0, 1, -9, -6)" filter="url(#Trazado_904820)">
                      <g id="Trazado_904820-2" data-name="Trazado 904820" transform="translate(9 6)" fill="#edf3fc">
                        <path d="M 44.99999618530273 88.49999237060547 C 39.12687301635742 88.49999237060547 33.43022155761719 87.35006713867188 28.06829643249512 85.08216857910156 C 22.88852119445801 82.89130401611328 18.23629570007324 79.75457763671875 14.24084663391113 75.75914001464844 C 10.24540901184082 71.76369476318359 7.108683586120605 67.11146545410156 4.917821407318115 61.93169403076172 C 2.649921178817749 56.56976699829102 1.499996185302734 50.87311553955078 1.499996185302734 44.99999237060547 C 1.499996185302734 39.12686920166016 2.649921178817749 33.43021774291992 4.917821407318115 28.06829261779785 C 7.108683586120605 22.88851737976074 10.24540901184082 18.23630523681641 14.24084663391113 14.24085521697998 C 18.23629570007324 10.24540519714355 22.88852119445801 7.108692169189453 28.06829643249512 4.917829990386963 C 33.43022155761719 2.649929761886597 39.12687301635742 1.500004887580872 44.99999618530273 1.500004887580872 C 50.87311935424805 1.500004887580872 56.56977081298828 2.649929761886597 61.93169784545898 4.917829990386963 C 67.11147308349609 7.108692169189453 71.76369476318359 10.24540519714355 75.75914764404297 14.24085521697998 C 79.75458526611328 18.23630523681641 82.89131164550781 22.88851737976074 85.08216857910156 28.06829261779785 C 87.35007476806641 33.43021774291992 88.5 39.12686920166016 88.5 44.99999237060547 C 88.5 50.87311553955078 87.35007476806641 56.56976699829102 85.08216857910156 61.93169403076172 C 82.89131164550781 67.11146545410156 79.75458526611328 71.76369476318359 75.75914764404297 75.75914001464844 C 71.76369476318359 79.75457763671875 67.11147308349609 82.89130401611328 61.93169784545898 85.08216857910156 C 56.56977081298828 87.35006713867188 50.87311935424805 88.49999237060547 44.99999618530273 88.49999237060547 Z" stroke="none"/>
                        <path d="M 44.99999618530273 2.999992370605469 C 39.32870864868164 2.999992370605469 33.82865142822266 4.11004638671875 28.65262603759766 6.299331665039062 C 23.65165710449219 8.414566040039062 19.15968322753906 11.44333648681641 15.301513671875 15.30150604248047 C 11.44333648681641 19.15967559814453 8.414566040039062 23.65164947509766 6.299339294433594 28.65262222290039 C 4.110054016113281 33.82864761352539 2.999992370605469 39.32870483398438 2.999992370605469 44.99999237060547 C 2.999992370605469 50.67127990722656 4.110054016113281 56.17132186889648 6.299339294433594 61.34736633300781 C 8.414566040039062 66.34833526611328 11.44333648681641 70.84029388427734 15.301513671875 74.69846343994141 C 19.15968322753906 78.55663299560547 23.65165710449219 81.58540344238281 28.65262603759766 83.70063781738281 C 33.82865142822266 85.88992309570312 39.32870864868164 86.99997711181641 44.99999618530273 86.99997711181641 C 50.67128372192383 86.99997711181641 56.17134094238281 85.88992309570312 61.34736633300781 83.70063781738281 C 66.34834289550781 81.58540344238281 70.84030914306641 78.55663299560547 74.69847869873047 74.69846343994141 C 78.55665588378906 70.84029388427734 81.58542633056641 66.34833526611328 83.70065307617188 61.34736633300781 C 85.88993835449219 56.17132186889648 87 50.67127990722656 87 44.99999237060547 C 87 39.32870483398438 85.88993835449219 33.82864761352539 83.70065307617188 28.65262222290039 C 81.58542633056641 23.65164947509766 78.55665588378906 19.15967559814453 74.69847869873047 15.30150604248047 C 70.84030914306641 11.44333648681641 66.34834289550781 8.414566040039062 61.34736633300781 6.299331665039062 C 56.17134094238281 4.11004638671875 50.67128372192383 2.999992370605469 44.99999618530273 2.999992370605469 M 44.99999618530273 -7.62939453125e-06 C 69.85281372070312 -7.62939453125e-06 90 20.14717864990234 90 44.99999237060547 C 90 69.85279083251953 69.85281372070312 89.99997711181641 44.99999618530273 89.99997711181641 C 20.14717864990234 89.99997711181641 -7.62939453125e-06 69.85279083251953 -7.62939453125e-06 44.99999237060547 C -7.62939453125e-06 20.14717864990234 20.14717864990234 -7.62939453125e-06 44.99999618530273 -7.62939453125e-06 Z" stroke="none" fill="#2f4f7e"/>
                      </g>
                    </g>
                  </g>
                </g>
              </g>
            </g>
          </g>
        </g>
      </g>
    </g>
    <g id="tutor_10491839_2_" data-name="tutor_10491839 (2)" transform="translate(192.837 7099.337)">
      <g id="Grupo_1225823" data-name="Grupo 1225823" transform="translate(0.973 0.973)">
        <g id="Grupo_1225805" data-name="Grupo 1225805" transform="translate(5.838 50.596)">
          <path id="Trazado_1057586" data-name="Trazado 1057586" d="M63.784,427.892H56V424h5.838v1.946A1.945,1.945,0,0,0,63.784,427.892Z" transform="translate(-56 -424)" fill="#e6e9ed"/>
        </g>
        <g id="Grupo_1225806" data-name="Grupo 1225806" transform="translate(0 32.109)">
          <path id="Trazado_1057587" data-name="Trazado 1057587" d="M19.676,284.662a1.947,1.947,0,0,0-1.511,1.062l-.435.871v3.892H11.892A3.893,3.893,0,0,1,8,286.6v-6.742a6.811,6.811,0,0,1,5.848-6.743L21.622,272l2.919,2.919L27.46,272l7.774,1.11a6.811,6.811,0,0,1,5.848,6.743v.581l-.206-.549a1.946,1.946,0,1,0-3.481,1.742l1.863,4.967h-.123a1.945,1.945,0,0,0-1.946,1.946v1.946a1.945,1.945,0,0,0,1.946,1.946H36.217a.973.973,0,0,0-.973.973v.973H27.46a1.945,1.945,0,0,0,1.946-1.946V278.811a1.945,1.945,0,0,0-1.946-1.946H21.622a1.945,1.945,0,0,0-1.946,1.946Z" transform="translate(-8 -272)" fill="#e6e9ed"/>
        </g>
        <g id="Grupo_1225807" data-name="Grupo 1225807" transform="translate(11.676 36.974)">
          <path id="Trazado_1057588" data-name="Trazado 1057588" d="M113.73,313.946v13.622a1.945,1.945,0,0,1-1.946,1.946h-5.838A1.945,1.945,0,0,1,104,327.568v-1.946h1.946a1.945,1.945,0,0,0,1.946-1.946V321.73a1.946,1.946,0,0,0-1.946-1.946H104.23a2.047,2.047,0,0,0-.23.013v-5.851A1.945,1.945,0,0,1,105.946,312h5.838A1.945,1.945,0,0,1,113.73,313.946Z" transform="translate(-104 -312)" fill="#969faa"/>
        </g>
        <g id="Grupo_1225808" data-name="Grupo 1225808" transform="translate(1.946)">
          <path id="Trazado_1057589" data-name="Trazado 1057589" d="M48.325,20.649l-1.649-1.237a5.35,5.35,0,0,0-4.9-.8l-2.17.724a6.553,6.553,0,0,1-7.673-2.819,5.84,5.84,0,0,0-3.362,4.808L28.462,22.6H26.919a2.885,2.885,0,0,0-1.338.326h0A9.633,9.633,0,0,1,33.633,8h9.925a9.632,9.632,0,0,1,8.052,14.92h0a2.885,2.885,0,0,0-1.338-.326h-1.73Z" transform="translate(-24 -8)" fill="#b27946"/>
        </g>
        <g id="Grupo_1225809" data-name="Grupo 1225809" transform="translate(32.109 15.568)">
          <path id="Trazado_1057590" data-name="Trazado 1057590" d="M276.865,147.676h-2.919a1.929,1.929,0,0,0-.861.2A7.881,7.881,0,0,1,272,143.886v-.662a4.27,4.27,0,0,1,3.234-4.141l.658-.164a4.27,4.27,0,0,1,4.05-2.919h7.524a7.885,7.885,0,0,1,6.8,11.877,1.929,1.929,0,0,0-.861-.2h-2.919a3.739,3.739,0,0,0-2.831-3.627l-1.061-.265a7.666,7.666,0,0,1-5.427,3.354Z" transform="translate(-272 -136)" fill="#656d78"/>
        </g>
        <g id="Grupo_1225810" data-name="Grupo 1225810" transform="translate(27.244 52.542)">
          <path id="Trazado_1057591" data-name="Trazado 1057591" d="M242.337,440h19.826a.973.973,0,0,1,.973.973v.973a1.945,1.945,0,0,1-1.946,1.946h-10.7a1.946,1.946,0,1,1-3.892,0H233.946A1.945,1.945,0,0,1,232,441.946v-.973a.973.973,0,0,1,.973-.973h9.364Z" transform="translate(-232 -440)" fill="#cf9e76"/>
        </g>
        <g id="Grupo_1225811" data-name="Grupo 1225811" transform="translate(34.412 40.866)">
          <path id="Trazado_1057592" data-name="Trazado 1057592" d="M311.007,351.263v4.413H294.1l-3.17-8.454a6.792,6.792,0,0,1,3.83-2.565l2.625-.657a2.919,2.919,0,0,0,5.838,0l2.625.657A6.811,6.811,0,0,1,311.007,351.263Z" transform="translate(-290.93 -344)" fill="#fcd770"/>
        </g>
        <g id="Grupo_1225812" data-name="Grupo 1225812" transform="translate(29.19 38.92)">
          <path id="Trazado_1057593" data-name="Trazado 1057593" d="M253.221,333.168l3.17,8.454h-5.472a.973.973,0,0,0,.973-.973v-3.892a.973.973,0,0,0-.973-.973h-.85l-1.863-4.967a1.946,1.946,0,0,1,3.481-1.742l.206.549Z" transform="translate(-247.999 -328)" fill="#f29ed0"/>
        </g>
        <g id="Grupo_1225813" data-name="Grupo 1225813" transform="translate(5.838 8.521)">
          <path id="Trazado_1057594" data-name="Trazado 1057594" d="M77.359,90.516a7.8,7.8,0,0,1-5.015,8.166L69.622,99.7v1.946L66.7,104.567l-2.919-2.919V99.7l-2.722-1.02A7.8,7.8,0,0,1,56,91.377v-.106c0-.218.009-.434.027-.651l.055-.648.489-5.838.106-1.266a5.84,5.84,0,0,1,3.362-4.808,6.548,6.548,0,0,0,7.673,2.819l2.17-.724a5.35,5.35,0,0,1,4.9.8l1.649,1.237.216,1.946.648,5.838Z" transform="translate(-56 -78.06)" fill="#f0d0b4"/>
        </g>
        <g id="Grupo_1225814" data-name="Grupo 1225814" transform="translate(18.738 13.914)">
          <circle id="Elipse_13575" data-name="Elipse 13575" cx="3.618" cy="3.618" r="3.618" transform="translate(0 0)" fill="#69d6f4"/>
        </g>
        <g id="Grupo_1225815" data-name="Grupo 1225815" transform="translate(6.678 13.914)">
          <ellipse id="Elipse_13576" data-name="Elipse 13576" cx="4.02" cy="3.618" rx="4.02" ry="3.618" transform="translate(0 0)" fill="#69d6f4"/>
        </g>
        <g id="Grupo_1225816" data-name="Grupo 1225816" transform="translate(26.488 14.595)">
          <path id="Trazado_1057595" data-name="Trazado 1057595" d="M228.847,128.326a2.918,2.918,0,0,1-1.338,5.512h-1.081L225.78,128h1.73A2.885,2.885,0,0,1,228.847,128.326Z" transform="translate(-225.78 -128)" fill="#f0d0b4"/>
        </g>
        <g id="Grupo_1225817" data-name="Grupo 1225817" transform="translate(1.946 14.595)">
          <path id="Trazado_1057596" data-name="Trazado 1057596" d="M28.462,128l-.489,5.838H26.919a2.918,2.918,0,0,1-1.338-5.512A2.885,2.885,0,0,1,26.919,128Z" transform="translate(-24 -128)" fill="#f0d0b4"/>
        </g>
        <g id="Grupo_1225818" data-name="Grupo 1225818" transform="translate(9.73 44.758)">
          <path id="Trazado_1057597" data-name="Trazado 1057597" d="M93.838,377.946v1.946a1.945,1.945,0,0,1-1.946,1.946H88v-3.892l.435-.871a1.947,1.947,0,0,1,1.511-1.062,2.054,2.054,0,0,1,.23-.013h1.716A1.945,1.945,0,0,1,93.838,377.946Z" transform="translate(-88 -376)" fill="#f0d0b4"/>
        </g>
        <g id="Grupo_1225819" data-name="Grupo 1225819" transform="translate(29.19 46.704)">
          <path id="Trazado_1057598" data-name="Trazado 1057598" d="M251.892,392.973v3.892a.973.973,0,0,1-.973.973h-.973A1.945,1.945,0,0,1,248,395.892v-1.946A1.945,1.945,0,0,1,249.946,392h.973A.973.973,0,0,1,251.892,392.973Z" transform="translate(-248 -392)" fill="#f0d0b4"/>
        </g>
        <g id="Grupo_1225820" data-name="Grupo 1225820" transform="translate(50.596 27.244)">
          <path id="Trazado_1057599" data-name="Trazado 1057599" d="M428.3,232.569a1.947,1.947,0,0,1-1.377,3.323h-2.271L424,232h2.919a1.952,1.952,0,0,1,1.377.569Z" transform="translate(-424 -232)" fill="#f0d0b4"/>
        </g>
        <g id="Grupo_1225821" data-name="Grupo 1225821" transform="translate(36.001 23.352)">
          <path id="Trazado_1057600" data-name="Trazado 1057600" d="M319.5,209.312a5.123,5.123,0,0,1-3.15,5.6l-1.646.658v1.946a2.919,2.919,0,0,1-5.838,0v-1.946l-1.646-.658a5.126,5.126,0,0,1-3.15-5.6l.254-1.528h0l.648-3.892,4.3-.538A7.666,7.666,0,0,0,314.7,200l1.061.265a3.739,3.739,0,0,1,2.831,3.627l.648,3.892h0Z" transform="translate(-304 -200)" fill="#f0d0b4"/>
        </g>
        <g id="Grupo_1225822" data-name="Grupo 1225822" transform="translate(32.109 27.244)">
          <path id="Trazado_1057601" data-name="Trazado 1057601" d="M276.865,232l-.648,3.892h-2.271a1.946,1.946,0,1,1,0-3.892Z" transform="translate(-272 -232)" fill="#f0d0b4"/>
        </g>
      </g>
      <g id="Grupo_1225824" data-name="Grupo 1225824" transform="translate(0 0)">
        <path id="Trazado_1057602" data-name="Trazado 1057602" d="M58.38,52.542H56.434V49.1a7.773,7.773,0,0,0-5.9-7.552L48.65,41.08v-.528l1.033-.413a6.1,6.1,0,0,0,3.749-6.662l-.066-.395h1.122a2.917,2.917,0,0,0,2.1-4.941,8.858,8.858,0,0,0-8.042-12.573H41.024a5.235,5.235,0,0,0-4.771,3.069l-.173.043a5.234,5.234,0,0,0-3.971,5.085v.661a8.866,8.866,0,0,0,.817,3.714,2.917,2.917,0,0,0,2.1,4.941H36.15l-.066.395a6.095,6.095,0,0,0,3.749,6.662l1.033.413v.528l-1.888.472a7.8,7.8,0,0,0-3.236,1.693l-.714-1.9v-.406a7.784,7.784,0,0,0-6.683-7.706l-6.939-.991v-.428l2.091-.784a8.814,8.814,0,0,0,5.693-8.215c0-.144,0-.288-.012-.432h.012a3.89,3.89,0,0,0,2.63-6.758A10.6,10.6,0,0,0,22.477,0H12.551A10.6,10.6,0,0,0,3.208,15.621a3.89,3.89,0,0,0,2.63,6.758h.007c0,.109-.007.218-.007.326v.106a8.814,8.814,0,0,0,5.693,8.215l2.091.784v.428l-6.939.991A7.784,7.784,0,0,0,0,40.935v6.742a4.871,4.871,0,0,0,4.865,4.865h.973v3.892H27.412a2.924,2.924,0,0,0,2.752,1.946H42.006a2.919,2.919,0,0,0,5.5,0h9.9a2.922,2.922,0,0,0,2.919-2.919v-.973a1.948,1.948,0,0,0-1.946-1.946ZM54.488,31.136H53.042l-.324-1.946h1.77a.973.973,0,1,1,0,1.946Zm-20.433-7.37a3.291,3.291,0,0,1,2.5-3.2l1.177-.294.169-.507a3.291,3.291,0,0,1,3.127-2.254h7.524a6.911,6.911,0,0,1,6.3,9.753,2.933,2.933,0,0,0-.362-.023H53.246a7.21,7.21,0,0,0,.22-5.173l-1.846.616A5.291,5.291,0,0,1,51.75,25.6a4.7,4.7,0,0,0-2.777-1.953l-1.725-.431-.38.57a6.688,6.688,0,0,1-4.738,2.928l-3.209.4v-.844a1.948,1.948,0,0,1,1.946-1.946V22.379a3.9,3.9,0,0,0-3.892,3.892v.973H35.028a2.934,2.934,0,0,0-.362.023,6.918,6.918,0,0,1-.611-2.84Zm.973,7.37a.973.973,0,0,1,0-1.946H36.8l-.324,1.946Zm5.527,7.2A4.149,4.149,0,0,1,38,33.8l.784-4.7,3.583-.448a8.631,8.631,0,0,0,5.707-3.217l.424.106A2.762,2.762,0,0,1,50.6,28.217V28.3l.917,5.5a4.15,4.15,0,0,1-2.552,4.535l-2.257.9v2.6a1.946,1.946,0,0,1-3.892,0v-2.6ZM39.45,43.439l1.606-.4a3.891,3.891,0,0,0,7.4,0l1.606.4A5.83,5.83,0,0,1,54.488,49.1v3.439H39.229l-2.739-7.3a5.854,5.854,0,0,1,2.96-1.8Zm-8.314,8.13V49.623a.974.974,0,0,1,.973-.973h.973v3.892h-.973A.974.974,0,0,1,31.136,51.569ZM33.082,46.7h-.176l-1.626-4.336-.041-.093a.973.973,0,0,1,1.721-.908l4.191,11.176H35.028V48.65A1.948,1.948,0,0,0,33.082,46.7ZM28.07,35.156a5.87,5.87,0,0,1,4.673,3.833,2.923,2.923,0,0,0-1.94.239,2.923,2.923,0,0,0-1.33,3.866l1.449,3.863a2.923,2.923,0,0,0-1.732,2.666v1.946a2.906,2.906,0,0,0,.167.973H29.19a1.948,1.948,0,0,0-1.946,1.946H23.185a2.906,2.906,0,0,0,.167-.973V39.893a2.922,2.922,0,0,0-2.919-2.919H17.917l2.86-2.86ZM23.352,13.622a4.867,4.867,0,0,0-4.215,2.44,2.913,2.913,0,0,0-3.246,0A4.858,4.858,0,0,0,8.416,14.88l.042-.5a4.874,4.874,0,0,1,2.1-3.607,7.521,7.521,0,0,0,8.27,2.459L21,12.513a4.38,4.38,0,0,1,4.012.651l1.312.984.06.538A4.84,4.84,0,0,0,23.352,13.622Zm2.919,4.865a2.919,2.919,0,1,1-2.919-2.919A2.922,2.922,0,0,1,26.271,18.487Zm-11.676,0a2.919,2.919,0,1,1-2.919-2.919A2.922,2.922,0,0,1,14.6,18.487Zm14.6,1.946h-.21l-.432-3.892h.643a1.946,1.946,0,0,1,0,3.892Zm-25.3-9.828a8.669,8.669,0,0,1,8.659-8.659h9.926A8.657,8.657,0,0,1,30.1,14.7a3.884,3.884,0,0,0-.913-.109h-.859l-.114-1.027v-.823A7.044,7.044,0,0,0,22.57,5.857l-.382,1.908a5.1,5.1,0,0,1,3.945,3.808,6.327,6.327,0,0,0-5.749-.906l-2.169.723a5.577,5.577,0,0,1-6.607-2.524L9.6,5.355l-1.69.965L9.518,9.13a6.826,6.826,0,0,0-3,5.091l-.031.374H5.838a3.884,3.884,0,0,0-.913.109,8.632,8.632,0,0,1-1.033-4.1Zm0,7.882a1.948,1.948,0,0,1,1.946-1.946h.486L6,20.433h-.16A1.948,1.948,0,0,1,3.892,18.487ZM12.214,29.2a6.86,6.86,0,0,1-4.43-6.393v-.106c0-.19.008-.382.024-.57l.053-.635a4.862,4.862,0,0,0,8.68-3.013.973.973,0,1,1,1.946,0,4.862,4.862,0,0,0,8.657,3.043l.059.527A6.827,6.827,0,0,1,22.814,29.2L19.46,30.462v2.217l-1.946,1.946-1.946-1.946V30.462ZM1.946,47.677V40.935a5.867,5.867,0,0,1,5.012-5.779l7.293-1.042,2.86,2.86H14.6a2.922,2.922,0,0,0-2.919,2.919v5.122a2.888,2.888,0,0,0-.859.6,2.91,2.91,0,0,0-2.06-.853H7.784V38.92H5.838v5.838H3.892V46.7H8.757a.974.974,0,0,1,.973.973V50.6H4.865a2.922,2.922,0,0,1-2.919-2.919Zm9.73,2.919V47.907l.332-.665a.968.968,0,0,1,.87-.538H14.6a.974.974,0,0,1,.973.973v1.946a.974.974,0,0,1-.973.973ZM7.784,52.542h3.892v.973a2.906,2.906,0,0,0,.167.973H7.784ZM14.6,54.488a.974.974,0,0,1-.973-.973v-.973H14.6a2.922,2.922,0,0,0,2.919-2.919V47.677A2.922,2.922,0,0,0,14.6,44.758h-.973V39.893a.974.974,0,0,1,.973-.973h5.838a.974.974,0,0,1,.973.973V53.515a.974.974,0,0,1-.973.973Zm43.785.973a.974.974,0,0,1-.973.973H45.731v.973a.973.973,0,1,1-1.946,0v-.973H30.163a.974.974,0,0,1-.973-.973v-.973H58.38Z" transform="translate(0 0)"/>
        <path id="Trazado_1057603" data-name="Trazado 1057603" d="M344.32,277.5l.1-.205-1.741-.87-.1.206a2.176,2.176,0,0,1-3.892,0l-.1-.205-1.741.87.1.205a4.122,4.122,0,0,0,7.373,0Z" transform="translate(-295.875 -242.803)"/>
        <circle id="Elipse_13577" data-name="Elipse 13577" cx="0.804" cy="0.804" r="0.804" transform="translate(47.048 29.359)"/>
        <ellipse id="Elipse_13578" data-name="Elipse 13578" cx="1.206" cy="0.804" rx="1.206" ry="0.804" transform="translate(40.615 29.359)"/>
        <path id="Trazado_1057604" data-name="Trazado 1057604" d="M113.99,198.237l.05-.15-1.846-.615-.05.149a3.077,3.077,0,0,1-5.838,0l-.05-.15-1.846.615.05.15a5.023,5.023,0,0,0,9.53,0Z" transform="translate(-91.711 -173.454)"/>
        <ellipse id="Elipse_13579" data-name="Elipse 13579" cx="0.804" cy="1.206" rx="0.804" ry="1.206" transform="translate(10.867 17.299)"/>
        <circle id="Elipse_13580" data-name="Elipse 13580" cx="1.206" cy="1.206" r="1.206" transform="translate(22.123 17.299)"/>
        <ellipse id="Elipse_13581" data-name="Elipse 13581" cx="0.804" cy="1.206" rx="0.804" ry="1.206" transform="translate(15.691 40.615)"/>
      </g>
    </g>
  </g>
</svg>
