<svg xmlns="http://www.w3.org/2000/svg" xmlns:xlink="http://www.w3.org/1999/xlink" width="113" height="113" viewBox="0 0 113 113">
  <defs>
    <filter id="Trazado_982547" x="0" y="0" width="113" height="113" filterUnits="userSpaceOnUse">
      <feOffset dy="3" input="SourceAlpha"/>
      <feGaussianBlur stdDeviation="3" result="blur"/>
      <feFlood flood-opacity="0.161"/>
      <feComposite operator="in" in2="blur"/>
      <feComposite in="SourceGraphic"/>
    </filter>
  </defs>
  <g id="Grupo_1225719" data-name="Grupo 1225719" transform="translate(-1216.232 -2132.76)">
    <g id="Grupo_1225296" data-name="Grupo 1225296" transform="translate(0 -2558)">
      <g id="Grupo_1225179" data-name="Grupo 1225179" transform="translate(0 -50.236)">
        <g id="Grupo_1224650" data-name="Grupo 1224650" transform="translate(0 1927)">
          <g id="Grupo_1224294" data-name="Grupo 1224294" transform="translate(0.723 859.245)">
            <g id="Grupo_1224094" data-name="Grupo 1224094" transform="translate(541.51 -2620.317)">
              <g id="Grupo_1223184" data-name="Grupo 1223184" transform="translate(683 4581.069)">
                <g id="Grupo_1211216" data-name="Grupo 1211216" transform="translate(0)">
                  <g id="Grupo_1210737" data-name="Grupo 1210737">
                    <g id="Grupo_1210537" data-name="Grupo 1210537">
                      <g id="Grupo_1164202" data-name="Grupo 1164202">
                        <g id="Grupo_1158168" data-name="Grupo 1158168">
                          <g id="Grupo_1152576" data-name="Grupo 1152576">
                            <g id="Grupo_1148633" data-name="Grupo 1148633">
                              <g id="Grupo_1148525" data-name="Grupo 1148525">
                                <g transform="matrix(1, 0, 0, 1, -9, -6)" filter="url(#Trazado_982547)">
                                  <g id="Trazado_982547-2" data-name="Trazado 982547" transform="translate(9 6)" fill="#fdfbec">
                                    <path d="M 47.49999618530273 93.5 C 41.28936767578125 93.5 35.26533126831055 92.28396606445312 29.59518241882324 89.88570404052734 C 24.11771583557129 87.56893157958984 19.19812965393066 84.251953125 14.97308921813965 80.02690124511719 C 10.74803638458252 75.80186462402344 7.431062698364258 70.88227844238281 5.114289283752441 65.40480804443359 C 2.716022968292236 59.73466110229492 1.499996185302734 53.71062469482422 1.499996185302734 47.49999618530273 C 1.499996185302734 41.28936767578125 2.716022968292236 35.26533126831055 5.114289283752441 29.59518241882324 C 7.431062698364258 24.11771583557129 10.74803638458252 19.19812965393066 14.97308921813965 14.97308921813965 C 19.19812965393066 10.74803638458252 24.11771583557129 7.431062698364258 29.59518241882324 5.114289283752441 C 35.26533126831055 2.716022968292236 41.28936767578125 1.499996185302734 47.49999618530273 1.499996185302734 C 53.71062469482422 1.499996185302734 59.73466110229492 2.716022968292236 65.40480804443359 5.114289283752441 C 70.88227844238281 7.431062698364258 75.80186462402344 10.74803638458252 80.02690124511719 14.97308921813965 C 84.251953125 19.19812965393066 87.56893157958984 24.11771583557129 89.88570404052734 29.59518241882324 C 92.28396606445312 35.26533126831055 93.5 41.28936767578125 93.5 47.49999618530273 C 93.5 53.71062469482422 92.28396606445312 59.73466110229492 89.88570404052734 65.40480804443359 C 87.56893157958984 70.88227844238281 84.251953125 75.80186462402344 80.02690124511719 80.02690124511719 C 75.80186462402344 84.251953125 70.88227844238281 87.56893157958984 65.40480804443359 89.88570404052734 C 59.73466110229492 92.28396606445312 53.71062469482422 93.5 47.49999618530273 93.5 Z" stroke="none"/>
                                    <path d="M 47.49999618530273 2.999992370605469 C 41.4912109375 2.999992370605469 35.66376495361328 4.1761474609375 30.17950439453125 6.495796203613281 C 24.88084411621094 8.736953735351562 20.12152099609375 11.94598388671875 16.03375244140625 16.03375244140625 C 11.94598388671875 20.12152099609375 8.736953735351562 24.88084411621094 6.495796203613281 30.17950439453125 C 4.1761474609375 35.66376495361328 2.999992370605469 41.4912109375 2.999992370605469 47.49999618530273 C 2.999992370605469 53.50878143310547 4.1761474609375 59.33622741699219 6.495796203613281 64.82048797607422 C 8.736953735351562 70.11914825439453 11.94598388671875 74.87847137451172 16.03375244140625 78.96623992919922 C 20.12152099609375 83.05400848388672 24.88084411621094 86.26304626464844 30.17950439453125 88.50419616699219 C 35.66376495361328 90.82384490966797 41.4912109375 92 47.49999618530273 92 C 53.50878143310547 92 59.33622741699219 90.82384490966797 64.82048797607422 88.50419616699219 C 70.11914825439453 86.26304626464844 74.87847137451172 83.05400848388672 78.96623992919922 78.96623992919922 C 83.05400848388672 74.87847137451172 86.26304626464844 70.11914825439453 88.50419616699219 64.82048797607422 C 90.82384490966797 59.33622741699219 92 53.50878143310547 92 47.49999618530273 C 92 41.4912109375 90.82384490966797 35.66376495361328 88.50419616699219 30.17950439453125 C 86.26304626464844 24.88084411621094 83.05400848388672 20.12152099609375 78.96623992919922 16.03375244140625 C 74.87847137451172 11.94598388671875 70.11914825439453 8.736953735351562 64.82048797607422 6.495796203613281 C 59.33622741699219 4.1761474609375 53.50878143310547 2.999992370605469 47.49999618530273 2.999992370605469 M 47.49999618530273 -7.62939453125e-06 C 73.7335205078125 -7.62939453125e-06 95 21.26647186279297 95 47.49999618530273 C 95 73.7335205078125 73.7335205078125 95 47.49999618530273 95 C 21.26647186279297 95 -7.62939453125e-06 73.7335205078125 -7.62939453125e-06 47.49999618530273 C -7.62939453125e-06 21.26647186279297 21.26647186279297 -7.62939453125e-06 47.49999618530273 -7.62939453125e-06 Z" stroke="none" fill="#83793c"/>
                                  </g>
                                </g>
                              </g>
                            </g>
                          </g>
                        </g>
                      </g>
                    </g>
                  </g>
                </g>
              </g>
            </g>
          </g>
        </g>
      </g>
    </g>
    <g id="knowledge_11687170" transform="translate(1185.269 2147.692)">
      <g id="Grupo_1225718" data-name="Grupo 1225718" transform="translate(59.14 7.764)">
        <g id="Grupo_1225717" data-name="Grupo 1225717" transform="translate(0 21.165)">
          <path id="Trazado_1057410" data-name="Trazado 1057410" d="M284.147,344.769l9.34-5.085a3.36,3.36,0,0,0-3.21-5.9l-10.127,5.51Z" transform="translate(-249.677 -314.075)" fill="#fbc894" fill-rule="evenodd"/>
          <path id="Trazado_1057411" data-name="Trazado 1057411" d="M129.119,346.742,148.668,336.1a3.361,3.361,0,0,0-3.214-5.9l-10.095,5.494a3.367,3.367,0,0,0-2.3-2.78q-5.781-1.864-11.56-3.727a11.041,11.041,0,0,0-8.955.842l-11.858,6.452L107.5,349l4.421-2.4a7.983,7.983,0,0,1,6.484-.608l4.223,1.358A8,8,0,0,0,129.119,346.742Z" transform="translate(-96.17 -309.998)" fill="#fbbd80" fill-rule="evenodd"/>
          <path id="Trazado_1057412" data-name="Trazado 1057412" d="M69.622,356.865l9.816,17.042a.881.881,0,0,0,1.2.321L85,371.714a.873.873,0,0,0,.321-1.2l-9.81-17.04a.881.881,0,0,0-1.2-.321l-4.363,2.51A.883.883,0,0,0,69.622,356.865Z" transform="translate(-69.507 -330.895)" fill="#0593fc" fill-rule="evenodd"/>
          <path id="Trazado_1057413" data-name="Trazado 1057413" d="M210.68,343.028q2.294.744,4.592,1.481l9.808,3.158a3.36,3.36,0,1,0,2.063-6.4l-8.971-2.892Z" transform="translate(-190.257 -318.357)" fill="#fbbd80" fill-rule="evenodd"/>
          <path id="Trazado_1057414" data-name="Trazado 1057414" d="M69.622,357.542l9.816,17.042a.881.881,0,0,0,1.2.321l1.231-.712a.882.882,0,0,1-1.2-.321L70.856,356.83a.881.881,0,0,1,.321-1.2l3.135-1.8h0l-4.36,2.513a.883.883,0,0,0-.326,1.2Z" transform="translate(-69.507 -331.572)" fill="#0584e3" fill-rule="evenodd"/>
          <path id="Trazado_1057415" data-name="Trazado 1057415" d="M306.02,210.483l14.941-1.335v-7.392a1.778,1.778,0,0,0-2.281-1.709L307.3,203.407a1.757,1.757,0,0,0-1.279,1.7Z" transform="translate(-271.804 -199.97)" fill="#c4f0f6" fill-rule="evenodd"/>
          <path id="Trazado_1057416" data-name="Trazado 1057416" d="M217.681,210.483l-14.941-1.335v-7.392a1.781,1.781,0,0,1,2.284-1.709l11.381,3.361a1.753,1.753,0,0,1,1.275,1.7v5.371Z" transform="translate(-183.466 -199.97)" fill="#c4f0f6" fill-rule="evenodd"/>
        </g>
        <path id="Trazado_1057417" data-name="Trazado 1057417" d="M178.3,242.319a2.249,2.249,0,0,1,.83-4.421l16.077,3,16.081-3a2.249,2.249,0,1,1,.826,4.421l-16.45,3.074a2.2,2.2,0,0,1-.869.007Z" transform="translate(-160.995 -211.213)" fill="#2f5274"/>
        <path id="Trazado_1057418" data-name="Trazado 1057418" d="M265.785,53.67a6.808,6.808,0,0,1,6.809,6.809c0,2.864-1.331,3.9-2.673,5.474a4.152,4.152,0,0,0-1.037,2.8V69.97a2.635,2.635,0,0,1-2.626,2.63h-.942a2.638,2.638,0,0,1-2.63-2.63V68.754a4.148,4.148,0,0,0-1.033-2.8c-1.347-1.577-2.673-2.61-2.673-5.474A6.807,6.807,0,0,1,265.785,53.67Z" transform="translate(-231.57 -53.67)" fill="#ffd400" fill-rule="evenodd"/>
        <path id="Trazado_1057419" data-name="Trazado 1057419" d="M202.74,205.7v-3.945a1.781,1.781,0,0,1,2.284-1.709l.346.1a1.778,1.778,0,0,0-.289.179,1.734,1.734,0,0,0-.715,1.426v4.25Z" transform="translate(-183.466 -178.805)" fill="#b0d8dd" fill-rule="evenodd"/>
        <path id="Trazado_1057420" data-name="Trazado 1057420" d="M265.785,53.67c.218,0,.433.012.644.032a6.808,6.808,0,0,0-6.17,6.778c0,2.864,1.331,3.9,2.678,5.474a4.169,4.169,0,0,1,.969,2.038h-1.279a4.139,4.139,0,0,0-.974-2.038c-1.347-1.577-2.673-2.61-2.673-5.474A6.807,6.807,0,0,1,265.785,53.67Z" transform="translate(-231.57 -53.67)" fill="#e6bf00" fill-rule="evenodd"/>
        <path id="Trazado_1057421" data-name="Trazado 1057421" d="M290.511,152.67a4.854,4.854,0,0,0-.064.762v1.215a2.635,2.635,0,0,1-2.626,2.63h-.942a2.638,2.638,0,0,1-2.63-2.63v-1.215a4.858,4.858,0,0,0-.059-.762Z" transform="translate(-253.133 -138.348)" fill="#f1f1f1" fill-rule="evenodd"/>
        <path id="Trazado_1057422" data-name="Trazado 1057422" d="M285.469,152.661a4.379,4.379,0,0,1,.064.762v1.215a2.634,2.634,0,0,0,2.459,2.621c-.059,0-.116.007-.171.007h-.942a2.638,2.638,0,0,1-2.63-2.63v-1.215a4.858,4.858,0,0,0-.059-.762h1.279Z" transform="translate(-253.133 -138.339)" fill="#d9d9d9" fill-rule="evenodd"/>
      </g>
      <path id="Trazado_1057423" data-name="Trazado 1057423" d="M114.3,50.092a4.582,4.582,0,0,0-6.2-1.834l-2.587,1.408c-.013-.026-.026-.052-.041-.078a4.582,4.582,0,0,0-6.2-1.834l-4.738,2.578q-4.941-1.593-9.884-3.183a12.308,12.308,0,0,0-10.012.935l-8.168,4.45-.816-1.416a2.05,2.05,0,0,0-2.8-.752l-4.44,2.555a2.05,2.05,0,0,0-.751,2.8l9.976,17.324a2.036,2.036,0,0,0,1.25.956,2.093,2.093,0,0,0,.532.069,2.018,2.018,0,0,0,1.016-.273l4.438-2.555a2.05,2.05,0,0,0,.752-2.8L74.855,67.1l.256-.14a7,7,0,0,1,5.688-.531l4.294,1.382a9.744,9.744,0,0,0,3,.488,9.294,9.294,0,0,0,4.5-1.192l19.871-10.814a4.579,4.579,0,0,0,1.833-6.2Zm-13.926-.307a2.27,2.27,0,0,1,3.064.906c.014.026.026.054.039.081l-4.427,2.409A4.6,4.6,0,0,0,97.4,51.4ZM69.511,71.659,59.8,54.791,63.776,52.5,65,54.632l0,.009c0,.009.01.016.014.025l8.466,14.7Zm42.934-18.743a2.244,2.244,0,0,1-1.085,1.347L91.485,65.079a6.987,6.987,0,0,1-5.685.534l-4.292-1.382a9.233,9.233,0,0,0-7.505.7l-.3.166L67.618,54.54l8.12-4.424a10.082,10.082,0,0,1,8.2-.764q5.855,1.881,11.7,3.769l.051.016a2.276,2.276,0,0,1,1.549,1.872c0,.022.009.042.012.064s0,.061,0,.093a2.207,2.207,0,0,1-.1.813,2.265,2.265,0,0,1-2.841,1.461q-4.963-1.6-9.924-3.2l-.055-.017a1.157,1.157,0,1,0-.709,2.2l.055.017q4.961,1.6,9.923,3.2a4.521,4.521,0,0,0,1.392.218,4.591,4.591,0,0,0,4.36-3.174,4.527,4.527,0,0,0,.21-1.149l5.794-3.152c.027-.014.055-.029.081-.045l3.767-2.05a2.257,2.257,0,0,1,3.243,2.627ZM75.937,39.992l16.754,3.132a3.455,3.455,0,0,0,.634.059,3.57,3.57,0,0,0,.687-.068l16.7-3.123a3.44,3.44,0,0,0-1.05-6.8V30.571a2.966,2.966,0,0,0-3.8-2.844L94.3,31.138a2.991,2.991,0,0,0-.969.492,2.991,2.991,0,0,0-.969-.492L80.8,27.727A2.967,2.967,0,0,0,76.99,30.57v2.624a3.44,3.44,0,0,0-3.261,5.36,3.405,3.405,0,0,0,2.208,1.438ZM94.95,33.357l11.566-3.413a.655.655,0,0,1,.836.626v3.048l-12.868,2.4v-2.04a.63.63,0,0,1,.466-.625ZM79.565,30.05a.6.6,0,0,1,.576-.1l11.565,3.411a.631.631,0,0,1,.466.625v2.04L79.3,33.619V30.571A.6.6,0,0,1,79.565,30.05ZM75.456,36.4a1.132,1.132,0,0,1,1.111-.922,1.041,1.041,0,0,1,.21.02l16.337,3.051a1.16,1.16,0,0,0,.424,0l16.34-3.051a1.128,1.128,0,1,1,.414,2.218L93.577,40.845l-.017,0a1.141,1.141,0,0,1-.443,0L76.362,37.719h0a1.128,1.128,0,0,1-.9-1.315ZM87.7,19.863c.179.2.365.408.547.622a3.056,3.056,0,0,1,.773,2.095v1.234a3.831,3.831,0,0,0,3.826,3.826H93.8a3.833,3.833,0,0,0,3.831-3.826V22.58a3.062,3.062,0,0,1,.774-2.1c.179-.21.363-.417.541-.616a7.6,7.6,0,0,0,2.449-5.7,8.072,8.072,0,0,0-16.145,0A7.585,7.585,0,0,0,87.7,19.863Zm6.1,5.464h-.955a1.515,1.515,0,0,1-1.513-1.513V22.96h3.986v.854A1.518,1.518,0,0,1,93.8,25.327ZM93.327,8.411a5.764,5.764,0,0,1,5.758,5.758c0,2.073-.741,2.9-1.862,4.158-.187.21-.38.425-.576.655a5.517,5.517,0,0,0-.991,1.667H94.483V16.305c0-.036,0-.071-.006-.106l1.353-1.353A1.156,1.156,0,0,0,94.2,13.212l-.868.868-.872-.869a1.156,1.156,0,0,0-1.633,1.636L92.177,16.2c0,.035-.006.069-.006.106v4.343H91a5.477,5.477,0,0,0-.988-1.664c-.2-.233-.393-.45-.582-.661-1.121-1.254-1.862-2.083-1.862-4.153a5.764,5.764,0,0,1,5.761-5.758ZM92.171,3.306V1.156a1.156,1.156,0,0,1,2.312,0V3.3a1.156,1.156,0,0,1-2.312,0Zm8.019,4a1.156,1.156,0,0,1,0-1.635l1.522-1.522a1.156,1.156,0,0,1,1.635,1.635l-1.52,1.522a1.158,1.158,0,0,1-1.636,0Zm4,5.706h2.148a1.156,1.156,0,1,1,0,2.312H104.19a1.156,1.156,0,0,1,0-2.312ZM83.307,5.784a1.156,1.156,0,0,1,1.635-1.635l1.522,1.522a1.156,1.156,0,0,1-1.635,1.635Zm-4.153,8.385a1.155,1.155,0,0,1,1.156-1.156h2.153a1.156,1.156,0,1,1,0,2.312H80.31A1.156,1.156,0,0,1,79.154,14.169Z"/>
    </g>
  </g>
</svg>
