<svg xmlns="http://www.w3.org/2000/svg" xmlns:xlink="http://www.w3.org/1999/xlink" width="113" height="113" viewBox="0 0 113 113">
  <defs>
    <filter id="Trazado_982547" x="0" y="0" width="113" height="113" filterUnits="userSpaceOnUse">
      <feOffset dy="3" input="SourceAlpha"/>
      <feGaussianBlur stdDeviation="3" result="blur"/>
      <feFlood flood-opacity="0.161"/>
      <feComposite operator="in" in2="blur"/>
      <feComposite in="SourceGraphic"/>
    </filter>
  </defs>
  <g id="Grupo_1225827" data-name="Grupo 1225827" transform="translate(-323.5 -1186.927)">
    <g id="Grupo_1225389" data-name="Grupo 1225389" transform="translate(332.5 1192.927)">
      <g id="Grupo_1225226" data-name="Grupo 1225226">
        <g id="Grupo_1224643" data-name="Grupo 1224643">
          <g id="Grupo_1224291" data-name="Grupo 1224291">
            <g id="Grupo_1224091" data-name="Grupo 1224091">
              <g id="Grupo_1223183" data-name="Grupo 1223183" transform="translate(0)">
                <g id="Grupo_1211217" data-name="Grupo 1211217">
                  <g id="Grupo_1210736" data-name="Grupo 1210736">
                    <g id="Grupo_1210537" data-name="Grupo 1210537">
                      <g id="Grupo_1164202" data-name="Grupo 1164202">
                        <g id="Grupo_1158168" data-name="Grupo 1158168">
                          <g id="Grupo_1152576" data-name="Grupo 1152576">
                            <g id="Grupo_1148633" data-name="Grupo 1148633">
                              <g id="Grupo_1148525" data-name="Grupo 1148525">
                                <g transform="matrix(1, 0, 0, 1, -9, -6)" filter="url(#Trazado_982547)">
                                  <g id="Trazado_982547-2" data-name="Trazado 982547" transform="translate(9 6)" fill="#fdfbec">
                                    <path d="M 47.49999618530273 93.5 C 41.28936767578125 93.5 35.26533126831055 92.28396606445312 29.59518241882324 89.88570404052734 C 24.11771583557129 87.56893157958984 19.19812965393066 84.251953125 14.97308921813965 80.02690124511719 C 10.74803638458252 75.80186462402344 7.431062698364258 70.88227844238281 5.114289283752441 65.40480804443359 C 2.716022968292236 59.73466110229492 1.499996185302734 53.71062469482422 1.499996185302734 47.49999618530273 C 1.499996185302734 41.28936767578125 2.716022968292236 35.26533126831055 5.114289283752441 29.59518241882324 C 7.431062698364258 24.11771583557129 10.74803638458252 19.19812965393066 14.97308921813965 14.97308921813965 C 19.19812965393066 10.74803638458252 24.11771583557129 7.431062698364258 29.59518241882324 5.114289283752441 C 35.26533126831055 2.716022968292236 41.28936767578125 1.499996185302734 47.49999618530273 1.499996185302734 C 53.71062469482422 1.499996185302734 59.73466110229492 2.716022968292236 65.40480804443359 5.114289283752441 C 70.88227844238281 7.431062698364258 75.80186462402344 10.74803638458252 80.02690124511719 14.97308921813965 C 84.251953125 19.19812965393066 87.56893157958984 24.11771583557129 89.88570404052734 29.59518241882324 C 92.28396606445312 35.26533126831055 93.5 41.28936767578125 93.5 47.49999618530273 C 93.5 53.71062469482422 92.28396606445312 59.73466110229492 89.88570404052734 65.40480804443359 C 87.56893157958984 70.88227844238281 84.251953125 75.80186462402344 80.02690124511719 80.02690124511719 C 75.80186462402344 84.251953125 70.88227844238281 87.56893157958984 65.40480804443359 89.88570404052734 C 59.73466110229492 92.28396606445312 53.71062469482422 93.5 47.49999618530273 93.5 Z" stroke="none"/>
                                    <path d="M 47.49999618530273 2.999992370605469 C 41.4912109375 2.999992370605469 35.66376495361328 4.1761474609375 30.17950439453125 6.495796203613281 C 24.88084411621094 8.736953735351562 20.12152099609375 11.94598388671875 16.03375244140625 16.03375244140625 C 11.94598388671875 20.12152099609375 8.736953735351562 24.88084411621094 6.495796203613281 30.17950439453125 C 4.1761474609375 35.66376495361328 2.999992370605469 41.4912109375 2.999992370605469 47.49999618530273 C 2.999992370605469 53.50878143310547 4.1761474609375 59.33622741699219 6.495796203613281 64.82048797607422 C 8.736953735351562 70.11914825439453 11.94598388671875 74.87847137451172 16.03375244140625 78.96623992919922 C 20.12152099609375 83.05400848388672 24.88084411621094 86.26304626464844 30.17950439453125 88.50419616699219 C 35.66376495361328 90.82384490966797 41.4912109375 92 47.49999618530273 92 C 53.50878143310547 92 59.33622741699219 90.82384490966797 64.82048797607422 88.50419616699219 C 70.11914825439453 86.26304626464844 74.87847137451172 83.05400848388672 78.96623992919922 78.96623992919922 C 83.05400848388672 74.87847137451172 86.26304626464844 70.11914825439453 88.50419616699219 64.82048797607422 C 90.82384490966797 59.33622741699219 92 53.50878143310547 92 47.49999618530273 C 92 41.4912109375 90.82384490966797 35.66376495361328 88.50419616699219 30.17950439453125 C 86.26304626464844 24.88084411621094 83.05400848388672 20.12152099609375 78.96623992919922 16.03375244140625 C 74.87847137451172 11.94598388671875 70.11914825439453 8.736953735351562 64.82048797607422 6.495796203613281 C 59.33622741699219 4.1761474609375 53.50878143310547 2.999992370605469 47.49999618530273 2.999992370605469 M 47.49999618530273 -7.62939453125e-06 C 73.7335205078125 -7.62939453125e-06 95 21.26647186279297 95 47.49999618530273 C 95 73.7335205078125 73.7335205078125 95 47.49999618530273 95 C 21.26647186279297 95 -7.62939453125e-06 73.7335205078125 -7.62939453125e-06 47.49999618530273 C -7.62939453125e-06 21.26647186279297 21.26647186279297 -7.62939453125e-06 47.49999618530273 -7.62939453125e-06 Z" stroke="none" fill="#83793c"/>
                                  </g>
                                </g>
                              </g>
                            </g>
                          </g>
                        </g>
                      </g>
                    </g>
                  </g>
                </g>
              </g>
            </g>
          </g>
        </g>
      </g>
    </g>
    <g id="knowledge_11094404" transform="translate(301.889 1188.977)">
      <g id="Grupo_1225826" data-name="Grupo 1225826" transform="translate(55.1 27.162)">
        <path id="Trazado_1057605" data-name="Trazado 1057605" d="M228.321,245.162h25.391a2.329,2.329,0,0,0,2.321-2.321v-26.92a2.329,2.329,0,0,0-2.321-2.321H228.321A2.339,2.339,0,0,0,226,215.921v26.934A2.326,2.326,0,0,0,228.321,245.162Z" transform="translate(-209.146 -194.56)" fill="#19331f" fill-rule="evenodd"/>
        <path id="Trazado_1057606" data-name="Trazado 1057606" d="M226,209.019V181.047c0-4.225,3.028-5.047,6.214-5.047v30.942C229.691,206.942,226.923,206.394,226,209.019Z" transform="translate(-209.146 -162.381)" fill="#1b422e" fill-rule="evenodd"/>
        <path id="Trazado_1057607" data-name="Trazado 1057607" d="M257.4,206.942h24.915a2.38,2.38,0,0,0,2.422-2.321v-26.3A2.389,2.389,0,0,0,282.315,176H257.4Z" transform="translate(-236.019 -162.381)" fill="#47705c" fill-rule="evenodd"/>
        <path id="Trazado_1057608" data-name="Trazado 1057608" d="M265.9,416.7h10.338v8.406l-5.393-3.345-4.946,3.345Z" transform="translate(-243.293 -368.375)" fill="#cd2527" fill-rule="evenodd"/>
        <path id="Trazado_1057609" data-name="Trazado 1057609" d="M389.212,205.5h1.86a1.422,1.422,0,0,1,1.312,1.5v8.824a1.422,1.422,0,0,1-1.312,1.5h-1.86a1.422,1.422,0,0,1-1.312-1.5V207A1.422,1.422,0,0,1,389.212,205.5Zm-.173,20.777h2.192a1.245,1.245,0,0,0,1.153-1.312v-1.86a1.245,1.245,0,0,0-1.153-1.312h-2.192a1.234,1.234,0,0,0-1.139,1.312v1.86A1.243,1.243,0,0,0,389.039,226.277Z" transform="translate(-347.703 -187.627)" fill="#759e89" fill-rule="evenodd"/>
        <path id="Trazado_1057610" data-name="Trazado 1057610" d="M294.054,218.956h5.263a2.976,2.976,0,0,0,2.754-3.143v-4.47a2.976,2.976,0,0,0-2.754-3.143h-5.263a2.976,2.976,0,0,0-2.754,3.143v4.47A2.976,2.976,0,0,0,294.054,218.956Z" transform="translate(-265.031 -189.938)" fill="#759e89" fill-rule="evenodd"/>
        <path id="Trazado_1057611" data-name="Trazado 1057611" d="M121.308,84.7c.115.029.216.072.317.1a6.2,6.2,0,0,1,7.325-2.97,7.076,7.076,0,0,1,4.513,4.225,6.229,6.229,0,0,1,6.013-1.312,7.184,7.184,0,0,1,5.018,6.7c.144.029.288.072.433.115a7.171,7.171,0,0,1,4.83,8.449,6.3,6.3,0,0,1-3.2,4.181,7.708,7.708,0,0,1-.159.98,6.231,6.231,0,0,1-7.945,4.6,6.6,6.6,0,0,1-2.35-1.254,8.773,8.773,0,0,1-8.911,3.533c-1.629,5.032,2.019,6.532.533,7.541-3.778,2.581-6.3-3.763-6.762-7.166a6.214,6.214,0,0,1-4.917.519,7.171,7.171,0,0,1-4.83-8.449,6.531,6.531,0,0,1,.663-1.7A7.225,7.225,0,0,1,109.3,95.51a6.291,6.291,0,0,1,3.879-4.484,6.432,6.432,0,0,1,.187-1.73,6.246,6.246,0,0,1,7.945-4.6Z" transform="translate(-109.111 -81.545)" fill="#f06597" fill-rule="evenodd"/>
        <path id="Trazado_1057612" data-name="Trazado 1057612" d="M122.325,84.7c.115.029.216.072.317.1a6.2,6.2,0,0,1,7.325-2.97,7.076,7.076,0,0,1,4.513,4.225,6.23,6.23,0,0,1,6.013-1.312,7.184,7.184,0,0,1,5.018,6.7c.144.029.288.072.433.115a7.189,7.189,0,0,1,4.946,5.854c-4.181,4.153-11.347,6.892-19.494,6.892-9.314,0-17.346-3.576-21.094-8.767v-.014a6.291,6.291,0,0,1,3.879-4.484,6.432,6.432,0,0,1,.187-1.73,6.264,6.264,0,0,1,7.959-4.614Z" transform="translate(-110.129 -81.545)" fill="#f499c1" fill-rule="evenodd"/>
        <path id="Trazado_1057613" data-name="Trazado 1057613" d="M314.5,128.5a1.735,1.735,0,1,1-1.6,1.73A1.675,1.675,0,0,1,314.5,128.5Z" transform="translate(-283.517 -121.73)" fill="#f9c9de" fill-rule="evenodd"/>
        <path id="Trazado_1057614" data-name="Trazado 1057614" d="M316.551,156.2a.926.926,0,0,1,0,1.846.9.9,0,0,1-.851-.923A.908.908,0,0,1,316.551,156.2Z" transform="translate(-285.913 -145.436)" fill="#f9c9de" fill-rule="evenodd"/>
        <path id="Trazado_1057615" data-name="Trazado 1057615" d="M170.2,115.3a1.735,1.735,0,1,1-1.6,1.73A1.675,1.675,0,0,1,170.2,115.3Z" transform="translate(-160.023 -110.433)" fill="#f9c9de" fill-rule="evenodd"/>
        <path id="Trazado_1057616" data-name="Trazado 1057616" d="M172.251,143a.9.9,0,0,1,.851.923.854.854,0,1,1-1.7,0A.908.908,0,0,1,172.251,143Z" transform="translate(-162.419 -134.139)" fill="#f9c9de" fill-rule="evenodd"/>
        <path id="Trazado_1057617" data-name="Trazado 1057617" d="M210.151,104.5a.926.926,0,1,1-.851.923A.908.908,0,0,1,210.151,104.5Z" transform="translate(-194.854 -101.19)" fill="#f9c9de" fill-rule="evenodd"/>
      </g>
      <path id="Trazado_1057618" data-name="Trazado 1057618" d="M47.009,48.394a1.009,1.009,0,1,1,0-2.019h3.475a1.009,1.009,0,1,1,0,2.019Zm3.374-14.563a1,1,0,1,1,.995-1.745l3.013,1.745a1,1,0,1,1-.995,1.745ZM60.563,22.9a1.008,1.008,0,0,1,1.745-1.009l1.745,3.013a1.014,1.014,0,0,1-1.759,1.009Zm14.289-3.893a1.009,1.009,0,0,1,2.019,0v3a1.009,1.009,0,1,1-2.019,0Zm14.563,2.884a1.008,1.008,0,0,1,1.384-.36.994.994,0,0,1,.36,1.37l-1.73,3.013a1.014,1.014,0,0,1-1.759-1.009Zm10.929,10.194a1,1,0,0,1,.995,1.745l-3,1.745a1,1,0,1,1-.995-1.745ZM69.56,33.644A1,1,0,0,1,71.2,34.8a3.1,3.1,0,0,0,.519,4.109,1.007,1.007,0,0,1-1.24,1.586A5.1,5.1,0,0,1,69.56,33.644ZM80.388,50.975a1,1,0,0,1,.548-1.932,3.794,3.794,0,0,1,2.393,4.773c.115.072.231.13.346.2a5.251,5.251,0,0,0,7.671-3.23,5.378,5.378,0,0,1-4.066-3.475.992.992,0,0,1,.591-1.3,1,1,0,0,1,1.3.591,3.617,3.617,0,0,0,1.355,1.745,2.823,2.823,0,0,0,1.73.49,4.893,4.893,0,0,0,1.528-1.355,6.1,6.1,0,0,0-3.518-9.43.989.989,0,0,1-.779-.966c-.072-3.677-3.46-6.647-6.993-5.868a5.227,5.227,0,0,0-1.975.894,8.5,8.5,0,0,1-1.557,5.522,1,1,0,0,1-1.4.231,1.009,1.009,0,0,1-.231-1.4,6.075,6.075,0,0,0,.995-2.192,6.723,6.723,0,0,0,.144-2.35,6.535,6.535,0,0,0-1.5-2.177,5.573,5.573,0,0,0-5.854-1.2,5.153,5.153,0,0,0-2.581,2.278,1.012,1.012,0,0,1-1.254.533,5.264,5.264,0,0,0-7.08,4.513l-.043.519a5.255,5.255,0,0,0,1.528,1.759,3.669,3.669,0,0,0,2.033.692,1,1,0,1,1-.043,2,6.084,6.084,0,0,1-4.931-2.913c-3.114,1.817-3.5,6.214-1.038,8.954a6.892,6.892,0,0,1,6.128-2.48,1,1,0,1,1-.26,1.99,4.636,4.636,0,0,0-2.711.476,5.617,5.617,0,0,0-2.019,7.9,5.793,5.793,0,0,0,6.272,2.9,5.769,5.769,0,0,1,1.615-8.42,4.611,4.611,0,0,1,5.205.548,1.006,1.006,0,0,1,.13,1.413.993.993,0,0,1-1.413.13c-1.932-1.6-4.585-.043-4.672,2.682a3.6,3.6,0,0,0,1.528,3.143,1.011,1.011,0,0,1,.461.764c.187,1.73,1.384,5.45,3.114,6.56a1.715,1.715,0,0,0,2.076-.13c.13-.087-.216-.1-.375-.4a7.7,7.7,0,0,1-.577-6.546,1.014,1.014,0,0,1,1.168-.75,7.925,7.925,0,0,0,4.412-.389,7.808,7.808,0,0,0,3.46-2.7A1.843,1.843,0,0,0,80.388,50.975Zm2.278-12.688A1,1,0,0,1,84.31,39.44a2.037,2.037,0,0,0-.1,2.12,1.644,1.644,0,0,0,.332.433c.173.087.36.173.533.274.13.072.26.144.4.231a1.008,1.008,0,0,1,.317,1.384,1,1,0,0,1-1.384.317c-3.028-1.9-6.719-.418-8.42,2.667a1.01,1.01,0,0,1-1.773-.966,8.37,8.37,0,0,1,7.8-4.542A3.993,3.993,0,0,1,82.667,38.287Zm-15.5-9.055a7.359,7.359,0,0,1,11.174-.952,8.428,8.428,0,0,1,1.485,1.86,7.585,7.585,0,0,1,10.007,2.134,8.423,8.423,0,0,1,1.6,4.008,8.106,8.106,0,0,1,4.311,3.489h5.638a3.391,3.391,0,0,1,3.432,3.331V69.4a3.341,3.341,0,0,1-1.831,2.941v3.1a3.341,3.341,0,0,1-3.331,3.331H89.04v5.119a1.012,1.012,0,0,1-1.615.807l-4.773-2.941-4.412,2.97a1.015,1.015,0,0,1-1.572-.836V78.774H74.246a3.341,3.341,0,0,1-3.331-3.331V66.663c-2.7-.851-4.181-4.744-4.744-7.18a7.757,7.757,0,0,1-9.1-3.677,8.066,8.066,0,0,1-.476-7.137C52.69,44.905,53.4,38.33,58.155,35.98a7.318,7.318,0,0,1,9.012-6.748ZM96.638,41.805a7.648,7.648,0,0,1-3.158,8.637,7.288,7.288,0,0,1-10.756,5.349c-.144-.087-.3-.173-.447-.26a9.81,9.81,0,0,1-4.8,3V70.714l.692.014H101.4a1.368,1.368,0,0,0,1.413-1.312V43.1a1.369,1.369,0,0,0-1.413-1.312H96.638ZM75.472,58.848a9.241,9.241,0,0,1-1.543-.043,5.843,5.843,0,0,0,.649,4.268c.634,1.269,1.038,2.062-.288,2.97a4.755,4.755,0,0,1-1.312.634v4.455a6.357,6.357,0,0,1,2.494-.476Zm2.235,15.63H88.045a1,1,0,0,1,1.009,1.009v1.269H99.666a1.317,1.317,0,0,0,1.312-1.312V72.733h-24.5a1.2,1.2,0,0,1-.317-.043c-1.427-.014-2.7.13-3.2,1.3v1.471a1.317,1.317,0,0,0,1.312,1.312H76.7V75.5a1.006,1.006,0,0,1,1.009-1.024ZM87.035,76.5h-8.32V81.99l3.374-2.278a1.006,1.006,0,0,1,1.1-.014l3.864,2.393V76.5Z" fill="#010101"/>
    </g>
  </g>
</svg>
