<svg xmlns="http://www.w3.org/2000/svg" xmlns:xlink="http://www.w3.org/1999/xlink" width="113" height="113" viewBox="0 0 113 113">
  <defs>
    <filter id="Trazado_982547" x="0" y="0" width="113" height="113" filterUnits="userSpaceOnUse">
      <feOffset dy="3" input="SourceAlpha"/>
      <feGaussianBlur stdDeviation="3" result="blur"/>
      <feFlood flood-opacity="0.161"/>
      <feComposite operator="in" in2="blur"/>
      <feComposite in="SourceGraphic"/>
    </filter>
  </defs>
  <g id="Grupo_1225865" data-name="Grupo 1225865" transform="translate(-1163.5 -1186.927)">
    <g id="Grupo_1225391" data-name="Grupo 1225391" transform="translate(1172.5 1192.927)">
      <g id="Grupo_1225226" data-name="Grupo 1225226">
        <g id="Grupo_1224643" data-name="Grupo 1224643">
          <g id="Grupo_1224291" data-name="Grupo 1224291">
            <g id="Grupo_1224091" data-name="Grupo 1224091">
              <g id="Grupo_1223183" data-name="Grupo 1223183" transform="translate(0)">
                <g id="Grupo_1211217" data-name="Grupo 1211217">
                  <g id="Grupo_1210736" data-name="Grupo 1210736">
                    <g id="Grupo_1210537" data-name="Grupo 1210537">
                      <g id="Grupo_1164202" data-name="Grupo 1164202">
                        <g id="Grupo_1158168" data-name="Grupo 1158168">
                          <g id="Grupo_1152576" data-name="Grupo 1152576">
                            <g id="Grupo_1148633" data-name="Grupo 1148633">
                              <g id="Grupo_1148525" data-name="Grupo 1148525">
                                <g transform="matrix(1, 0, 0, 1, -9, -6)" filter="url(#Trazado_982547)">
                                  <g id="Trazado_982547-2" data-name="Trazado 982547" transform="translate(9 6)" fill="#fdfbec">
                                    <path d="M 47.49999618530273 93.5 C 41.28936767578125 93.5 35.26533126831055 92.28396606445312 29.59518241882324 89.88570404052734 C 24.11771583557129 87.56893157958984 19.19812965393066 84.251953125 14.97308921813965 80.02690124511719 C 10.74803638458252 75.80186462402344 7.431062698364258 70.88227844238281 5.114289283752441 65.40480804443359 C 2.716022968292236 59.73466110229492 1.499996185302734 53.71062469482422 1.499996185302734 47.49999618530273 C 1.499996185302734 41.28936767578125 2.716022968292236 35.26533126831055 5.114289283752441 29.59518241882324 C 7.431062698364258 24.11771583557129 10.74803638458252 19.19812965393066 14.97308921813965 14.97308921813965 C 19.19812965393066 10.74803638458252 24.11771583557129 7.431062698364258 29.59518241882324 5.114289283752441 C 35.26533126831055 2.716022968292236 41.28936767578125 1.499996185302734 47.49999618530273 1.499996185302734 C 53.71062469482422 1.499996185302734 59.73466110229492 2.716022968292236 65.40480804443359 5.114289283752441 C 70.88227844238281 7.431062698364258 75.80186462402344 10.74803638458252 80.02690124511719 14.97308921813965 C 84.251953125 19.19812965393066 87.56893157958984 24.11771583557129 89.88570404052734 29.59518241882324 C 92.28396606445312 35.26533126831055 93.5 41.28936767578125 93.5 47.49999618530273 C 93.5 53.71062469482422 92.28396606445312 59.73466110229492 89.88570404052734 65.40480804443359 C 87.56893157958984 70.88227844238281 84.251953125 75.80186462402344 80.02690124511719 80.02690124511719 C 75.80186462402344 84.251953125 70.88227844238281 87.56893157958984 65.40480804443359 89.88570404052734 C 59.73466110229492 92.28396606445312 53.71062469482422 93.5 47.49999618530273 93.5 Z" stroke="none"/>
                                    <path d="M 47.49999618530273 2.999992370605469 C 41.4912109375 2.999992370605469 35.66376495361328 4.1761474609375 30.17950439453125 6.495796203613281 C 24.88084411621094 8.736953735351562 20.12152099609375 11.94598388671875 16.03375244140625 16.03375244140625 C 11.94598388671875 20.12152099609375 8.736953735351562 24.88084411621094 6.495796203613281 30.17950439453125 C 4.1761474609375 35.66376495361328 2.999992370605469 41.4912109375 2.999992370605469 47.49999618530273 C 2.999992370605469 53.50878143310547 4.1761474609375 59.33622741699219 6.495796203613281 64.82048797607422 C 8.736953735351562 70.11914825439453 11.94598388671875 74.87847137451172 16.03375244140625 78.96623992919922 C 20.12152099609375 83.05400848388672 24.88084411621094 86.26304626464844 30.17950439453125 88.50419616699219 C 35.66376495361328 90.82384490966797 41.4912109375 92 47.49999618530273 92 C 53.50878143310547 92 59.33622741699219 90.82384490966797 64.82048797607422 88.50419616699219 C 70.11914825439453 86.26304626464844 74.87847137451172 83.05400848388672 78.96623992919922 78.96623992919922 C 83.05400848388672 74.87847137451172 86.26304626464844 70.11914825439453 88.50419616699219 64.82048797607422 C 90.82384490966797 59.33622741699219 92 53.50878143310547 92 47.49999618530273 C 92 41.4912109375 90.82384490966797 35.66376495361328 88.50419616699219 30.17950439453125 C 86.26304626464844 24.88084411621094 83.05400848388672 20.12152099609375 78.96623992919922 16.03375244140625 C 74.87847137451172 11.94598388671875 70.11914825439453 8.736953735351562 64.82048797607422 6.495796203613281 C 59.33622741699219 4.1761474609375 53.50878143310547 2.999992370605469 47.49999618530273 2.999992370605469 M 47.49999618530273 -7.62939453125e-06 C 73.7335205078125 -7.62939453125e-06 95 21.26647186279297 95 47.49999618530273 C 95 73.7335205078125 73.7335205078125 95 47.49999618530273 95 C 21.26647186279297 95 -7.62939453125e-06 73.7335205078125 -7.62939453125e-06 47.49999618530273 C -7.62939453125e-06 21.26647186279297 21.26647186279297 -7.62939453125e-06 47.49999618530273 -7.62939453125e-06 Z" stroke="none" fill="#83793c"/>
                                  </g>
                                </g>
                              </g>
                            </g>
                          </g>
                        </g>
                      </g>
                    </g>
                  </g>
                </g>
              </g>
            </g>
          </g>
        </g>
      </g>
    </g>
    <g id="geography_4090326" transform="translate(1190.685 1210.452)">
      <g id="Grupo_1225863" data-name="Grupo 1225863" transform="translate(0.953 0.953)">
        <g id="Grupo_1225839" data-name="Grupo 1225839" transform="translate(40.032)">
          <path id="Trazado_1057658" data-name="Trazado 1057658" d="M54.438,6.719V8.625H43V6.719A5.723,5.723,0,0,1,48.719,1a5.728,5.728,0,0,1,5.719,5.719Z" transform="translate(-43 -1)" fill="#ccd1d9"/>
        </g>
        <g id="Grupo_1225840" data-name="Grupo 1225840" transform="translate(40.061 30.501)">
          <path id="Trazado_1057659" data-name="Trazado 1057659" d="M54.411,33a1.718,1.718,0,0,1-.076.2L50.1,41.683a1.55,1.55,0,0,1-2.764,0L43.106,33.2a1.718,1.718,0,0,1-.076-.2H54.411Z" transform="translate(-43.03 -33)" fill="#ccd1d9"/>
        </g>
        <g id="Grupo_1225841" data-name="Grupo 1225841" transform="translate(40.032 7.625)">
          <path id="Trazado_1057660" data-name="Trazado 1057660" d="M54.438,9v7.625H43V9Z" transform="translate(-43 -9)" fill="#ffeaa7"/>
        </g>
        <g id="Grupo_1225842" data-name="Grupo 1225842" transform="translate(40.032 15.25)">
          <path id="Trazado_1057661" data-name="Trazado 1057661" d="M48.719,17V32.25h-5.69A.94.94,0,0,1,43,32.022V17Z" transform="translate(-43 -17)" fill="#ef7385"/>
        </g>
        <g id="Grupo_1225843" data-name="Grupo 1225843" transform="translate(45.751 15.25)">
          <path id="Trazado_1057662" data-name="Trazado 1057662" d="M54.719,17V32.022a.94.94,0,0,1-.029.229H49V17Z" transform="translate(-49 -17)" fill="#b4dd7f"/>
        </g>
        <g id="Grupo_1225844" data-name="Grupo 1225844" transform="translate(0 51.47)">
          <path id="Trazado_1057663" data-name="Trazado 1057663" d="M4.813,55v3.813H1.953A.956.956,0,0,1,1,57.859V55.953A.956.956,0,0,1,1.953,55Z" transform="translate(-1 -55)" fill="#b4dd7f"/>
        </g>
        <g id="Grupo_1225845" data-name="Grupo 1225845" transform="translate(7.625 51.47)">
          <path id="Trazado_1057664" data-name="Trazado 1057664" d="M9,55H21.391v3.813H9Z" transform="translate(-9 -55)" fill="#b4dd7f"/>
        </g>
        <g id="Grupo_1225846" data-name="Grupo 1225846" transform="translate(3.813 51.47)">
          <path id="Trazado_1057665" data-name="Trazado 1057665" d="M5,55H8.813v3.813H5Z" transform="translate(-5 -55)" fill="#a0d468"/>
        </g>
        <g id="Grupo_1225847" data-name="Grupo 1225847" transform="translate(7.625 41.939)">
          <path id="Trazado_1057666" data-name="Trazado 1057666" d="M29.969,45.953v4.766H9V45H29.016A.953.953,0,0,1,29.969,45.953Z" transform="translate(-9 -45)" fill="#ffeaa7"/>
        </g>
        <g id="Grupo_1225848" data-name="Grupo 1225848" transform="translate(0 41.939)">
          <path id="Trazado_1057667" data-name="Trazado 1057667" d="M4.813,45v5.719H1.953A.956.956,0,0,1,1,49.766V45.953A.956.956,0,0,1,1.953,45Z" transform="translate(-1 -45)" fill="#ffeaa7"/>
        </g>
        <g id="Grupo_1225849" data-name="Grupo 1225849" transform="translate(3.813 41.939)">
          <path id="Trazado_1057668" data-name="Trazado 1057668" d="M5,45H8.813v5.719H5Z" transform="translate(-5 -45)" fill="#fcd770"/>
        </g>
        <g id="Grupo_1225850" data-name="Grupo 1225850" transform="translate(19.063 51.47)">
          <path id="Trazado_1057669" data-name="Trazado 1057669" d="M59.126,55.953v1.906a.956.956,0,0,1-.953.953h-14.3l-.562.562a4.6,4.6,0,0,1-6.5,0l-.562-.562H21V55.953A.956.956,0,0,1,21.953,55H35.459a6.515,6.515,0,0,1,4.6,1.906A6.515,6.515,0,0,1,44.667,55H58.173A.956.956,0,0,1,59.126,55.953Z" transform="translate(-21 -55)" fill="#cf9e76"/>
        </g>
        <g id="Grupo_1225851" data-name="Grupo 1225851" transform="translate(38.126 47.657)">
          <path id="Trazado_1057670" data-name="Trazado 1057670" d="M59.11,51v3.813H45.6A6.515,6.515,0,0,0,41,56.719V54.813A6.9,6.9,0,0,1,47.167,51H59.11Z" transform="translate(-41 -51)" fill="#e6e9ed"/>
        </g>
        <g id="Grupo_1225852" data-name="Grupo 1225852" transform="translate(38.126 43.845)">
          <path id="Trazado_1057671" data-name="Trazado 1057671" d="M57.2,47v3.813H47.167A6.9,6.9,0,0,0,41,54.625V52.719A5.728,5.728,0,0,1,46.719,47Z" transform="translate(-41 -47)" fill="#ffeaa7"/>
        </g>
        <g id="Grupo_1225853" data-name="Grupo 1225853" transform="translate(20.016 47.657)">
          <path id="Trazado_1057672" data-name="Trazado 1057672" d="M40.11,54.813v1.906a6.515,6.515,0,0,0-4.6-1.906H22V51H33.943a6.9,6.9,0,0,1,3.622,1.029A7.037,7.037,0,0,1,40.11,54.813Z" transform="translate(-22 -51)" fill="#e6e9ed"/>
        </g>
        <g id="Grupo_1225854" data-name="Grupo 1225854" transform="translate(3.813)">
          <circle id="Elipse_13582" data-name="Elipse 13582" cx="15.5" cy="15.5" r="15.5" transform="translate(-0.218 -0.406)" fill="#69d6f4"/>
        </g>
        <g id="Grupo_1225855" data-name="Grupo 1225855" transform="translate(14.154 0)">
          <path id="Trazado_1057673" data-name="Trazado 1057673" d="M35.895,14.344H33.15a1.919,1.919,0,0,1-1.525-.763L29.966,11.37a2.085,2.085,0,0,0-3.145-.229l-.734.734a1.912,1.912,0,0,1-1.353.562H19.987a1.137,1.137,0,0,1-.419-2.192L22.9,8.911a1.137,1.137,0,0,0-.419-2.192H18.852a1.912,1.912,0,0,1-1.906-1.906V3.7a1.912,1.912,0,0,0-.562-1.353L15.85,1.81A15.259,15.259,0,0,1,35.895,14.344Z" transform="translate(-15.85 -1)" fill="#b4dd7f"/>
        </g>
        <g id="Grupo_1225856" data-name="Grupo 1225856" transform="translate(20.969 17.157)">
          <path id="Trazado_1057674" data-name="Trazado 1057674" d="M34.1,19H36.23a15.267,15.267,0,0,1-5.347,9.789,14.636,14.636,0,0,1-3.355,2.135l-.429-.867a1.964,1.964,0,0,0-.858-.858l-.315-.153a1.851,1.851,0,0,1-.477-2.964l.82-.82a1.851,1.851,0,0,0-.477-2.964L23.648,21.23A1.178,1.178,0,0,1,24.182,19h2.964a3.749,3.749,0,0,1,1.21.2l1.068.353a3.833,3.833,0,0,0,2.4,0l1.068-.353A3.749,3.749,0,0,1,34.1,19Z" transform="translate(-23 -19)" fill="#b4dd7f"/>
        </g>
        <g id="Grupo_1225857" data-name="Grupo 1225857" transform="translate(13.344 38.126)">
          <path id="Trazado_1057675" data-name="Trazado 1057675" d="M26.438,41.953v2.859H15V41.953A.956.956,0,0,1,15.953,41h9.531A.956.956,0,0,1,26.438,41.953Z" transform="translate(-15 -41)" fill="#aab2bd"/>
        </g>
        <g id="Grupo_1225858" data-name="Grupo 1225858" transform="translate(17.157 34.209)">
          <path id="Trazado_1057676" data-name="Trazado 1057676" d="M22.813,36.995v3.813H19V36.995l.01-.086A18.661,18.661,0,0,0,22.8,36.89Z" transform="translate(-19 -36.89)" fill="#ccd1d9"/>
        </g>
        <g id="Grupo_1225859" data-name="Grupo 1225859" transform="translate(3.813 8.979)">
          <path id="Trazado_1057677" data-name="Trazado 1057677" d="M18.344,22.449a1.163,1.163,0,0,1-.886,1.134l-1.821.458a1.916,1.916,0,0,0-1.382,1.382l-.4,1.6a1.916,1.916,0,0,1-1.382,1.382l-1.516.381A15.221,15.221,0,0,1,5,16.692,15,15,0,0,1,6.353,10.42L7.7,11.764a3.816,3.816,0,0,0,2.7,1.115h1.334a3.734,3.734,0,0,1,1.7.4l2.164,1.077a1.55,1.55,0,0,1,0,2.764L13.34,18.236a1.3,1.3,0,0,0,.372,2.45l3.651.61a1.167,1.167,0,0,1,.982,1.153Z" transform="translate(-5 -10.42)" fill="#b4dd7f"/>
        </g>
        <g id="Grupo_1225860" data-name="Grupo 1225860" transform="translate(7.625 47.657)">
          <path id="Trazado_1057678" data-name="Trazado 1057678" d="M9,51H21.391v3.813H9Z" transform="translate(-9 -51)" fill="#ef7385"/>
        </g>
        <g id="Grupo_1225861" data-name="Grupo 1225861" transform="translate(3.813 47.657)">
          <path id="Trazado_1057679" data-name="Trazado 1057679" d="M5,51H8.813v3.813H5Z" transform="translate(-5 -51)" fill="#ed5565"/>
        </g>
        <g id="Grupo_1225862" data-name="Grupo 1225862" transform="translate(0 47.657)">
          <path id="Trazado_1057680" data-name="Trazado 1057680" d="M4.813,51v3.813H1.953A.956.956,0,0,1,1,53.859V51.953A.956.956,0,0,1,1.953,51Z" transform="translate(-1 -51)" fill="#ef7385"/>
        </g>
      </g>
      <g id="Grupo_1225864" data-name="Grupo 1225864" transform="translate(0)">
        <path id="Trazado_1057681" data-name="Trazado 1057681" d="M30,38h1.906v1.906H30Z" transform="translate(-1.406 -1.78)"/>
        <path id="Trazado_1057682" data-name="Trazado 1057682" d="M34,38h1.906v1.906H34Z" transform="translate(-1.593 -1.78)"/>
        <path id="Trazado_1057683" data-name="Trazado 1057683" d="M38,38h1.906v1.906H38Z" transform="translate(-1.78 -1.78)"/>
        <path id="Trazado_1057684" data-name="Trazado 1057684" d="M46.44,40.559a2.5,2.5,0,0,0,4.465,0l4.239-8.478a1.915,1.915,0,0,0,.2-.852V6.672A6.672,6.672,0,0,0,42,6.672V31.229a1.915,1.915,0,0,0,.2.852Zm7-27.215V15.25H43.906V13.344Zm-9.531-1.906V9.531h9.531v1.906ZM44.5,32.407h8.353L50.942,36.22H46.4Zm5.13-1.906V17.157h3.813V30.5ZM47.719,17.157V30.5H43.906V17.157Zm.426,22.55-.79-1.58h2.635l-.79,1.58a.611.611,0,0,1-1.054,0Zm.527-37.8a4.771,4.771,0,0,1,4.766,4.766v.953H43.906V6.672A4.771,4.771,0,0,1,48.672,1.906Z" transform="translate(-1.968)"/>
        <path id="Trazado_1057685" data-name="Trazado 1057685" d="M57.189,51.47H43.681a7.416,7.416,0,0,0-3.434.845,5.9,5.9,0,0,1,5-2.752H57.189V47.657H45.248a7.8,7.8,0,0,0-5.118,1.9,4.773,4.773,0,0,1,4.669-3.81H55.283V43.845H44.8A6.679,6.679,0,0,0,38.181,49.7a7.8,7.8,0,0,0-5.271-2.042H30.5V43.845a1.908,1.908,0,0,0-1.906-1.906H26.688V40.032a1.908,1.908,0,0,0-1.906-1.906H22.876V36.008a19.953,19.953,0,0,0,8.157-3.09,3.027,3.027,0,0,0,1.376-2.524,2.978,2.978,0,0,0-.878-2.119l-.355-.355A16.182,16.182,0,1,0,8.3,5.044L7.944,4.69a2.978,2.978,0,0,0-2.12-.878A3.03,3.03,0,0,0,3.3,5.189,20.01,20.01,0,0,0,17.157,36.011v2.115H15.25a1.908,1.908,0,0,0-1.906,1.906v1.906H1.906A1.908,1.908,0,0,0,0,43.845v3.813a1.885,1.885,0,0,0,.265.953A1.885,1.885,0,0,0,0,49.564V51.47a1.885,1.885,0,0,0,.265.953A1.885,1.885,0,0,0,0,53.376v1.906a1.908,1.908,0,0,0,1.906,1.906H34.872l.279.279a5.555,5.555,0,0,0,7.856,0l.279-.279h13.9A1.908,1.908,0,0,0,59.1,55.283V53.376a1.908,1.908,0,0,0-1.906-1.906ZM26.875,28.743l0-.007a2.878,2.878,0,0,0-1.279-1.279l-.316-.158a.893.893,0,0,1-.234-1.431l.824-.824a2.8,2.8,0,0,0-.727-4.485L23,19.489a.223.223,0,0,1-.125-.2.225.225,0,0,1,.225-.225h2.968a2.858,2.858,0,0,1,.9.147l1.067.356a4.793,4.793,0,0,0,3.014,0l1.066-.356a2.883,2.883,0,0,1,.906-.147h1a14.341,14.341,0,0,1-7.15,9.68Zm7.151-15.4H32.407a.957.957,0,0,1-.763-.381l-1.662-2.216a3.054,3.054,0,0,0-2.431-1.215,3.018,3.018,0,0,0-2.148.89l-.737.737a.962.962,0,0,1-.674.279H19.247a.183.183,0,0,1-.069-.354L22.514,9.75a2.09,2.09,0,0,0-.775-4.031H18.11a.954.954,0,0,1-.953-.953V3.65a2.84,2.84,0,0,0-.36-1.364A14.242,14.242,0,0,1,34.025,13.344ZM14.875,2.879l.1.1a.949.949,0,0,1,.279.675V4.766A2.863,2.863,0,0,0,18.11,7.625h3.63a.183.183,0,0,1,.068.354L18.471,9.313a2.09,2.09,0,0,0,.775,4.031h4.746a2.838,2.838,0,0,0,2.022-.838l.737-.737a1.176,1.176,0,0,1,1.706.121l1.663,2.216a2.872,2.872,0,0,0,2.288,1.144h1.858c.021.316.049.631.049.953s-.028.637-.049.953H33.026a4.776,4.776,0,0,0-1.508.244l-1.067.356a2.872,2.872,0,0,1-1.807,0L27.576,17.4a4.765,4.765,0,0,0-1.507-.244H23.1a2.131,2.131,0,0,0-.954,4.038l2.14,1.07a.893.893,0,0,1,.234,1.431l-.824.824A2.8,2.8,0,0,0,24.423,29l.316.158a.945.945,0,0,1,.39.376,14.148,14.148,0,0,1-12.147-.9,2.834,2.834,0,0,0,1.563-1.873l.4-1.594a.949.949,0,0,1,.693-.693l1.816-.455a2.124,2.124,0,0,0-.166-4.156l-3.653-.609a.348.348,0,0,1-.1-.655l2.241-1.12a2.5,2.5,0,0,0,0-4.465l-2.155-1.077a4.793,4.793,0,0,0-2.131-.5H10.159A2.842,2.842,0,0,1,8.136,10.6l-.857-.857a14.35,14.35,0,0,1,7.6-6.866Zm-8.4,8.761.309.309a4.735,4.735,0,0,0,3.37,1.4H11.49a2.865,2.865,0,0,1,1.279.3l2.155,1.077a.589.589,0,0,1,0,1.054L12.684,16.9a2.255,2.255,0,0,0,.639,4.241l3.653.609a.218.218,0,0,1,.016.426l-1.816.455A2.854,2.854,0,0,0,13.1,24.708L12.7,26.3A.949.949,0,0,1,12,27l-1.046.261A14.23,14.23,0,0,1,6.479,11.64ZM2.055,18.563A17.984,17.984,0,0,1,4.891,6.24a1.132,1.132,0,0,1,1.706-.2l.469.469A16.172,16.172,0,0,0,29.713,29.154l.469.469a1.083,1.083,0,0,1,.319.771,1.126,1.126,0,0,1-.52.933,17.984,17.984,0,0,1-12.325,2.838,18.217,18.217,0,0,1-15.6-15.6ZM19.063,36.188c.305.013.609.029.913.029.333,0,.662-.02.993-.036v1.945H19.063ZM15.25,40.032h9.531v1.906H15.25ZM1.906,49.564H3.813V51.47H1.906Zm3.813,0H7.625V51.47H5.719Zm0-1.906V43.845H7.625v3.813Zm1.906,5.719v1.906H5.719V53.376Zm1.906,0h1.906v1.906H9.531Zm0-1.906V49.564h1.906V51.47Zm0-3.813V43.845h1.906v3.813ZM1.906,43.845H3.813v3.813H1.906Zm0,9.531H3.813v1.906H1.906Zm17.157,0v1.906H13.344V53.376h3.813V51.47H13.344V49.564h5.719V47.657H13.344V43.845h15.25v3.813H20.969v1.906H32.91a5.9,5.9,0,0,1,5,2.752,7.416,7.416,0,0,0-3.434-.845H20.969A1.908,1.908,0,0,0,19.063,53.376Zm38.126,1.906H42.5l-.838.838a3.65,3.65,0,0,1-5.16,0l-.838-.838H20.969V53.376H34.477A5.516,5.516,0,0,1,38.405,55l.674.675L39.753,55a5.518,5.518,0,0,1,3.928-1.627H57.189Z" transform="translate(0)"/>
      </g>
    </g>
  </g>
</svg>
