<svg xmlns="http://www.w3.org/2000/svg" xmlns:xlink="http://www.w3.org/1999/xlink" width="41.691" height="41.691" viewBox="0 0 41.691 41.691">
  <defs>
    <clipPath id="clip-path">
      <path id="path3846" d="M0-682.664H41.691v41.691H0Z" transform="translate(0 682.664)"/>
    </clipPath>
  </defs>
  <g id="g3840" transform="translate(0 682.664)">
    <g id="g3842" transform="translate(0 -682.664)">
      <g id="g3844" transform="translate(0 0)" clip-path="url(#clip-path)">
        <g id="g3850" transform="translate(21.818 0.611)">
          <path id="path3852" d="M-289.393-214.62l-3.7-12.776a1.64,1.64,0,0,0-2.031-1.118l-12.514,3.627a.8.8,0,0,0-.543.987l1.2,4.136a.525.525,0,0,0,.714.334,4.769,4.769,0,0,0,.588-.3l.809-.49a2.572,2.572,0,0,1,3.8,1.483h0a2.572,2.572,0,0,1-2.421,3.287l-.945.018a4.787,4.787,0,0,0-.659.059.525.525,0,0,0-.424.664l1.275,4.4a.524.524,0,0,0,.649.357l4.4-1.275a.525.525,0,0,1,.664.424,4.791,4.791,0,0,1,.059.659l.018.945a2.571,2.571,0,0,0,3.287,2.421h0a2.572,2.572,0,0,0,1.483-3.8l-.49-.809a4.78,4.78,0,0,1-.3-.588.525.525,0,0,1,.334-.714l4.4-1.275A.524.524,0,0,0-289.393-214.62Z" transform="translate(308.216 228.58)" fill="none" stroke="#000" stroke-linecap="round" stroke-linejoin="round" stroke-miterlimit="10" stroke-width="1.3"/>
        </g>
        <g id="g3854" transform="translate(1.028 20.22)">
          <path id="path3856" d="M-204.637-163.654l.913.246a4.773,4.773,0,0,0,.65.127.525.525,0,0,0,.592-.52v-5.1h-5.1a.525.525,0,0,1-.52-.592,4.758,4.758,0,0,1,.127-.65l.246-.913a2.572,2.572,0,0,0-2.483-3.24,2.572,2.572,0,0,0-2.483,3.24l.246.913a4.767,4.767,0,0,1,.127.65.525.525,0,0,1-.52.592h-5.1v13.825a1.64,1.64,0,0,0,1.64,1.64h13.825v-5.1a.525.525,0,0,0-.592-.52,4.771,4.771,0,0,0-.65.127l-.913.246a2.572,2.572,0,0,1-3.24-2.483A2.572,2.572,0,0,1-204.637-163.654Z" transform="translate(217.947 174.298)" fill="none" stroke="#000" stroke-linecap="round" stroke-linejoin="round" stroke-miterlimit="10" stroke-width="1.3"/>
        </g>
        <g id="g3858" transform="translate(1.028 10.15)">
          <path id="path3860" d="M-96.976,0h-4.668a1.64,1.64,0,0,0-1.64,1.64V15.465h5.1a.525.525,0,0,0,.52-.592,4.771,4.771,0,0,0-.127-.649l-.246-.913a2.572,2.572,0,0,1,2.483-3.24,2.572,2.572,0,0,1,2.483,3.24l-.246.913a4.785,4.785,0,0,0-.127.649.525.525,0,0,0,.52.592h5.1v-5.1a.525.525,0,0,1,.592-.52,4.785,4.785,0,0,1,.65.127l.913.246a2.572,2.572,0,0,0,3.24-2.483,2.572,2.572,0,0,0-3.24-2.483l-.913.246a4.785,4.785,0,0,1-.65.127.525.525,0,0,1-.592-.52V.8a.8.8,0,0,0-.8-.8h-5.511" transform="translate(103.284)" fill="none" stroke="#000" stroke-linecap="round" stroke-linejoin="round" stroke-miterlimit="10" stroke-width="1.3"/>
        </g>
        <g id="g3862" transform="translate(11.099 25.615)">
          <path id="path3864" d="M-320.715-96.976v-5.511a.8.8,0,0,0-.8-.8h-4.306a.525.525,0,0,0-.52.592,4.786,4.786,0,0,0,.127.65l.246.913a2.572,2.572,0,0,1-2.483,3.24h0a2.572,2.572,0,0,1-2.483-3.24l.246-.913a4.772,4.772,0,0,0,.127-.65.525.525,0,0,0-.52-.592h-5.1v5.1a.525.525,0,0,1-.592.52,4.772,4.772,0,0,1-.65-.127l-.913-.246a2.572,2.572,0,0,0-3.24,2.483,2.572,2.572,0,0,0,3.24,2.483l.913-.246a4.774,4.774,0,0,1,.65-.127.525.525,0,0,1,.592.52v5.1h13.825a1.64,1.64,0,0,0,1.64-1.64v-4.668" transform="translate(341.575 103.284)" fill="none" stroke="#000" stroke-linecap="round" stroke-linejoin="round" stroke-miterlimit="10" stroke-width="1.3"/>
        </g>
      </g>
    </g>
  </g>
</svg>
