<svg xmlns="http://www.w3.org/2000/svg" width="36.467" height="34.655" viewBox="0 0 36.467 34.655">
  <g id="paint-palette_1077680" transform="translate(-0.001 0.001)">
    <path id="Trazado_1056748" data-name="Trazado 1056748" d="M317.03,131.236a.712.712,0,1,0,.992.175A.713.713,0,0,0,317.03,131.236Zm0,0" transform="translate(-294.167 -121.769)"/>
    <path id="Trazado_1056749" data-name="Trazado 1056749" d="M352.76,61.7l-4.3,3.321a.712.712,0,0,0,.871,1.127l4.3-3.32a.712.712,0,0,0-.871-1.127Zm0,0" transform="translate(-323.388 -57.164)"/>
    <path id="Trazado_1056750" data-name="Trazado 1056750" d="M34.773,4.662C36.346,2.724,36.808,1.433,36.225.6c-.629-.9-2.079-.8-4.7.335A49.9,49.9,0,0,0,24.713,4.7C18.8.7,12.094-.171,7.1,2.453,2.444,4.9-.078,9.978,0,16.742A17.909,17.909,0,0,0,2.531,26.2c1.419,2.253,3.278,3.721,5.1,4.028a3.371,3.371,0,0,0,3.907-2.39c.553-1.533.162-3.541,2.265-4.377a2.455,2.455,0,0,1,3.163,1.4c1.836,4,2.574,7.674,7.011,9.233A7.677,7.677,0,0,0,33.49,31.04c3.278-4.959,2.956-14.278-3.462-21.689a36.915,36.915,0,0,0,4.746-4.689ZM32.3,30.255C30.485,33,27.7,33.889,24.449,32.749c-3.765-1.323-4.386-4.554-6.188-8.483a3.889,3.889,0,0,0-4.984-2.128C10.363,23.3,10.662,26.07,10.2,27.356a1.965,1.965,0,0,1-2.33,1.469c-2.545-.429-6.351-4.572-6.441-12.1C1.353,10.523,3.605,5.9,7.767,3.714,12.154,1.407,18.073,2.123,23.418,5.55c-.374.252-.747.507-1.115.765a53.1,53.1,0,0,0-4.5,3.5l0,0,0,0a26.7,26.7,0,0,0-3.577,3.68,3.561,3.561,0,0,0-4.206,1.915l-.766,1.643a3.562,3.562,0,1,0,2.189,3.6l2.116-.185a3.559,3.559,0,0,0,3.227-3.166A25.886,25.886,0,0,0,21.4,15.262a.694.694,0,0,0,.31-.171,53.137,53.137,0,0,0,4.679-2.942c.859-.6,1.709-1.238,2.537-1.9,5.905,6.808,6.387,15.447,3.377,20Zm-15.659-14.4a3.545,3.545,0,0,0-1.136-1.682,24.238,24.238,0,0,1,2.641-2.752l2.018,2.882a24.5,24.5,0,0,1-3.523,1.552ZM8,20.6a.712.712,0,0,0,.583.3c.021,0,.041,0,.062,0l1.347-.118a2.138,2.138,0,1,1-1.339-2.429l-.716,1.537A.711.711,0,0,0,8,20.6Zm1.75-1.225,1.564-3.356a2.137,2.137,0,1,1,2.125,3.034Zm15.826-8.394c-1.4.983-2.8,1.867-4.147,2.636l-2.2-3.141c1.189-1.01,2.5-2.017,3.9-3A58.228,58.228,0,0,1,31.7,2.414c2.316-1.046,3.129-1.013,3.337-.972A6.162,6.162,0,0,1,33.45,4.027a43.942,43.942,0,0,1-7.879,6.956Zm0,0" transform="translate(0 0)"/>
    <path id="Trazado_1056751" data-name="Trazado 1056751" d="M324.389,325.793a3.561,3.561,0,1,0,3.561,3.561A3.565,3.565,0,0,0,324.389,325.793Zm0,5.7a2.137,2.137,0,1,1,2.137-2.137A2.139,2.139,0,0,1,324.389,331.491Zm0,0" transform="translate(-297.977 -302.589)"/>
    <path id="Trazado_1056752" data-name="Trazado 1056752" d="M344.389,205.8a3.561,3.561,0,1,0,3.561,3.561A3.565,3.565,0,0,0,344.389,205.8Zm0,5.7a2.137,2.137,0,1,1,2.137-2.137A2.139,2.139,0,0,1,344.389,211.495Zm0,0" transform="translate(-316.552 -191.14)"/>
    <path id="Trazado_1056753" data-name="Trazado 1056753" d="M94.393,82.919a3.561,3.561,0,1,0-3.561-3.561A3.565,3.565,0,0,0,94.393,82.919Zm0-5.7a2.137,2.137,0,1,1-2.137,2.137A2.139,2.139,0,0,1,94.393,77.221Zm0,0" transform="translate(-84.362 -70.399)"/>
  </g>
</svg>
