<svg xmlns="http://www.w3.org/2000/svg" width="36.975" height="36.513" viewBox="0 0 36.975 36.513">
  <g id="writing_6776685" transform="translate(0 -3)">
    <path id="Trazado_1056736" data-name="Trazado 1056736" d="M36.359,351.278h-.321v-4.071a.616.616,0,0,0-.556-.613c-3.478-.344-9.909-2.921-13.787-2.921a.616.616,0,0,0-.006,1.233c3.644.033,9.427,2.317,13.116,2.847v3.525H20.915a.616.616,0,0,0-.616.616.817.817,0,0,1-.815.817H17.491a.817.817,0,0,1-.815-.817.616.616,0,0,0-.616-.616H2.169v-3.525c4.7-.676,13.715-4.5,15.7-2.028v1.53c-2.4-1.238-7.12.141-9.861.892a.616.616,0,0,0,.162,1.211c.6,0,7.991-2.671,9.7-.552v1.8a.616.616,0,0,0,1.232,0v-1.8c1.709-2.121,9.088.552,9.7.552a.616.616,0,0,0,.162-1.211c-2.88-.789-7.489-2.115-9.861-.892,0-1.889,0-1.748-.006-1.809a.62.62,0,0,0-.092-.252c-2.492-3.906-12.438.9-17.514,1.4a.616.616,0,0,0-.556.613v4.071H.616a.616.616,0,0,0,0,1.233H15.538a2.051,2.051,0,0,0,1.953,1.433h1.993a2.051,2.051,0,0,0,1.953-1.433H36.359a.616.616,0,0,0,0-1.233Z" transform="translate(0 -314.431)"/>
    <path id="Trazado_1056737" data-name="Trazado 1056737" d="M175.845,27.288a.616.616,0,1,0,1.216.2A25.378,25.378,0,0,1,187.889,10.5a.616.616,0,1,0-.692-1.02,26.35,26.35,0,0,0-10.163,13.163c-2.844-7.042,9.6-14.113,13.673-17.509a36.367,36.367,0,0,1-1.3,7.954,5.9,5.9,0,0,1-1.877.233.616.616,0,0,0-.044,1.232,7.2,7.2,0,0,0,1.5-.1,22.6,22.6,0,0,1-1.871,4.184,6.539,6.539,0,0,1-4.621.285.616.616,0,0,0-.361,1.179,7.715,7.715,0,0,0,3.88.182,8.819,8.819,0,0,1-5.1,3.511.616.616,0,1,0,.25,1.207C188.908,23.391,191.9,11.6,191.988,3.623a.617.617,0,0,0-1.115-.369c-2.046,2.824-20.16,11.691-14.365,21.062A28.259,28.259,0,0,0,175.845,27.288Z" transform="translate(-161.861)"/>
  </g>
</svg>
