<svg id="technology_15898213" xmlns="http://www.w3.org/2000/svg" width="45.849" height="45.849" viewBox="0 0 45.849 45.849">
  <path id="Trazado_1056738" data-name="Trazado 1056738" d="M31.189,35.076l.824.824a10.062,10.062,0,0,0-.931,2.249H29.918A2,2,0,0,0,28,40.216v1.35a2,2,0,0,0,1.92,2.07h1.164a10.119,10.119,0,0,0,.931,2.249l-.824.824a2,2,0,0,0,.107,2.823l.956.956a2.149,2.149,0,0,0,1.508.638,1.845,1.845,0,0,0,1.315-.534l.824-.824a10.1,10.1,0,0,0,2.249.931v.938h-.122a2.149,2.149,0,0,0-2.149,2.149V63.1a.716.716,0,1,0,1.433,0V53.788a.716.716,0,0,1,.716-.716h5.731a.716.716,0,0,1,.716.716v6.447a.716.716,0,0,0,1.433,0V53.788a2.149,2.149,0,0,0-2.149-2.149H43.64V50.7a10.09,10.09,0,0,0,2.249-.931l.827.827a1.841,1.841,0,0,0,1.311.53,2.149,2.149,0,0,0,1.508-.641l.956-.956a2.006,2.006,0,0,0,.1-2.823l-.824-.824a10.122,10.122,0,0,0,.931-2.249h1.164a2,2,0,0,0,1.92-2.067V40.216a2,2,0,0,0-1.92-2.07H50.7a10.083,10.083,0,0,0-.931-2.249l.824-.824a2,2,0,0,0-.107-2.819l-.956-.956a2.149,2.149,0,0,0-1.508-.638,1.841,1.841,0,0,0-1.315.534l-.824.824a10.1,10.1,0,0,0-2.249-.931V29.918A2,2,0,0,0,41.57,28h-1.35a2,2,0,0,0-2.07,1.92v1.164a10.09,10.09,0,0,0-2.249.931l-.824-.824a1.841,1.841,0,0,0-1.315-.534,2.149,2.149,0,0,0-1.512.641l-.956.956a2,2,0,0,0-.1,2.823Zm1.121-1.791.953-.989a.716.716,0,0,1,.5-.222.419.419,0,0,1,.3.115l1.626,1.626.487-.312a8.69,8.69,0,0,1,2.84-1.178l.562-.122V29.918c0-.265.294-.487.638-.487h1.35a.577.577,0,0,1,.638.487v2.3l.562.122a8.683,8.683,0,0,1,2.84,1.178l.484.312L47.716,32.2a.419.419,0,0,1,.3-.115.716.716,0,0,1,.505.208l.967.971a.587.587,0,0,1,.107.8l-1.626,1.63.312.484a8.683,8.683,0,0,1,1.178,2.84l.122.562h2.3a.584.584,0,0,1,.473.638v1.35a.584.584,0,0,1-.487.638h-2.3l-.122.562a8.711,8.711,0,0,1-1.178,2.844l-.312.487,1.626,1.626a.587.587,0,0,1-.093.8l-.967.971a.716.716,0,0,1-.5.222.419.419,0,0,1-.3-.111l-1.63-1.63-.487.312a8.69,8.69,0,0,1-2.84,1.178l-.562.122v2.056H39.578v-2.07l-.562-.122a8.686,8.686,0,0,1-2.84-1.178l-.487-.312-1.626,1.63a.419.419,0,0,1-.3.115.716.716,0,0,1-.494-.211l-.971-.971a.587.587,0,0,1-.107-.8l1.63-1.626-.312-.487a8.7,8.7,0,0,1-1.178-2.844l-.122-.562H29.918a.587.587,0,0,1-.487-.638v-1.35a.577.577,0,0,1,.487-.638h2.3l.122-.562a8.665,8.665,0,0,1,1.178-2.84l.312-.487-1.626-1.626a.584.584,0,0,1,.09-.8Z" transform="translate(-17.968 -17.968)"/>
  <ellipse id="Elipse_13558" data-name="Elipse 13558" cx="1" cy="0.5" rx="1" ry="0.5" transform="translate(26.598 44.251)"/>
  <path id="Trazado_1056739" data-name="Trazado 1056739" d="M58,106.716V110.3a.716.716,0,1,0,1.433,0v-3.582a.716.716,0,1,0-1.433,0Z" transform="translate(-37.225 -68.032)"/>
  <ellipse id="Elipse_13559" data-name="Elipse 13559" cx="1" cy="0.5" rx="1" ry="0.5" transform="translate(26.598 25.251)"/>
  <path id="Trazado_1056740" data-name="Trazado 1056740" d="M58.866,5.731A2.866,2.866,0,1,0,56,2.866,2.866,2.866,0,0,0,58.866,5.731Zm0-4.3a1.433,1.433,0,1,1-1.433,1.433A1.433,1.433,0,0,1,58.866,1.433Z" transform="translate(-35.941)"/>
  <ellipse id="Elipse_13560" data-name="Elipse 13560" cx="1" cy="0.5" rx="1" ry="0.5" transform="translate(21.598 7.251)"/>
  <path id="Trazado_1056741" data-name="Trazado 1056741" d="M114.866,56a2.866,2.866,0,1,0,2.866,2.866A2.866,2.866,0,0,0,114.866,56Zm0,4.3a1.433,1.433,0,1,1,1.433-1.433A1.433,1.433,0,0,1,114.866,60.3Z" transform="translate(-71.882 -35.941)"/>
  <ellipse id="Elipse_13561" data-name="Elipse 13561" cx="0.5" cy="1" rx="0.5" ry="1" transform="translate(37.598 22.251)"/>
  <path id="Trazado_1056742" data-name="Trazado 1056742" d="M2.866,61.731A2.866,2.866,0,1,0,0,58.866,2.866,2.866,0,0,0,2.866,61.731Zm0-4.3a1.433,1.433,0,1,1-1.433,1.433,1.433,1.433,0,0,1,1.433-1.433Z" transform="translate(0 -35.941)"/>
  <ellipse id="Elipse_13562" data-name="Elipse 13562" cy="1" ry="1" transform="translate(7.598 22.251)"/>
  <path id="Trazado_1056743" data-name="Trazado 1056743" d="M100.484,96.435a2.848,2.848,0,1,0,.846,2.026,2.866,2.866,0,0,0-.846-2.026ZM99.47,99.476a1.428,1.428,0,1,1,.422-1.014,1.433,1.433,0,0,1-.422,1.014Z" transform="translate(-61.351 -61.354)"/>
  <circle id="Elipse_13563" data-name="Elipse 13563" cx="0.716" cy="0.716" r="0.716" transform="translate(32.55 33.559) rotate(-45)"/>
  <path id="Trazado_1056744" data-name="Trazado 1056744" d="M19.261,22.131a2.866,2.866,0,1,0-2.027-.838A2.866,2.866,0,0,0,19.261,22.131Zm-1.014-3.879a1.433,1.433,0,1,1-.42,1.014A1.433,1.433,0,0,1,18.248,18.251Z" transform="translate(-10.522 -10.525)"/>
  <circle id="Elipse_13564" data-name="Elipse 13564" cx="0.716" cy="0.716" r="0.716" transform="translate(11.272 12.29) rotate(-45)"/>
  <path id="Trazado_1056745" data-name="Trazado 1056745" d="M19.261,101.331a2.866,2.866,0,1,0-2.027-.838,2.866,2.866,0,0,0,2.027.838Zm-1.014-3.879a1.433,1.433,0,1,1-.42,1.014A1.433,1.433,0,0,1,18.248,97.451Z" transform="translate(-10.522 -61.356)"/>
  <circle id="Elipse_13565" data-name="Elipse 13565" cx="0.716" cy="0.716" r="0.716" transform="translate(11.272 33.561) rotate(-45.01)"/>
  <path id="Trazado_1056746" data-name="Trazado 1056746" d="M98.461,22.131a2.866,2.866,0,1,0-2.027-.838,2.866,2.866,0,0,0,2.027.838Zm-1.014-3.879a1.433,1.433,0,1,1-.419,1.014A1.433,1.433,0,0,1,97.448,18.251Z" transform="translate(-61.353 -10.525)"/>
  <circle id="Elipse_13566" data-name="Elipse 13566" cx="0.716" cy="0.716" r="0.716" transform="translate(32.55 12.287) rotate(-45.01)"/>
  <path id="Trazado_1056747" data-name="Trazado 1056747" d="M61.716,48.433a5.015,5.015,0,0,1,5.015,5.015.716.716,0,0,0,1.433,0A6.447,6.447,0,0,0,61.716,47a.716.716,0,0,0,0,1.433Z" transform="translate(-39.15 -30.165)"/>
</svg>
