<svg xmlns="http://www.w3.org/2000/svg" width="38.073" height="38.072" viewBox="0 0 38.073 38.072">
  <g id="checklist_6757069" transform="translate(0 0)">
    <path id="Trazado_1056766" data-name="Trazado 1056766" d="M1.269,50.791H6.98a1.265,1.265,0,0,0,1.093-.635H9.518a1.265,1.265,0,0,0,1.092-.635h2.911a1.9,1.9,0,0,1,.638.11l7.889,2.829a3.916,3.916,0,0,0,1.344.233,4.442,4.442,0,0,0,2.744-.952l9.3-7.475a2.04,2.04,0,0,0,.737-1.572,2.018,2.018,0,0,0-1.12-1.8,2.07,2.07,0,0,0-2.164.156l-2.96,2.157a2.086,2.086,0,0,0-1.693-1.493l-10.1-1.65a3.638,3.638,0,0,0-2.829.68l-1.05.78a1.912,1.912,0,0,1-1.142.381h-2.5a1.265,1.265,0,0,0-1.093-.635H8.073a1.265,1.265,0,0,0-1.093-.635H1.269A1.269,1.269,0,0,0,0,41.908v7.614A1.269,1.269,0,0,0,1.269,50.791Zm13.748-8.249,1.049-.786a2.4,2.4,0,0,1,1.847-.444l10.114,1.656a.8.8,0,0,1,.692.713.725.725,0,0,1-.226.553.712.712,0,0,1-.516.213H19.036a.635.635,0,0,0,0,1.269h2.305l2.676,2.265a1.18,1.18,0,0,0,1.446.051l8.167-5.951a.812.812,0,0,1,.844-.052.748.748,0,0,1,.425.669.769.769,0,0,1-.271.591L25.34,50.756a3.1,3.1,0,0,1-2.859.513l-7.894-2.831a3.183,3.183,0,0,0-1.065-.185H10.787V43.177h2.327A3.192,3.192,0,0,0,15.017,42.542Zm11.47,3.173-1.709,1.246-1.472-1.246ZM9.518,42.542v6.345H8.249V42.542Zm-8.249-.635H6.98v7.614H1.269Z" transform="translate(0 -14.622)"/>
    <path id="Trazado_1056767" data-name="Trazado 1056767" d="M46.5,1.9H43.149a1.265,1.265,0,0,0-1.093-.635h-.342a2.535,2.535,0,0,0-4.392,0H36.98a1.265,1.265,0,0,0-1.093.635H32.538A2.538,2.538,0,0,0,30,4.442V22.209a2.538,2.538,0,0,0,2.538,2.538H46.5a2.538,2.538,0,0,0,2.538-2.538V4.442A2.538,2.538,0,0,0,46.5,1.9Zm-9.518.635h.749a.635.635,0,0,0,.6-.429,1.261,1.261,0,0,1,2.378,0,.635.635,0,0,0,.6.429h.749V3.807H36.98ZM47.767,22.209A1.269,1.269,0,0,1,46.5,23.478H32.538a1.269,1.269,0,0,1-1.269-1.269V4.442a1.269,1.269,0,0,1,1.269-1.269h3.173v.635A1.269,1.269,0,0,0,36.98,5.076h5.076a1.269,1.269,0,0,0,1.269-1.269V3.173H46.5a1.269,1.269,0,0,1,1.269,1.269Z" transform="translate(-10.964 0)"/>
    <path id="Trazado_1056768" data-name="Trazado 1056768" d="M49.98,10H43.635a.635.635,0,1,0,0,1.269H49.98a.635.635,0,1,0,0-1.269Z" transform="translate(-15.715 -3.654)"/>
    <path id="Trazado_1056769" data-name="Trazado 1056769" d="M43.635,15.269h2.538a.635.635,0,1,0,0-1.269H43.635a.635.635,0,1,0,0,1.269Z" transform="translate(-15.715 -5.116)"/>
    <path id="Trazado_1056770" data-name="Trazado 1056770" d="M37.665,10.254,36.2,12.207l-.117-.117a.634.634,0,1,0-.9.9l.635.634a.635.635,0,0,0,.449.186h.045a.635.635,0,0,0,.463-.254l1.9-2.538a.635.635,0,1,0-1.015-.761Z" transform="translate(-12.791 -3.654)"/>
    <path id="Trazado_1056771" data-name="Trazado 1056771" d="M49.98,19H43.635a.635.635,0,1,0,0,1.269H49.98a.635.635,0,1,0,0-1.269Z" transform="translate(-15.715 -6.944)"/>
    <path id="Trazado_1056772" data-name="Trazado 1056772" d="M43.635,24.269h2.538a.635.635,0,1,0,0-1.269H43.635a.635.635,0,1,0,0,1.269Z" transform="translate(-15.715 -8.405)"/>
    <path id="Trazado_1056773" data-name="Trazado 1056773" d="M37.665,19.254,36.2,21.207l-.117-.117a.634.634,0,1,0-.9.9l.635.634a.635.635,0,0,0,.449.186h.045a.635.635,0,0,0,.463-.254l1.9-2.538a.635.635,0,1,0-1.015-.761Z" transform="translate(-12.791 -6.944)"/>
    <path id="Trazado_1056774" data-name="Trazado 1056774" d="M49.98,28H43.635a.635.635,0,1,0,0,1.269H49.98a.635.635,0,1,0,0-1.269Z" transform="translate(-15.715 -10.233)"/>
    <path id="Trazado_1056775" data-name="Trazado 1056775" d="M46.173,32H43.635a.635.635,0,1,0,0,1.269h2.538a.635.635,0,1,0,0-1.269Z" transform="translate(-15.715 -11.695)"/>
    <path id="Trazado_1056776" data-name="Trazado 1056776" d="M37.665,28.254,36.2,30.207l-.117-.117a.634.634,0,1,0-.9.9l.635.634a.635.635,0,0,0,.449.186h.045a.635.635,0,0,0,.463-.254l1.9-2.538a.635.635,0,1,0-1.015-.761Z" transform="translate(-12.791 -10.233)"/>
  </g>
</svg>
