<svg xmlns="http://www.w3.org/2000/svg" width="36.701" height="44.246" viewBox="0 0 36.701 44.246">
  <path id="clipboard_18207412" d="M57.147,15.594a.6.6,0,0,1,.605-.6H68.827a.605.605,0,1,1,0,1.21H57.752A.605.605,0,0,1,57.147,15.594Zm.605,2.744h9.115a.605.605,0,0,0,0-1.21H57.752a.605.605,0,0,0,0,1.21Zm-9.915,1.076A4.271,4.271,0,1,1,51.1,20.927a4.237,4.237,0,0,1-3.264-1.514Zm.925-.78a3.057,3.057,0,1,0,2.593-5.017q-.132-.011-.263-.011a3.032,3.032,0,0,0-1.966.722h0a3.054,3.054,0,0,0-.364,4.306Zm1.451-.389a.605.605,0,0,0,.463.216h0a.606.606,0,0,0,.464-.218l1.987-2.386a.605.605,0,0,0-.93-.774l-1.524,1.83-.676-.8a.605.605,0,0,0-.926.779Zm7.54,8H68.827a.605.605,0,0,0,0-1.21H57.752a.605.605,0,0,0,0,1.21Zm0,2.138h9.115a.605.605,0,0,0,0-1.21H57.752a.605.605,0,0,0,0,1.21Zm-3.393-4.427A4.267,4.267,0,0,1,51.1,30.975q-.183,0-.368-.016a4.267,4.267,0,1,1,3.622-7Zm-.925.78a3.061,3.061,0,0,0-4.308-.364h0a3.057,3.057,0,1,0,4.309.363Zm-.958.313a.605.605,0,0,0-.852.078l-.527.633-.527-.633a.605.605,0,1,0-.93.774l.67.806-.67.806a.605.605,0,0,0,.93.774l.527-.633.527.633a.605.605,0,0,0,.93-.774l-.67-.806.67-.806A.605.605,0,0,0,52.476,25.05ZM62.624,37.219H57.752a.605.605,0,1,0,0,1.21h4.872a.605.605,0,0,0,0-1.21ZM54.359,34a4.266,4.266,0,1,1-2.9-1.5A4.275,4.275,0,0,1,54.359,34Zm-.925.78a3.061,3.061,0,0,0-4.308-.364h0a3.057,3.057,0,1,0,4.309.363Zm-.385.313a.605.605,0,0,0-.852.078L50.673,37,50,36.2a.605.605,0,0,0-.926.779l1.142,1.357a.6.6,0,0,0,.463.216h0a.606.606,0,0,0,.464-.218l1.987-2.386A.605.605,0,0,0,53.049,35.1ZM80.615,24.5l-5.76,8.909v9.813a1.524,1.524,0,0,1-1.521,1.524H45.59a1.524,1.524,0,0,1-1.521-1.524V7.469A1.524,1.524,0,0,1,45.59,5.945h4.928V4.216a.605.605,0,0,1,.605-.6h4.83a3.461,3.461,0,0,1,6.886,0h4.83a.605.605,0,0,1,.605.6V5.945h5.058a1.524,1.524,0,0,1,1.521,1.524v13.1a1.1,1.1,0,0,1,.847-.322,1.839,1.839,0,0,1,.933.308l3.342,2.159a1.335,1.335,0,0,1,.638,1.784Zm-4.052.717L67.841,38.711l1.509.984,4.4-6.8h0l4.329-6.7ZM65.371,38.545l.153,2.864,2.658-1.031ZM75.547,24.56l-1.306-.844L66.318,35.97a.6.6,0,0,1-.051.079l-.744,1.15,1.3.851ZM51.729,8.919H67.065v-4.1H62.294a.6.6,0,0,1-.6-.587,2.3,2.3,0,1,0-4.584,0,.6.6,0,0,1-.6.587H51.729v4.1ZM73.645,35.281l-3.583,5.541a.6.6,0,0,1-.289.236l-4.59,1.781a.6.6,0,0,1-.823-.532L64.1,37.388a.6.6,0,0,1,.1-.361l.476-.737H57.752a.605.605,0,0,1,0-1.21h7.7l8.1-12.523,0-.006,0-.006.088-.135V7.469a.316.316,0,0,0-.311-.314H68.275V9.524a.605.605,0,0,1-.605.6H51.124a.605.605,0,0,1-.605-.6V7.155H45.59a.316.316,0,0,0-.311.314V43.223a.316.316,0,0,0,.311.314H73.334a.316.316,0,0,0,.311-.314Zm5.891-11.341a.711.711,0,0,0-.216-.208l-3.343-2.16a.7.7,0,0,0-.277-.112L74.9,22.7l1.813,1.173h0l2.022,1.308Z" transform="translate(-44.069 -0.5)"/>
</svg>
