<svg xmlns="http://www.w3.org/2000/svg" xmlns:xlink="http://www.w3.org/1999/xlink" width="108" height="108" viewBox="0 0 108 108">
  <defs>
    <filter id="Trazado_904820" x="0" y="0" width="108" height="108" filterUnits="userSpaceOnUse">
      <feOffset dy="3" input="SourceAlpha"/>
      <feGaussianBlur stdDeviation="3" result="blur"/>
      <feFlood flood-opacity="0.161"/>
      <feComposite operator="in" in2="blur"/>
      <feComposite in="SourceGraphic"/>
    </filter>
  </defs>
  <g id="Grupo_1225522" data-name="Grupo 1225522" transform="translate(9 6)">
    <g id="Grupo_1207936" data-name="Grupo 1207936" transform="translate(0 0)">
      <g id="Grupo_1201662" data-name="Grupo 1201662">
        <g id="Grupo_1173585" data-name="Grupo 1173585">
          <g id="Grupo_1173428" data-name="Grupo 1173428">
            <g id="Grupo_1171958" data-name="Grupo 1171958">
              <g id="Grupo_1167341" data-name="Grupo 1167341">
                <g id="Grupo_1166792" data-name="Grupo 1166792">
                  <g transform="matrix(1, 0, 0, 1, -9, -6)" filter="url(#Trazado_904820)">
                    <g id="Trazado_904820-2" data-name="Trazado 904820" transform="translate(9 6)" fill="#edf3fc">
                      <path d="M 44.99999618530273 88.49999237060547 C 39.12687301635742 88.49999237060547 33.43022155761719 87.35006713867188 28.06829643249512 85.08216857910156 C 22.88852119445801 82.89130401611328 18.23629570007324 79.75457763671875 14.24084663391113 75.75914001464844 C 10.24540901184082 71.76369476318359 7.108683586120605 67.11146545410156 4.917821407318115 61.93169403076172 C 2.649921178817749 56.56976699829102 1.499996185302734 50.87311553955078 1.499996185302734 44.99999237060547 C 1.499996185302734 39.12686920166016 2.649921178817749 33.43021774291992 4.917821407318115 28.06829261779785 C 7.108683586120605 22.88851737976074 10.24540901184082 18.23630523681641 14.24084663391113 14.24085521697998 C 18.23629570007324 10.24540519714355 22.88852119445801 7.108692169189453 28.06829643249512 4.917829990386963 C 33.43022155761719 2.649929761886597 39.12687301635742 1.500004887580872 44.99999618530273 1.500004887580872 C 50.87311935424805 1.500004887580872 56.56977081298828 2.649929761886597 61.93169784545898 4.917829990386963 C 67.11147308349609 7.108692169189453 71.76369476318359 10.24540519714355 75.75914764404297 14.24085521697998 C 79.75458526611328 18.23630523681641 82.89131164550781 22.88851737976074 85.08216857910156 28.06829261779785 C 87.35007476806641 33.43021774291992 88.5 39.12686920166016 88.5 44.99999237060547 C 88.5 50.87311553955078 87.35007476806641 56.56976699829102 85.08216857910156 61.93169403076172 C 82.89131164550781 67.11146545410156 79.75458526611328 71.76369476318359 75.75914764404297 75.75914001464844 C 71.76369476318359 79.75457763671875 67.11147308349609 82.89130401611328 61.93169784545898 85.08216857910156 C 56.56977081298828 87.35006713867188 50.87311935424805 88.49999237060547 44.99999618530273 88.49999237060547 Z" stroke="none"/>
                      <path d="M 44.99999618530273 2.999992370605469 C 39.32870864868164 2.999992370605469 33.82865142822266 4.11004638671875 28.65262603759766 6.299331665039062 C 23.65165710449219 8.414566040039062 19.15968322753906 11.44333648681641 15.301513671875 15.30150604248047 C 11.44333648681641 19.15967559814453 8.414566040039062 23.65164947509766 6.299339294433594 28.65262222290039 C 4.110054016113281 33.82864761352539 2.999992370605469 39.32870483398438 2.999992370605469 44.99999237060547 C 2.999992370605469 50.67127990722656 4.110054016113281 56.17132186889648 6.299339294433594 61.34736633300781 C 8.414566040039062 66.34833526611328 11.44333648681641 70.84029388427734 15.301513671875 74.69846343994141 C 19.15968322753906 78.55663299560547 23.65165710449219 81.58540344238281 28.65262603759766 83.70063781738281 C 33.82865142822266 85.88992309570312 39.32870864868164 86.99997711181641 44.99999618530273 86.99997711181641 C 50.67128372192383 86.99997711181641 56.17134094238281 85.88992309570312 61.34736633300781 83.70063781738281 C 66.34834289550781 81.58540344238281 70.84030914306641 78.55663299560547 74.69847869873047 74.69846343994141 C 78.55665588378906 70.84029388427734 81.58542633056641 66.34833526611328 83.70065307617188 61.34736633300781 C 85.88993835449219 56.17132186889648 87 50.67127990722656 87 44.99999237060547 C 87 39.32870483398438 85.88993835449219 33.82864761352539 83.70065307617188 28.65262222290039 C 81.58542633056641 23.65164947509766 78.55665588378906 19.15967559814453 74.69847869873047 15.30150604248047 C 70.84030914306641 11.44333648681641 66.34834289550781 8.414566040039062 61.34736633300781 6.299331665039062 C 56.17134094238281 4.11004638671875 50.67128372192383 2.999992370605469 44.99999618530273 2.999992370605469 M 44.99999618530273 -7.62939453125e-06 C 69.85281372070312 -7.62939453125e-06 90 20.14717864990234 90 44.99999237060547 C 90 69.85279083251953 69.85281372070312 89.99997711181641 44.99999618530273 89.99997711181641 C 20.14717864990234 89.99997711181641 -7.62939453125e-06 69.85279083251953 -7.62939453125e-06 44.99999237060547 C -7.62939453125e-06 20.14717864990234 20.14717864990234 -7.62939453125e-06 44.99999618530273 -7.62939453125e-06 Z" stroke="none" fill="#2f4f7e"/>
                    </g>
                  </g>
                </g>
              </g>
            </g>
          </g>
        </g>
      </g>
    </g>
    <g id="pediatrician_5745350" transform="translate(16.482 13.454)">
      <path id="Trazado_1057480" data-name="Trazado 1057480" d="M179.409,251.123a3.706,3.706,0,0,1-1.721-3.13v-2.038h-10.1v2.038a3.706,3.706,0,0,1-1.721,3.13l6.725,12.56Z" transform="translate(-147.178 -218.204)" fill="#ffa78f"/>
      <path id="Trazado_1057481" data-name="Trazado 1057481" d="M88.247,310.479l-.918-9.3a8.994,8.994,0,0,0-6.751-7.837l-4.438-1.12a3.7,3.7,0,0,1-1.085-.465l-6.773,9.481-6.773-9.481a3.7,3.7,0,0,1-1.085.465l-4.516,1.129a8.994,8.994,0,0,0-6.769,7.842l-.9,9.114a.154.154,0,0,0,.153.169h7.575V315.1H80.6v-4.618Z" transform="translate(-42.823 -258.842)" fill="#01c0fa"/>
      <path id="Trazado_1057482" data-name="Trazado 1057482" d="M118.281,133.429h-2.617a2.137,2.137,0,0,0-2.137,2.137,4.2,4.2,0,0,0,4.2,4.2h.081Z" transform="translate(-100.746 -118.374)" fill="#ffb09e"/>
      <path id="Trazado_1057483" data-name="Trazado 1057483" d="M296.113,133.429h2.617a2.137,2.137,0,0,1,2.137,2.137,4.2,4.2,0,0,1-4.2,4.2h-.081Z" transform="translate(-262.73 -118.374)" fill="#ffa78f"/>
      <path id="Trazado_1057484" data-name="Trazado 1057484" d="M299.154,292.354h-1.567a1.926,1.926,0,0,0-1.926,1.926,3.785,3.785,0,0,0,3.785,3.785h.073Z" transform="translate(-262.329 -259.368)" fill="#ffe5c2"/>
      <path id="Trazado_1057485" data-name="Trazado 1057485" d="M447.417,292.354H445.85l-.364,5.711h.073a3.785,3.785,0,0,0,3.785-3.785A1.926,1.926,0,0,0,447.417,292.354Z" transform="translate(-395.25 -259.368)" fill="#fed2a4"/>
      <path id="Trazado_1057486" data-name="Trazado 1057486" d="M151.357,48a8.936,8.936,0,0,1-8.917-8.367l-.542-8.491a9.478,9.478,0,1,1,18.919,0l-.542,8.491A8.936,8.936,0,0,1,151.357,48Z" transform="translate(-125.898 -18.681)" fill="#ffcebf"/>
      <path id="Trazado_1057487" data-name="Trazado 1057487" d="M165.474,21.056a9.459,9.459,0,0,0-7.684,3.927h3.7a1.642,1.642,0,0,1,1.469.908l.132.264a3.507,3.507,0,0,0,3.11,1.908,1.4,1.4,0,0,1,1.274.878l1.84,4.6a8.923,8.923,0,0,1-8.3,12.226,8.979,8.979,0,0,1-1.605-.144,8.936,8.936,0,0,0,14.983-5.992l.542-8.491a9.479,9.479,0,0,0-9.459-10.082Z" transform="translate(-140.015 -18.68)" fill="#ffb09e"/>
      <path id="Trazado_1057488" data-name="Trazado 1057488" d="M139.563,475.936H116.434v2.23h24.63v-2.6A3.232,3.232,0,0,1,139.563,475.936Z" transform="translate(-103.325 -421.911)" fill="#08a9f1"/>
      <path id="Trazado_1057489" data-name="Trazado 1057489" d="M26.09,413.857h-15.3a.122.122,0,0,1-.117-.089L7.661,403.237a.122.122,0,0,1,.117-.156H23.011Z" transform="translate(-6.821 -357.601)" fill="#fd6930"/>
      <path id="Trazado_1057490" data-name="Trazado 1057490" d="M41.9,403.081H38.074l1.3,4.551a3.134,3.134,0,0,1-3.013,3.995H28.945l.612,2.142a.122.122,0,0,0,.117.089h15.3Z" transform="translate(-25.707 -357.601)" fill="#fd5426"/>
      <path id="Trazado_1057491" data-name="Trazado 1057491" d="M46.91,389.437h-6a.122.122,0,0,0-.117.156l.81,2.835a.122.122,0,0,0,.117.089h6.066Z" transform="translate(-36.217 -345.497)" fill="#b4d2e2"/>
      <path id="Trazado_1057492" data-name="Trazado 1057492" d="M344.826,368.417c2.364,0,4.417-2.359,5.449-4.314l-.315-.09a1.914,1.914,0,0,1-1.388-1.84v-2.214a6.629,6.629,0,0,1-7.492,0v2.214a1.914,1.914,0,0,1-1.388,1.84l-.315.09C340.409,366.058,342.462,368.417,344.826,368.417Z" transform="translate(-301.113 -319.345)" fill="#fed2a4"/>
      <path id="Trazado_1057493" data-name="Trazado 1057493" d="M296.741,397.2l-1.8-.514a6.16,6.16,0,0,1-10.9,0l-1.8.513a7.225,7.225,0,0,0-5.24,6.947v4.037H301.9a.083.083,0,0,0,.083-.083v-3.954A7.224,7.224,0,0,0,296.741,397.2Z" transform="translate(-245.781 -351.927)" fill="#fed402"/>
      <path id="Trazado_1057494" data-name="Trazado 1057494" d="M296.743,397.2l-1.8-.514q-.137.26-.3.5a7.217,7.217,0,0,1,1.76,4.725v1.471a2.567,2.567,0,0,1-2.567,2.567H277.01v2.23H301.9a.083.083,0,0,0,.083-.083v-3.954a7.225,7.225,0,0,0-5.24-6.947Z" transform="translate(-245.783 -351.927)" fill="#fac600"/>
      <path id="Trazado_1057495" data-name="Trazado 1057495" d="M332.756,209.558l.185-2.593a7.972,7.972,0,1,0-15.9,0l.2,2.739Z" transform="translate(-281.277 -176.037)" fill="#855151"/>
      <path id="Trazado_1057496" data-name="Trazado 1057496" d="M332.053,241.155l-2.1-4.207-.043.057a17.165,17.165,0,0,1-8.3,5.985l-2.669.89.113,1.582a7.662,7.662,0,0,0,15.286,0l.123-1.728A6.243,6.243,0,0,1,332.053,241.155Z" transform="translate(-282.977 -210.213)" fill="#fff3de"/>
      <path id="Trazado_1057497" data-name="Trazado 1057497" d="M350.03,241.155l-2.1-4.207-.043.057a17.159,17.159,0,0,1-2.1,2.319,6.238,6.238,0,0,0,1.076,1.344,3.21,3.21,0,0,1,.985,2.563,7.667,7.667,0,0,1-8.652,7.05,7.662,7.662,0,0,0,13.112-4.82l.123-1.728A6.241,6.241,0,0,1,350.03,241.155Z" transform="translate(-300.953 -210.213)" fill="#ffe5c2"/>
      <g id="Grupo_1225727" data-name="Grupo 1225727" transform="translate(17.762 14.691)">
        <path id="Trazado_1057498" data-name="Trazado 1057498" d="M163.212,134.824h-4.931a.613.613,0,0,1-.613-.613v-3.392a.613.613,0,0,1,.613-.613h4.931a.613.613,0,0,1,.613.613v3.392A.613.613,0,0,1,163.212,134.824Z" transform="translate(-157.668 -130.206)" fill="#c8effe"/>
        <path id="Trazado_1057499" data-name="Trazado 1057499" d="M240.144,134.824h4.931a.613.613,0,0,0,.613-.613v-3.392a.613.613,0,0,0-.613-.613h-4.931a.613.613,0,0,0-.613.613v3.392A.613.613,0,0,0,240.144,134.824Z" transform="translate(-230.294 -130.206)" fill="#c8effe"/>
        <path id="Trazado_1057500" data-name="Trazado 1057500" d="M163.212,134.824h-4.931a.613.613,0,0,1-.613-.613v-3.392a.613.613,0,0,1,.613-.613h4.931a.613.613,0,0,1,.613.613v3.392A.613.613,0,0,1,163.212,134.824Z" transform="translate(-157.668 -130.206)" fill="#c8effe"/>
      </g>
      <path id="Trazado_1057501" data-name="Trazado 1057501" d="M262.639,130.206h-3.311l.067.168a8.869,8.869,0,0,1,.616,3.859q-.019.3-.057.591h2.684a.613.613,0,0,0,.613-.613v-3.392A.613.613,0,0,0,262.639,130.206Z" transform="translate(-230.096 -115.515)" fill="#99e6fc"/>
      <path id="Trazado_1057502" data-name="Trazado 1057502" d="M150.685,7.413H145.6a2.7,2.7,0,0,0-2.7,2.7v.01a.594.594,0,0,1-.328.531L141,11.438a3.016,3.016,0,0,0-1.661,2.89l.7,10.993,2.853-7.132V17.163a2.053,2.053,0,0,1,2.053-2.053h4.629a1.642,1.642,0,0,1,1.469.908l.132.264a3.507,3.507,0,0,0,3.11,1.908,1.4,1.4,0,0,1,1.274.878l2.584,6.459.607-9.514a8.084,8.084,0,0,0-8.068-8.6Z" transform="translate(-123.642 -6.577)" fill="#0681af"/>
      <path id="Trazado_1057503" data-name="Trazado 1057503" d="M46.91,389.437h-6a.122.122,0,0,0-.117.156l.81,2.835a.122.122,0,0,0,.117.089h6.066Z" transform="translate(-36.217 -345.497)" fill="#b4d2e2"/>
      <path id="Trazado_1057504" data-name="Trazado 1057504" d="M193.633,209.337a5.419,5.419,0,0,0,3.857-1.6.836.836,0,1,0-1.183-1.183,3.782,3.782,0,0,1-5.349,0,.836.836,0,1,0-1.183,1.183,5.42,5.42,0,0,0,3.857,1.6Z" transform="translate(-168.174 -183.033)"/>
      <path id="Trazado_1057505" data-name="Trazado 1057505" d="M51.438,44.467l-2.112-.6a1.082,1.082,0,0,1-.782-1.036V41.85a8.607,8.607,0,0,0,2.412-2.333,4.627,4.627,0,0,0,4.223-4.6,2.766,2.766,0,0,0-2.515-2.751l.084-1.173A8.808,8.808,0,0,0,37.8,24.066a.836.836,0,1,0,1.171,1.195,7.136,7.136,0,0,1,12.109,5.608l-.073,1.023a5.4,5.4,0,0,1-.933-1.324l-2.1-4.207a.836.836,0,0,0-1.417-.128l-.043.057a16.254,16.254,0,0,1-7.9,5.693l-1.647.549-.119-1.664a7.109,7.109,0,0,1,.283-2.57.836.836,0,0,0-1.6-.483,8.777,8.777,0,0,0-.35,3.172l.084,1.173a2.746,2.746,0,0,0-1.3.461l-.195-.049a2.863,2.863,0,0,1-2.173-2.783V28.171A9.781,9.781,0,0,0,35.327,22.1a5.012,5.012,0,0,0,3.894-4.907,2.977,2.977,0,0,0-2.974-2.974h-.355l.3-4.729A8.921,8.921,0,0,0,27.291,0H22.2a3.544,3.544,0,0,0-3.535,3.4l-1.434.717A3.845,3.845,0,0,0,15.113,7.8l.108,1.684a.836.836,0,0,0,1.669-.107L16.782,7.7a2.176,2.176,0,0,1,1.2-2.088l1.565-.782a1.426,1.426,0,0,0,.79-1.289A1.868,1.868,0,0,1,22.2,1.673h5.087a7.248,7.248,0,0,1,7.233,7.71l-.35,5.488a1.453,1.453,0,0,0-.408-.638l-.821-2.052a2.228,2.228,0,0,0-2.037-1.4A2.673,2.673,0,0,1,28.533,9.33L28.4,9.067A2.465,2.465,0,0,0,26.184,7.7H21.555a2.893,2.893,0,0,0-2.889,2.889v.865L17.48,14.414a1.449,1.449,0,0,0-.24.457l-.1-1.547a.836.836,0,0,0-1.669.107l.05.788h-.355a2.977,2.977,0,0,0-2.974,2.974A5.011,5.011,0,0,0,16.088,22.1,9.781,9.781,0,0,0,19.82,28.17v1.619a2.863,2.863,0,0,1-2.173,2.783L13.13,33.7a9.852,9.852,0,0,0-7.4,8.571l-.082.831h-.7a.958.958,0,0,0-.922,1.222l.091.318H1.207a.959.959,0,0,0-.922,1.222L3.294,56.4a.963.963,0,0,0,.922.7H56.365a.921.921,0,0,0,.92-.92V52.218a8.1,8.1,0,0,0-5.847-7.75Zm-3.276.69a5.325,5.325,0,0,1-8.4,0,2.764,2.764,0,0,0,1.291-2.33v-.143a8.436,8.436,0,0,0,5.819,0v.143a2.764,2.764,0,0,0,1.29,2.329Zm5.344-10.245a2.951,2.951,0,0,1-1.517,2.577,8.419,8.419,0,0,0,.45-2.18l.106-1.479a1.091,1.091,0,0,1,.962,1.082ZM39.139,33.57a17.907,17.907,0,0,0,7.918-5.295l1.52,3.04a7.065,7.065,0,0,0,2.282,2.64L50.77,35.19a6.826,6.826,0,0,1-13.617,0l-.067-.935Zm-6.4.422.141.055a2.751,2.751,0,0,0-.139.865,4.609,4.609,0,0,0,.173,1.253l-5.749,8.048H25.441l7.3-10.221Zm1.675.92a1.091,1.091,0,0,1,.963-1.082l.106,1.479a8.42,8.42,0,0,0,.45,2.182,2.951,2.951,0,0,1-1.519-2.578ZM28.083,15.528h4.485v2.946H28.083Zm8.165.364a1.3,1.3,0,0,1,1.3,1.3,3.348,3.348,0,0,1-2.044,3.1l.281-4.4h.462ZM20.278,11.923a.837.837,0,0,0,.06-.311V10.586A1.218,1.218,0,0,1,21.555,9.37h4.629a.8.8,0,0,1,.721.445l.132.263a4.34,4.34,0,0,0,3.844,2.37.56.56,0,0,1,.512.353l.421,1.053H27.86a1.451,1.451,0,0,0-1.45,1.45v.09H25V15.3a1.451,1.451,0,0,0-1.45-1.45H19.506Zm-1.432,3.6h4.485v2.946H18.847Zm-4.981,1.665a1.3,1.3,0,0,1,1.3-1.3h.462l.281,4.4A3.348,3.348,0,0,1,13.866,17.192Zm3.758,3.7-.079-1.231a1.446,1.446,0,0,0,1.078.481h4.931A1.451,1.451,0,0,0,25,18.7V17.067h1.406v.279a.836.836,0,0,0-.747.832v1.8a.536.536,0,0,1-.535.535h-.213a.836.836,0,1,0,0,1.673h.213a2.21,2.21,0,0,0,2.207-2.136,1.443,1.443,0,0,0,.525.1h4.931a1.446,1.446,0,0,0,1.078-.481L33.79,20.9a8.1,8.1,0,0,1-16.166,0ZM7.4,42.437a8.175,8.175,0,0,1,6.14-7.112L18.052,34.2a4.551,4.551,0,0,0,.621-.2l1.47,2.058a.836.836,0,1,0,1.361-.972L20.08,33.083a4.517,4.517,0,0,0,1.413-3.294v-.6a9.738,9.738,0,0,0,8.43,0v.6a4.517,4.517,0,0,0,1.413,3.294l-5.628,7.879-1.935-2.709a.836.836,0,1,0-1.361.972L24.679,42.4l-.864,1.21L18.408,36.04a.836.836,0,0,0-1.361.972c6.532,9.145,6.1,8.542,6.133,8.581a.836.836,0,0,0,.6.292H27.6a.836.836,0,0,0,.681-.35l5.5-7.706a4.617,4.617,0,0,0,3.184,1.687,8.606,8.606,0,0,0,2.412,2.334v.977a1.082,1.082,0,0,1-.781,1.036l-2.112.6a8.1,8.1,0,0,0-5.72,6.334H28.738a.836.836,0,0,0-.836.836v1.539a.836.836,0,0,0,1.673,0v-.7h1.064v2.946H20.148L17.243,45.25a.836.836,0,0,0-.8-.607H12.012l-.267-.933a.836.836,0,0,0-.8-.607H7.33Zm3.316,3.745H6.294l-.4-1.406H10.31ZM4.754,55.419l-2.6-9.1H4.592l.241.845a.963.963,0,0,0,.921.695h6.066a.836.836,0,0,0,.8-1.066l-.135-.473h3.319l2.6,9.1Zm50.858,0H52.5V53.177a.836.836,0,0,0-1.673,0v2.242H37.1V53.177a.836.836,0,0,0-1.673,0v2.242H32.312v-3.2a6.416,6.416,0,0,1,4.634-6.143l1.177-.336a7,7,0,0,0,11.679,0l1.178.336h0a6.415,6.415,0,0,1,4.633,6.142Z" transform="translate(-0.248)"/>
      <path id="Trazado_1057506" data-name="Trazado 1057506" d="M374.777,291.849h.192a2.074,2.074,0,0,0,2.071-2.071v-1.619a.836.836,0,0,0-1.673,0v1.619a.4.4,0,0,1-.4.4h-.192a.836.836,0,0,0,0,1.673Z" transform="translate(-331.777 -254.904)"/>
      <path id="Trazado_1057507" data-name="Trazado 1057507" d="M362.191,331.636a.836.836,0,1,0-1.183-1.183,3.184,3.184,0,0,1-4.5,0,.836.836,0,0,0-1.183,1.183A4.859,4.859,0,0,0,362.191,331.636Z" transform="translate(-315.046 -292.951)"/>
    </g>
  </g>
</svg>
