<svg xmlns="http://www.w3.org/2000/svg" xmlns:xlink="http://www.w3.org/1999/xlink" width="113" height="113" viewBox="0 0 113 113">
  <defs>
    <filter id="Trazado_982547" x="0" y="0" width="113" height="113" filterUnits="userSpaceOnUse">
      <feOffset dy="3" input="SourceAlpha"/>
      <feGaussianBlur stdDeviation="3" result="blur"/>
      <feFlood flood-opacity="0.161"/>
      <feComposite operator="in" in2="blur"/>
      <feComposite in="SourceGraphic"/>
    </filter>
  </defs>
  <g id="Grupo_1225974" data-name="Grupo 1225974" transform="translate(-1216.232 -2377.121)">
    <g id="Grupo_1225642" data-name="Grupo 1225642" transform="translate(0 -2313.639)">
      <g id="Grupo_1225179" data-name="Grupo 1225179" transform="translate(0 -50.236)">
        <g id="Grupo_1224650" data-name="Grupo 1224650" transform="translate(0 1927)">
          <g id="Grupo_1224294" data-name="Grupo 1224294" transform="translate(0.723 859.245)">
            <g id="Grupo_1224094" data-name="Grupo 1224094" transform="translate(541.51 -2620.317)">
              <g id="Grupo_1223184" data-name="Grupo 1223184" transform="translate(683 4581.069)">
                <g id="Grupo_1211216" data-name="Grupo 1211216" transform="translate(0)">
                  <g id="Grupo_1210737" data-name="Grupo 1210737">
                    <g id="Grupo_1210537" data-name="Grupo 1210537">
                      <g id="Grupo_1164202" data-name="Grupo 1164202">
                        <g id="Grupo_1158168" data-name="Grupo 1158168">
                          <g id="Grupo_1152576" data-name="Grupo 1152576">
                            <g id="Grupo_1148633" data-name="Grupo 1148633">
                              <g id="Grupo_1148525" data-name="Grupo 1148525">
                                <g transform="matrix(1, 0, 0, 1, -9, -6)" filter="url(#Trazado_982547)">
                                  <g id="Trazado_982547-2" data-name="Trazado 982547" transform="translate(9 6)" fill="#fdfbec">
                                    <path d="M 47.49999618530273 93.5 C 41.28936767578125 93.5 35.26533126831055 92.28396606445312 29.59518241882324 89.88570404052734 C 24.11771583557129 87.56893157958984 19.19812965393066 84.251953125 14.97308921813965 80.02690124511719 C 10.74803638458252 75.80186462402344 7.431062698364258 70.88227844238281 5.114289283752441 65.40480804443359 C 2.716022968292236 59.73466110229492 1.499996185302734 53.71062469482422 1.499996185302734 47.49999618530273 C 1.499996185302734 41.28936767578125 2.716022968292236 35.26533126831055 5.114289283752441 29.59518241882324 C 7.431062698364258 24.11771583557129 10.74803638458252 19.19812965393066 14.97308921813965 14.97308921813965 C 19.19812965393066 10.74803638458252 24.11771583557129 7.431062698364258 29.59518241882324 5.114289283752441 C 35.26533126831055 2.716022968292236 41.28936767578125 1.499996185302734 47.49999618530273 1.499996185302734 C 53.71062469482422 1.499996185302734 59.73466110229492 2.716022968292236 65.40480804443359 5.114289283752441 C 70.88227844238281 7.431062698364258 75.80186462402344 10.74803638458252 80.02690124511719 14.97308921813965 C 84.251953125 19.19812965393066 87.56893157958984 24.11771583557129 89.88570404052734 29.59518241882324 C 92.28396606445312 35.26533126831055 93.5 41.28936767578125 93.5 47.49999618530273 C 93.5 53.71062469482422 92.28396606445312 59.73466110229492 89.88570404052734 65.40480804443359 C 87.56893157958984 70.88227844238281 84.251953125 75.80186462402344 80.02690124511719 80.02690124511719 C 75.80186462402344 84.251953125 70.88227844238281 87.56893157958984 65.40480804443359 89.88570404052734 C 59.73466110229492 92.28396606445312 53.71062469482422 93.5 47.49999618530273 93.5 Z" stroke="none"/>
                                    <path d="M 47.49999618530273 2.999992370605469 C 41.4912109375 2.999992370605469 35.66376495361328 4.1761474609375 30.17950439453125 6.495796203613281 C 24.88084411621094 8.736953735351562 20.12152099609375 11.94598388671875 16.03375244140625 16.03375244140625 C 11.94598388671875 20.12152099609375 8.736953735351562 24.88084411621094 6.495796203613281 30.17950439453125 C 4.1761474609375 35.66376495361328 2.999992370605469 41.4912109375 2.999992370605469 47.49999618530273 C 2.999992370605469 53.50878143310547 4.1761474609375 59.33622741699219 6.495796203613281 64.82048797607422 C 8.736953735351562 70.11914825439453 11.94598388671875 74.87847137451172 16.03375244140625 78.96623992919922 C 20.12152099609375 83.05400848388672 24.88084411621094 86.26304626464844 30.17950439453125 88.50419616699219 C 35.66376495361328 90.82384490966797 41.4912109375 92 47.49999618530273 92 C 53.50878143310547 92 59.33622741699219 90.82384490966797 64.82048797607422 88.50419616699219 C 70.11914825439453 86.26304626464844 74.87847137451172 83.05400848388672 78.96623992919922 78.96623992919922 C 83.05400848388672 74.87847137451172 86.26304626464844 70.11914825439453 88.50419616699219 64.82048797607422 C 90.82384490966797 59.33622741699219 92 53.50878143310547 92 47.49999618530273 C 92 41.4912109375 90.82384490966797 35.66376495361328 88.50419616699219 30.17950439453125 C 86.26304626464844 24.88084411621094 83.05400848388672 20.12152099609375 78.96623992919922 16.03375244140625 C 74.87847137451172 11.94598388671875 70.11914825439453 8.736953735351562 64.82048797607422 6.495796203613281 C 59.33622741699219 4.1761474609375 53.50878143310547 2.999992370605469 47.49999618530273 2.999992370605469 M 47.49999618530273 -7.62939453125e-06 C 73.7335205078125 -7.62939453125e-06 95 21.26647186279297 95 47.49999618530273 C 95 73.7335205078125 73.7335205078125 95 47.49999618530273 95 C 21.26647186279297 95 -7.62939453125e-06 73.7335205078125 -7.62939453125e-06 47.49999618530273 C -7.62939453125e-06 21.26647186279297 21.26647186279297 -7.62939453125e-06 47.49999618530273 -7.62939453125e-06 Z" stroke="none" fill="#83793c"/>
                                  </g>
                                </g>
                              </g>
                            </g>
                          </g>
                        </g>
                      </g>
                    </g>
                  </g>
                </g>
              </g>
            </g>
          </g>
        </g>
      </g>
    </g>
    <g id="laptop_4079705" transform="translate(1239.378 2400)">
      <g id="Grupo_1225972" data-name="Grupo 1225972" transform="translate(1.014 1.014)">
        <g id="Grupo_1225958" data-name="Grupo 1225958" transform="translate(7.096 41.92)">
          <path id="Trazado_1057884" data-name="Trazado 1057884" d="M16.11,43.009a4.055,4.055,0,0,0,8.11,0,1.359,1.359,0,0,0-.01-.2,10.022,10.022,0,0,0,1.571-.456,12.175,12.175,0,0,1,6.549,10.8V57.2H28.276V55.174a2.034,2.034,0,0,0-2.028-2.028H22.193V57.2H12.055A4.054,4.054,0,0,1,8,53.147a12.136,12.136,0,0,1,1.815-6.4,12.281,12.281,0,0,1,4.734-4.4,10.226,10.226,0,0,0,1.561.456Z" transform="translate(-8 -42.35)" fill="#b4dd7f"/>
        </g>
        <g id="Grupo_1225959" data-name="Grupo 1225959" transform="translate(0 5.069)">
          <path id="Trazado_1057885" data-name="Trazado 1057885" d="M12.932,19.534l-.112.152a5.819,5.819,0,0,1-2.048,1.865A5.752,5.752,0,0,1,8.1,22.22v4.055H7.083a3.034,3.034,0,0,0-2.149.892l-.669,1a4.024,4.024,0,0,1-1.237-2.91,4.813,4.813,0,0,1,.051-.537,4,4,0,0,1-1.521-5.545,4.036,4.036,0,0,1,3.5-6.083A4.054,4.054,0,0,1,9.11,9.041a3.94,3.94,0,0,1,1.429.274,4.018,4.018,0,0,1,6.255-1.328,4.018,4.018,0,0,1,6.934,0,4.018,4.018,0,0,1,6.255,1.328,3.94,3.94,0,0,1,1.429-.274A4.054,4.054,0,0,1,35.468,13.1a4.036,4.036,0,0,1,3.5,6.083,4,4,0,0,1-1.521,5.545,4.814,4.814,0,0,1,.051.537,4.024,4.024,0,0,1-1.237,2.91,3.028,3.028,0,0,0-2.818-1.9H32.427V22.22A5.684,5.684,0,0,1,27.7,19.686l-.112-.152a4.027,4.027,0,0,1-3.275,1.673,4.814,4.814,0,0,1-.537-.051,4.016,4.016,0,0,1-7.036,0,4.814,4.814,0,0,1-.537.051,4.027,4.027,0,0,1-3.275-1.673Z" transform="translate(-1 -6)" fill="#b27946"/>
        </g>
        <g id="Grupo_1225960" data-name="Grupo 1225960" transform="translate(40.551)">
          <path id="Trazado_1057886" data-name="Trazado 1057886" d="M41,11.138V3.028A2.034,2.034,0,0,1,43.028,1h16.22a2.034,2.034,0,0,1,2.028,2.028v8.11a2.034,2.034,0,0,1-2.028,2.028H54.179L50.54,16.8A1.434,1.434,0,0,1,48.1,15.791V13.165H43.028A2.034,2.034,0,0,1,41,11.138Z" transform="translate(-41 -1)" fill="#e6e9ed"/>
        </g>
        <g id="Grupo_1225961" data-name="Grupo 1225961" transform="translate(20.276 56.772)">
          <path id="Trazado_1057887" data-name="Trazado 1057887" d="M40.262,57v1.014a3.037,3.037,0,0,1-3.041,3.041H24.041A3.037,3.037,0,0,1,21,58.014V57H40.262Z" transform="translate(-21 -57)" fill="#969faa"/>
        </g>
        <g id="Grupo_1225962" data-name="Grupo 1225962" transform="translate(36.496 56.772)">
          <path id="Trazado_1057888" data-name="Trazado 1057888" d="M59.3,57v1.014a3.037,3.037,0,0,1-3.041,3.041H37a3.037,3.037,0,0,0,3.041-3.041V57Z" transform="translate(-37 -57)" fill="#aab2bd"/>
        </g>
        <g id="Grupo_1225963" data-name="Grupo 1225963" transform="translate(35.482 38.524)">
          <path id="Trazado_1057889" data-name="Trazado 1057889" d="M40.055,39V57.248H36V41.028A2.034,2.034,0,0,1,38.028,39Z" transform="translate(-36 -39)" fill="#aab2bd"/>
        </g>
        <g id="Grupo_1225964" data-name="Grupo 1225964" transform="translate(39.537 38.524)">
          <path id="Trazado_1057890" data-name="Trazado 1057890" d="M59.262,41.028v16.22H40V39H57.234A2.034,2.034,0,0,1,59.262,41.028Z" transform="translate(-40 -39)" fill="#ccd1d9"/>
        </g>
        <g id="Grupo_1225965" data-name="Grupo 1225965" transform="translate(46.634 42.579)">
          <circle id="Elipse_13597" data-name="Elipse 13597" cx="2" cy="2" r="2" transform="translate(0.207 0.407)" fill="#69d6f4"/>
        </g>
        <g id="Grupo_1225966" data-name="Grupo 1225966" transform="translate(21.289 52.716)">
          <path id="Trazado_1057891" data-name="Trazado 1057891" d="M28.083,55.028v2.028H22V53h4.055A2.034,2.034,0,0,1,28.083,55.028Z" transform="translate(-22 -53)" fill="#f0d0b4"/>
        </g>
        <g id="Grupo_1225967" data-name="Grupo 1225967" transform="translate(15.207 42.376)">
          <path id="Trazado_1057892" data-name="Trazado 1057892" d="M22.083,43a10.161,10.161,0,0,0,2.017-.2,1.359,1.359,0,0,1,.01.2A4.055,4.055,0,0,1,16,43v-.2a10.187,10.187,0,0,0,2.028.2Z" transform="translate(-16 -42.8)" fill="#f0d0b4"/>
        </g>
        <g id="Grupo_1225968" data-name="Grupo 1225968" transform="translate(31.427 25.344)">
          <path id="Trazado_1057893" data-name="Trazado 1057893" d="M35.832,27.9a3.074,3.074,0,0,1,.223,1.146,3.046,3.046,0,0,1-3.041,3.041H32V26h1.014a3.028,3.028,0,0,1,2.818,1.9Z" transform="translate(-32 -26)" fill="#f0d0b4"/>
        </g>
        <g id="Grupo_1225969" data-name="Grupo 1225969" transform="translate(7.096 18.603)">
          <path id="Trazado_1057894" data-name="Trazado 1057894" d="M24.21,43.123a10.161,10.161,0,0,1-2.017.2H18.138A10.146,10.146,0,0,1,8,33.188V22.037a5.752,5.752,0,0,0,2.676-.669A5.819,5.819,0,0,0,12.724,19.5l.112-.152a4.027,4.027,0,0,0,3.275,1.673,4.814,4.814,0,0,0,.537-.051,4.016,4.016,0,0,0,7.036,0,4.814,4.814,0,0,0,.537.051,4.027,4.027,0,0,0,3.275-1.673l.112.152a5.684,5.684,0,0,0,4.724,2.534V33.188a10.15,10.15,0,0,1-6.549,9.479,10.022,10.022,0,0,1-1.571.456Z" transform="translate(-8 -19.35)" fill="#f0d0b4"/>
        </g>
        <g id="Grupo_1225970" data-name="Grupo 1225970" transform="translate(3.041 25.344)">
          <path id="Trazado_1057895" data-name="Trazado 1057895" d="M4.223,27.9l.669-1A3.034,3.034,0,0,1,7.041,26H8.055v6.083H7.041A3.037,3.037,0,0,1,4,29.041,3.074,3.074,0,0,1,4.223,27.9Z" transform="translate(-4 -26)" fill="#f0d0b4"/>
        </g>
        <g id="Grupo_1225971" data-name="Grupo 1225971" transform="translate(15.207 34.468)">
          <path id="Trazado_1057896" data-name="Trazado 1057896" d="M16,35h8.11A4.055,4.055,0,0,1,16,35Z" transform="translate(-16 -35)" fill="#ff826e"/>
        </g>
      </g>
      <g id="Grupo_1225973" data-name="Grupo 1225973" transform="translate(0 0)">
        <path id="Trazado_1057897" data-name="Trazado 1057897" d="M25.138,35.014V34H15v1.014a5.069,5.069,0,0,0,10.138,0ZM17.2,36.028h5.735a3.041,3.041,0,0,1-5.735,0Z" transform="translate(0.207 0.468)"/>
        <path id="Trazado_1057898" data-name="Trazado 1057898" d="M17.083,29.055H19.11a4.055,4.055,0,1,0-8.11,0h2.028a2.028,2.028,0,1,1,4.055,0Z" transform="translate(0.152 0.344)"/>
        <path id="Trazado_1057899" data-name="Trazado 1057899" d="M25.055,27.028a2.03,2.03,0,0,1,2.028,2.028H29.11a4.055,4.055,0,1,0-8.11,0h2.028A2.03,2.03,0,0,1,25.055,27.028Z" transform="translate(0.289 0.344)"/>
        <path id="Trazado_1057900" data-name="Trazado 1057900" d="M57.785,38.455H38.524A3.045,3.045,0,0,0,35.482,41.5V56.7H33.455V53.661a13.138,13.138,0,0,0-5.475-10.694,11.146,11.146,0,0,0,5.475-9.581A4.025,4.025,0,0,0,37.4,28.423a5.009,5.009,0,0,0,1.124-3.148v-.021a5.057,5.057,0,0,0,2.028-4.034,4.916,4.916,0,0,0-.438-2.028,4.916,4.916,0,0,0,.438-2.028,5.078,5.078,0,0,0-4.14-4.984A5.079,5.079,0,0,0,30.47,8.139a5.01,5.01,0,0,0-6.492-1.515,5.032,5.032,0,0,0-7.4,0,5.01,5.01,0,0,0-6.492,1.515,4.813,4.813,0,0,0-.957-.1,5.078,5.078,0,0,0-4.984,4.14A5.078,5.078,0,0,0,0,17.165a4.916,4.916,0,0,0,.438,2.028A4.916,4.916,0,0,0,0,21.22a5.06,5.06,0,0,0,2.028,4.034v.021a5.007,5.007,0,0,0,1.124,3.148A4.025,4.025,0,0,0,7.1,33.386a11.078,11.078,0,0,0,3.266,7.885,11.21,11.21,0,0,0,2.2,1.7A13.138,13.138,0,0,0,7.1,53.661a5.075,5.075,0,0,0,5.069,5.069h8.11a4.059,4.059,0,0,0,4.055,4.055H56.772a4.059,4.059,0,0,0,4.055-4.055V41.5A3.045,3.045,0,0,0,57.785,38.455ZM37.51,41.5a1.015,1.015,0,0,1,1.014-1.014h1.014V56.7H37.51ZM33.455,31.358V27.3a2.028,2.028,0,1,1,0,4.055ZM5.069,29.331A2.03,2.03,0,0,1,7.1,27.3v4.055A2.03,2.03,0,0,1,5.069,29.331ZM7.1,21.22v4.055a4.04,4.04,0,0,0-2.815,1.147,3.034,3.034,0,0,1-.226-1.147,3.142,3.142,0,0,1,.045-.4l.092-.683-.6-.337A3.038,3.038,0,0,1,2.028,21.22,2.987,2.987,0,0,1,2.452,19.7l.3-.51-.3-.51a2.987,2.987,0,0,1-.425-1.518,3.045,3.045,0,0,1,3.041-3.041H6.083V13.11a3.011,3.011,0,0,1,4.112-2.835l.867.327.4-.834a3,3,0,0,1,4.683-.991l.914.775.612-1.03a3.011,3.011,0,0,1,5.2,0l.612,1.029.913-.776a3,3,0,0,1,4.683.992l.4.834.867-.327a3.012,3.012,0,0,1,4.113,2.835v1.014h1.014a3.045,3.045,0,0,1,3.041,3.041,2.987,2.987,0,0,1-.425,1.518l-.3.51.3.51a2.987,2.987,0,0,1,.425,1.518,3.041,3.041,0,0,1-1.563,2.638l-.592.433.1.686a2.215,2.215,0,0,1,.03.3,3.038,3.038,0,0,1-.226,1.147,4.04,4.04,0,0,0-2.815-1.147V21.22H32.441a4.655,4.655,0,0,1-3.627-1.74,5,5,0,0,0,.586-2.315H27.372a3.045,3.045,0,0,1-3.041,3.041,2.039,2.039,0,0,1-.286-.029l-.8-.1-.336.6a3.007,3.007,0,0,1-5.277,0l-.336-.6-.8.1a2.008,2.008,0,0,1-.285.029,3.045,3.045,0,0,1-3.041-3.041H11.152a5,5,0,0,0,.586,2.315A4.654,4.654,0,0,1,8.11,21.22ZM9.124,33.385V23.172a6.667,6.667,0,0,0,3.911-2.1,5.016,5.016,0,0,0,3.184,1.158h.021a5.026,5.026,0,0,0,8.068,0h.021a5.016,5.016,0,0,0,3.184-1.158,6.667,6.667,0,0,0,3.912,2.1V33.386A9.134,9.134,0,0,1,22.3,42.51H18.248a9.126,9.126,0,0,1-9.124-9.125Zm14.02,11.11a3.021,3.021,0,0,1-5.735,0c.279.02.558.041.839.041H22.3C22.587,44.537,22.865,44.516,23.144,44.495ZM12.165,56.7a3.045,3.045,0,0,1-3.041-3.041,11.112,11.112,0,0,1,5.654-9.682c.162.053.325.1.49.146a5.041,5.041,0,0,0,10.016-.005c.163-.046.326-.09.487-.142a11.11,11.11,0,0,1,5.657,9.683V56.7H29.4V55.689a3.045,3.045,0,0,0-3.041-3.041H23.13a3.037,3.037,0,0,0-2.855-2.028h-6.5l-2.325,2.325,1.433,1.433,1.731-1.731h5.663a1.015,1.015,0,0,1,1.014,1.014V56.7H12.165Zm11.152-2.028h3.041a1.015,1.015,0,0,1,1.014,1.014V56.7H23.317Zm1.014,6.083A2.03,2.03,0,0,1,22.3,58.73H39.537a2.03,2.03,0,0,1-2.028,2.028Zm32.441,0H41a4.013,4.013,0,0,0,.564-2.028H58.8A2.03,2.03,0,0,1,56.772,60.758ZM58.8,56.7H41.565V40.482h16.22A1.015,1.015,0,0,1,58.8,41.5Z" transform="translate(0 0.069)"/>
        <path id="Trazado_1057901" data-name="Trazado 1057901" d="M49.041,42a3.041,3.041,0,1,0,3.041,3.041A3.045,3.045,0,0,0,49.041,42Zm0,4.055a1.014,1.014,0,1,1,1.014-1.014A1.015,1.015,0,0,1,49.041,46.055Z" transform="translate(0.634 0.579)"/>
        <path id="Trazado_1057902" data-name="Trazado 1057902" d="M59.262,0H43.041A3.045,3.045,0,0,0,40,3.041v8.11a3.045,3.045,0,0,0,3.041,3.041H47.1V15.8a2.447,2.447,0,0,0,4.178,1.731l3.338-3.338h4.649A3.045,3.045,0,0,0,62.3,11.152V3.041A3.045,3.045,0,0,0,59.262,0Zm1.014,11.152a1.015,1.015,0,0,1-1.014,1.014H53.773L49.842,16.1a.435.435,0,0,1-.718-.3V12.165H43.041a1.015,1.015,0,0,1-1.014-1.014V3.041a1.015,1.015,0,0,1,1.014-1.014h16.22a1.015,1.015,0,0,1,1.014,1.014Z" transform="translate(0.551 0)"/>
        <path id="Trazado_1057903" data-name="Trazado 1057903" d="M44,6h2.028V8.028H44Z" transform="translate(0.606 0.083)"/>
        <path id="Trazado_1057904" data-name="Trazado 1057904" d="M52,6h2.028V8.028H52Z" transform="translate(0.716 0.083)"/>
        <path id="Trazado_1057905" data-name="Trazado 1057905" d="M48,6h2.028V8.028H48Z" transform="translate(0.661 0.083)"/>
        <path id="Trazado_1057906" data-name="Trazado 1057906" d="M56,6h2.028V8.028H56Z" transform="translate(0.772 0.083)"/>
      </g>
    </g>
  </g>
</svg>
