<svg xmlns="http://www.w3.org/2000/svg" xmlns:xlink="http://www.w3.org/1999/xlink" width="108" height="108" viewBox="0 0 108 108">
  <defs>
    <filter id="Trazado_904820" x="0" y="0" width="108" height="108" filterUnits="userSpaceOnUse">
      <feOffset dy="3" input="SourceAlpha"/>
      <feGaussianBlur stdDeviation="3" result="blur"/>
      <feFlood flood-opacity="0.161"/>
      <feComposite operator="in" in2="blur"/>
      <feComposite in="SourceGraphic"/>
    </filter>
  </defs>
  <g id="Grupo_1225724" data-name="Grupo 1225724" transform="translate(-619.477 -3766.065)">
    <g id="Grupo_1225297" data-name="Grupo 1225297" transform="translate(628.477 3772.065)">
      <g id="Grupo_1208347" data-name="Grupo 1208347" transform="translate(0 0)">
        <g id="Grupo_1207936" data-name="Grupo 1207936">
          <g id="Grupo_1201662" data-name="Grupo 1201662">
            <g id="Grupo_1173585" data-name="Grupo 1173585">
              <g id="Grupo_1173428" data-name="Grupo 1173428">
                <g id="Grupo_1171958" data-name="Grupo 1171958">
                  <g id="Grupo_1167341" data-name="Grupo 1167341">
                    <g id="Grupo_1166792" data-name="Grupo 1166792">
                      <g transform="matrix(1, 0, 0, 1, -9, -6)" filter="url(#Trazado_904820)">
                        <g id="Trazado_904820-2" data-name="Trazado 904820" transform="translate(9 6)" fill="#effbfe">
                          <path d="M 44.99999618530273 88.49999237060547 C 39.12687301635742 88.49999237060547 33.43022155761719 87.35006713867188 28.06829643249512 85.08216857910156 C 22.88852119445801 82.89130401611328 18.23629570007324 79.75457763671875 14.24084663391113 75.75914001464844 C 10.24540901184082 71.76369476318359 7.108683586120605 67.11146545410156 4.917821407318115 61.93169403076172 C 2.649921178817749 56.56976699829102 1.499996185302734 50.87311553955078 1.499996185302734 44.99999237060547 C 1.499996185302734 39.12686920166016 2.649921178817749 33.43021774291992 4.917821407318115 28.06829261779785 C 7.108683586120605 22.88851737976074 10.24540901184082 18.23630523681641 14.24084663391113 14.24085521697998 C 18.23629570007324 10.24540519714355 22.88852119445801 7.108692169189453 28.06829643249512 4.917829990386963 C 33.43022155761719 2.649929761886597 39.12687301635742 1.500004887580872 44.99999618530273 1.500004887580872 C 50.87311935424805 1.500004887580872 56.56977081298828 2.649929761886597 61.93169784545898 4.917829990386963 C 67.11147308349609 7.108692169189453 71.76369476318359 10.24540519714355 75.75914764404297 14.24085521697998 C 79.75458526611328 18.23630523681641 82.89131164550781 22.88851737976074 85.08216857910156 28.06829261779785 C 87.35007476806641 33.43021774291992 88.5 39.12686920166016 88.5 44.99999237060547 C 88.5 50.87311553955078 87.35007476806641 56.56976699829102 85.08216857910156 61.93169403076172 C 82.89131164550781 67.11146545410156 79.75458526611328 71.76369476318359 75.75914764404297 75.75914001464844 C 71.76369476318359 79.75457763671875 67.11147308349609 82.89130401611328 61.93169784545898 85.08216857910156 C 56.56977081298828 87.35006713867188 50.87311935424805 88.49999237060547 44.99999618530273 88.49999237060547 Z" stroke="none"/>
                          <path d="M 44.99999618530273 2.999992370605469 C 39.32870864868164 2.999992370605469 33.82865142822266 4.11004638671875 28.65262603759766 6.299331665039062 C 23.65165710449219 8.414566040039062 19.15968322753906 11.44333648681641 15.301513671875 15.30150604248047 C 11.44333648681641 19.15967559814453 8.414566040039062 23.65164947509766 6.299339294433594 28.65262222290039 C 4.110054016113281 33.82864761352539 2.999992370605469 39.32870483398438 2.999992370605469 44.99999237060547 C 2.999992370605469 50.67127990722656 4.110054016113281 56.17132186889648 6.299339294433594 61.34736633300781 C 8.414566040039062 66.34833526611328 11.44333648681641 70.84029388427734 15.301513671875 74.69846343994141 C 19.15968322753906 78.55663299560547 23.65165710449219 81.58540344238281 28.65262603759766 83.70063781738281 C 33.82865142822266 85.88992309570312 39.32870864868164 86.99997711181641 44.99999618530273 86.99997711181641 C 50.67128372192383 86.99997711181641 56.17134094238281 85.88992309570312 61.34736633300781 83.70063781738281 C 66.34834289550781 81.58540344238281 70.84030914306641 78.55663299560547 74.69847869873047 74.69846343994141 C 78.55665588378906 70.84029388427734 81.58542633056641 66.34833526611328 83.70065307617188 61.34736633300781 C 85.88993835449219 56.17132186889648 87 50.67127990722656 87 44.99999237060547 C 87 39.32870483398438 85.88993835449219 33.82864761352539 83.70065307617188 28.65262222290039 C 81.58542633056641 23.65164947509766 78.55665588378906 19.15967559814453 74.69847869873047 15.30150604248047 C 70.84030914306641 11.44333648681641 66.34834289550781 8.414566040039062 61.34736633300781 6.299331665039062 C 56.17134094238281 4.11004638671875 50.67128372192383 2.999992370605469 44.99999618530273 2.999992370605469 M 44.99999618530273 -7.62939453125e-06 C 69.85281372070312 -7.62939453125e-06 90 20.14717864990234 90 44.99999237060547 C 90 69.85279083251953 69.85281372070312 89.99997711181641 44.99999618530273 89.99997711181641 C 20.14717864990234 89.99997711181641 -7.62939453125e-06 69.85279083251953 -7.62939453125e-06 44.99999237060547 C -7.62939453125e-06 20.14717864990234 20.14717864990234 -7.62939453125e-06 44.99999618530273 -7.62939453125e-06 Z" stroke="none" fill="#497f88"/>
                        </g>
                      </g>
                    </g>
                  </g>
                </g>
              </g>
            </g>
          </g>
        </g>
      </g>
    </g>
    <g id="education_13098576" transform="translate(654.433 3779.237)">
      <g id="Grupo_1225723" data-name="Grupo 1225723" transform="translate(-11.986 10.238)">
        <g id="Grupo_1225720" data-name="Grupo 1225720" transform="translate(7.768 0)">
          <path id="Trazado_1057424" data-name="Trazado 1057424" d="M53.648,48.059l20.726,4.562L95.1,48.059A.964.964,0,0,1,96.271,49V87.6a.956.956,0,0,1-.757.941l-21.14,4.654-21.9-4.82V49a.964.964,0,0,1,1.171-.941Z" transform="translate(-52.477 -44.504)" fill="#f76c82" fill-rule="evenodd"/>
          <path id="Trazado_1057425" data-name="Trazado 1057425" d="M128.783,18.781l-15.306,4.461L98.171,18.781a.964.964,0,0,0-1.234.925V59l16.54,4.82L129.322,59.2a.952.952,0,0,0,.694-.925V19.707a.964.964,0,0,0-1.234-.925Z" transform="translate(-91.579 -18.74)" fill="#e4e8eb" fill-rule="evenodd"/>
          <path id="Trazado_1057426" data-name="Trazado 1057426" d="M234.191,26.857V63.815L250.036,59.2a.952.952,0,0,0,.694-.925V19.707a.964.964,0,0,0-1.234-.925l-15.306,4.461Z" transform="translate(-212.294 -18.74)" fill="#f4f6f8" fill-rule="evenodd"/>
        </g>
        <g id="Grupo_1225721" data-name="Grupo 1225721" transform="translate(0 33.385)">
          <path id="Trazado_1057427" data-name="Trazado 1057427" d="M25.926,434.121l-4.552-2.2-2.742,4.75a.241.241,0,0,0,.256.357l2.564-.517a.24.24,0,0,1,.276.159l.834,2.479a.241.241,0,0,0,.437.044Zm.983,0,4.552-2.2,2.742,4.75a.241.241,0,0,1-.256.357l-2.564-.517a.24.24,0,0,0-.276.159l-.834,2.479a.241.241,0,0,1-.437.044Z" transform="translate(-14.913 -415.515)" fill="#f76c82" fill-rule="evenodd"/>
          <circle id="Elipse_13572" data-name="Elipse 13572" cx="8.132" cy="8.132" r="8.132" transform="translate(0 11.498) rotate(-45)" fill="#f5b945"/>
          <circle id="Elipse_13573" data-name="Elipse 13573" cx="5.352" cy="5.352" r="5.352" transform="matrix(0.174, -0.985, 0.985, 0.174, 5.314, 15.867)" fill="#fdcd56"/>
        </g>
        <g id="Grupo_1225722" data-name="Grupo 1225722" transform="translate(56.287 15.036)">
          <path id="Trazado_1057428" data-name="Trazado 1057428" d="M460.041,145.981a2.463,2.463,0,1,0-4.927,0v19.264l2.116,4.449a.482.482,0,0,0,.877-.014l1.933-4.435Z" transform="translate(-455.114 -143.518)" fill="#fdcd56" fill-rule="evenodd"/>
          <path id="Trazado_1057429" data-name="Trazado 1057429" d="M455.114,145.981v1.971h4.927v-1.971a2.463,2.463,0,1,0-4.927,0Z" transform="translate(-455.114 -143.518)" fill="#f76c82" fill-rule="evenodd"/>
          <path id="Trazado_1057430" data-name="Trazado 1057430" d="M460.041,323.489h-4.927v.041l2.116,4.449a.482.482,0,0,0,.877-.014l1.933-4.435Z" transform="translate(-455.114 -301.802)" fill="#efc7a4" fill-rule="evenodd"/>
        </g>
      </g>
      <path id="Trazado_1057431" data-name="Trazado 1057431" d="M22.207,15.484a.847.847,0,0,1,1.049-.574l9.668,2.818a.844.844,0,0,1-.238,1.654.808.808,0,0,1-.232-.034l-9.668-2.817a.85.85,0,0,1-.578-1.046ZM52.832,9.073h-.337l-.065.016L36.122,13.841,19.82,9.09l-.066-.016h-.339a.858.858,0,0,0-.338.151.832.832,0,0,0-.335.675v3.745L14.4,12.69a.839.839,0,0,0-1.021.824V47.39A8.959,8.959,0,0,0,11.3,61.117L9.182,64.8a.825.825,0,0,0,.045.913.838.838,0,0,0,.851.335l2.563-.518.834,2.481a.853.853,0,0,0,.72.57c.028,0,.057,0,.079,0a.846.846,0,0,0,.731-.421l2.37-4.1c.193.013.391.022.584.022s.391-.009.59-.022l2.365,4.1a.847.847,0,0,0,.731.421.839.839,0,0,0,.8-.574l.839-2.481,2.563.518a.843.843,0,0,0,.9-1.249l-2.126-3.681a8.962,8.962,0,0,0,1.945-3.45l9.379,2.065a.9.9,0,0,0,.181.019.822.822,0,0,0,.181-.019l21.9-4.82a.846.846,0,0,0,.663-.824V13.514a.847.847,0,0,0-1.026-.824l-4.332.954V9.9a.849.849,0,0,0-.675-.826ZM22.207,21.518a.847.847,0,0,1,1.049-.573l9.668,2.817a.844.844,0,0,1-.238,1.654.824.824,0,0,1-.232-.033l-9.668-2.818a.851.851,0,0,1-.578-1.046Zm0,6.034a.846.846,0,0,1,1.049-.574L32.924,29.8a.844.844,0,0,1-.238,1.654.825.825,0,0,1-.232-.034L22.785,28.6a.85.85,0,0,1-.578-1.046Zm0,18.1a.847.847,0,0,1,1.049-.574L32.924,47.9a.844.844,0,0,1-.238,1.653.8.8,0,0,1-.232-.034L22.785,46.7a.849.849,0,0,1-.578-1.046Zm0-6.034a.846.846,0,0,1,1.049-.574l9.668,2.817a.844.844,0,0,1-.238,1.654.824.824,0,0,1-.232-.033l-9.668-2.818a.85.85,0,0,1-.578-1.046ZM33.5,36.876a.843.843,0,0,1-.811.608.824.824,0,0,1-.232-.033l-9.668-2.818a.843.843,0,1,1,.471-1.619l9.668,2.818a.842.842,0,0,1,.573,1.046Zm16.54-15.357a.843.843,0,0,1-.573,1.046L39.8,25.382a.864.864,0,0,1-.238.033.843.843,0,0,1-.232-1.654l9.668-2.817a.843.843,0,0,1,1.043.573Zm0,18.1a.842.842,0,0,1-.573,1.046L39.8,43.484a.864.864,0,0,1-.238.033.843.843,0,0,1-.232-1.654l9.668-2.817a.843.843,0,0,1,1.043.574Zm-11.29-2.745a.845.845,0,0,1,.578-1.046l9.668-2.818a.843.843,0,0,1,.471,1.619L39.8,37.45a.864.864,0,0,1-.238.034A.848.848,0,0,1,38.747,36.876Zm11.29,8.779a.842.842,0,0,1-.573,1.046L39.8,49.518a.843.843,0,1,1-.471-1.619l9.668-2.818A.843.843,0,0,1,50.037,45.654Zm0-18.1a.842.842,0,0,1-.573,1.046L39.8,31.416a.865.865,0,0,1-.238.034.843.843,0,0,1-.232-1.654l9.668-2.817a.843.843,0,0,1,1.043.574Zm0-12.068a.843.843,0,0,1-.573,1.046L39.8,19.348a.843.843,0,1,1-.471-1.62l9.668-2.818a.843.843,0,0,1,1.043.574ZM17.96,59.613A4.509,4.509,0,1,1,22.474,55.1,4.515,4.515,0,0,1,17.96,59.613Zm0-10.705a6.2,6.2,0,1,1-6.192,6.2A6.2,6.2,0,0,1,17.96,48.908Zm47.324,1.443L64.06,47.784H66.4ZM65.211,26.1a1.62,1.62,0,0,1,1.616,1.619v1.128H63.589V27.717A1.621,1.621,0,0,1,65.211,26.1Zm1.616,20H63.589V30.532h3.238ZM65.211,24.41A3.317,3.317,0,0,0,61.9,27.717V46.981a.806.806,0,0,0,.085.362l2.569,5.4a.847.847,0,0,0,.765.481h.011a.845.845,0,0,0,.76-.506l2.359-5.4a.859.859,0,0,0,.068-.337V27.717a3.312,3.312,0,0,0-3.306-3.307Zm-8.035,29V14.564l-3.669.808v35.1a.845.845,0,0,1-.607.81L36.36,56.1a.865.865,0,0,1-.238.034.8.8,0,0,1-.232-.036v0l-9.106-2.653a8.844,8.844,0,0,1,.153,1.655c0,.306-.017.609-.045.907l9.231,2.032ZM17.96,62.392A7.288,7.288,0,1,1,25.252,55.1,7.3,7.3,0,0,1,17.96,62.392Zm4.927,1.335a.849.849,0,0,0-.97.558L21.442,65.7l-1.117-1.939a8.995,8.995,0,0,0,3.022-1.48l1,1.741ZM14.478,65.7,14,64.285a.843.843,0,0,0-.964-.558l-1.463.3,1-1.741a9,9,0,0,0,3.022,1.48Zm.59-51.137,3.674.808V46.165c-.261-.022-.516-.036-.783-.036a8.939,8.939,0,0,0-2.892.481Zm20.209.788L20.427,11.024V46.477a9.017,9.017,0,0,1,5.761,5.042l9.089,2.65V15.352Zm1.69,0,14.851-4.328V49.84L36.967,54.168Z" transform="translate(-18.443)" fill-rule="evenodd"/>
    </g>
  </g>
</svg>
