<svg xmlns="http://www.w3.org/2000/svg" xmlns:xlink="http://www.w3.org/1999/xlink" width="108" height="108" viewBox="0 0 108 108">
  <defs>
    <filter id="Trazado_904820" x="0" y="0" width="108" height="108" filterUnits="userSpaceOnUse">
      <feOffset dy="3" input="SourceAlpha"/>
      <feGaussianBlur stdDeviation="3" result="blur"/>
      <feFlood flood-opacity="0.161"/>
      <feComposite operator="in" in2="blur"/>
      <feComposite in="SourceGraphic"/>
    </filter>
  </defs>
  <g id="Grupo_1225998" data-name="Grupo 1225998" transform="translate(-166.232 -5540)">
    <g id="Grupo_1225647" data-name="Grupo 1225647" transform="translate(175.232 5546)">
      <g id="Grupo_1207936" data-name="Grupo 1207936" transform="translate(0 0)">
        <g id="Grupo_1201662" data-name="Grupo 1201662">
          <g id="Grupo_1173585" data-name="Grupo 1173585">
            <g id="Grupo_1173428" data-name="Grupo 1173428">
              <g id="Grupo_1171958" data-name="Grupo 1171958">
                <g id="Grupo_1167341" data-name="Grupo 1167341">
                  <g id="Grupo_1166792" data-name="Grupo 1166792">
                    <g transform="matrix(1, 0, 0, 1, -9, -6)" filter="url(#Trazado_904820)">
                      <g id="Trazado_904820-2" data-name="Trazado 904820" transform="translate(9 6)" fill="#edf3fc">
                        <path d="M 44.99999618530273 88.49999237060547 C 39.12687301635742 88.49999237060547 33.43022155761719 87.35006713867188 28.06829643249512 85.08216857910156 C 22.88852119445801 82.89130401611328 18.23629570007324 79.75457763671875 14.24084663391113 75.75914001464844 C 10.24540901184082 71.76369476318359 7.108683586120605 67.11146545410156 4.917821407318115 61.93169403076172 C 2.649921178817749 56.56976699829102 1.499996185302734 50.87311553955078 1.499996185302734 44.99999237060547 C 1.499996185302734 39.12686920166016 2.649921178817749 33.43021774291992 4.917821407318115 28.06829261779785 C 7.108683586120605 22.88851737976074 10.24540901184082 18.23630523681641 14.24084663391113 14.24085521697998 C 18.23629570007324 10.24540519714355 22.88852119445801 7.108692169189453 28.06829643249512 4.917829990386963 C 33.43022155761719 2.649929761886597 39.12687301635742 1.500004887580872 44.99999618530273 1.500004887580872 C 50.87311935424805 1.500004887580872 56.56977081298828 2.649929761886597 61.93169784545898 4.917829990386963 C 67.11147308349609 7.108692169189453 71.76369476318359 10.24540519714355 75.75914764404297 14.24085521697998 C 79.75458526611328 18.23630523681641 82.89131164550781 22.88851737976074 85.08216857910156 28.06829261779785 C 87.35007476806641 33.43021774291992 88.5 39.12686920166016 88.5 44.99999237060547 C 88.5 50.87311553955078 87.35007476806641 56.56976699829102 85.08216857910156 61.93169403076172 C 82.89131164550781 67.11146545410156 79.75458526611328 71.76369476318359 75.75914764404297 75.75914001464844 C 71.76369476318359 79.75457763671875 67.11147308349609 82.89130401611328 61.93169784545898 85.08216857910156 C 56.56977081298828 87.35006713867188 50.87311935424805 88.49999237060547 44.99999618530273 88.49999237060547 Z" stroke="none"/>
                        <path d="M 44.99999618530273 2.999992370605469 C 39.32870864868164 2.999992370605469 33.82865142822266 4.11004638671875 28.65262603759766 6.299331665039062 C 23.65165710449219 8.414566040039062 19.15968322753906 11.44333648681641 15.301513671875 15.30150604248047 C 11.44333648681641 19.15967559814453 8.414566040039062 23.65164947509766 6.299339294433594 28.65262222290039 C 4.110054016113281 33.82864761352539 2.999992370605469 39.32870483398438 2.999992370605469 44.99999237060547 C 2.999992370605469 50.67127990722656 4.110054016113281 56.17132186889648 6.299339294433594 61.34736633300781 C 8.414566040039062 66.34833526611328 11.44333648681641 70.84029388427734 15.301513671875 74.69846343994141 C 19.15968322753906 78.55663299560547 23.65165710449219 81.58540344238281 28.65262603759766 83.70063781738281 C 33.82865142822266 85.88992309570312 39.32870864868164 86.99997711181641 44.99999618530273 86.99997711181641 C 50.67128372192383 86.99997711181641 56.17134094238281 85.88992309570312 61.34736633300781 83.70063781738281 C 66.34834289550781 81.58540344238281 70.84030914306641 78.55663299560547 74.69847869873047 74.69846343994141 C 78.55665588378906 70.84029388427734 81.58542633056641 66.34833526611328 83.70065307617188 61.34736633300781 C 85.88993835449219 56.17132186889648 87 50.67127990722656 87 44.99999237060547 C 87 39.32870483398438 85.88993835449219 33.82864761352539 83.70065307617188 28.65262222290039 C 81.58542633056641 23.65164947509766 78.55665588378906 19.15967559814453 74.69847869873047 15.30150604248047 C 70.84030914306641 11.44333648681641 66.34834289550781 8.414566040039062 61.34736633300781 6.299331665039062 C 56.17134094238281 4.11004638671875 50.67128372192383 2.999992370605469 44.99999618530273 2.999992370605469 M 44.99999618530273 -7.62939453125e-06 C 69.85281372070312 -7.62939453125e-06 90 20.14717864990234 90 44.99999237060547 C 90 69.85279083251953 69.85281372070312 89.99997711181641 44.99999618530273 89.99997711181641 C 20.14717864990234 89.99997711181641 -7.62939453125e-06 69.85279083251953 -7.62939453125e-06 44.99999237060547 C -7.62939453125e-06 20.14717864990234 20.14717864990234 -7.62939453125e-06 44.99999618530273 -7.62939453125e-06 Z" stroke="none" fill="#2f4f7e"/>
                      </g>
                    </g>
                  </g>
                </g>
              </g>
            </g>
          </g>
        </g>
      </g>
    </g>
    <g id="book_7612882_1_" data-name="book_7612882 (1)" transform="translate(188.233 5558)">
      <path id="Trazado_1057936" data-name="Trazado 1057936" d="M47,18V30H13a6,6,0,0,1,0-12Z" fill="#f2e6c7"/>
      <path id="Trazado_1057937" data-name="Trazado 1057937" d="M31,18v9H14a6,6,0,0,1-6-6,1.884,1.884,0,0,1,.02-.34A5.91,5.91,0,0,0,7,24a6,6,0,0,0,6,6H47V18Z" fill="#e3cea8"/>
      <path id="Trazado_1057938" data-name="Trazado 1057938" d="M16,50a6,6,0,1,1,0-12H50V50Z" fill="#f2e6c7"/>
      <path id="Trazado_1057939" data-name="Trazado 1057939" d="M50,38v6.43L45,48l-7.3-5.21A15.968,15.968,0,0,1,33.29,38Z" fill="#f2e6c7"/>
      <path id="Trazado_1057940" data-name="Trazado 1057940" d="M50,38H33.29a15.968,15.968,0,0,0,4.41,4.79L43.6,47H17a6,6,0,0,1-6-6,1.884,1.884,0,0,1,.02-.34A5.91,5.91,0,0,0,10,44a6,6,0,0,0,6,6H50V47H46.4L50,44.43Z" fill="#e3cea8"/>
      <path id="Trazado_1057941" data-name="Trazado 1057941" d="M10,44a6,6,0,0,0,6,6H54v4H16a10,10,0,0,1,0-20H54v4H16A6,6,0,0,0,10,44Z" fill="#ea4450"/>
      <path id="Trazado_1057942" data-name="Trazado 1057942" d="M10,44a6,6,0,0,0,6,6H54v4H16a10,10,0,0,1,0-20H54v4H16A6,6,0,0,0,10,44Z" fill="#ea4450"/>
      <path id="Trazado_1057943" data-name="Trazado 1057943" d="M7,24a6,6,0,0,0,6,6H51v4H13a10,10,0,0,1,0-20H51v4H13a6,6,0,0,0-6,6Z" fill="#fbb03b"/>
      <path id="Trazado_1057944" data-name="Trazado 1057944" d="M51,15.71V18H31l14-4Z" fill="#fbb03b"/>
      <path id="Trazado_1057945" data-name="Trazado 1057945" d="M51,30v4H31.58a14.868,14.868,0,0,1-.57-4Z" fill="#fbb03b"/>
      <path id="Trazado_1057946" data-name="Trazado 1057946" d="M54,52v2H16A10,10,0,0,1,6,44c0-.33.02-.66.05-.98A10,10,0,0,0,16,52Z" fill="#ce293d"/>
      <path id="Trazado_1057947" data-name="Trazado 1057947" d="M51,32v2H13A10,10,0,0,1,3,24c0-.33.02-.66.05-.98A10,10,0,0,0,13,32Z" fill="#f7931e"/>
      <path id="Trazado_1057948" data-name="Trazado 1057948" d="M54,34v4H33.29a15.724,15.724,0,0,1-1.71-4Z" fill="#ce293d"/>
      <path id="Trazado_1057949" data-name="Trazado 1057949" d="M51,15.71V18H31l14-4Z" fill="#f7931e"/>
      <path id="Trazado_1057950" data-name="Trazado 1057950" d="M31.01,30H51v4H31.58a14.868,14.868,0,0,1-.57-4Z" fill="#f7931e"/>
      <path id="Trazado_1057951" data-name="Trazado 1057951" d="M47,10,33,14V25.766a16,16,0,0,0,6.7,13.02L47,44l7.3-5.214A16,16,0,0,0,61,25.766V14Z" fill="#0071bc"/>
      <path id="Trazado_1057952" data-name="Trazado 1057952" d="M54.3,38.79,47,44l-7.3-5.21A16.032,16.032,0,0,1,33,25.77V14l9-2.57V21.77a16.032,16.032,0,0,0,6.7,13.02Z" fill="#054a70"/>
      <path id="Trazado_1057953" data-name="Trazado 1057953" d="M42.025,35.531A12.025,12.025,0,0,1,37,25.767V17.018L47,14.16l10,2.858v8.749a12.025,12.025,0,0,1-5.025,9.764L47,39.085Z" fill="#92d7ef"/>
      <path id="Trazado_1057954" data-name="Trazado 1057954" d="M50.85,36.33,47,39.08l-4.98-3.55A12.041,12.041,0,0,1,37,25.77V17.02l5-1.43v6.18a16.032,16.032,0,0,0,6.7,13.02Z" fill="#54c4e2"/>
      <path id="Trazado_1057955" data-name="Trazado 1057955" d="M37,42a1,1,0,0,0-1-1H20a1,1,0,0,0,0,2H36A1,1,0,0,0,37,42Z"/>
      <path id="Trazado_1057956" data-name="Trazado 1057956" d="M42,45H26a1,1,0,0,0,0,2H42a1,1,0,0,0,0-2Z"/>
      <path id="Trazado_1057957" data-name="Trazado 1057957" d="M61.274,13.038l-14-4a1,1,0,0,0-.548,0l-14,4A1,1,0,0,0,32,14v3H13a7,7,0,0,0,0,14H32.842a16.658,16.658,0,0,0,.792,2H13a9,9,0,0,1,0-18H29a1,1,0,0,0,0-2H13a10.993,10.993,0,0,0-2.755,21.637A10.993,10.993,0,0,0,16,55H38a1,1,0,0,0,0-2H16a9,9,0,0,1,0-18H34.749a16.581,16.581,0,0,0,1.5,2H16a7,7,0,0,0,0,14H53v2H42a1,1,0,0,0,0,2H54a1,1,0,0,0,1-1V50a1,1,0,0,0-1-1H51V42.374L54.882,39.6A17.061,17.061,0,0,0,62,25.77V14A1,1,0,0,0,61.274,13.038ZM8,24a5.006,5.006,0,0,1,5-5H32v2H17a1,1,0,0,0,0,2H32v2H23a1,1,0,0,0,0,2h9.046a16.393,16.393,0,0,0,.27,2H13A5.006,5.006,0,0,1,8,24ZM49,49H16a5,5,0,0,1,0-10H38.355c.247.2.491.409.764.6l7.3,5.209a1,1,0,0,0,1.162,0L49,43.8ZM60,25.77a15.059,15.059,0,0,1-6.281,12.207L47,42.771l-6.719-4.8a11.534,11.534,0,0,1-.941-.745,14.408,14.408,0,0,1-3.193-3.746,14.825,14.825,0,0,1-1.606-3.76A14.357,14.357,0,0,1,34.008,26v-.021c0-.073-.007-.145-.007-.218V14.754L47,11.04l13,3.714Z"/>
      <path id="Trazado_1057958" data-name="Trazado 1057958" d="M46.725,13.2l-10,2.86a1,1,0,0,0-.725.96v8.75a13.044,13.044,0,0,0,5.438,10.575L44.9,38.814h0L46.42,39.9a1,1,0,0,0,1.161,0l1.51-1.081h0l3.457-2.467A13.023,13.023,0,0,0,58,25.77V17.02a1,1,0,0,0-.725-.962l-10-2.86A1.008,1.008,0,0,0,46.725,13.2ZM56,17.773v8a11.022,11.022,0,0,1-4.611,8.947L47.93,37.185h0L47,37.85l-.935-.665h0L42.6,34.718A11.038,11.038,0,0,1,38,25.77v-8l9-2.57Z"/>
      <path id="Trazado_1057959" data-name="Trazado 1057959" d="M42.707,26.293a1,1,0,1,0-1.414,1.414l3,3a1,1,0,0,0,1.414,0l8-8a1,1,0,1,0-1.414-1.414L45,28.586Z"/>
    </g>
  </g>
</svg>
