<svg xmlns="http://www.w3.org/2000/svg" xmlns:xlink="http://www.w3.org/1999/xlink" width="108" height="108" viewBox="0 0 108 108">
  <defs>
    <filter id="Trazado_904820" x="0" y="0" width="108" height="108" filterUnits="userSpaceOnUse">
      <feOffset dy="3" input="SourceAlpha"/>
      <feGaussianBlur stdDeviation="3" result="blur"/>
      <feFlood flood-opacity="0.161"/>
      <feComposite operator="in" in2="blur"/>
      <feComposite in="SourceGraphic"/>
    </filter>
  </defs>
  <g id="Grupo_1225674" data-name="Grupo 1225674" transform="translate(-166 -861)">
    <g id="Grupo_1225649" data-name="Grupo 1225649">
      <g id="Grupo_1209297" data-name="Grupo 1209297" transform="translate(0 -789)">
        <g id="Grupo_1208498" data-name="Grupo 1208498" transform="translate(175 1656)">
          <g id="Grupo_1207936" data-name="Grupo 1207936" transform="translate(0 0)">
            <g id="Grupo_1201662" data-name="Grupo 1201662">
              <g id="Grupo_1173585" data-name="Grupo 1173585">
                <g id="Grupo_1173428" data-name="Grupo 1173428">
                  <g id="Grupo_1171958" data-name="Grupo 1171958">
                    <g id="Grupo_1167341" data-name="Grupo 1167341">
                      <g id="Grupo_1166792" data-name="Grupo 1166792">
                        <g transform="matrix(1, 0, 0, 1, -9, -6)" filter="url(#Trazado_904820)">
                          <g id="Trazado_904820-2" data-name="Trazado 904820" transform="translate(9 6)" fill="#edf3fc">
                            <path d="M 44.99999618530273 88.49999237060547 C 39.12687301635742 88.49999237060547 33.43022155761719 87.35006713867188 28.06829643249512 85.08216857910156 C 22.88852119445801 82.89130401611328 18.23629570007324 79.75457763671875 14.24084663391113 75.75914001464844 C 10.24540901184082 71.76369476318359 7.108683586120605 67.11146545410156 4.917821407318115 61.93169403076172 C 2.649921178817749 56.56976699829102 1.499996185302734 50.87311553955078 1.499996185302734 44.99999237060547 C 1.499996185302734 39.12686920166016 2.649921178817749 33.43021774291992 4.917821407318115 28.06829261779785 C 7.108683586120605 22.88851737976074 10.24540901184082 18.23630523681641 14.24084663391113 14.24085521697998 C 18.23629570007324 10.24540519714355 22.88852119445801 7.108692169189453 28.06829643249512 4.917829990386963 C 33.43022155761719 2.649929761886597 39.12687301635742 1.500004887580872 44.99999618530273 1.500004887580872 C 50.87311935424805 1.500004887580872 56.56977081298828 2.649929761886597 61.93169784545898 4.917829990386963 C 67.11147308349609 7.108692169189453 71.76369476318359 10.24540519714355 75.75914764404297 14.24085521697998 C 79.75458526611328 18.23630523681641 82.89131164550781 22.88851737976074 85.08216857910156 28.06829261779785 C 87.35007476806641 33.43021774291992 88.5 39.12686920166016 88.5 44.99999237060547 C 88.5 50.87311553955078 87.35007476806641 56.56976699829102 85.08216857910156 61.93169403076172 C 82.89131164550781 67.11146545410156 79.75458526611328 71.76369476318359 75.75914764404297 75.75914001464844 C 71.76369476318359 79.75457763671875 67.11147308349609 82.89130401611328 61.93169784545898 85.08216857910156 C 56.56977081298828 87.35006713867188 50.87311935424805 88.49999237060547 44.99999618530273 88.49999237060547 Z" stroke="none"/>
                            <path d="M 44.99999618530273 2.999992370605469 C 39.32870864868164 2.999992370605469 33.82865142822266 4.11004638671875 28.65262603759766 6.299331665039062 C 23.65165710449219 8.414566040039062 19.15968322753906 11.44333648681641 15.301513671875 15.30150604248047 C 11.44333648681641 19.15967559814453 8.414566040039062 23.65164947509766 6.299339294433594 28.65262222290039 C 4.110054016113281 33.82864761352539 2.999992370605469 39.32870483398438 2.999992370605469 44.99999237060547 C 2.999992370605469 50.67127990722656 4.110054016113281 56.17132186889648 6.299339294433594 61.34736633300781 C 8.414566040039062 66.34833526611328 11.44333648681641 70.84029388427734 15.301513671875 74.69846343994141 C 19.15968322753906 78.55663299560547 23.65165710449219 81.58540344238281 28.65262603759766 83.70063781738281 C 33.82865142822266 85.88992309570312 39.32870864868164 86.99997711181641 44.99999618530273 86.99997711181641 C 50.67128372192383 86.99997711181641 56.17134094238281 85.88992309570312 61.34736633300781 83.70063781738281 C 66.34834289550781 81.58540344238281 70.84030914306641 78.55663299560547 74.69847869873047 74.69846343994141 C 78.55665588378906 70.84029388427734 81.58542633056641 66.34833526611328 83.70065307617188 61.34736633300781 C 85.88993835449219 56.17132186889648 87 50.67127990722656 87 44.99999237060547 C 87 39.32870483398438 85.88993835449219 33.82864761352539 83.70065307617188 28.65262222290039 C 81.58542633056641 23.65164947509766 78.55665588378906 19.15967559814453 74.69847869873047 15.30150604248047 C 70.84030914306641 11.44333648681641 66.34834289550781 8.414566040039062 61.34736633300781 6.299331665039062 C 56.17134094238281 4.11004638671875 50.67128372192383 2.999992370605469 44.99999618530273 2.999992370605469 M 44.99999618530273 -7.62939453125e-06 C 69.85281372070312 -7.62939453125e-06 90 20.14717864990234 90 44.99999237060547 C 90 69.85279083251953 69.85281372070312 89.99997711181641 44.99999618530273 89.99997711181641 C 20.14717864990234 89.99997711181641 -7.62939453125e-06 69.85279083251953 -7.62939453125e-06 44.99999237060547 C -7.62939453125e-06 20.14717864990234 20.14717864990234 -7.62939453125e-06 44.99999618530273 -7.62939453125e-06 Z" stroke="none" fill="#2f4f7e"/>
                          </g>
                        </g>
                      </g>
                    </g>
                  </g>
                </g>
              </g>
            </g>
          </g>
        </g>
      </g>
    </g>
    <g id="student_4297861" transform="translate(190.098 876.805)">
      <g id="Grupo_1225672" data-name="Grupo 1225672" transform="translate(0.811 2.905)">
        <g id="Grupo_1225657" data-name="Grupo 1225657" transform="translate(13.243 22.74)">
          <g id="Grupo_1225650" data-name="Grupo 1225650">
            <path id="Trazado_1057281" data-name="Trazado 1057281" d="M124.822,259.356a2.987,2.987,0,0,1-3.016,0,3.012,3.012,0,0,0-.406.287,12.527,12.527,0,0,1-.989,1.58,7.845,7.845,0,0,0-.088,2,2.991,2.991,0,1,0,5.981,0v-1.281A2.988,2.988,0,0,0,124.822,259.356Z" transform="translate(-120.321 -252.913)" fill="#57697d"/>
            <path id="Trazado_1057282" data-name="Trazado 1057282" d="M124.822,204.2a2.987,2.987,0,0,1-3.016,0,3.007,3.007,0,0,0-.406.287,12.533,12.533,0,0,1-.989,1.58,7.845,7.845,0,0,0-.088,2,2.991,2.991,0,1,0,5.981,0v-1.281A2.988,2.988,0,0,0,124.822,204.2Z" transform="translate(-120.321 -204.201)" fill="#57697d"/>
            <path id="Trazado_1057283" data-name="Trazado 1057283" d="M126.308,318.4v-1.281a2.988,2.988,0,0,0-1.482-2.582,2.993,2.993,0,0,1-3.016,0,3,3,0,0,0-1.482,2.616c0,.149,0,1.235,0,1.267a2.99,2.99,0,0,0,5.981-.02Z" transform="translate(-120.325 -301.648)" fill="#57697d"/>
            <path id="Trazado_1057284" data-name="Trazado 1057284" d="M124.822,259.356a2.987,2.987,0,0,1-3.016,0,3.012,3.012,0,0,0-.406.287,12.527,12.527,0,0,1-.989,1.58,7.845,7.845,0,0,0-.088,2,2.991,2.991,0,1,0,5.981,0v-1.281A2.988,2.988,0,0,0,124.822,259.356Z" transform="translate(-120.321 -252.913)" fill="#57697d"/>
            <path id="Trazado_1057285" data-name="Trazado 1057285" d="M124.822,204.2a2.987,2.987,0,0,1-3.016,0,3.007,3.007,0,0,0-.406.287,12.533,12.533,0,0,1-.989,1.58,7.845,7.845,0,0,0-.088,2,2.991,2.991,0,1,0,5.981,0v-1.281A2.988,2.988,0,0,0,124.822,204.2Z" transform="translate(-120.321 -204.201)" fill="#57697d"/>
            <path id="Trazado_1057286" data-name="Trazado 1057286" d="M126.308,318.4v-1.281a2.988,2.988,0,0,0-1.482-2.582,2.993,2.993,0,0,1-3.016,0,3,3,0,0,0-1.482,2.616c0,.149,0,1.235,0,1.267a2.99,2.99,0,0,0,5.981-.02Z" transform="translate(-120.325 -301.648)" fill="#57697d"/>
            <path id="Trazado_1057287" data-name="Trazado 1057287" d="M124.436,263.219v-1.281a3,3,0,0,0-.944-2.179,2.985,2.985,0,0,1-1.686-.4,3,3,0,0,0-.406.287,12.53,12.53,0,0,1-.989,1.58,7.844,7.844,0,0,0-.088,2,2.991,2.991,0,0,0,2.017,2.828A2.923,2.923,0,0,0,124.436,263.219Z" transform="translate(-120.322 -252.914)" fill="#57697d"/>
            <path id="Trazado_1057288" data-name="Trazado 1057288" d="M123.495,204.607l0,0a2.983,2.983,0,0,1-1.685-.4,3,3,0,0,0-.406.287,12.526,12.526,0,0,1-.989,1.58,7.847,7.847,0,0,0-.088,2,2.991,2.991,0,0,0,2.049,2.838,2.979,2.979,0,0,0,2.063-2.838v-1.281A2.979,2.979,0,0,0,123.495,204.607Z" transform="translate(-120.322 -204.2)" fill="#57697d"/>
            <path id="Trazado_1057289" data-name="Trazado 1057289" d="M122.5,321.2a2.994,2.994,0,0,0,1.939-2.8c0-1.277.164-2.416-.942-3.457l0,0a2.986,2.986,0,0,1-1.684-.4,3,3,0,0,0-1.482,2.616c0,.149,0,1.235,0,1.267a2.991,2.991,0,0,0,2.071,2.825Z" transform="translate(-120.325 -301.647)" fill="#57697d"/>
          </g>
          <g id="Grupo_1225652" data-name="Grupo 1225652" transform="translate(1.941 0)">
            <g id="Grupo_1225651" data-name="Grupo 1225651">
              <path id="Trazado_1057290" data-name="Trazado 1057290" d="M139.5,204.2a2.983,2.983,0,0,1-1.561.407c1.1,1.041.941,2.184.941,3.456a2.991,2.991,0,0,1-1.939,2.8,2.992,2.992,0,0,0,4.042-2.8v-1.281A2.988,2.988,0,0,0,139.5,204.2Z" transform="translate(-136.941 -204.201)" fill="#3d5168"/>
            </g>
          </g>
          <g id="Grupo_1225654" data-name="Grupo 1225654" transform="translate(1.941 6.442)">
            <g id="Grupo_1225653" data-name="Grupo 1225653">
              <path id="Trazado_1057291" data-name="Trazado 1057291" d="M139.5,259.356a2.983,2.983,0,0,1-1.561.407c1.1,1.041.941,2.184.941,3.456a2.991,2.991,0,0,1-1.939,2.8,2.992,2.992,0,0,0,4.042-2.8v-1.281A2.988,2.988,0,0,0,139.5,259.356Z" transform="translate(-136.941 -259.356)" fill="#3d5168"/>
            </g>
          </g>
          <g id="Grupo_1225656" data-name="Grupo 1225656" transform="translate(1.942 12.888)">
            <g id="Grupo_1225655" data-name="Grupo 1225655">
              <path id="Trazado_1057292" data-name="Trazado 1057292" d="M139.5,314.535a2.985,2.985,0,0,1-1.562.406c1.092,1.028.942,2.142.942,3.457a2.994,2.994,0,0,1-1.939,2.8,2.993,2.993,0,0,0,4.042-2.8v-1.281A2.989,2.989,0,0,0,139.5,314.535Z" transform="translate(-136.944 -314.535)" fill="#3d5168"/>
            </g>
          </g>
        </g>
        <g id="Grupo_1225665" data-name="Grupo 1225665" transform="translate(39.025 22.74)">
          <g id="Grupo_1225658" data-name="Grupo 1225658">
            <path id="Trazado_1057293" data-name="Trazado 1057293" d="M345.556,259.356a2.987,2.987,0,0,1-3.016,0,3.015,3.015,0,0,0-.406.287,12.526,12.526,0,0,1-.989,1.58,7.847,7.847,0,0,0-.088,2,2.991,2.991,0,0,0,5.981,0v-1.281A2.988,2.988,0,0,0,345.556,259.356Z" transform="translate(-341.055 -252.913)" fill="#57697d"/>
            <path id="Trazado_1057294" data-name="Trazado 1057294" d="M345.556,204.2a2.987,2.987,0,0,1-3.016,0,3.011,3.011,0,0,0-.406.287,12.531,12.531,0,0,1-.989,1.58,7.846,7.846,0,0,0-.088,2,2.991,2.991,0,1,0,5.981,0v-1.281A2.988,2.988,0,0,0,345.556,204.2Z" transform="translate(-341.055 -204.201)" fill="#57697d"/>
            <path id="Trazado_1057295" data-name="Trazado 1057295" d="M347.042,318.4v-1.281a2.988,2.988,0,0,0-1.482-2.582,2.993,2.993,0,0,1-3.016,0,3,3,0,0,0-1.482,2.616c0,.149,0,1.235,0,1.267a2.99,2.99,0,0,0,5.981-.02Z" transform="translate(-341.059 -301.648)" fill="#57697d"/>
            <path id="Trazado_1057296" data-name="Trazado 1057296" d="M345.556,259.356a2.987,2.987,0,0,1-3.016,0,3.015,3.015,0,0,0-.406.287,12.526,12.526,0,0,1-.989,1.58,7.847,7.847,0,0,0-.088,2,2.991,2.991,0,0,0,5.981,0v-1.281A2.988,2.988,0,0,0,345.556,259.356Z" transform="translate(-341.055 -252.913)" fill="#57697d"/>
            <path id="Trazado_1057297" data-name="Trazado 1057297" d="M345.556,204.2a2.987,2.987,0,0,1-3.016,0,3.011,3.011,0,0,0-.406.287,12.531,12.531,0,0,1-.989,1.58,7.846,7.846,0,0,0-.088,2,2.991,2.991,0,1,0,5.981,0v-1.281A2.988,2.988,0,0,0,345.556,204.2Z" transform="translate(-341.055 -204.201)" fill="#57697d"/>
            <path id="Trazado_1057298" data-name="Trazado 1057298" d="M347.042,318.4v-1.281a2.988,2.988,0,0,0-1.482-2.582,2.993,2.993,0,0,1-3.016,0,3,3,0,0,0-1.482,2.616c0,.149,0,1.235,0,1.267a2.99,2.99,0,0,0,5.981-.02Z" transform="translate(-341.059 -301.648)" fill="#57697d"/>
            <path id="Trazado_1057299" data-name="Trazado 1057299" d="M345.17,263.219v-1.281a3,3,0,0,0-.944-2.179,2.985,2.985,0,0,1-1.686-.4,3,3,0,0,0-.406.287,12.521,12.521,0,0,1-.989,1.58,7.844,7.844,0,0,0-.088,2,2.991,2.991,0,0,0,2.017,2.828A2.923,2.923,0,0,0,345.17,263.219Z" transform="translate(-341.056 -252.914)" fill="#57697d"/>
            <path id="Trazado_1057300" data-name="Trazado 1057300" d="M344.23,204.607l0,0a2.983,2.983,0,0,1-1.685-.4,3,3,0,0,0-.406.287,12.512,12.512,0,0,1-.989,1.58,7.85,7.85,0,0,0-.088,2,2.164,2.164,0,1,0,4.112,0v-1.281A2.979,2.979,0,0,0,344.23,204.607Z" transform="translate(-341.057 -204.2)" fill="#57697d"/>
            <path id="Trazado_1057301" data-name="Trazado 1057301" d="M343.234,321.2a2.994,2.994,0,0,0,1.939-2.8c0-1.688.127-2.277-.946-3.461a2.986,2.986,0,0,1-1.684-.4,3,3,0,0,0-1.482,2.616c0,.149,0,1.235,0,1.267a2.991,2.991,0,0,0,2.071,2.825Z" transform="translate(-341.059 -301.647)" fill="#57697d"/>
          </g>
          <g id="Grupo_1225660" data-name="Grupo 1225660" transform="translate(1.941 0)">
            <g id="Grupo_1225659" data-name="Grupo 1225659">
              <path id="Trazado_1057302" data-name="Trazado 1057302" d="M360.235,204.2a2.983,2.983,0,0,1-1.561.407,2.979,2.979,0,0,1,.941,2.175v1.281a2.991,2.991,0,0,1-1.939,2.8,2.992,2.992,0,0,0,4.042-2.8v-1.281A2.988,2.988,0,0,0,360.235,204.2Z" transform="translate(-357.675 -204.201)" fill="#3d5168"/>
            </g>
          </g>
          <g id="Grupo_1225662" data-name="Grupo 1225662" transform="translate(1.941 6.442)">
            <g id="Grupo_1225661" data-name="Grupo 1225661">
              <path id="Trazado_1057303" data-name="Trazado 1057303" d="M360.235,259.356a2.983,2.983,0,0,1-1.561.407c1.1,1.041.941,2.184.941,3.456a2.991,2.991,0,0,1-1.939,2.8,2.992,2.992,0,0,0,4.042-2.8v-1.281A2.988,2.988,0,0,0,360.235,259.356Z" transform="translate(-357.675 -259.356)" fill="#3d5168"/>
            </g>
          </g>
          <g id="Grupo_1225664" data-name="Grupo 1225664" transform="translate(1.942 12.888)">
            <g id="Grupo_1225663" data-name="Grupo 1225663">
              <path id="Trazado_1057304" data-name="Trazado 1057304" d="M360.237,314.535a2.985,2.985,0,0,1-1.562.406c1.092,1.028.942,2.142.942,3.457a2.994,2.994,0,0,1-1.939,2.8,2.993,2.993,0,0,0,4.042-2.8v-1.281A2.989,2.989,0,0,0,360.237,314.535Z" transform="translate(-357.678 -314.535)" fill="#3d5168"/>
            </g>
          </g>
        </g>
        <path id="Trazado_1057305" data-name="Trazado 1057305" d="M137.654,348.02h-2.285l-4.505,5.535v3.874h-9.011v-3.874l-4.505-5.535h-2.285a5.774,5.774,0,0,0-5.776,5.857v9.19H143.43V353.8A5.776,5.776,0,0,0,137.654,348.02Z" transform="translate(-97.332 -308.482)" fill="#eaf6ff"/>
        <path id="Trazado_1057306" data-name="Trazado 1057306" d="M137.654,348.02h-2.285l-4.505,5.535v3.874h-9.011v-3.874l-4.505-5.535h-2.285a5.774,5.774,0,0,0-5.776,5.857v9.19H143.43V353.8A5.776,5.776,0,0,0,137.654,348.02Z" transform="translate(-97.332 -308.482)" fill="#eaf6ff"/>
        <g id="Grupo_1225666" data-name="Grupo 1225666" transform="translate(38.031 39.538)">
          <path id="Trazado_1057307" data-name="Trazado 1057307" d="M334.831,348.02h-2.285l-.006.007a5.776,5.776,0,0,1,5.5,5.769v9.271h2.57V353.8A5.776,5.776,0,0,0,334.831,348.02Z" transform="translate(-332.54 -348.02)" fill="#d8ecfe"/>
        </g>
        <path id="Trazado_1057308" data-name="Trazado 1057308" d="M210.562,287.447v4.187l4.761,6.954a.584.584,0,0,0,.964,0l4.761-6.954v-4.187Z" transform="translate(-186.779 -254.984)" fill="#ffa78f"/>
        <path id="Trazado_1057309" data-name="Trazado 1057309" d="M115.325,162.606h-2.444a4.248,4.248,0,0,0-1.88,3.529v.026a4.254,4.254,0,0,0,4.42,4.253h2.651v-7.808Z" transform="translate(-98.847 -144.725)" fill="#ffb09e"/>
        <path id="Trazado_1057310" data-name="Trazado 1057310" d="M338.991,162.606h-5.847v7.808h3.272a4.26,4.26,0,0,0,4.455-4.253v-.026a4.249,4.249,0,0,0-1.88-3.529Z" transform="translate(-295.043 -144.725)" fill="#f89580"/>
        <path id="Trazado_1057311" data-name="Trazado 1057311" d="M170.655,86.067H147.462v8.94h0c-.09.857-.069.917-.069,5.76,0,7.142,5.978,12.471,11.9,12.471a12.525,12.525,0,0,0,11.369-12.471C170.655,100.116,170.655,86.7,170.655,86.067Z" transform="translate(-130.983 -77.126)" fill="#ffcebf"/>
        <path id="Trazado_1057312" data-name="Trazado 1057312" d="M186.833,330.249l-4.761-6.954-3.768,2.888,4.505,5.535v9.513h9.011v-9.513l4.505-5.535-3.768-2.888-4.761,6.954A.584.584,0,0,1,186.833,330.249Z" transform="translate(-158.289 -286.644)" fill="#d8ecfe"/>
        <path id="Trazado_1057313" data-name="Trazado 1057313" d="M281.57,404.174v-8.409a1.168,1.168,0,0,0-1.139-1.168c-4.671-.121-22.249-.124-24.985,6.577v3Z" transform="translate(-226.421 -349.594)" fill="#fff3be"/>
        <path id="Trazado_1057314" data-name="Trazado 1057314" d="M281.472,457.108H255.446v-6h26.026a3,3,0,0,1,3,3h0A3,3,0,0,1,281.472,457.108Z" transform="translate(-226.42 -399.529)" fill="#fd8087"/>
        <path id="Trazado_1057315" data-name="Trazado 1057315" d="M256.615,109.713v11.938a12.525,12.525,0,0,1-11.37,12.471,12.527,12.527,0,0,0,13.706-12.471V109.713Z" transform="translate(-217.411 -98.01)" fill="#ffb09e"/>
        <path id="Trazado_1057316" data-name="Trazado 1057316" d="M141.21,10c-6.735,0-14.115,6.141-14.115,14.867v2.958h7.362a7.63,7.63,0,0,0,7.63-7.63,7.63,7.63,0,0,0,7.63,7.63h5.19V24.864A14.914,14.914,0,0,0,141.21,10Z" transform="translate(-113.061 -9.941)" fill="#57697d"/>
        <g id="Grupo_1225668" data-name="Grupo 1225668" transform="translate(27.682 0)">
          <g id="Grupo_1225667" data-name="Grupo 1225667">
            <path id="Trazado_1057317" data-name="Trazado 1057317" d="M243.942,9.575a14.914,14.914,0,0,1,13.7,14.867V27.4h2.57V24.443A14.931,14.931,0,0,0,243.942,9.575Z" transform="translate(-243.942 -9.519)" fill="#3d5168"/>
          </g>
        </g>
        <g id="Grupo_1225670" data-name="Grupo 1225670" transform="translate(30.962 36.65)">
          <g id="Grupo_1225669" data-name="Grupo 1225669">
            <path id="Trazado_1057318" data-name="Trazado 1057318" d="M275.325,323.293l-.884,1.292,2.083,1.6-4.505,5.535v9.513h2.57v-9.513l4.505-5.535Z" transform="translate(-272.018 -323.293)" fill="#c4e2ff"/>
          </g>
        </g>
        <path id="Trazado_1057319" data-name="Trazado 1057319" d="M100.7,259.9c-3.437-12.829-3.147-12.05-3.5-12.343l-.973.261a1.008,1.008,0,0,0-.713,1.235l3.059,11.417Z" transform="translate(-85.132 -219.756)" fill="#5de1c4"/>
        <path id="Trazado_1057320" data-name="Trazado 1057320" d="M110.593,258.688l1.992-.534-3.169-11.826a1.008,1.008,0,0,0-1.235-.713l-1.1.294c.24.262-.017-.5,3.4,12.245Z" transform="translate(-95.387 -218.008)" fill="#0ed2b3"/>
        <path id="Trazado_1057321" data-name="Trazado 1057321" d="M98.041,322.426v-5.209a2.336,2.336,0,0,0-2.336-2.336h-3.34a2.336,2.336,0,0,0-2.336,2.336v5.209a2.336,2.336,0,0,0,2.336,2.336h3.34A2.336,2.336,0,0,0,98.041,322.426Z" transform="translate(-80.325 -279.213)" fill="#ffcebf"/>
        <path id="Trazado_1057322" data-name="Trazado 1057322" d="M136.961,314.881h-2.336a2.336,2.336,0,0,1,2.336,2.336v5.209a2.336,2.336,0,0,1-2.336,2.336h2.336a2.336,2.336,0,0,0,2.336-2.336v-5.209A2.336,2.336,0,0,0,136.961,314.881Z" transform="translate(-119.712 -279.213)" fill="#ffb09e"/>
        <path id="Trazado_1057323" data-name="Trazado 1057323" d="M278.1,394.6c-1.064-.028-1.418-.025.3-.027-6.413-.01-20.526.658-22.954,6.6v3h23.787v-8.409A1.168,1.168,0,0,0,278.1,394.6Z" transform="translate(-226.421 -349.595)" fill="#ffe177"/>
        <path id="Trazado_1057324" data-name="Trazado 1057324" d="M443.194,394.523c-.732-.019-5.369-.073-2.57,0a1.168,1.168,0,0,1,1.139,1.168V404.1h2.57V395.69A1.168,1.168,0,0,0,443.194,394.523Z" transform="translate(-389.183 -349.52)" fill="#ffd15b"/>
        <path id="Trazado_1057325" data-name="Trazado 1057325" d="M279.136,457.108a3,3,0,0,0,0-6h-23.69v6h23.69Z" transform="translate(-226.42 -399.529)" fill="#fe646f"/>
        <path id="Trazado_1057326" data-name="Trazado 1057326" d="M458.836,451.109h-2.57a3,3,0,0,1,0,6h2.57a3,3,0,0,0,3-3h0A3,3,0,0,0,458.836,451.109Z" transform="translate(-403.783 -399.529)" fill="#fd4755"/>
        <path id="Trazado_1057327" data-name="Trazado 1057327" d="M31.8,404.231v-8.409a1.168,1.168,0,0,1,1.139-1.168c4.671-.121,22.249-.124,24.985,6.577v3Z" transform="translate(-28.893 -349.645)" fill="#fff0ad"/>
        <path id="Trazado_1057328" data-name="Trazado 1057328" d="M35.972,457.108H9.946a3,3,0,0,1-3-3h0a3,3,0,0,1,3-3H35.972Z" transform="translate(-6.946 -399.529)" fill="#fd8087"/>
        <g id="Grupo_1225671" data-name="Grupo 1225671" transform="translate(20.015 28.125)">
          <path id="Trazado_1057329" data-name="Trazado 1057329" d="M307.362,252.109h1.066a.928.928,0,0,0,.94-.875.9.9,0,0,0-.9-.93h-1.1a.9.9,0,0,0,0,1.8Z" transform="translate(-291.491 -250.304)" fill="#fe8f83"/>
          <path id="Trazado_1057330" data-name="Trazado 1057330" d="M180.31,252.109h-1.066a.928.928,0,0,1-.94-.875.9.9,0,0,1,.9-.93h1.1a.9.9,0,0,1,0,1.8Z" transform="translate(-178.303 -250.304)" fill="#fe8f83"/>
        </g>
      </g>
      <g id="Grupo_1225673" data-name="Grupo 1225673" transform="translate(0 2.03)">
        <path id="Trazado_1057331" data-name="Trazado 1057331" d="M228.728,261.515a3.549,3.549,0,0,0,3.545-3.545.876.876,0,0,0-1.752,0,1.793,1.793,0,1,1-3.587,0,.876.876,0,0,0-1.752,0A3.549,3.549,0,0,0,228.728,261.515Z" transform="translate(-198.881 -227.301)"/>
        <path id="Trazado_1057332" data-name="Trazado 1057332" d="M301.436,217.036a.876.876,0,0,0,.876-.876v-1.438h.072a.876.876,0,1,0,0-1.752h-.948a.876.876,0,0,0-.876.876v2.314A.876.876,0,0,0,301.436,217.036Z" transform="translate(-265.453 -188.33)"/>
        <path id="Trazado_1057333" data-name="Trazado 1057333" d="M188.272,214.721h.072v1.438a.876.876,0,0,0,1.752,0v-2.314a.876.876,0,0,0-.876-.876h-.948a.876.876,0,1,0,0,1.752Z" transform="translate(-165.507 -188.33)"/>
        <path id="Trazado_1057334" data-name="Trazado 1057334" d="M56.9,53.732V49.075a2.033,2.033,0,0,0-1.992-2.043c-1.354-.035-4.029-.065-7.149.111a6.594,6.594,0,0,0-1.377-3.087,3.837,3.837,0,0,0,.377-1.661V41.114a3.878,3.878,0,0,0-.992-2.581,3.851,3.851,0,0,0,.992-2.583V34.669a3.878,3.878,0,0,0-.992-2.581,3.848,3.848,0,0,0,.992-2.583,8.4,8.4,0,0,0-.113-2.208,5.207,5.207,0,0,0,.932-2.955v-.026A5.121,5.121,0,0,0,45.7,20.35V17.828A15.849,15.849,0,0,0,19.05,6.281a.876.876,0,0,0,1.2,1.28,14.1,14.1,0,0,1,23.7,10.267V19.91H37.532a6.761,6.761,0,0,1-6.754-6.754.876.876,0,1,0-1.752,0,6.761,6.761,0,0,1-6.754,6.754H15.786V17.828a14.018,14.018,0,0,1,2.038-7.291.876.876,0,1,0-1.5-.911,15.769,15.769,0,0,0-2.293,8.2V20.35a5.122,5.122,0,0,0-1.88,3.966v.026A5.173,5.173,0,0,0,13.3,27.574a6.356,6.356,0,0,0-.059,1.2c0,.381,0,.679.011.944l-1.515.406A1.887,1.887,0,0,0,10.4,32.432l1.458,5.443A3.217,3.217,0,0,0,9.7,40.909v5.209a3.182,3.182,0,0,0,.142.937c-2.153-.066-3.93-.043-4.952-.016A2.033,2.033,0,0,0,2.9,49.082v4.65a3.876,3.876,0,0,0,.973,7.627H48.1a.876.876,0,0,0,0-1.752H30.778V55.361h25.15a2.124,2.124,0,0,1,0,4.247H52.191a.876.876,0,1,0,0,1.752h3.738a3.876,3.876,0,0,0,.973-7.628ZM35.283,49.28v-.991l4.046-4.97c1.954,0,3.7-.219,5.355,1.458A4.741,4.741,0,0,1,46,47.261,43.1,43.1,0,0,0,35.283,49.28Zm-4.505,2.527c0-7.1,0,2.774,0-4.322l4.567-6.672,2.318,1.777-3.936,4.835a.876.876,0,0,0-.2.553v2.028a11.512,11.512,0,0,0-2.753,1.8Zm-4.505-1.794V47.978a.876.876,0,0,0-.2-.553L22.14,42.59l2.318-1.777,4.567,6.672c0,.39,0,3.938,0,4.329a11.536,11.536,0,0,0-2.753-1.8ZM18.126,37.7h-.579l-1.178-4.4a3.944,3.944,0,0,0,1.814-.081,13.41,13.41,0,0,0,1.043,1.55c0,.1,0,.066,0,1.181a2.108,2.108,0,0,1-.929,1.751c-.056,0-.112,0-.169,0ZM15.8,31.163a1.979,1.979,0,0,0-.755-1.2,5.057,5.057,0,0,1-.051-1.031,5.232,5.232,0,0,0,1.724.5A13.273,13.273,0,0,0,17.39,31.6a2.124,2.124,0,0,1-1.592-.437Zm5.125,5.418a13.264,13.264,0,0,0,2.86,1.939v.6L21.338,41a3.213,3.213,0,0,0-1.225-2.61A3.847,3.847,0,0,0,20.923,36.581Zm8.969,3.366a13.345,13.345,0,0,0,4.363-.73l.014,0v.071L29.9,45.663l-4.367-6.379v-.035a13.893,13.893,0,0,0,4.357.7Zm14.42-.4a2.124,2.124,0,0,1,.7,1.567,11.048,11.048,0,0,1-.028,1.625,6.927,6.927,0,0,0-4.2-1.177v-.448a2.124,2.124,0,0,1,.7-1.567A3.878,3.878,0,0,0,44.312,39.547Zm.7-3.6a2.115,2.115,0,0,1-4.229,0,13.2,13.2,0,0,1,.029-1.631,13.47,13.47,0,0,0,.754-1.184,3.883,3.883,0,0,0,2.75-.033,2.124,2.124,0,0,1,.7,1.567Zm-1.136-4.574a2.094,2.094,0,0,1-1.546.165l.005-.013a13.167,13.167,0,0,0,.639-2.059c0-.013.006-.025.009-.038a5.214,5.214,0,0,0,2.029-.64A2.436,2.436,0,0,1,43.873,31.376Zm-4.827,4.947a3.852,3.852,0,0,0,.974,2.21,3.878,3.878,0,0,0-.992,2.581v.314l-3.007-2.3v-.662a13.47,13.47,0,0,0,3.025-2.138ZM21.338,46.118V44.379l3.183,3.91v.992a28.425,28.425,0,0,0-3.938-1.1A3.208,3.208,0,0,0,21.338,46.118Zm23.2-24.455a3.374,3.374,0,0,1,1.288,2.653v.026A3.354,3.354,0,0,1,43.251,27.6c.027-.347.041-.759.041-1.054,0-4.751,0-4.581-.008-4.884H44.54ZM29.9,16.914a8.516,8.516,0,0,0,7.63,4.748h4c.014.353.01.035.01,4.884a11.691,11.691,0,0,1-23.382,0c0-3.208-.009-4.276.01-4.884h4.1a8.516,8.516,0,0,0,7.63-4.748Zm-16,7.4a3.374,3.374,0,0,1,1.288-2.653h1.22c-.012.47-.011,1.2-.01,2.66,0,2.017-.015,2.528.042,3.276a3.348,3.348,0,0,1-2.541-3.256Zm-1.715,7.5,1.706-.457a.134.134,0,0,1,.127.034.3.3,0,0,1,.046.1l1.662,6.2h-2.1L12.1,31.978A.132.132,0,0,1,12.191,31.816Zm-.315,15.323a1.441,1.441,0,0,1-.419-1.021V40.909a1.461,1.461,0,0,1,1.5-1.46c5.519,0,5.2-.01,5.4.021h.012a1.461,1.461,0,0,1,1.22,1.439v5.209a1.462,1.462,0,0,1-1.46,1.46c-2.416,0-2.2-.223-6.25-.439ZM4.655,49.082a.291.291,0,0,1,.285-.292c6.013-.157,19.465.257,23.393,4.818H4.655Zm-2.9,8.4a2.126,2.126,0,0,1,2.124-2.124h25.15v4.247H3.876a2.126,2.126,0,0,1-2.124-2.124Zm29.713-3.876c3.923-4.571,17.368-4.982,23.4-4.825a.291.291,0,0,1,.285.292v4.533Z" transform="translate(0 -2.03)"/>
      </g>
    </g>
  </g>
</svg>
