<svg xmlns="http://www.w3.org/2000/svg" xmlns:xlink="http://www.w3.org/1999/xlink" width="113" height="113" viewBox="0 0 113 113">
  <defs>
    <filter id="Trazado_982547" x="0" y="0" width="113" height="113" filterUnits="userSpaceOnUse">
      <feOffset dy="3" input="SourceAlpha"/>
      <feGaussianBlur stdDeviation="3" result="blur"/>
      <feFlood flood-opacity="0.161"/>
      <feComposite operator="in" in2="blur"/>
      <feComposite in="SourceGraphic"/>
    </filter>
  </defs>
  <g id="Grupo_1225726" data-name="Grupo 1225726" transform="translate(-271 -6723.125)">
    <g id="Grupo_1225325" data-name="Grupo 1225325" transform="translate(0 2032.366)">
      <g id="Grupo_1225173" data-name="Grupo 1225173" transform="translate(0 -50.236)">
        <g id="Grupo_1224643" data-name="Grupo 1224643" transform="translate(0 1927)">
          <g id="Grupo_1224291" data-name="Grupo 1224291" transform="translate(0 859.245)">
            <g id="Grupo_1224091" data-name="Grupo 1224091" transform="translate(-84.49 -2620.317)">
              <g id="Grupo_1223183" data-name="Grupo 1223183" transform="translate(364.49 4581.069)">
                <g id="Grupo_1211217" data-name="Grupo 1211217" transform="translate(0)">
                  <g id="Grupo_1210736" data-name="Grupo 1210736">
                    <g id="Grupo_1210537" data-name="Grupo 1210537">
                      <g id="Grupo_1164202" data-name="Grupo 1164202">
                        <g id="Grupo_1158168" data-name="Grupo 1158168">
                          <g id="Grupo_1152576" data-name="Grupo 1152576">
                            <g id="Grupo_1148633" data-name="Grupo 1148633">
                              <g id="Grupo_1148525" data-name="Grupo 1148525">
                                <g transform="matrix(1, 0, 0, 1, -9, -6)" filter="url(#Trazado_982547)">
                                  <g id="Trazado_982547-2" data-name="Trazado 982547" transform="translate(9 6)" fill="#fdfbec">
                                    <path d="M 47.49999618530273 93.5 C 41.28936767578125 93.5 35.26533126831055 92.28396606445312 29.59518241882324 89.88570404052734 C 24.11771583557129 87.56893157958984 19.19812965393066 84.251953125 14.97308921813965 80.02690124511719 C 10.74803638458252 75.80186462402344 7.431062698364258 70.88227844238281 5.114289283752441 65.40480804443359 C 2.716022968292236 59.73466110229492 1.499996185302734 53.71062469482422 1.499996185302734 47.49999618530273 C 1.499996185302734 41.28936767578125 2.716022968292236 35.26533126831055 5.114289283752441 29.59518241882324 C 7.431062698364258 24.11771583557129 10.74803638458252 19.19812965393066 14.97308921813965 14.97308921813965 C 19.19812965393066 10.74803638458252 24.11771583557129 7.431062698364258 29.59518241882324 5.114289283752441 C 35.26533126831055 2.716022968292236 41.28936767578125 1.499996185302734 47.49999618530273 1.499996185302734 C 53.71062469482422 1.499996185302734 59.73466110229492 2.716022968292236 65.40480804443359 5.114289283752441 C 70.88227844238281 7.431062698364258 75.80186462402344 10.74803638458252 80.02690124511719 14.97308921813965 C 84.251953125 19.19812965393066 87.56893157958984 24.11771583557129 89.88570404052734 29.59518241882324 C 92.28396606445312 35.26533126831055 93.5 41.28936767578125 93.5 47.49999618530273 C 93.5 53.71062469482422 92.28396606445312 59.73466110229492 89.88570404052734 65.40480804443359 C 87.56893157958984 70.88227844238281 84.251953125 75.80186462402344 80.02690124511719 80.02690124511719 C 75.80186462402344 84.251953125 70.88227844238281 87.56893157958984 65.40480804443359 89.88570404052734 C 59.73466110229492 92.28396606445312 53.71062469482422 93.5 47.49999618530273 93.5 Z" stroke="none"/>
                                    <path d="M 47.49999618530273 2.999992370605469 C 41.4912109375 2.999992370605469 35.66376495361328 4.1761474609375 30.17950439453125 6.495796203613281 C 24.88084411621094 8.736953735351562 20.12152099609375 11.94598388671875 16.03375244140625 16.03375244140625 C 11.94598388671875 20.12152099609375 8.736953735351562 24.88084411621094 6.495796203613281 30.17950439453125 C 4.1761474609375 35.66376495361328 2.999992370605469 41.4912109375 2.999992370605469 47.49999618530273 C 2.999992370605469 53.50878143310547 4.1761474609375 59.33622741699219 6.495796203613281 64.82048797607422 C 8.736953735351562 70.11914825439453 11.94598388671875 74.87847137451172 16.03375244140625 78.96623992919922 C 20.12152099609375 83.05400848388672 24.88084411621094 86.26304626464844 30.17950439453125 88.50419616699219 C 35.66376495361328 90.82384490966797 41.4912109375 92 47.49999618530273 92 C 53.50878143310547 92 59.33622741699219 90.82384490966797 64.82048797607422 88.50419616699219 C 70.11914825439453 86.26304626464844 74.87847137451172 83.05400848388672 78.96623992919922 78.96623992919922 C 83.05400848388672 74.87847137451172 86.26304626464844 70.11914825439453 88.50419616699219 64.82048797607422 C 90.82384490966797 59.33622741699219 92 53.50878143310547 92 47.49999618530273 C 92 41.4912109375 90.82384490966797 35.66376495361328 88.50419616699219 30.17950439453125 C 86.26304626464844 24.88084411621094 83.05400848388672 20.12152099609375 78.96623992919922 16.03375244140625 C 74.87847137451172 11.94598388671875 70.11914825439453 8.736953735351562 64.82048797607422 6.495796203613281 C 59.33622741699219 4.1761474609375 53.50878143310547 2.999992370605469 47.49999618530273 2.999992370605469 M 47.49999618530273 -7.62939453125e-06 C 73.7335205078125 -7.62939453125e-06 95 21.26647186279297 95 47.49999618530273 C 95 73.7335205078125 73.7335205078125 95 47.49999618530273 95 C 21.26647186279297 95 -7.62939453125e-06 73.7335205078125 -7.62939453125e-06 47.49999618530273 C -7.62939453125e-06 21.26647186279297 21.26647186279297 -7.62939453125e-06 47.49999618530273 -7.62939453125e-06 Z" stroke="none" fill="#83793c"/>
                                  </g>
                                </g>
                              </g>
                            </g>
                          </g>
                        </g>
                      </g>
                    </g>
                  </g>
                </g>
              </g>
            </g>
          </g>
        </g>
      </g>
    </g>
    <g id="layer1" transform="translate(300.293 6745.982)">
      <path id="path6211" d="M16.4,9.955l9.615,9.126a3.68,3.68,0,0,1-.327,5.394A3.8,3.8,0,0,1,20.273,24L12.237,13.982Z" transform="translate(32.711 26.336)" fill="#ffd1b5"/>
      <path id="path6163" d="M2.872.805A1.975,1.975,0,0,0,.864,2.811Q.819,28.905.794,55a4.007,4.007,0,0,0,4.015,4.015H42.955A4.007,4.007,0,0,0,46.97,55V49.981H44.962V9.841l-9.036-9C30.519.838,10.006.767,2.872.8Z" transform="translate(0.739 0.74)" fill="#e4eff8"/>
      <path id="path6174" d="M41.738,2.343c-.923,32.9-30.09,46.347-40.93,48.876a3.992,3.992,0,0,0,3.96,3.47H42.914a4.007,4.007,0,0,0,4.015-4.015V45.654H44.922V5.515Z" transform="translate(0.78 5.066)" fill="#c4dcf0"/>
      <path id="path6209" d="M31.5,17.073A12.046,12.046,0,1,1,19.454,5.027,12.046,12.046,0,0,1,31.5,17.073Z" transform="translate(19.22 12.567)" fill="#549ad4"/>
      <path id="path6189" d="M12.894,15.859H1.852V5.821H12.894Z" transform="translate(3.696 14.785)" fill="#ffca28"/>
      <path id="path6200" d="M11.828,5.821c0,5.019-3.953,8.031-9.976,8.031v2.008H12.894V5.821Z" transform="translate(3.696 14.785)" fill="#ecb200"/>
      <path id="path6204" d="M1.852,5.821V15.859H3.86V5.821Z" transform="translate(3.696 14.785)" fill="#f5f9fb"/>
      <path id="path6193" d="M12.894,19.563H1.852V9.525H12.894Z" transform="translate(3.696 25.134)" fill="#ffca28"/>
      <path id="path6195" d="M11.828,9.525c0,5.019-3.953,8.031-9.976,8.031v2.008H12.894V9.525Z" transform="translate(3.696 25.134)" fill="#ecb200"/>
      <path id="path6207" d="M1.852,9.525V19.563H3.86V9.525Z" transform="translate(3.696 25.134)" fill="#f5f9fb"/>
      <path id="path6278" d="M19.089,10.355,10.054,1.324v9.032Z" transform="translate(26.613 2.22)" fill="#c4dcf0"/>
      <path id="path6172" d="M19.089,9.83,10.054.8V9.83Z" transform="translate(26.613 0.752)" fill="#549ad4"/>
      <path id="path6275" d="M10.054.8V9.829h2.008V2.806Z" transform="translate(26.613 0.752)" fill="#f5f9fb"/>
      <path id="path6169" d="M40,22.793a4.007,4.007,0,0,0,4.015-4.015V13.758H5.867v5.019a4.007,4.007,0,0,1-4.015,4.015Z" transform="translate(3.696 36.962)" fill="#549ad4"/>
      <path id="path6179" d="M40,13.758c-5.019,8.693-29.051,7.911-35.5,8.023a3.984,3.984,0,0,1-2.643,1.012H40a4.007,4.007,0,0,0,4.015-4.015V13.758Z" transform="translate(3.696 36.962)" fill="#3588cb"/>
      <path id="path6186" d="M5.867,13.758v5.019a4.007,4.007,0,0,1-4.015,4.015H3.86a4.007,4.007,0,0,0,4.015-4.015V13.758Z" transform="translate(3.696 36.962)" fill="#f5f9fb"/>
      <path id="path6215" d="M14.37,9.955l-1.408,1.363,8.013,7.607a3.682,3.682,0,0,1-.327,5.4,3.766,3.766,0,0,1-1.172.671,3.831,3.831,0,0,0,4.182-.516,3.68,3.68,0,0,0,.327-5.394Z" transform="translate(34.739 26.336)" fill="#ffb98d"/>
      <path id="circle6218" d="M16.4,9.955l-4.16,4.027.351.437a12.046,12.046,0,0,0,4.756-3.566Z" transform="translate(32.712 26.336)" fill="#ffb98d"/>
      <path id="circle6229" d="M24.528,14.116A8.031,8.031,0,1,1,16.5,6.085,8.031,8.031,0,0,1,24.528,14.116Z" transform="translate(22.177 15.524)" fill="#e4eff8"/>
      <path id="circle6233" d="M16.5,6.085a8.03,8.03,0,0,0-4.566,14.636,8.025,8.025,0,0,1,11.14-11.2A8.031,8.031,0,0,0,16.5,6.085Z" transform="translate(22.177 15.524)" fill="#c4dcf0"/>
      <path id="circle6226" d="M25.043,5.717A12.035,12.035,0,0,1,8.084,22.566,12.039,12.039,0,1,0,25.043,5.717Z" transform="translate(21.108 14.495)" fill="#3588cb"/>
      <path id="circle6238" d="M19.454,5.027a12.046,12.046,0,1,0,0,24.092q.512,0,1.021-.049A12.038,12.038,0,0,1,20.44,5.076q-.492-.045-.986-.049Z" transform="translate(19.22 12.567)" fill="#f5f9fb"/>
      <path id="path6241" d="M13.541,6.353H9.525v7.025h4.015Z" transform="translate(25.136 16.271)" fill="#ffca28"/>
      <path id="path6257" d="M13.541,7.29A16.19,16.19,0,0,1,9.525,9.068v1.69h4.015Z" transform="translate(25.136 18.89)" fill="#ecb200"/>
      <path id="rect6243" d="M10.584,5.03H14.6V17.073H10.584Z" transform="translate(28.093 12.576)" fill="#ffd1b5"/>
      <path id="rect6262" d="M14.6,6.305a13.718,13.718,0,0,1-4.015,3.737V13.51H14.6Z" transform="translate(28.093 16.138)" fill="#ffb98d"/>
      <path id="rect6245" d="M11.642,4.237h4.015V19.29H11.642Z" transform="translate(31.049 10.359)" fill="#ffca28"/>
      <path id="rect6264" d="M14.479,4.237a16.675,16.675,0,0,1-2.837,7.846v7.205h4.015V4.237Z" transform="translate(31.05 10.36)" fill="#ecb200"/>
      <path id="path2237" d="M46.705,10.567a1,1,0,0,0-.292-.694L37.381.841a1.092,1.092,0,0,0-.712-.312H3.531a2.994,2.994,0,0,0-3,3.023c0,17.053.021,35.123,0,52.187a5.009,5.009,0,0,0,5.017,5.019H43.694a5.008,5.008,0,0,0,5.017-5.015V50.719a1,1,0,0,0-1-1H46.705V44.109l5.5,6.854a4.8,4.8,0,0,0,6.846.608,4.68,4.68,0,0,0,.371-6.886l-9.281-8.805a13.052,13.052,0,0,0-2.427-15.66V14.594a1,1,0,0,0-1-1Zm-26.1,15.057a1,1,0,1,0,0,2.008h5.18a13.065,13.065,0,0,0-.157,2.008H20.606a1,1,0,1,0,0,2.008h5.176a13.046,13.046,0,0,0,18.7,9.681l.22.276v8.113H9.562a1,1,0,0,0-1,1v5.025a3.011,3.011,0,0,1-6.023,0c.022-17.4-.03-34.135,0-52.191A.981.981,0,0,1,3.545,2.537H35.661v8.048a1,1,0,0,0,1.008,1H44.7v2l-2.006-.008a1.015,1.015,0,0,0-1.006,1.016v2l-3.018-.01a13.07,13.07,0,0,0-12.406,9.036ZM37.669,3.968l5.609,5.609H37.669ZM12.575,6.552a1,1,0,1,0,0,2.008H27.632a1,1,0,1,0,0-2.008Zm0,4.015a1,1,0,1,0,0,2.008H30.644a1,1,0,1,0,0-2.008ZM43.694,15.6H45.7V28.644H43.694ZM39.678,18.61h2.008l0,10.034H39.676Zm-2.008,3.008-3.01-.008a1.266,1.266,0,0,0-.759.365,9.034,9.034,0,1,0,13.809,7.782c0-2.145,0-4.3,0-6.45a11.035,11.035,0,1,1-10.038-4.662ZM5.546,19.6a1,1,0,0,0-1,1.008V30.642a1,1,0,0,0,1,1.01h11.04a1,1,0,0,0,1.01-1.01V27.634a1,1,0,0,0-2.01,0v2.008H6.554V21.61h6.025a1,1,0,1,0,0-2.008Zm10.419,2.225-4.319,3.46-1.372-1.378a1,1,0,1,0-1.421,1.421l2.008,2.01a1,1,0,0,0,1.341.073L17.218,23.4a1,1,0,1,0-1.253-1.57Zm4.641-.218a1,1,0,1,0,0,2.008h4.015a1,1,0,1,0,0-2.008Zm15.063,2.017h2v5.017h-2Zm-2.008,1.09v4.935a1,1,0,0,0,1,1H45.623a7.023,7.023,0,1,1-11.962-5.935ZM5.546,33.654a1,1,0,0,0-1,1.008V44.694a1,1,0,0,0,1,1.008h11.04a1,1,0,0,0,1.01-1.008V41.686a1,1,0,0,0-2.01,0v2.008H6.554V35.661h6.025a1,1,0,1,0,0-2.008Zm10.938,2.006a1,1,0,0,0-.52.218l-4.319,3.46-1.372-1.378a1.006,1.006,0,1,0-1.421,1.423L10.86,41.39a1,1,0,0,0,1.341.075l5.017-4.017a1.008,1.008,0,0,0-.733-1.788Zm4.121,0a1,1,0,1,0,0,2.008h4.015a1,1,0,1,0,0-2.008ZM58.032,46.146a2.685,2.685,0,0,1-.288,3.906,2.807,2.807,0,0,1-3.98-.341L46.215,40.29a12.962,12.962,0,0,0,2.808-2.7ZM20.606,39.678a1,1,0,1,0,0,2.008h6.023a1,1,0,1,0,0-2.008Zm0,4.015a1,1,0,1,0,0,2.008H32.652a1,1,0,1,0,0-2.008ZM10.571,51.726H46.7v4.017a2.994,2.994,0,0,1-3.008,3.008H9.562a4.951,4.951,0,0,0,1.006-3.008Z" transform="translate(0 0)" fill="#0b0a0a"/>
    </g>
  </g>
</svg>
