<svg xmlns="http://www.w3.org/2000/svg" xmlns:xlink="http://www.w3.org/1999/xlink" width="113" height="113" viewBox="0 0 113 113">
  <defs>
    <filter id="Trazado_982547" x="0" y="0" width="113" height="113" filterUnits="userSpaceOnUse">
      <feOffset dy="3" input="SourceAlpha"/>
      <feGaussianBlur stdDeviation="3" result="blur"/>
      <feFlood flood-opacity="0.161"/>
      <feComposite operator="in" in2="blur"/>
      <feComposite in="SourceGraphic"/>
    </filter>
  </defs>
  <g id="Grupo_1225777" data-name="Grupo 1225777" transform="translate(9 6)">
    <g id="Grupo_1225327" data-name="Grupo 1225327" transform="translate(0 0)">
      <g id="Grupo_1225177" data-name="Grupo 1225177">
        <g id="Grupo_1224648" data-name="Grupo 1224648">
          <g id="Grupo_1224293" data-name="Grupo 1224293">
            <g id="Grupo_1224093" data-name="Grupo 1224093">
              <g id="Grupo_1223184" data-name="Grupo 1223184" transform="translate(0)">
                <g id="Grupo_1211216" data-name="Grupo 1211216">
                  <g id="Grupo_1210737" data-name="Grupo 1210737">
                    <g id="Grupo_1210537" data-name="Grupo 1210537">
                      <g id="Grupo_1164202" data-name="Grupo 1164202">
                        <g id="Grupo_1158168" data-name="Grupo 1158168">
                          <g id="Grupo_1152576" data-name="Grupo 1152576">
                            <g id="Grupo_1148633" data-name="Grupo 1148633">
                              <g id="Grupo_1148525" data-name="Grupo 1148525">
                                <g transform="matrix(1, 0, 0, 1, -9, -6)" filter="url(#Trazado_982547)">
                                  <g id="Trazado_982547-2" data-name="Trazado 982547" transform="translate(9 6)" fill="#fdfbec">
                                    <path d="M 47.5 93.5 C 41.28937149047852 93.5 35.26533508300781 92.28397369384766 29.59518623352051 89.88570404052734 C 24.11771965026855 87.56893157958984 19.19813346862793 84.25196075439453 14.97309303283691 80.02691650390625 C 10.74804019927979 75.80186462402344 7.431066513061523 70.88229370117188 5.114293098449707 65.40481567382812 C 2.716026782989502 59.73468017578125 1.5 53.71062850952148 1.5 47.5 C 1.5 41.28937149047852 2.716026782989502 35.26533508300781 5.114293098449707 29.59518623352051 C 7.431066513061523 24.11771965026855 10.74804019927979 19.19813346862793 14.97309303283691 14.97309303283691 C 19.19813346862793 10.74804019927979 24.11771965026855 7.431066513061523 29.59518623352051 5.114293098449707 C 35.26533508300781 2.716026782989502 41.28937149047852 1.5 47.5 1.5 C 53.71062850952148 1.5 59.73468017578125 2.716026782989502 65.40481567382812 5.114293098449707 C 70.88229370117188 7.431066513061523 75.80186462402344 10.74804019927979 80.02691650390625 14.97309303283691 C 84.25196075439453 19.19813346862793 87.56893157958984 24.11771965026855 89.88570404052734 29.59518623352051 C 92.28397369384766 35.26533508300781 93.5 41.28937149047852 93.5 47.5 C 93.5 53.71062850952148 92.28397369384766 59.73468017578125 89.88570404052734 65.40481567382812 C 87.56893157958984 70.88229370117188 84.25196075439453 75.80186462402344 80.02691650390625 80.02691650390625 C 75.80186462402344 84.25196075439453 70.88229370117188 87.56893157958984 65.40481567382812 89.88570404052734 C 59.73468017578125 92.28397369384766 53.71062850952148 93.5 47.5 93.5 Z" stroke="none"/>
                                    <path d="M 47.5 3 C 41.49121475219727 3 35.66376876831055 4.176155090332031 30.17950439453125 6.495796203613281 C 24.88084411621094 8.736953735351562 20.12152099609375 11.94598388671875 16.03375244140625 16.03375244140625 C 11.94598388671875 20.12152099609375 8.736953735351562 24.88084411621094 6.495796203613281 30.17950439453125 C 4.176155090332031 35.66376876831055 3 41.49121475219727 3 47.5 C 3 53.50878524780273 4.176155090332031 59.33623123168945 6.495796203613281 64.82049560546875 C 8.736953735351562 70.11915588378906 11.94598388671875 74.87847900390625 16.03375244140625 78.96624755859375 C 20.12152099609375 83.05401611328125 24.88084411621094 86.26304626464844 30.17950439453125 88.50419616699219 C 35.66376876831055 90.82384490966797 41.49121475219727 92 47.5 92 C 53.50878524780273 92 59.33623123168945 90.82384490966797 64.82049560546875 88.50419616699219 C 70.11915588378906 86.26304626464844 74.87847900390625 83.05401611328125 78.96624755859375 78.96624755859375 C 83.05401611328125 74.87847900390625 86.26304626464844 70.11915588378906 88.50419616699219 64.82049560546875 C 90.82384490966797 59.33623123168945 92 53.50878524780273 92 47.5 C 92 41.49121475219727 90.82384490966797 35.66376876831055 88.50419616699219 30.17950439453125 C 86.26304626464844 24.88084411621094 83.05401611328125 20.12152099609375 78.96624755859375 16.03375244140625 C 74.87847900390625 11.94598388671875 70.11915588378906 8.736953735351562 64.82049560546875 6.495796203613281 C 59.33623123168945 4.176155090332031 53.50878524780273 3 47.5 3 M 47.5 0 C 73.7335205078125 0 95 21.2664794921875 95 47.5 C 95 73.7335205078125 73.7335205078125 95 47.5 95 C 21.2664794921875 95 0 73.7335205078125 0 47.5 C 0 21.2664794921875 21.2664794921875 0 47.5 0 Z" stroke="none" fill="#83793c"/>
                                  </g>
                                </g>
                              </g>
                            </g>
                          </g>
                        </g>
                      </g>
                    </g>
                  </g>
                </g>
              </g>
            </g>
          </g>
        </g>
      </g>
    </g>
    <g id="reading_7456996" transform="translate(18.163 16.163)">
      <g id="Grupo_1225752" data-name="Grupo 1225752" transform="translate(0 0)">
        <g id="Grupo_1225748" data-name="Grupo 1225748" transform="translate(5.891 0)">
          <g id="Grupo_1225737" data-name="Grupo 1225737" transform="translate(0)">
            <g id="Grupo_1225736" data-name="Grupo 1225736">
              <g id="Grupo_1225734" data-name="Grupo 1225734" transform="translate(0.567)">
                <g id="Grupo_1225733" data-name="Grupo 1225733">
                  <path id="Trazado_1057508" data-name="Trazado 1057508" d="M90.541,292H62.193v-9.229A14.173,14.173,0,0,1,76.366,268.6h0a14.173,14.173,0,0,1,14.173,14.173V292Z" transform="translate(-62.193 -237.77)" fill="#bbf49b"/>
                  <path id="Trazado_1057509" data-name="Trazado 1057509" d="M150.487,308.733h0a4.25,4.25,0,0,1-4.25-4.25v-1.968h8.5v1.968A4.25,4.25,0,0,1,150.487,308.733Z" transform="translate(-136.312 -267.68)" fill="#ffe5d8"/>
                  <g id="Grupo_1225732" data-name="Grupo 1225732" transform="translate(0.673)">
                    <g id="Grupo_1225729" data-name="Grupo 1225729" transform="translate(2.678 9.25)">
                      <path id="Trazado_1057510" data-name="Trazado 1057510" d="M101.4,112.3h0a10.822,10.822,0,0,1-10.822-10.822V85.836H112.22v15.646A10.822,10.822,0,0,1,101.4,112.3Z" transform="translate(-90.574 -85.836)" fill="#ffe5d8"/>
                    </g>
                    <g id="Grupo_1225731" data-name="Grupo 1225731">
                      <path id="Trazado_1057511" data-name="Trazado 1057511" d="M219.637,25.718l-1.282,9.977a6.956,6.956,0,0,1,6.542,6.956l2.694,1.023V33.84C227.591,25.718,219.637,25.718,219.637,25.718Z" transform="translate(-200.588 -23.567)" fill="#025f80"/>
                      <path id="Trazado_1057512" data-name="Trazado 1057512" d="M86.15,8.72c-4.742-2.644-18.259-1.569-18.259,9.054v9.834l2.694-1.023c0-2.5.7-4.078,1.764-5.054a4.819,4.819,0,0,1,4.5-1.259c3.687.642,9.333.921,11.873-3.521A5.845,5.845,0,0,0,86.15,8.72Z" transform="translate(-67.891 -7.5)" fill="#025f80"/>
                      <g id="Grupo_1225730" data-name="Grupo 1225730" transform="translate(10.082 0.001)">
                        <path id="Trazado_1057513" data-name="Trazado 1057513" d="M161.453,8.724a14.16,14.16,0,0,0-8.176-1.058,10.231,10.231,0,0,1,3.453,1.058,5.846,5.846,0,0,1,2.571,8.03,7.7,7.7,0,0,1-5.819,3.72c3.6.445,8.292.215,10.542-3.72A5.845,5.845,0,0,0,161.453,8.724Z" transform="translate(-153.277 -7.504)" fill="#024c67"/>
                      </g>
                    </g>
                  </g>
                </g>
              </g>
              <g id="Grupo_1225735" data-name="Grupo 1225735" transform="translate(0 19.084)">
                <path id="Trazado_1057514" data-name="Trazado 1057514" d="M61.311,173.616h-1.67a2.248,2.248,0,0,1-2.248-2.248h0a2.248,2.248,0,0,1,2.248-2.248h1.67Z" transform="translate(-57.393 -169.12)" fill="#ffe5d8"/>
              </g>
            </g>
          </g>
          <g id="Grupo_1225747" data-name="Grupo 1225747" transform="translate(16.346 12.834)">
            <g id="Grupo_1225740" data-name="Grupo 1225740" transform="translate(0 18.479)">
              <g id="Grupo_1225738" data-name="Grupo 1225738" transform="translate(20.782)">
                <path id="Trazado_1057515" data-name="Trazado 1057515" d="M371.825,273.484l1.167,2.4a8,8,0,0,0,9.122,4.185,1.288,1.288,0,0,0,.825-1.812l-.544-1.12a7.907,7.907,0,0,0-10.569-3.653Z" transform="translate(-371.825 -272.686)" fill="#025f80"/>
              </g>
              <g id="Grupo_1225739" data-name="Grupo 1225739" transform="translate(0)">
                <path id="Trazado_1057516" data-name="Trazado 1057516" d="M207.068,273.484l-1.167,2.4a8,8,0,0,1-9.122,4.185,1.288,1.288,0,0,1-.825-1.812l.544-1.12a7.907,7.907,0,0,1,10.569-3.653Z" transform="translate(-195.824 -272.686)" fill="#025f80"/>
              </g>
            </g>
            <g id="Grupo_1225746" data-name="Grupo 1225746" transform="translate(4.62)">
              <g id="Grupo_1225744" data-name="Grupo 1225744" transform="translate(0.438)">
                <g id="Grupo_1225743" data-name="Grupo 1225743">
                  <path id="Trazado_1057517" data-name="Trazado 1057517" d="M260.571,342.8h-21.91v-4.441a10.954,10.954,0,0,1,10.954-10.954h0a10.954,10.954,0,0,1,10.954,10.954V342.8Z" transform="translate(-238.661 -302.467)" fill="#fe93d3"/>
                  <path id="Trazado_1057518" data-name="Trazado 1057518" d="M306.9,357.019h0a3.285,3.285,0,0,1-3.285-3.285v-1.521h6.57v1.521A3.285,3.285,0,0,1,306.9,357.019Z" transform="translate(-295.947 -324.343)" fill="#ffe5d8"/>
                  <g id="Grupo_1225742" data-name="Grupo 1225742" transform="translate(0.263)">
                    <g id="Grupo_1225741" data-name="Grupo 1225741" transform="translate(2.328 8.261)">
                      <path id="Trazado_1057519" data-name="Trazado 1057519" d="M268.962,206.608h0a8.364,8.364,0,0,1-8.364-8.364V186.151h16.73v12.092A8.364,8.364,0,0,1,268.962,206.608Z" transform="translate(-260.597 -186.151)" fill="#ffe5d8"/>
                      <path id="Trazado_1057520" data-name="Trazado 1057520" d="M317.44,186.151v12.092a8.366,8.366,0,0,1-6,8.024,8.361,8.361,0,0,0,2.361.34h0a8.364,8.364,0,0,0,8.364-8.364V186.151Z" transform="translate(-305.434 -186.151)" fill="#ffd8ca"/>
                    </g>
                    <path id="Trazado_1057521" data-name="Trazado 1057521" d="M240.885,125.239v7.6l2.339-.791c0-2.808,1.662-3.384,4.689-3.6a11.11,11.11,0,0,0,6.945-2.541,1.179,1.179,0,0,1,1.828.237,12.391,12.391,0,0,0,2.03,2.493,5.356,5.356,0,0,1,1.215,3.408l2.339.791v-8.392C262.27,113.687,240.885,112.915,240.885,125.239Z" transform="translate(-240.885 -116.187)" fill="#025f80"/>
                  </g>
                </g>
              </g>
              <g id="Grupo_1225745" data-name="Grupo 1225745" transform="translate(0 15.862)">
                <path id="Trazado_1057522" data-name="Trazado 1057522" d="M237.979,253.994h-1.291a1.737,1.737,0,0,1-1.737-1.737h0a1.737,1.737,0,0,1,1.737-1.737h1.291Z" transform="translate(-234.951 -250.519)" fill="#ffe5d8"/>
                <path id="Trazado_1057523" data-name="Trazado 1057523" d="M402.278,250.52h1.291a1.737,1.737,0,0,1,1.737,1.737h0a1.737,1.737,0,0,1-1.737,1.737h-1.291Z" transform="translate(-382.52 -250.52)" fill="#ffe5d8"/>
              </g>
            </g>
          </g>
        </g>
        <path id="Trazado_1057524" data-name="Trazado 1057524" d="M72.516,373.456a1.912,1.912,0,0,0,1.844-1.406l2.917-10.62h0L75.963,360.1a4.858,4.858,0,0,0-4.844-1.234L59.657,362.3c-2.731.867-6.079,2.161-8.039,4.209a2.48,2.48,0,0,1-3.918,0c-2-2.02-5.38-3.361-8.062-4.212l-12.56-3.761a2.945,2.945,0,0,0-2.937.748l-2.122,2.141h0l2.917,10.62a1.912,1.912,0,0,0,1.844,1.406Z" transform="translate(-20.305 -316.981)" fill="#f7f9fa"/>
        <g id="Grupo_1225749" data-name="Grupo 1225749" transform="translate(48.078 41.685)">
          <path id="Trazado_1057525" data-name="Trazado 1057525" d="M423.557,363.288l-1.314-1.326a4.858,4.858,0,0,0-4.844-1.234l-.75.225a4.849,4.849,0,0,1,1.462,1.01l1.314,1.326,1.6,1.779-4.518,8.841a1.912,1.912,0,0,1-1.844,1.406H418.8a1.912,1.912,0,0,0,1.844-1.406l2.917-10.62Z" transform="translate(-414.664 -360.523)" fill="#d8ecfe"/>
        </g>
        <g id="Grupo_1225750" data-name="Grupo 1225750" transform="translate(22.237 50.883)">
          <path id="Trazado_1057526" data-name="Trazado 1057526" d="M206.508,446.224l3.091-7.643-2.412.751a1.187,1.187,0,0,0-.528.341,4.975,4.975,0,0,1-7.384,0,1.188,1.188,0,0,0-.528-.341l-2.924-.911,3.6,7.8Z" transform="translate(-195.823 -438.421)" fill="#ffe177"/>
        </g>
        <g id="Grupo_1225751" data-name="Grupo 1225751" transform="translate(0 44.227)">
          <path id="Trazado_1057527" data-name="Trazado 1057527" d="M307.84,396.689l4.2-13.449a.758.758,0,0,0-.949-.95l-23.64,7.365a1.181,1.181,0,0,0-.828,1.066l-.311,5.969Z" transform="translate(-253.392 -382.23)" fill="#b98080"/>
          <path id="Trazado_1057528" data-name="Trazado 1057528" d="M436.592,382.289l-3.852,1.2-4.124,13.2h4.723l4.2-13.449A.758.758,0,0,0,436.592,382.289Z" transform="translate(-378.89 -382.23)" fill="#ae6c6c"/>
          <path id="Trazado_1057529" data-name="Trazado 1057529" d="M33.34,396.51l-.311-5.969a1.181,1.181,0,0,0-.828-1.066L8.485,382.087a.758.758,0,0,0-.96.915l3.517,13.508Z" transform="translate(-7.5 -382.052)" fill="#b98080"/>
        </g>
      </g>
      <g id="Grupo_1225776" data-name="Grupo 1225776" transform="translate(0 0)">
        <g id="Grupo_1225773" data-name="Grupo 1225773" transform="translate(5.891)">
          <g id="Grupo_1225761" data-name="Grupo 1225761" transform="translate(0)">
            <g id="Grupo_1225759" data-name="Grupo 1225759" transform="translate(0)">
              <g id="Grupo_1225757" data-name="Grupo 1225757" transform="translate(1.02)">
                <g id="Grupo_1225756" data-name="Grupo 1225756" transform="translate(0)">
                  <path id="Trazado_1057530" data-name="Trazado 1057530" d="M66.028,294.4a14.2,14.2,0,0,1,6.4-8.571" transform="translate(-66.028 -252.965)" fill="none" stroke="#000" stroke-linecap="round" stroke-linejoin="round" stroke-miterlimit="10" stroke-width="1.2"/>
                  <path id="Trazado_1057531" data-name="Trazado 1057531" d="M154.16,306.621a4.248,4.248,0,0,1-3.674,2.112h0a4.25,4.25,0,0,1-4.25-4.25v-1.968" transform="translate(-136.765 -267.68)" fill="none" stroke="#000" stroke-linecap="round" stroke-linejoin="round" stroke-miterlimit="10" stroke-width="1.2"/>
                  <g id="Grupo_1225755" data-name="Grupo 1225755" transform="translate(0.22)">
                    <g id="Grupo_1225753" data-name="Grupo 1225753" transform="translate(2.678 18.44)">
                      <path id="Trazado_1057532" data-name="Trazado 1057532" d="M103.845,180.666a10.853,10.853,0,0,1-2.447.278h0a10.822,10.822,0,0,1-10.822-10.822v-6.455" transform="translate(-90.574 -163.666)" fill="none" stroke="#000" stroke-linecap="round" stroke-linejoin="round" stroke-miterlimit="10" stroke-width="1.2"/>
                      <path id="Trazado_1057533" data-name="Trazado 1057533" d="M160.576,246.217a3.614,3.614,0,0,0,5.114,0" transform="translate(-152.31 -236.469)" fill="none" stroke="#000" stroke-linecap="round" stroke-linejoin="round" stroke-miterlimit="10" stroke-width="1.2"/>
                    </g>
                    <g id="Grupo_1225754" data-name="Grupo 1225754">
                      <path id="Trazado_1057534" data-name="Trazado 1057534" d="M242.315,37.369V34.2c0-6.65-5.332-7.855-7.264-8.074" transform="translate(-215.313 -23.928)" fill="none" stroke="#000" stroke-linecap="round" stroke-linejoin="round" stroke-miterlimit="10" stroke-width="1.2"/>
                      <path id="Trazado_1057535" data-name="Trazado 1057535" d="M218.354,110.211a6.638,6.638,0,0,1,5.5,3.321" transform="translate(-200.587 -98.083)" fill="none" stroke="#000" stroke-linecap="round" stroke-linejoin="round" stroke-miterlimit="10" stroke-width="1.2"/>
                      <path id="Trazado_1057536" data-name="Trazado 1057536" d="M70.569,36.966a9.182,9.182,0,0,0-2.678,6.794v9.049" transform="translate(-67.891 -33.487)" fill="none" stroke="#000" stroke-linecap="round" stroke-linejoin="round" stroke-miterlimit="10" stroke-width="1.2"/>
                      <path id="Trazado_1057537" data-name="Trazado 1057537" d="M90.7,26.584c0-2.5.7-4.078,1.764-5.054a4.819,4.819,0,0,1,4.5-1.259c3.687.642,9.333.921,11.873-3.521a5.846,5.846,0,0,0-2.571-8.03c-2.722-1.517-8.334-1.81-12.622.225" transform="translate(-88.008 -7.5)" fill="none" stroke="#000" stroke-linecap="round" stroke-linejoin="round" stroke-miterlimit="10" stroke-width="1.2"/>
                    </g>
                  </g>
                </g>
              </g>
              <g id="Grupo_1225758" data-name="Grupo 1225758" transform="translate(0 19.084)">
                <path id="Trazado_1057538" data-name="Trazado 1057538" d="M61.311,173.616h-1.67a2.248,2.248,0,0,1-2.248-2.248h0a2.248,2.248,0,0,1,2.248-2.248h1.67Z" transform="translate(-57.393 -169.12)" fill="none" stroke="#000" stroke-linecap="round" stroke-linejoin="round" stroke-miterlimit="10" stroke-width="1.2"/>
              </g>
            </g>
            <g id="Grupo_1225760" data-name="Grupo 1225760" transform="translate(7.815 19.505)">
              <path id="Trazado_1057539" data-name="Trazado 1057539" d="M123.576,174.87a2.184,2.184,0,0,1,4.369,0" transform="translate(-123.576 -172.686)" fill="none" stroke="#000" stroke-linecap="round" stroke-linejoin="round" stroke-miterlimit="10" stroke-width="1.2"/>
              <path id="Trazado_1057540" data-name="Trazado 1057540" d="M203.886,174.87a2.184,2.184,0,0,1,4.369,0" transform="translate(-194.403 -172.686)" fill="none" stroke="#000" stroke-linecap="round" stroke-linejoin="round" stroke-miterlimit="10" stroke-width="1.2"/>
            </g>
          </g>
          <g id="Grupo_1225772" data-name="Grupo 1225772" transform="translate(16.346 12.834)">
            <g id="Grupo_1225764" data-name="Grupo 1225764" transform="translate(0 18.915)">
              <g id="Grupo_1225762" data-name="Grupo 1225762" transform="translate(23.573 0.046)">
                <path id="Trazado_1057541" data-name="Trazado 1057541" d="M395.459,281.7a8.053,8.053,0,0,0,7.5,1.967,1.288,1.288,0,0,0,.825-1.812l-.544-1.12a7.881,7.881,0,0,0-4.4-3.97" transform="translate(-395.459 -276.763)" fill="none" stroke="#000" stroke-linecap="round" stroke-linejoin="round" stroke-miterlimit="10" stroke-width="1.2"/>
              </g>
              <g id="Grupo_1225763" data-name="Grupo 1225763">
                <path id="Trazado_1057542" data-name="Trazado 1057542" d="M204.277,281.355a8.053,8.053,0,0,1-7.5,1.967,1.288,1.288,0,0,1-.825-1.812l.544-1.12a7.883,7.883,0,0,1,4.528-4.015" transform="translate(-195.823 -276.375)" fill="none" stroke="#000" stroke-linecap="round" stroke-linejoin="round" stroke-miterlimit="10" stroke-width="1.2"/>
                <path id="Trazado_1057543" data-name="Trazado 1057543" d="M291.05,279.444" transform="translate(-279.806 -279.082)" fill="none" stroke="#000" stroke-linecap="round" stroke-linejoin="round" stroke-miterlimit="10" stroke-width="1.2"/>
              </g>
            </g>
            <g id="Grupo_1225770" data-name="Grupo 1225770" transform="translate(4.62)">
              <g id="Grupo_1225768" data-name="Grupo 1225768" transform="translate(0.438)">
                <g id="Grupo_1225767" data-name="Grupo 1225767" transform="translate(0)">
                  <path id="Trazado_1057544" data-name="Trazado 1057544" d="M379.359,340.724a11.01,11.01,0,0,1,3.6,3.53" transform="translate(-362.745 -314.211)" fill="none" stroke="#000" stroke-linecap="round" stroke-linejoin="round" stroke-miterlimit="10" stroke-width="1.2"/>
                  <path id="Trazado_1057545" data-name="Trazado 1057545" d="M238.661,350.734v-.628a10.948,10.948,0,0,1,5.3-9.382" transform="translate(-238.661 -314.211)" fill="none" stroke="#000" stroke-linecap="round" stroke-linejoin="round" stroke-miterlimit="10" stroke-width="1.2"/>
                  <path id="Trazado_1057546" data-name="Trazado 1057546" d="M310.187,354.213V355.5a3.285,3.285,0,0,1-3.285,3.285h0a3.285,3.285,0,0,1-3.285-3.285v-1.285" transform="translate(-295.947 -326.107)" fill="none" stroke="#000" stroke-linecap="round" stroke-linejoin="round" stroke-miterlimit="10" stroke-width="1.2"/>
                  <g id="Grupo_1225766" data-name="Grupo 1225766" transform="translate(0.262)">
                    <g id="Grupo_1225765" data-name="Grupo 1225765" transform="translate(2.328 16.527)">
                      <path id="Trazado_1057547" data-name="Trazado 1057547" d="M277.327,256.151v3.827a8.364,8.364,0,0,1-8.364,8.364h0a8.364,8.364,0,0,1-8.364-8.364v-1.017" transform="translate(-260.597 -256.151)" fill="none" stroke="#000" stroke-linecap="round" stroke-linejoin="round" stroke-miterlimit="10" stroke-width="1.2"/>
                      <path id="Trazado_1057548" data-name="Trazado 1057548" d="M314.7,310.108a2.793,2.793,0,0,0,3.953,0" transform="translate(-308.312 -303.737)" fill="none" stroke="#000" stroke-linecap="round" stroke-linejoin="round" stroke-miterlimit="10" stroke-width="1.2"/>
                    </g>
                    <path id="Trazado_1057549" data-name="Trazado 1057549" d="M262.269,132.249v-7.8c0-10.761-21.385-11.533-21.385.791v7.01" transform="translate(-240.884 -116.187)" fill="none" stroke="#000" stroke-linecap="round" stroke-linejoin="round" stroke-miterlimit="10" stroke-width="1.2"/>
                    <path id="Trazado_1057550" data-name="Trazado 1057550" d="M260.7,202.2c0-2.808,1.662-3.384,4.688-3.6a11.11,11.11,0,0,0,6.945-2.541,1.179,1.179,0,0,1,1.828.237,12.388,12.388,0,0,0,2.03,2.493A5.356,5.356,0,0,1,277.4,202.2" transform="translate(-258.357 -186.341)" fill="none" stroke="#000" stroke-linecap="round" stroke-linejoin="round" stroke-miterlimit="10" stroke-width="1.2"/>
                  </g>
                </g>
              </g>
              <g id="Grupo_1225769" data-name="Grupo 1225769" transform="translate(0 15.862)">
                <path id="Trazado_1057551" data-name="Trazado 1057551" d="M237.979,253.994h-1.291a1.737,1.737,0,0,1-1.737-1.737h0a1.737,1.737,0,0,1,1.737-1.737h1.291Z" transform="translate(-234.951 -250.519)" fill="none" stroke="#000" stroke-linecap="round" stroke-linejoin="round" stroke-miterlimit="10" stroke-width="1.2"/>
                <path id="Trazado_1057552" data-name="Trazado 1057552" d="M402.278,250.52h1.291a1.737,1.737,0,0,1,1.737,1.737h0a1.737,1.737,0,0,1-1.737,1.737h-1.291Z" transform="translate(-382.52 -250.52)" fill="none" stroke="#000" stroke-linecap="round" stroke-linejoin="round" stroke-miterlimit="10" stroke-width="1.2"/>
              </g>
            </g>
            <g id="Grupo_1225771" data-name="Grupo 1225771" transform="translate(10.66 16.187)">
              <path id="Trazado_1057553" data-name="Trazado 1057553" d="M286.1,254.964a1.688,1.688,0,0,1,3.377,0" transform="translate(-286.103 -253.276)" fill="none" stroke="#000" stroke-linecap="round" stroke-linejoin="round" stroke-miterlimit="10" stroke-width="1.2"/>
              <path id="Trazado_1057554" data-name="Trazado 1057554" d="M348.174,254.964a1.688,1.688,0,0,1,3.377,0" transform="translate(-340.845 -253.276)" fill="none" stroke="#000" stroke-linecap="round" stroke-linejoin="round" stroke-miterlimit="10" stroke-width="1.2"/>
            </g>
          </g>
        </g>
        <path id="Trazado_1057555" data-name="Trazado 1057555" d="M77.276,361.43h0L75.962,360.1a4.858,4.858,0,0,0-4.844-1.234L59.657,362.3c-2.731.867-6.079,2.161-8.039,4.208a2.48,2.48,0,0,1-3.918,0c-2-2.02-5.38-3.361-8.062-4.212l-12.56-3.761a2.945,2.945,0,0,0-2.937.748l-2.122,2.141h0" transform="translate(-20.305 -316.981)" fill="none" stroke="#000" stroke-linecap="round" stroke-linejoin="round" stroke-miterlimit="10" stroke-width="1.2"/>
        <g id="Grupo_1225774" data-name="Grupo 1225774" transform="translate(25.161 51.794)">
          <path id="Trazado_1057556" data-name="Trazado 1057556" d="M229.025,446.135a1.187,1.187,0,0,0-.528.341,4.975,4.975,0,0,1-7.384,0,1.188,1.188,0,0,0-.528-.341" transform="translate(-220.584 -446.135)" fill="none" stroke="#000" stroke-linecap="round" stroke-linejoin="round" stroke-miterlimit="10" stroke-width="1.2"/>
        </g>
        <g id="Grupo_1225775" data-name="Grupo 1225775" transform="translate(0 44.227)">
          <path id="Trazado_1057557" data-name="Trazado 1057557" d="M302.334,405.66,287.452,410.3a1.181,1.181,0,0,0-.828,1.066l-.311,5.969" transform="translate(-253.391 -402.872)" fill="none" stroke="#000" stroke-linecap="round" stroke-linejoin="round" stroke-miterlimit="10" stroke-width="1.2"/>
          <path id="Trazado_1057558" data-name="Trazado 1057558" d="M451.4,396.689l4.2-13.449a.758.758,0,0,0-.949-.95L449.1,384.02" transform="translate(-396.956 -382.23)" fill="none" stroke="#000" stroke-linecap="round" stroke-linejoin="round" stroke-miterlimit="10" stroke-width="1.2"/>
          <path id="Trazado_1057559" data-name="Trazado 1057559" d="M33.34,396.51l-.311-5.969a1.181,1.181,0,0,0-.828-1.066L8.485,382.087a.758.758,0,0,0-.96.915l3.517,13.508" transform="translate(-7.5 -382.052)" fill="none" stroke="#000" stroke-linecap="round" stroke-linejoin="round" stroke-miterlimit="10" stroke-width="1.2"/>
        </g>
      </g>
    </g>
  </g>
</svg>
