<svg xmlns="http://www.w3.org/2000/svg" xmlns:xlink="http://www.w3.org/1999/xlink" width="113" height="113" viewBox="0 0 113 113">
  <defs>
    <filter id="Trazado_982547" x="0" y="0" width="113" height="113" filterUnits="userSpaceOnUse">
      <feOffset dy="3" input="SourceAlpha"/>
      <feGaussianBlur stdDeviation="3" result="blur"/>
      <feFlood flood-opacity="0.161"/>
      <feComposite operator="in" in2="blur"/>
      <feComposite in="SourceGraphic"/>
    </filter>
  </defs>
  <g id="Grupo_1225728" data-name="Grupo 1225728" transform="translate(9 6)">
    <g id="Grupo_1225326" data-name="Grupo 1225326" transform="translate(0 0)">
      <g id="Grupo_1225176" data-name="Grupo 1225176">
        <g id="Grupo_1224647" data-name="Grupo 1224647">
          <g id="Grupo_1224292" data-name="Grupo 1224292">
            <g id="Grupo_1224092" data-name="Grupo 1224092">
              <g id="Grupo_1223184" data-name="Grupo 1223184" transform="translate(0)">
                <g id="Grupo_1211216" data-name="Grupo 1211216">
                  <g id="Grupo_1210737" data-name="Grupo 1210737">
                    <g id="Grupo_1210537" data-name="Grupo 1210537">
                      <g id="Grupo_1164202" data-name="Grupo 1164202">
                        <g id="Grupo_1158168" data-name="Grupo 1158168">
                          <g id="Grupo_1152576" data-name="Grupo 1152576">
                            <g id="Grupo_1148633" data-name="Grupo 1148633">
                              <g id="Grupo_1148525" data-name="Grupo 1148525">
                                <g transform="matrix(1, 0, 0, 1, -9, -6)" filter="url(#Trazado_982547)">
                                  <g id="Trazado_982547-2" data-name="Trazado 982547" transform="translate(9 6)" fill="#fdfbec">
                                    <path d="M 47.5 93.5 C 41.28937149047852 93.5 35.26533508300781 92.28397369384766 29.59518623352051 89.88570404052734 C 24.11771965026855 87.56893157958984 19.19813346862793 84.25196075439453 14.97309303283691 80.02691650390625 C 10.74804019927979 75.80186462402344 7.431066513061523 70.88229370117188 5.114293098449707 65.40481567382812 C 2.716026782989502 59.73468017578125 1.5 53.71062850952148 1.5 47.5 C 1.5 41.28937149047852 2.716026782989502 35.26533508300781 5.114293098449707 29.59518623352051 C 7.431066513061523 24.11771965026855 10.74804019927979 19.19813346862793 14.97309303283691 14.97309303283691 C 19.19813346862793 10.74804019927979 24.11771965026855 7.431066513061523 29.59518623352051 5.114293098449707 C 35.26533508300781 2.716026782989502 41.28937149047852 1.5 47.5 1.5 C 53.71062850952148 1.5 59.73468017578125 2.716026782989502 65.40481567382812 5.114293098449707 C 70.88229370117188 7.431066513061523 75.80186462402344 10.74804019927979 80.02691650390625 14.97309303283691 C 84.25196075439453 19.19813346862793 87.56893157958984 24.11771965026855 89.88570404052734 29.59518623352051 C 92.28397369384766 35.26533508300781 93.5 41.28937149047852 93.5 47.5 C 93.5 53.71062850952148 92.28397369384766 59.73468017578125 89.88570404052734 65.40481567382812 C 87.56893157958984 70.88229370117188 84.25196075439453 75.80186462402344 80.02691650390625 80.02691650390625 C 75.80186462402344 84.25196075439453 70.88229370117188 87.56893157958984 65.40481567382812 89.88570404052734 C 59.73468017578125 92.28397369384766 53.71062850952148 93.5 47.5 93.5 Z" stroke="none"/>
                                    <path d="M 47.5 3 C 41.49121475219727 3 35.66376876831055 4.176155090332031 30.17950439453125 6.495796203613281 C 24.88084411621094 8.736953735351562 20.12152099609375 11.94598388671875 16.03375244140625 16.03375244140625 C 11.94598388671875 20.12152099609375 8.736953735351562 24.88084411621094 6.495796203613281 30.17950439453125 C 4.176155090332031 35.66376876831055 3 41.49121475219727 3 47.5 C 3 53.50878524780273 4.176155090332031 59.33623123168945 6.495796203613281 64.82049560546875 C 8.736953735351562 70.11915588378906 11.94598388671875 74.87847900390625 16.03375244140625 78.96624755859375 C 20.12152099609375 83.05401611328125 24.88084411621094 86.26304626464844 30.17950439453125 88.50419616699219 C 35.66376876831055 90.82384490966797 41.49121475219727 92 47.5 92 C 53.50878524780273 92 59.33623123168945 90.82384490966797 64.82049560546875 88.50419616699219 C 70.11915588378906 86.26304626464844 74.87847900390625 83.05401611328125 78.96624755859375 78.96624755859375 C 83.05401611328125 74.87847900390625 86.26304626464844 70.11915588378906 88.50419616699219 64.82049560546875 C 90.82384490966797 59.33623123168945 92 53.50878524780273 92 47.5 C 92 41.49121475219727 90.82384490966797 35.66376876831055 88.50419616699219 30.17950439453125 C 86.26304626464844 24.88084411621094 83.05401611328125 20.12152099609375 78.96624755859375 16.03375244140625 C 74.87847900390625 11.94598388671875 70.11915588378906 8.736953735351562 64.82049560546875 6.495796203613281 C 59.33623123168945 4.176155090332031 53.50878524780273 3 47.5 3 M 47.5 0 C 73.7335205078125 0 95 21.2664794921875 95 47.5 C 95 73.7335205078125 73.7335205078125 95 47.5 95 C 21.2664794921875 95 0 73.7335205078125 0 47.5 C 0 21.2664794921875 21.2664794921875 0 47.5 0 Z" stroke="none" fill="#83793c"/>
                                  </g>
                                </g>
                              </g>
                            </g>
                          </g>
                        </g>
                      </g>
                    </g>
                  </g>
                </g>
              </g>
            </g>
          </g>
        </g>
      </g>
    </g>
    <g id="pediatrician_5745350" transform="translate(17.245 15.215)">
      <path id="Trazado_1057480" data-name="Trazado 1057480" d="M180.234,251.438a3.932,3.932,0,0,1-1.826-3.321v-2.163H167.69v2.163a3.932,3.932,0,0,1-1.826,3.321L173,264.763Z" transform="translate(-146.039 -216.514)" fill="#ffa78f"/>
      <path id="Trazado_1057481" data-name="Trazado 1057481" d="M90.684,311.619l-.974-9.863a9.542,9.542,0,0,0-7.162-8.314l-4.708-1.188a3.924,3.924,0,0,1-1.152-.493L69.5,301.82l-7.185-10.059a3.926,3.926,0,0,1-1.152.493l-4.792,1.2a9.542,9.542,0,0,0-7.181,8.319l-.955,9.669a.163.163,0,0,0,.162.179h8.037v4.9h26.13v-4.9Z" transform="translate(-42.493 -256.836)" fill="#01c0fa"/>
      <path id="Trazado_1057482" data-name="Trazado 1057482" d="M118.571,133.429h-2.776a2.268,2.268,0,0,0-2.268,2.268,4.456,4.456,0,0,0,4.456,4.456h.086Z" transform="translate(-99.967 -117.457)" fill="#ffb09e"/>
      <path id="Trazado_1057483" data-name="Trazado 1057483" d="M296.113,133.429h2.776a2.268,2.268,0,0,1,2.268,2.268,4.456,4.456,0,0,1-4.456,4.456h-.086Z" transform="translate(-260.697 -117.457)" fill="#ffa78f"/>
      <path id="Trazado_1057484" data-name="Trazado 1057484" d="M299.367,292.354H297.7a2.043,2.043,0,0,0-2.043,2.043,4.015,4.015,0,0,0,4.015,4.015h.077Z" transform="translate(-260.299 -257.358)" fill="#ffe5c2"/>
      <path id="Trazado_1057485" data-name="Trazado 1057485" d="M447.535,292.354h-1.662l-.387,6.059h.077a4.015,4.015,0,0,0,4.015-4.015A2.044,2.044,0,0,0,447.535,292.354Z" transform="translate(-392.19 -257.358)" fill="#fed2a4"/>
      <path id="Trazado_1057486" data-name="Trazado 1057486" d="M151.934,49.638a9.48,9.48,0,0,1-9.461-8.876l-.575-9.009a10.056,10.056,0,1,1,20.071,0l-.575,9.009A9.48,9.48,0,0,1,151.934,49.638Z" transform="translate(-124.925 -18.536)" fill="#ffcebf"/>
      <path id="Trazado_1057487" data-name="Trazado 1057487" d="M165.942,21.056a10.035,10.035,0,0,0-8.152,4.167h3.925a1.742,1.742,0,0,1,1.558.963l.14.28a3.721,3.721,0,0,0,3.3,2.024,1.482,1.482,0,0,1,1.352.932l1.952,4.879a9.467,9.467,0,0,1-8.807,12.971,9.526,9.526,0,0,1-1.7-.153,9.48,9.48,0,0,0,15.9-6.357l.575-9.009a10.056,10.056,0,0,0-10.035-10.7Z" transform="translate(-138.932 -18.536)" fill="#ffb09e"/>
      <path id="Trazado_1057488" data-name="Trazado 1057488" d="M140.972,475.958H116.434v2.366h26.13v-2.755A3.429,3.429,0,0,1,140.972,475.958Z" transform="translate(-102.526 -418.642)" fill="#08a9f1"/>
      <path id="Trazado_1057489" data-name="Trazado 1057489" d="M27.213,414.513H10.979a.13.13,0,0,1-.125-.094L7.662,403.246a.13.13,0,0,1,.125-.165h16.16Z" transform="translate(-6.77 -354.831)" fill="#fd6930"/>
      <path id="Trazado_1057490" data-name="Trazado 1057490" d="M42.687,403.081H38.631l1.379,4.828a3.325,3.325,0,0,1-3.2,4.238H28.945l.649,2.272a.13.13,0,0,0,.125.094H45.953Z" transform="translate(-25.51 -354.831)" fill="#fd5426"/>
      <path id="Trazado_1057491" data-name="Trazado 1057491" d="M47.282,389.437H40.921a.13.13,0,0,0-.125.165l.859,3.007a.13.13,0,0,0,.125.094h6.435Z" transform="translate(-35.938 -342.82)" fill="#b4d2e2"/>
      <path id="Trazado_1057492" data-name="Trazado 1057492" d="M345.158,368.932c2.508,0,4.686-2.5,5.781-4.576l-.334-.1a2.031,2.031,0,0,1-1.473-1.952v-2.348a7.032,7.032,0,0,1-7.948,0v2.348a2.031,2.031,0,0,1-1.473,1.952l-.335.1C340.472,366.429,342.65,368.932,345.158,368.932Z" transform="translate(-298.782 -316.871)" fill="#fed2a4"/>
      <path id="Trazado_1057493" data-name="Trazado 1057493" d="M297.943,397.23l-1.907-.545a6.535,6.535,0,0,1-11.562,0l-1.906.545a7.665,7.665,0,0,0-5.559,7.37v4.283h26.406a.088.088,0,0,0,.088-.088V404.6A7.664,7.664,0,0,0,297.943,397.23Z" transform="translate(-243.879 -349.201)" fill="#fed402"/>
      <path id="Trazado_1057494" data-name="Trazado 1057494" d="M297.945,397.23l-1.907-.545q-.145.276-.316.535a7.657,7.657,0,0,1,1.867,5.013v1.56a2.723,2.723,0,0,1-2.723,2.723H277.01v2.366h26.405a.088.088,0,0,0,.088-.088V404.6a7.665,7.665,0,0,0-5.559-7.37Z" transform="translate(-243.881 -349.201)" fill="#fac600"/>
      <path id="Trazado_1057495" data-name="Trazado 1057495" d="M333.715,210.237l.2-2.751a8.457,8.457,0,1,0-16.872,0l.207,2.906Z" transform="translate(-279.1 -174.673)" fill="#855151"/>
      <path id="Trazado_1057496" data-name="Trazado 1057496" d="M332.852,241.411l-2.232-4.463-.045.061a18.21,18.21,0,0,1-8.809,6.35l-2.832.944.12,1.679a8.129,8.129,0,0,0,16.217,0l.131-1.833A6.623,6.623,0,0,1,332.852,241.411Z" transform="translate(-280.786 -208.585)" fill="#fff3de"/>
      <path id="Trazado_1057497" data-name="Trazado 1057497" d="M350.69,241.411l-2.232-4.463-.045.061a18.2,18.2,0,0,1-2.223,2.461,6.619,6.619,0,0,0,1.142,1.426,3.405,3.405,0,0,1,1.045,2.72,8.134,8.134,0,0,1-9.179,7.479,8.129,8.129,0,0,0,13.911-5.113l.131-1.833A6.622,6.622,0,0,1,350.69,241.411Z" transform="translate(-298.624 -208.585)" fill="#ffe5c2"/>
      <g id="Grupo_1225727" data-name="Grupo 1225727" transform="translate(18.844 15.586)">
        <path id="Trazado_1057498" data-name="Trazado 1057498" d="M163.55,135.106h-5.232a.651.651,0,0,1-.651-.651v-3.6a.651.651,0,0,1,.651-.651h5.232a.651.651,0,0,1,.651.651v3.6A.651.651,0,0,1,163.55,135.106Z" transform="translate(-157.668 -130.206)" fill="#c8effe"/>
        <path id="Trazado_1057499" data-name="Trazado 1057499" d="M240.182,135.106h5.232a.651.651,0,0,0,.651-.651v-3.6a.651.651,0,0,0-.651-.651h-5.232a.651.651,0,0,0-.651.651v3.6A.651.651,0,0,0,240.182,135.106Z" transform="translate(-229.732 -130.206)" fill="#c8effe"/>
        <path id="Trazado_1057500" data-name="Trazado 1057500" d="M163.55,135.106h-5.232a.651.651,0,0,1-.651-.651v-3.6a.651.651,0,0,1,.651-.651h5.232a.651.651,0,0,1,.651.651v3.6A.651.651,0,0,1,163.55,135.106Z" transform="translate(-157.668 -130.206)" fill="#c8effe"/>
      </g>
      <path id="Trazado_1057501" data-name="Trazado 1057501" d="M262.84,130.206h-3.512l.071.179a9.409,9.409,0,0,1,.654,4.094q-.02.316-.061.627h2.848a.651.651,0,0,0,.651-.651v-3.6A.651.651,0,0,0,262.84,130.206Z" transform="translate(-228.315 -114.62)" fill="#99e6fc"/>
      <path id="Trazado_1057502" data-name="Trazado 1057502" d="M151.377,7.413h-5.4a2.866,2.866,0,0,0-2.867,2.867v.011a.63.63,0,0,1-.348.563l-1.66.83a3.2,3.2,0,0,0-1.762,3.066l.744,11.662,3.026-7.566V17.757a2.178,2.178,0,0,1,2.178-2.178H150.2a1.742,1.742,0,0,1,1.558.963l.14.28a3.721,3.721,0,0,0,3.3,2.024,1.483,1.483,0,0,1,1.352.932l2.741,6.853.644-10.094a8.577,8.577,0,0,0-8.559-9.123Z" transform="translate(-122.686 -6.526)" fill="#0681af"/>
      <path id="Trazado_1057503" data-name="Trazado 1057503" d="M47.282,389.437H40.921a.13.13,0,0,0-.125.165l.859,3.007a.13.13,0,0,0,.125.094h6.435Z" transform="translate(-35.938 -342.82)" fill="#b4d2e2"/>
      <path id="Trazado_1057504" data-name="Trazado 1057504" d="M193.883,209.521a5.749,5.749,0,0,0,4.092-1.695.887.887,0,1,0-1.255-1.255,4.012,4.012,0,0,1-5.674,0,.887.887,0,1,0-1.255,1.255,5.75,5.75,0,0,0,4.092,1.695Z" transform="translate(-166.873 -181.615)"/>
      <path id="Trazado_1057505" data-name="Trazado 1057505" d="M54.556,47.176l-2.241-.64a1.148,1.148,0,0,1-.829-1.1V44.4a9.131,9.131,0,0,0,2.559-2.476,4.909,4.909,0,0,0,4.48-4.884,2.935,2.935,0,0,0-2.668-2.919l.089-1.245a9.345,9.345,0,0,0-15.858-7.343A.887.887,0,1,0,41.329,26.8a7.57,7.57,0,0,1,12.846,5.949L54.1,33.835a5.732,5.732,0,0,1-.99-1.4l-2.232-4.463a.887.887,0,0,0-1.5-.136l-.046.061a17.244,17.244,0,0,1-8.38,6.04l-1.748.582-.126-1.766a7.542,7.542,0,0,1,.3-2.726.887.887,0,0,0-1.7-.513,9.312,9.312,0,0,0-.372,3.366l.089,1.245a2.913,2.913,0,0,0-1.376.489l-.207-.052A3.037,3.037,0,0,1,33.5,31.6V29.887a10.377,10.377,0,0,0,3.96-6.441A5.317,5.317,0,0,0,41.6,18.239a3.158,3.158,0,0,0-3.155-3.155h-.377l.32-5.018A9.464,9.464,0,0,0,28.939,0h-5.4a3.76,3.76,0,0,0-3.751,3.6l-1.521.761A4.079,4.079,0,0,0,16.019,8.28l.114,1.787A.887.887,0,0,0,17.9,9.954L17.79,8.167a2.308,2.308,0,0,1,1.274-2.216l1.66-.83a1.513,1.513,0,0,0,.839-1.367,1.982,1.982,0,0,1,1.979-1.979h5.4a7.69,7.69,0,0,1,7.674,8.179l-.372,5.823a1.542,1.542,0,0,0-.433-.677l-.871-2.177a2.364,2.364,0,0,0-2.161-1.489A2.836,2.836,0,0,1,30.255,9.9l-.14-.28a2.615,2.615,0,0,0-2.352-1.453H22.853a3.069,3.069,0,0,0-3.065,3.065v.918L18.53,15.292a1.537,1.537,0,0,0-.255.485l-.1-1.641a.887.887,0,0,0-1.771.113l.053.836h-.377a3.158,3.158,0,0,0-3.155,3.155,5.317,5.317,0,0,0,4.131,5.206,10.376,10.376,0,0,0,3.96,6.441V31.6a3.037,3.037,0,0,1-2.306,2.953l-4.791,1.2a10.452,10.452,0,0,0-7.849,9.093l-.087.882H5.231a1.017,1.017,0,0,0-.978,1.3l.1.337H1.265a1.017,1.017,0,0,0-.978,1.3L3.479,59.831a1.021,1.021,0,0,0,.978.738H59.783a.977.977,0,0,0,.976-.976V55.4a8.588,8.588,0,0,0-6.2-8.222Zm-3.476.732a5.649,5.649,0,0,1-8.912,0,2.932,2.932,0,0,0,1.369-2.472v-.152a8.95,8.95,0,0,0,6.174,0v.152a2.933,2.933,0,0,0,1.369,2.471Zm5.67-10.869a3.13,3.13,0,0,1-1.61,2.734,8.932,8.932,0,0,0,.477-2.313l.112-1.569a1.158,1.158,0,0,1,1.02,1.148ZM41.508,35.615A19,19,0,0,0,49.908,30l1.613,3.225a7.5,7.5,0,0,0,2.421,2.8l-.094,1.309a7.242,7.242,0,0,1-14.447,0l-.071-.992Zm-6.788.447q.074.031.15.058a2.918,2.918,0,0,0-.147.918,4.89,4.89,0,0,0,.183,1.329l-6.1,8.538H26.975l7.745-10.843Zm1.777.976a1.158,1.158,0,0,1,1.021-1.148l.112,1.569a8.932,8.932,0,0,0,.478,2.314A3.13,3.13,0,0,1,36.5,37.039ZM29.779,16.473h4.758V19.6H29.779Zm8.662.386a1.382,1.382,0,0,1,1.38,1.38,3.552,3.552,0,0,1-2.168,3.287l.3-4.667h.49ZM21.5,12.649a.888.888,0,0,0,.063-.33V11.231A1.292,1.292,0,0,1,22.853,9.94h4.911a.85.85,0,0,1,.764.473l.14.28a4.6,4.6,0,0,0,4.078,2.514.594.594,0,0,1,.543.374l.447,1.118H29.542A1.54,1.54,0,0,0,28,16.237v.1H26.512v-.1A1.54,1.54,0,0,0,24.974,14.7h-4.3ZM19.98,16.473h4.758V19.6H19.98ZM14.7,18.239a1.382,1.382,0,0,1,1.38-1.38h.49l.3,4.667A3.552,3.552,0,0,1,14.7,18.239Zm3.987,3.929L18.6,20.863a1.534,1.534,0,0,0,1.143.51h5.231a1.54,1.54,0,0,0,1.538-1.538V18.107H28v.3a.887.887,0,0,0-.793.882v1.908a.568.568,0,0,1-.568.568h-.226a.887.887,0,1,0,0,1.774h.226a2.345,2.345,0,0,0,2.341-2.266,1.531,1.531,0,0,0,.557.1h5.232a1.534,1.534,0,0,0,1.143-.51l-.083,1.306a8.593,8.593,0,0,1-17.15,0ZM7.831,45.022a8.673,8.673,0,0,1,6.514-7.546l4.792-1.2a4.828,4.828,0,0,0,.659-.216l1.56,2.184A.887.887,0,1,0,22.8,37.215L21.288,35.1a4.792,4.792,0,0,0,1.5-3.494v-.633a10.331,10.331,0,0,0,8.943,0V31.6a4.793,4.793,0,0,0,1.5,3.495l-5.97,8.358L25.2,40.583a.887.887,0,1,0-1.444,1.031l2.407,3.37-.917,1.283-5.737-8.032a.887.887,0,0,0-1.444,1.031c6.93,9.7,6.472,9.062,6.507,9.1a.887.887,0,0,0,.641.31h4.045a.887.887,0,0,0,.722-.372l5.84-8.176a4.9,4.9,0,0,0,3.378,1.79A9.13,9.13,0,0,0,41.763,44.4v1.037a1.148,1.148,0,0,1-.829,1.1l-2.241.64a8.6,8.6,0,0,0-6.068,6.72H30.474a.887.887,0,0,0-.887.887v1.633a.887.887,0,0,0,1.774,0V55.67H32.49v3.125H21.361L18.278,48.006a.887.887,0,0,0-.853-.644h-4.7l-.283-.99a.887.887,0,0,0-.853-.644H7.762ZM11.349,49H6.662L6.236,47.5h4.687Zm-6.32,9.8L2.269,49.137H4.857l.256.9a1.022,1.022,0,0,0,.978.737h6.435a.887.887,0,0,0,.853-1.131l-.144-.5h3.521l2.759,9.658Zm53.955,0H55.678V56.416a.887.887,0,0,0-1.774,0v2.379H39.346V56.416a.887.887,0,0,0-1.774,0v2.379H34.265V55.4a6.806,6.806,0,0,1,4.916-6.517l1.248-.357a7.423,7.423,0,0,0,12.39,0l1.249.357h0A6.806,6.806,0,0,1,58.984,55.4Z" transform="translate(-0.248)"/>
      <path id="Trazado_1057506" data-name="Trazado 1057506" d="M374.828,292.125h.2a2.2,2.2,0,0,0,2.2-2.2V288.21a.887.887,0,0,0-1.775,0v1.718a.423.423,0,0,1-.423.423h-.2a.887.887,0,0,0,0,1.775Z" transform="translate(-329.209 -252.93)"/>
      <path id="Trazado_1057507" data-name="Trazado 1057507" d="M362.624,331.723a.887.887,0,0,0-1.255-1.255,3.378,3.378,0,0,1-4.772,0,.887.887,0,0,0-1.255,1.255A5.155,5.155,0,0,0,362.624,331.723Z" transform="translate(-312.607 -290.682)"/>
    </g>
  </g>
</svg>
