<svg xmlns="http://www.w3.org/2000/svg" xmlns:xlink="http://www.w3.org/1999/xlink" width="113" height="113" viewBox="0 0 113 113">
  <defs>
    <filter id="Trazado_982547" x="0" y="0" width="113" height="113" filterUnits="userSpaceOnUse">
      <feOffset dy="3" input="SourceAlpha"/>
      <feGaussianBlur stdDeviation="3" result="blur"/>
      <feFlood flood-opacity="0.161"/>
      <feComposite operator="in" in2="blur"/>
      <feComposite in="SourceGraphic"/>
    </filter>
  </defs>
  <g id="Grupo_1225804" data-name="Grupo 1225804" transform="translate(-1216.232 -6723.125)">
    <g id="Grupo_1225328" data-name="Grupo 1225328" transform="translate(0 2032.366)">
      <g id="Grupo_1225179" data-name="Grupo 1225179" transform="translate(0 -50.236)">
        <g id="Grupo_1224650" data-name="Grupo 1224650" transform="translate(0 1927)">
          <g id="Grupo_1224294" data-name="Grupo 1224294" transform="translate(0.723 859.245)">
            <g id="Grupo_1224094" data-name="Grupo 1224094" transform="translate(541.51 -2620.317)">
              <g id="Grupo_1223184" data-name="Grupo 1223184" transform="translate(683 4581.069)">
                <g id="Grupo_1211216" data-name="Grupo 1211216" transform="translate(0)">
                  <g id="Grupo_1210737" data-name="Grupo 1210737">
                    <g id="Grupo_1210537" data-name="Grupo 1210537">
                      <g id="Grupo_1164202" data-name="Grupo 1164202">
                        <g id="Grupo_1158168" data-name="Grupo 1158168">
                          <g id="Grupo_1152576" data-name="Grupo 1152576">
                            <g id="Grupo_1148633" data-name="Grupo 1148633">
                              <g id="Grupo_1148525" data-name="Grupo 1148525">
                                <g transform="matrix(1, 0, 0, 1, -9, -6)" filter="url(#Trazado_982547)">
                                  <g id="Trazado_982547-2" data-name="Trazado 982547" transform="translate(9 6)" fill="#fdfbec">
                                    <path d="M 47.49999618530273 93.5 C 41.28936767578125 93.5 35.26533126831055 92.28396606445312 29.59518241882324 89.88570404052734 C 24.11771583557129 87.56893157958984 19.19812965393066 84.251953125 14.97308921813965 80.02690124511719 C 10.74803638458252 75.80186462402344 7.431062698364258 70.88227844238281 5.114289283752441 65.40480804443359 C 2.716022968292236 59.73466110229492 1.499996185302734 53.71062469482422 1.499996185302734 47.49999618530273 C 1.499996185302734 41.28936767578125 2.716022968292236 35.26533126831055 5.114289283752441 29.59518241882324 C 7.431062698364258 24.11771583557129 10.74803638458252 19.19812965393066 14.97308921813965 14.97308921813965 C 19.19812965393066 10.74803638458252 24.11771583557129 7.431062698364258 29.59518241882324 5.114289283752441 C 35.26533126831055 2.716022968292236 41.28936767578125 1.499996185302734 47.49999618530273 1.499996185302734 C 53.71062469482422 1.499996185302734 59.73466110229492 2.716022968292236 65.40480804443359 5.114289283752441 C 70.88227844238281 7.431062698364258 75.80186462402344 10.74803638458252 80.02690124511719 14.97308921813965 C 84.251953125 19.19812965393066 87.56893157958984 24.11771583557129 89.88570404052734 29.59518241882324 C 92.28396606445312 35.26533126831055 93.5 41.28936767578125 93.5 47.49999618530273 C 93.5 53.71062469482422 92.28396606445312 59.73466110229492 89.88570404052734 65.40480804443359 C 87.56893157958984 70.88227844238281 84.251953125 75.80186462402344 80.02690124511719 80.02690124511719 C 75.80186462402344 84.251953125 70.88227844238281 87.56893157958984 65.40480804443359 89.88570404052734 C 59.73466110229492 92.28396606445312 53.71062469482422 93.5 47.49999618530273 93.5 Z" stroke="none"/>
                                    <path d="M 47.49999618530273 2.999992370605469 C 41.4912109375 2.999992370605469 35.66376495361328 4.1761474609375 30.17950439453125 6.495796203613281 C 24.88084411621094 8.736953735351562 20.12152099609375 11.94598388671875 16.03375244140625 16.03375244140625 C 11.94598388671875 20.12152099609375 8.736953735351562 24.88084411621094 6.495796203613281 30.17950439453125 C 4.1761474609375 35.66376495361328 2.999992370605469 41.4912109375 2.999992370605469 47.49999618530273 C 2.999992370605469 53.50878143310547 4.1761474609375 59.33622741699219 6.495796203613281 64.82048797607422 C 8.736953735351562 70.11914825439453 11.94598388671875 74.87847137451172 16.03375244140625 78.96623992919922 C 20.12152099609375 83.05400848388672 24.88084411621094 86.26304626464844 30.17950439453125 88.50419616699219 C 35.66376495361328 90.82384490966797 41.4912109375 92 47.49999618530273 92 C 53.50878143310547 92 59.33622741699219 90.82384490966797 64.82048797607422 88.50419616699219 C 70.11914825439453 86.26304626464844 74.87847137451172 83.05400848388672 78.96623992919922 78.96623992919922 C 83.05400848388672 74.87847137451172 86.26304626464844 70.11914825439453 88.50419616699219 64.82048797607422 C 90.82384490966797 59.33622741699219 92 53.50878143310547 92 47.49999618530273 C 92 41.4912109375 90.82384490966797 35.66376495361328 88.50419616699219 30.17950439453125 C 86.26304626464844 24.88084411621094 83.05400848388672 20.12152099609375 78.96623992919922 16.03375244140625 C 74.87847137451172 11.94598388671875 70.11914825439453 8.736953735351562 64.82048797607422 6.495796203613281 C 59.33622741699219 4.1761474609375 53.50878143310547 2.999992370605469 47.49999618530273 2.999992370605469 M 47.49999618530273 -7.62939453125e-06 C 73.7335205078125 -7.62939453125e-06 95 21.26647186279297 95 47.49999618530273 C 95 73.7335205078125 73.7335205078125 95 47.49999618530273 95 C 21.26647186279297 95 -7.62939453125e-06 73.7335205078125 -7.62939453125e-06 47.49999618530273 C -7.62939453125e-06 21.26647186279297 21.26647186279297 -7.62939453125e-06 47.49999618530273 -7.62939453125e-06 Z" stroke="none" fill="#83793c"/>
                                  </g>
                                </g>
                              </g>
                            </g>
                          </g>
                        </g>
                      </g>
                    </g>
                  </g>
                </g>
              </g>
            </g>
          </g>
        </g>
      </g>
    </g>
    <g id="school_5284807" transform="translate(1242.625 6747.625)">
      <g id="Grupo_1225803" data-name="Grupo 1225803" transform="translate(0.98 0.98)">
        <g id="Grupo_1225778" data-name="Grupo 1225778" transform="translate(41.153 15.677)">
          <path id="Trazado_1057560" data-name="Trazado 1057560" d="M52.8,24.839h-.519a3.953,3.953,0,0,0-3.42,2,9.894,9.894,0,0,0-5.859-2V18.107l1.088.647a1.9,1.9,0,0,0,.872.206,1.942,1.942,0,0,0,1.754-1.088A1.965,1.965,0,0,0,46.919,17h8.819v9.171a1.507,1.507,0,0,0-.167-.186A3.944,3.944,0,0,0,52.8,24.839Z" transform="translate(-43 -17)" fill="#ccd1d9"/>
        </g>
        <g id="Grupo_1225779" data-name="Grupo 1225779" transform="translate(4.899 15.677)">
          <path id="Trazado_1057561" data-name="Trazado 1057561" d="M18.738,18.107V26.25A10.037,10.037,0,0,0,13.6,24.839H11.879A8.814,8.814,0,0,0,6,27.083V17h8.819a2.037,2.037,0,0,0,.206.882,1.951,1.951,0,0,0,1.754,1.078,1.9,1.9,0,0,0,.872-.206Z" transform="translate(-6 -17)" fill="#ccd1d9"/>
        </g>
        <g id="Grupo_1225780" data-name="Grupo 1225780" transform="translate(17.637 15.677)">
          <path id="Trazado_1057562" data-name="Trazado 1057562" d="M20.862,17H40.654l1.862,1.107v6.732h-2.94a5.89,5.89,0,0,0-4.9,2.626V20.919H26.839v9.8H23a10.068,10.068,0,0,0-2.038-2.94A10.637,10.637,0,0,0,19,26.25V18.107Z" transform="translate(-19 -17)" fill="#e6e9ed"/>
        </g>
        <g id="Grupo_1225781" data-name="Grupo 1225781" transform="translate(43.113)">
          <path id="Trazado_1057563" data-name="Trazado 1057563" d="M45,1h7.839V4.919H45Z" transform="translate(-45 -1)" fill="#fcd770"/>
        </g>
        <g id="Grupo_1225782" data-name="Grupo 1225782">
          <path id="Trazado_1057564" data-name="Trazado 1057564" d="M1,1H8.839V4.919H1Z" transform="translate(-1 -1)" fill="#fcd770"/>
        </g>
        <g id="Grupo_1225783" data-name="Grupo 1225783" transform="translate(33.687 7.839)">
          <path id="Trazado_1057565" data-name="Trazado 1057565" d="M54.6,9l2.94,7.839H46.766a1.968,1.968,0,0,0-1.088-1.754L35.38,9H54.6Z" transform="translate(-35.38 -9)" fill="#d3a06c"/>
        </g>
        <g id="Grupo_1225784" data-name="Grupo 1225784" transform="translate(2.94 7.839)">
          <path id="Trazado_1057566" data-name="Trazado 1057566" d="M26.164,9l-10.3,6.085a1.957,1.957,0,0,0-1.088,1.754H4L6.94,9H26.164Z" transform="translate(-4 -9)" fill="#d3a06c"/>
        </g>
        <g id="Grupo_1225785" data-name="Grupo 1225785" transform="translate(13.718 5.879)">
          <path id="Trazado_1057567" data-name="Trazado 1057567" d="M15,16.8a1.957,1.957,0,0,1,1.088-1.754l10.3-6.085L28.855,7.5a3.573,3.573,0,0,1,3.645,0l2.469,1.46,10.3,6.085a1.956,1.956,0,0,1,.882,2.626A1.942,1.942,0,0,1,44.4,18.758a1.9,1.9,0,0,1-.872-.206l-1.088-.647L40.574,16.8l-9.9-5.879-9.9,5.879-1.862,1.107-1.088.647a1.9,1.9,0,0,1-.872.206,1.951,1.951,0,0,1-1.754-1.078A2.037,2.037,0,0,1,15,16.8Z" transform="translate(-15 -7)" fill="#cf9e76"/>
        </g>
        <g id="Grupo_1225786" data-name="Grupo 1225786" transform="translate(19.499 9.798)">
          <path id="Trazado_1057568" data-name="Trazado 1057568" d="M40.693,16.879H20.9L30.8,11Z" transform="translate(-20.9 -11)" fill="#dfb28b"/>
        </g>
        <g id="Grupo_1225787" data-name="Grupo 1225787" transform="translate(25.476 19.597)">
          <path id="Trazado_1057569" data-name="Trazado 1057569" d="M34.839,21v6.545a5.865,5.865,0,0,0-.98,3.253H27V21Z" transform="translate(-27 -21)" fill="#aab2bd"/>
        </g>
        <g id="Grupo_1225788" data-name="Grupo 1225788" transform="translate(32.335 23.516)">
          <path id="Trazado_1057570" data-name="Trazado 1057570" d="M38.9,32.839H35.96A1.974,1.974,0,0,1,34,30.879,5.874,5.874,0,0,1,39.879,25h2.94a9.894,9.894,0,0,1,5.859,2v.01a8.918,8.918,0,0,1,1.039.892,9.937,9.937,0,0,1-2.1,15.638L45.758,44.6V39.7a1.96,1.96,0,0,0,0-3.919V34.8a1.965,1.965,0,0,0-1.96-1.96H38.9Z" transform="translate(-34 -25)" fill="#b27946"/>
        </g>
        <g id="Grupo_1225789" data-name="Grupo 1225789" transform="translate(47.013 23.516)">
          <path id="Trazado_1057571" data-name="Trazado 1057571" d="M60.758,41.442a2.242,2.242,0,0,1-1,1.862L57.818,44.6a7.794,7.794,0,0,1-4.9-7.241v-2.44a9.9,9.9,0,0,0-2.9-7.016,8.918,8.918,0,0,0-1.039-.892V27a3.953,3.953,0,0,1,3.42-2h.519a3.944,3.944,0,0,1,2.773,1.146,1.506,1.506,0,0,1,.167.186,3.919,3.919,0,0,1,.98,2.587,3.541,3.541,0,0,1,1.96,3.175v.255a3.545,3.545,0,0,1-1.039,2.508l-.2.2A2.464,2.464,0,0,0,58.7,39.188l.363.088a2.223,2.223,0,0,1,1.7,2.165Z" transform="translate(-48.98 -25)" fill="#b27946"/>
        </g>
        <g id="Grupo_1225790" data-name="Grupo 1225790" transform="translate(1.96 23.516)">
          <path id="Trazado_1057572" data-name="Trazado 1057572" d="M8.663,32.653A3.9,3.9,0,0,0,7,35.151L3,33.819A8.815,8.815,0,0,1,11.819,25h1.725a10.037,10.037,0,0,1,5.134,1.411,10.637,10.637,0,0,1,1.96,1.529,10.038,10.038,0,0,1-3.145,16.324l-.774.333V38.718a1.96,1.96,0,0,0,0-3.919l-.666-2.675a1.642,1.642,0,0,0-2.753-.764l-.441.441a3.545,3.545,0,0,1-2.508,1.039,3.337,3.337,0,0,1-1.48-.333v.01Z" transform="translate(-3 -25)" fill="#656d78"/>
        </g>
        <g id="Grupo_1225791" data-name="Grupo 1225791" transform="translate(41.153 46.053)">
          <path id="Trazado_1057573" data-name="Trazado 1057573" d="M48.879,52.9v.98H43V50.94a2.94,2.94,0,0,1,5.879,0Z" transform="translate(-43 -48)" fill="#f29ed0"/>
        </g>
        <g id="Grupo_1225792" data-name="Grupo 1225792" transform="translate(35.274 46.053)">
          <path id="Trazado_1057574" data-name="Trazado 1057574" d="M40.919,48.451A5.783,5.783,0,0,1,43.173,48h2.646a2.936,2.936,0,0,0-2.94,2.94v4.9H37l.333-2.685A5.884,5.884,0,0,1,40.919,48.451Z" transform="translate(-37 -48)" fill="#f29ed0"/>
        </g>
        <g id="Grupo_1225793" data-name="Grupo 1225793" transform="translate(6.859 46.053)">
          <path id="Trazado_1057575" data-name="Trazado 1057575" d="M13.879,53.879v1.96H8l.333-2.685a5.884,5.884,0,0,1,3.586-4.7A5.783,5.783,0,0,1,14.173,48h2.646a2.936,2.936,0,0,0-2.94,2.94Z" transform="translate(-8 -48)" fill="#b4dd7f"/>
        </g>
        <g id="Grupo_1225794" data-name="Grupo 1225794" transform="translate(12.738 46.053)">
          <path id="Trazado_1057576" data-name="Trazado 1057576" d="M19.879,52.9v.98H14V50.94a2.94,2.94,0,0,1,5.879,0Z" transform="translate(-14 -48)" fill="#b4dd7f"/>
        </g>
        <g id="Grupo_1225795" data-name="Grupo 1225795" transform="translate(46.053 50.952)">
          <path id="Trazado_1057577" data-name="Trazado 1057577" d="M56.819,53v1.96A3.918,3.918,0,0,1,52.9,58.879H48a4.842,4.842,0,0,0,.98-2.94V53Z" transform="translate(-48 -53)" fill="#ccd1d9"/>
        </g>
        <g id="Grupo_1225796" data-name="Grupo 1225796" transform="translate(17.637 50.952)">
          <path id="Trazado_1057578" data-name="Trazado 1057578" d="M27.819,53v1.96A3.918,3.918,0,0,1,23.9,58.879H19a4.842,4.842,0,0,0,.98-2.94V53Z" transform="translate(-19 -53)" fill="#ccd1d9"/>
        </g>
        <g id="Grupo_1225797" data-name="Grupo 1225797" transform="translate(47.032 45.073)">
          <path id="Trazado_1057579" data-name="Trazado 1057579" d="M56.839,50.919v1.96H49v-1.96a3.919,3.919,0,1,1,7.839,0Z" transform="translate(-49 -47)" fill="#aab2bd"/>
        </g>
        <g id="Grupo_1225798" data-name="Grupo 1225798" transform="translate(18.617 45.073)">
          <path id="Trazado_1057580" data-name="Trazado 1057580" d="M27.839,50.919v1.96H20v-1.96a3.919,3.919,0,1,1,7.839,0Z" transform="translate(-20 -47)" fill="#aab2bd"/>
        </g>
        <g id="Grupo_1225799" data-name="Grupo 1225799" transform="translate(30.375 51.932)">
          <path id="Trazado_1057581" data-name="Trazado 1057581" d="M42.778,55.96V54h5.879v1.96a4.842,4.842,0,0,1-.98,2.94,4.909,4.909,0,0,1-3.919,1.96H34.773A2.777,2.777,0,0,1,32,58.086v-.333a2.771,2.771,0,0,1,4.733-1.96l.167.167Z" transform="translate(-32 -54)" fill="#f0d0b4"/>
        </g>
        <g id="Grupo_1225800" data-name="Grupo 1225800" transform="translate(34.294 31.355)">
          <path id="Trazado_1057582" data-name="Trazado 1057582" d="M39.341,43.778A3.345,3.345,0,0,1,36,40.437v-4.5A2.936,2.936,0,0,1,38.94,33h4.9a1.965,1.965,0,0,1,1.96,1.96v.98a1.96,1.96,0,0,1,0,3.919V47.7H43.153a5.783,5.783,0,0,0-2.254.451v-4.4a2.77,2.77,0,0,1-.4.029Z" transform="translate(-36 -33)" fill="#f0d0b4"/>
        </g>
        <g id="Grupo_1225801" data-name="Grupo 1225801" transform="translate(1.96 51.932)">
          <path id="Trazado_1057583" data-name="Trazado 1057583" d="M13.778,55.96V54h5.879v1.96a4.842,4.842,0,0,1-.98,2.94,4.909,4.909,0,0,1-3.919,1.96H5.773A2.777,2.777,0,0,1,3,58.086v-.333a2.771,2.771,0,0,1,4.733-1.96l.167.167Z" transform="translate(-3 -54)" fill="#f0d0b4"/>
        </g>
        <g id="Grupo_1225802" data-name="Grupo 1225802" transform="translate(5.879 29.395)">
          <path id="Trazado_1057584" data-name="Trazado 1057584" d="M11.9,43.709a2.771,2.771,0,0,1-.4.029H10.341A3.345,3.345,0,0,1,7,40.4v-4.36a3.962,3.962,0,0,1,1.744-3.263l.206-.137v-.01a3.337,3.337,0,0,0,1.48.333,3.545,3.545,0,0,0,2.508-1.039l.441-.441a1.642,1.642,0,0,1,2.753.764l.666,2.675a1.96,1.96,0,0,1,0,3.919v8.819H14.153a5.783,5.783,0,0,0-2.254.451Z" transform="translate(-7 -31)" fill="#f0d0b4"/>
        </g>
      </g>
      <path id="Trazado_1057585" data-name="Trazado 1057585" d="M58.316,37.82l-.364-.091a1.48,1.48,0,0,1-.689-2.482l.2-.2a4.493,4.493,0,0,0,1.326-3.2v-.261A4.5,4.5,0,0,0,56.8,27.833a4.866,4.866,0,0,0-.946-2.342V17.637h2.394l-3.674-9.8H52.911V0h-9.8V5.879h7.839v1.96H34.939L32.7,6.513a4.641,4.641,0,0,0-4.643,0L25.812,7.839H9.8V0H0V5.879H7.839v1.96H6.18l-3.674,9.8H4.9v8.692a9.763,9.763,0,0,0-2.94,6.985v.706l3.924,1.308c0,.027,0,.055,0,.083v4.355A4.33,4.33,0,0,0,10.2,44.093h.574v2.778A6.861,6.861,0,0,0,7.2,52.061l-.137,1.1a3.754,3.754,0,0,0-5.106,3.5V57A3.755,3.755,0,0,0,5.711,60.75H14.7a5.862,5.862,0,0,0,4.37-1.96h4.448a4.9,4.9,0,0,0,4.9-4.9V49.972a4.9,4.9,0,0,0-8.961-2.737,3.915,3.915,0,0,0-1.818-1.044V44.739l.181-.077a11,11,0,0,0,6.205-13.306h8.491a2.93,2.93,0,0,0,2.347,1.919,3.882,3.882,0,0,0-.567,2v4.494a4.33,4.33,0,0,0,4.325,4.325h.574v2.778a6.861,6.861,0,0,0-3.575,5.19l-.137,1.1a3.754,3.754,0,0,0-5.106,3.5V57a3.755,3.755,0,0,0,3.751,3.751h8.987a5.862,5.862,0,0,0,4.37-1.96h4.448a4.9,4.9,0,0,0,4.9-4.9V49.972a4.9,4.9,0,0,0-8.961-2.737,3.915,3.915,0,0,0-1.818-1.044V44.661l1.367-.781A10.893,10.893,0,0,0,51.477,39.8,8.713,8.713,0,0,0,56.468,45l.478.192,2.373-1.582a3.214,3.214,0,0,0-1-5.792ZM45.073,3.919V1.96h5.879v1.96Zm-43.113,0V1.96H7.839v1.96ZM53.891,23.94a4.853,4.853,0,0,0-1.96-.424h-.517a4.9,4.9,0,0,0-3.657,1.655,10.81,10.81,0,0,0-4.644-1.6V19.408a2.868,2.868,0,0,0,3.61-1.435,2.833,2.833,0,0,0,.127-.335h7.041ZM53.212,9.8l2.2,5.879H46.865a2.824,2.824,0,0,0-1.4-1.617L38.255,9.8ZM29.048,8.2a2.607,2.607,0,0,1,2.652,0l12.831,7.58a.979.979,0,0,1-.44,1.856,1.021,1.021,0,0,1-.375-.07L30.375,9.639l-13.281,7.9a.983.983,0,1,1-.815-1.787ZM36.7,15.677H24.049l6.326-3.76ZM7.538,9.8H22.5l-7.154,4.229a2.922,2.922,0,0,0-1.45,1.65H5.333Zm-.679,7.839H13.9A2.841,2.841,0,0,0,17.637,19.4v4.935a10.947,10.947,0,0,0-4.159-.821h-1.72a9.728,9.728,0,0,0-4.9,1.326Zm5.879,26.211a4.3,4.3,0,0,0,1.673-1.021L13.025,41.44a2.351,2.351,0,0,1-1.673.693H10.2a2.368,2.368,0,0,1-2.365-2.365V35.412A2.918,2.918,0,0,1,8.992,33.1a4.506,4.506,0,0,0,1.3.214,4.556,4.556,0,0,0,3.2-1.327l.441-.441a.685.685,0,0,1,1.107.307l.853,3.421h.765a.98.98,0,0,1,0,1.96h-.98v8.819H14.009a6.89,6.89,0,0,0-1.271.119ZM9.147,52.3a4.9,4.9,0,0,1,4.1-4.22,3.871,3.871,0,0,0-.507,1.888v3.919H8.949ZM14.7,58.79H5.711A1.793,1.793,0,0,1,3.919,57v-.336A1.791,1.791,0,0,1,6.978,55.4l.456.454h6.052l1.753.877.877-1.753L14.7,54.266v-.374h3.919v.98A3.923,3.923,0,0,1,14.7,58.79Zm8.819-1.96H20.234a5.831,5.831,0,0,0,.343-1.96v-1.96h5.879v.98A2.943,2.943,0,0,1,23.516,56.831Zm0-9.8a2.943,2.943,0,0,1,2.94,2.94v.98H20.577v-.98A2.943,2.943,0,0,1,23.516,47.032Zm-4.9,2.94v1.96H14.7v-1.96a1.96,1.96,0,1,1,3.919,0Zm-.98-7.418V39.026a2.94,2.94,0,0,0-.187-5.6l-.51-2.044a2.621,2.621,0,0,0-4.4-1.217l-.44.44a2.658,2.658,0,0,1-3.632,0l-.92-.92L6.166,31.068l.92.92c.033.033.073.056.108.088a4.88,4.88,0,0,0-.878,1.331L3.95,32.619a7.85,7.85,0,0,1,7.808-7.143h1.72a9.041,9.041,0,0,1,4.159,17.078ZM19.6,25.378V18.324l1.156-.687H40l1.151.684v5.2h-1.96a6.816,6.816,0,0,0-3.919,1.239V19.6h-9.8v9.8h-2.26A11.1,11.1,0,0,0,19.6,25.378ZM33.315,26.86a6.8,6.8,0,0,0-.9,2.535H27.436V21.557h5.879Zm7.839,16.988a4.3,4.3,0,0,0,1.673-1.021L41.44,41.44a2.351,2.351,0,0,1-1.673.693H38.619a2.368,2.368,0,0,1-2.365-2.365V35.274a1.962,1.962,0,0,1,1.96-1.96h4.9a.981.981,0,0,1,.98.98v1.96h.98a.98.98,0,0,1,0,1.96h-.98v7.839H42.424a6.89,6.89,0,0,0-1.271.119ZM37.562,52.3a4.9,4.9,0,0,1,4.1-4.22,3.871,3.871,0,0,0-.507,1.888v3.919H37.364Zm5.551,6.487H34.126A1.793,1.793,0,0,1,32.335,57v-.336A1.791,1.791,0,0,1,35.394,55.4l.456.454H41.9l1.753.877.877-1.753-1.419-.709v-.374h3.919v.98a3.923,3.923,0,0,1-3.919,3.919Zm8.819-1.96H48.649a5.831,5.831,0,0,0,.343-1.96v-1.96h5.879v.98A2.943,2.943,0,0,1,51.932,56.831Zm0-9.8a2.943,2.943,0,0,1,2.94,2.94v.98H48.992v-.98A2.943,2.943,0,0,1,51.932,47.032Zm-4.9,2.94v1.96H43.113v-1.96a1.96,1.96,0,1,1,3.919,0Zm-.586-7.793-.394.225v-2.4a2.94,2.94,0,0,0,0-5.544v-.168a2.943,2.943,0,0,0-2.94-2.94H39.194a.98.98,0,0,1,0-1.96v-1.96a2.943,2.943,0,0,0-2.94,2.94,2.906,2.906,0,0,0,.18.98h-1.16a.981.981,0,0,1-.98-.98,4.9,4.9,0,0,1,4.9-4.9h2.818a8.941,8.941,0,0,1,4.435,16.7Zm11.786-.2-1.5,1a6.78,6.78,0,0,1-3.823-6.123v-2.44a10.859,10.859,0,0,0-3.591-8.063,2.939,2.939,0,0,1,2.094-.878h.517a2.943,2.943,0,0,1,2.94,2.94v.606l.542.27a2.554,2.554,0,0,1,1.418,2.295v.261a2.544,2.544,0,0,1-.752,1.814l-.2.2a3.44,3.44,0,0,0,1.6,5.769l.365.091a1.254,1.254,0,0,1,.391,2.26Z"/>
    </g>
  </g>
</svg>
