<svg xmlns="http://www.w3.org/2000/svg" xmlns:xlink="http://www.w3.org/1999/xlink" width="113" height="113" viewBox="0 0 113 113">
  <defs>
    <filter id="Trazado_982547" x="0" y="0" width="113" height="113" filterUnits="userSpaceOnUse">
      <feOffset dy="3" input="SourceAlpha"/>
      <feGaussianBlur stdDeviation="3" result="blur"/>
      <feFlood flood-opacity="0.161"/>
      <feComposite operator="in" in2="blur"/>
      <feComposite in="SourceGraphic"/>
    </filter>
  </defs>
  <g id="Grupo_1225887" data-name="Grupo 1225887" transform="translate(-271 -1320.375)">
    <g id="Grupo_1225636" data-name="Grupo 1225636" transform="translate(0 -3370.384)">
      <g id="Grupo_1225173" data-name="Grupo 1225173" transform="translate(0 -50.236)">
        <g id="Grupo_1224643" data-name="Grupo 1224643" transform="translate(0 1927)">
          <g id="Grupo_1224291" data-name="Grupo 1224291" transform="translate(0 859.245)">
            <g id="Grupo_1224091" data-name="Grupo 1224091" transform="translate(-84.49 -2620.317)">
              <g id="Grupo_1223183" data-name="Grupo 1223183" transform="translate(364.49 4581.069)">
                <g id="Grupo_1211217" data-name="Grupo 1211217" transform="translate(0)">
                  <g id="Grupo_1210736" data-name="Grupo 1210736">
                    <g id="Grupo_1210537" data-name="Grupo 1210537">
                      <g id="Grupo_1164202" data-name="Grupo 1164202">
                        <g id="Grupo_1158168" data-name="Grupo 1158168">
                          <g id="Grupo_1152576" data-name="Grupo 1152576">
                            <g id="Grupo_1148633" data-name="Grupo 1148633">
                              <g id="Grupo_1148525" data-name="Grupo 1148525">
                                <g transform="matrix(1, 0, 0, 1, -9, -6)" filter="url(#Trazado_982547)">
                                  <g id="Trazado_982547-2" data-name="Trazado 982547" transform="translate(9 6)" fill="#fdfbec">
                                    <path d="M 47.49999618530273 93.5 C 41.28936767578125 93.5 35.26533126831055 92.28396606445312 29.59518241882324 89.88570404052734 C 24.11771583557129 87.56893157958984 19.19812965393066 84.251953125 14.97308921813965 80.02690124511719 C 10.74803638458252 75.80186462402344 7.431062698364258 70.88227844238281 5.114289283752441 65.40480804443359 C 2.716022968292236 59.73466110229492 1.499996185302734 53.71062469482422 1.499996185302734 47.49999618530273 C 1.499996185302734 41.28936767578125 2.716022968292236 35.26533126831055 5.114289283752441 29.59518241882324 C 7.431062698364258 24.11771583557129 10.74803638458252 19.19812965393066 14.97308921813965 14.97308921813965 C 19.19812965393066 10.74803638458252 24.11771583557129 7.431062698364258 29.59518241882324 5.114289283752441 C 35.26533126831055 2.716022968292236 41.28936767578125 1.499996185302734 47.49999618530273 1.499996185302734 C 53.71062469482422 1.499996185302734 59.73466110229492 2.716022968292236 65.40480804443359 5.114289283752441 C 70.88227844238281 7.431062698364258 75.80186462402344 10.74803638458252 80.02690124511719 14.97308921813965 C 84.251953125 19.19812965393066 87.56893157958984 24.11771583557129 89.88570404052734 29.59518241882324 C 92.28396606445312 35.26533126831055 93.5 41.28936767578125 93.5 47.49999618530273 C 93.5 53.71062469482422 92.28396606445312 59.73466110229492 89.88570404052734 65.40480804443359 C 87.56893157958984 70.88227844238281 84.251953125 75.80186462402344 80.02690124511719 80.02690124511719 C 75.80186462402344 84.251953125 70.88227844238281 87.56893157958984 65.40480804443359 89.88570404052734 C 59.73466110229492 92.28396606445312 53.71062469482422 93.5 47.49999618530273 93.5 Z" stroke="none"/>
                                    <path d="M 47.49999618530273 2.999992370605469 C 41.4912109375 2.999992370605469 35.66376495361328 4.1761474609375 30.17950439453125 6.495796203613281 C 24.88084411621094 8.736953735351562 20.12152099609375 11.94598388671875 16.03375244140625 16.03375244140625 C 11.94598388671875 20.12152099609375 8.736953735351562 24.88084411621094 6.495796203613281 30.17950439453125 C 4.1761474609375 35.66376495361328 2.999992370605469 41.4912109375 2.999992370605469 47.49999618530273 C 2.999992370605469 53.50878143310547 4.1761474609375 59.33622741699219 6.495796203613281 64.82048797607422 C 8.736953735351562 70.11914825439453 11.94598388671875 74.87847137451172 16.03375244140625 78.96623992919922 C 20.12152099609375 83.05400848388672 24.88084411621094 86.26304626464844 30.17950439453125 88.50419616699219 C 35.66376495361328 90.82384490966797 41.4912109375 92 47.49999618530273 92 C 53.50878143310547 92 59.33622741699219 90.82384490966797 64.82048797607422 88.50419616699219 C 70.11914825439453 86.26304626464844 74.87847137451172 83.05400848388672 78.96623992919922 78.96623992919922 C 83.05400848388672 74.87847137451172 86.26304626464844 70.11914825439453 88.50419616699219 64.82048797607422 C 90.82384490966797 59.33622741699219 92 53.50878143310547 92 47.49999618530273 C 92 41.4912109375 90.82384490966797 35.66376495361328 88.50419616699219 30.17950439453125 C 86.26304626464844 24.88084411621094 83.05400848388672 20.12152099609375 78.96623992919922 16.03375244140625 C 74.87847137451172 11.94598388671875 70.11914825439453 8.736953735351562 64.82048797607422 6.495796203613281 C 59.33622741699219 4.1761474609375 53.50878143310547 2.999992370605469 47.49999618530273 2.999992370605469 M 47.49999618530273 -7.62939453125e-06 C 73.7335205078125 -7.62939453125e-06 95 21.26647186279297 95 47.49999618530273 C 95 73.7335205078125 73.7335205078125 95 47.49999618530273 95 C 21.26647186279297 95 -7.62939453125e-06 73.7335205078125 -7.62939453125e-06 47.49999618530273 C -7.62939453125e-06 21.26647186279297 21.26647186279297 -7.62939453125e-06 47.49999618530273 -7.62939453125e-06 Z" stroke="none" fill="#83793c"/>
                                  </g>
                                </g>
                              </g>
                            </g>
                          </g>
                        </g>
                      </g>
                    </g>
                  </g>
                </g>
              </g>
            </g>
          </g>
        </g>
      </g>
    </g>
    <g id="book_7612882" transform="translate(292.791 1340.128)">
      <path id="Trazado_1057712" data-name="Trazado 1057712" d="M50.256,18V30.977H13.488a6.488,6.488,0,0,1,0-12.977Z" transform="translate(0.407 0.733)" fill="#f2e6c7"/>
      <path id="Trazado_1057713" data-name="Trazado 1057713" d="M32.954,18v9.733H14.57a6.488,6.488,0,0,1-6.488-6.488,2.037,2.037,0,0,1,.022-.368A6.391,6.391,0,0,0,7,24.488a6.488,6.488,0,0,0,6.488,6.488H50.256V18Z" transform="translate(0.407 0.733)" fill="#e3cea8"/>
      <path id="Trazado_1057714" data-name="Trazado 1057714" d="M16.488,50.977a6.488,6.488,0,1,1,0-12.977H53.256V50.977Z" transform="translate(0.651 2.361)" fill="#f2e6c7"/>
      <path id="Trazado_1057715" data-name="Trazado 1057715" d="M51.36,38v6.953l-5.407,3.861L38.059,43.18A17.268,17.268,0,0,1,33.29,38Z" transform="translate(2.547 2.361)" fill="#f2e6c7"/>
      <path id="Trazado_1057716" data-name="Trazado 1057716" d="M53.256,38H35.186a17.268,17.268,0,0,0,4.769,5.18l6.38,4.553H17.57a6.488,6.488,0,0,1-6.488-6.488,2.037,2.037,0,0,1,.022-.368A6.391,6.391,0,0,0,10,44.488a6.488,6.488,0,0,0,6.488,6.488H53.256V47.733H49.363l3.893-2.779Z" transform="translate(0.651 2.361)" fill="#e3cea8"/>
      <path id="Trazado_1057717" data-name="Trazado 1057717" d="M10.326,44.814A6.488,6.488,0,0,0,16.814,51.3H57.908v4.326H16.814a10.814,10.814,0,1,1,0-21.628H57.908v4.326H16.814A6.488,6.488,0,0,0,10.326,44.814Z" transform="translate(0.326 2.035)" fill="#ea4450"/>
      <path id="Trazado_1057718" data-name="Trazado 1057718" d="M10.326,44.814A6.488,6.488,0,0,0,16.814,51.3H57.908v4.326H16.814a10.814,10.814,0,1,1,0-21.628H57.908v4.326H16.814A6.488,6.488,0,0,0,10.326,44.814Z" transform="translate(0.326 2.035)" fill="#ea4450"/>
      <path id="Trazado_1057719" data-name="Trazado 1057719" d="M7.326,24.814A6.488,6.488,0,0,0,13.814,31.3H54.908v4.326H13.814a10.814,10.814,0,1,1,0-21.628H54.908v4.326H13.814a6.488,6.488,0,0,0-6.488,6.488Z" transform="translate(0.081 0.407)" fill="#fbb03b"/>
      <path id="Trazado_1057720" data-name="Trazado 1057720" d="M52.628,15.849v2.476H31L46.14,14Z" transform="translate(2.361 0.407)" fill="#fbb03b"/>
      <path id="Trazado_1057721" data-name="Trazado 1057721" d="M52.627,30v4.326h-21A16.078,16.078,0,0,1,31.01,30Z" transform="translate(2.362 1.71)" fill="#fbb03b"/>
      <path id="Trazado_1057722" data-name="Trazado 1057722" d="M57.908,52.731v2.163H16.814A10.814,10.814,0,0,1,6,44.08c0-.357.022-.714.054-1.06a10.814,10.814,0,0,0,10.76,9.711Z" transform="translate(0.326 2.77)" fill="#ce293d"/>
      <path id="Trazado_1057723" data-name="Trazado 1057723" d="M54.908,32.731v2.163H13.814A10.814,10.814,0,0,1,3,24.08c0-.357.022-.714.054-1.06a10.814,10.814,0,0,0,10.76,9.711Z" transform="translate(0.081 1.141)" fill="#f7931e"/>
      <path id="Trazado_1057724" data-name="Trazado 1057724" d="M55.825,34v4.326h-22.4A17,17,0,0,1,31.58,34Z" transform="translate(2.408 2.035)" fill="#ce293d"/>
      <path id="Trazado_1057725" data-name="Trazado 1057725" d="M52.628,15.849v2.476H31L46.14,14Z" transform="translate(2.361 0.407)" fill="#f7931e"/>
      <path id="Trazado_1057726" data-name="Trazado 1057726" d="M31.01,30H52.627v4.326h-21A16.078,16.078,0,0,1,31.01,30Z" transform="translate(2.362 1.71)" fill="#f7931e"/>
      <path id="Trazado_1057727" data-name="Trazado 1057727" d="M48.14,10,33,14.326V27.05a17.3,17.3,0,0,0,7.246,14.08l7.894,5.638,7.894-5.638A17.3,17.3,0,0,0,63.28,27.05V14.326Z" transform="translate(2.524 0.081)" fill="#0071bc"/>
      <path id="Trazado_1057728" data-name="Trazado 1057728" d="M56.034,41.017,48.14,46.652l-7.894-5.634A17.337,17.337,0,0,1,33,26.937V14.209l9.733-2.779V22.612a17.337,17.337,0,0,0,7.245,14.08Z" transform="translate(2.524 0.198)" fill="#054a70"/>
      <path id="Trazado_1057729" data-name="Trazado 1057729" d="M42.434,37.271A13,13,0,0,1,37,26.712V17.251L47.814,14.16l10.814,3.091v9.461a13,13,0,0,1-5.434,10.559l-5.38,3.843Z" transform="translate(2.849 0.42)" fill="#92d7ef"/>
      <path id="Trazado_1057730" data-name="Trazado 1057730" d="M51.978,38.018l-4.163,2.974-5.385-3.839A13.021,13.021,0,0,1,37,26.6V17.136l5.407-1.546v6.683a17.337,17.337,0,0,0,7.245,14.08Z" transform="translate(2.849 0.537)" fill="#54c4e2"/>
      <path id="Trazado_1057731" data-name="Trazado 1057731" d="M38.465,42.081A1.081,1.081,0,0,0,37.384,41h-17.3a1.081,1.081,0,1,0,0,2.163h17.3A1.081,1.081,0,0,0,38.465,42.081Z" transform="translate(1.384 2.605)"/>
      <path id="Trazado_1057732" data-name="Trazado 1057732" d="M43.384,45h-17.3a1.081,1.081,0,1,0,0,2.163h17.3a1.081,1.081,0,0,0,0-2.163Z" transform="translate(1.873 2.931)"/>
      <path id="Trazado_1057733" data-name="Trazado 1057733" d="M66.1,13.367,50.96,9.041a1.081,1.081,0,0,0-.593,0l-15.14,4.326a1.081,1.081,0,0,0-.785,1.04v3.244H13.9a7.57,7.57,0,0,0,0,15.14H35.353a18.013,18.013,0,0,0,.856,2.163H13.9a9.733,9.733,0,0,1,0-19.465H31.2a1.081,1.081,0,0,0,0-2.163H13.9a11.888,11.888,0,0,0-2.979,23.4A11.888,11.888,0,0,0,17.14,58.745H40.931a1.081,1.081,0,1,0,0-2.163H17.14a9.733,9.733,0,1,1,0-19.465H37.415a17.931,17.931,0,0,0,1.622,2.163H17.14a7.57,7.57,0,0,0,0,15.14H57.152v2.163h-11.9a1.081,1.081,0,1,0,0,2.163H58.233a1.081,1.081,0,0,0,1.081-1.081V53.338a1.081,1.081,0,0,0-1.081-1.081H54.989V45.091l4.2-3a18.45,18.45,0,0,0,7.7-14.956V14.407A1.081,1.081,0,0,0,66.1,13.367ZM8.489,25.221A5.414,5.414,0,0,1,13.9,19.814H34.442v2.163H18.221a1.081,1.081,0,0,0,0,2.163H34.442V26.3H24.71a1.081,1.081,0,1,0,0,2.163h9.782a17.727,17.727,0,0,0,.292,2.163H13.9A5.414,5.414,0,0,1,8.489,25.221ZM52.826,52.256H17.14a5.407,5.407,0,0,1,0-10.814H41.315c.267.216.531.442.826.649l7.894,5.633a1.081,1.081,0,0,0,1.257,0l1.535-1.091Zm11.9-25.121a16.285,16.285,0,0,1-6.792,13.2L50.664,45.52,43.4,40.33a12.473,12.473,0,0,1-1.018-.806,15.581,15.581,0,0,1-3.453-4.051,16.032,16.032,0,0,1-1.737-4.066,15.525,15.525,0,0,1-.576-4.019v-.023c0-.079-.008-.157-.008-.236V15.222l14.057-4.016,14.058,4.016Z" transform="translate(0)"/>
      <path id="Trazado_1057734" data-name="Trazado 1057734" d="M47.6,13.2,36.784,16.3A1.081,1.081,0,0,0,36,17.334V26.8a14.106,14.106,0,0,0,5.881,11.436l3.744,2.67h0l1.644,1.169a1.081,1.081,0,0,0,1.256,0L50.157,40.9h0L53.9,38.235a14.083,14.083,0,0,0,5.9-11.438V17.334a1.081,1.081,0,0,0-.784-1.04L48.193,13.2A1.09,1.09,0,0,0,47.6,13.2Zm10.03,4.945V26.8a11.919,11.919,0,0,1-4.986,9.675L48.9,39.141h0L47.9,39.86l-1.011-.719h0l-3.747-2.668A11.937,11.937,0,0,1,38.163,26.8V18.145L47.9,15.366Z" transform="translate(2.768 0.339)"/>
      <path id="Trazado_1057735" data-name="Trazado 1057735" d="M42.846,26.724a1.081,1.081,0,1,0-1.529,1.529L44.561,31.5a1.081,1.081,0,0,0,1.529,0l8.651-8.651a1.081,1.081,0,1,0-1.529-1.529L45.326,29.2Z" transform="translate(3.175 0.977)"/>
    </g>
  </g>
</svg>
