<svg xmlns="http://www.w3.org/2000/svg" width="51.098" height="39.163" viewBox="0 0 51.098 39.163">
  <g id="social_12649568" transform="translate(-7 -66.647)">
    <g id="Grupo_1225301" data-name="Grupo 1225301" transform="translate(7.5 67.261)">
      <path id="Trazado_1056748" data-name="Trazado 1056748" d="M155.333,412.218a17.344,17.344,0,0,0,20.294,0" transform="translate(-140.431 -377.446)" fill="none" stroke="#000" stroke-linecap="round" stroke-linejoin="round" stroke-miterlimit="10" stroke-width="1"/>
      <path id="Trazado_1056749" data-name="Trazado 1056749" d="M206.8,95.02a17.4,17.4,0,0,0-12.423,0" transform="translate(-175.54 -91.191)" fill="none" stroke="#000" stroke-linecap="round" stroke-linejoin="round" stroke-miterlimit="10" stroke-width="1"/>
      <g id="Grupo_1225299" data-name="Grupo 1225299" transform="translate(31.423 13.413)">
        <path id="Trazado_1056750" data-name="Trazado 1056750" d="M319.232,373.719l0,0s0,0,0,0Z" transform="translate(-319.232 -356.236)" fill="none" stroke="#000" stroke-linejoin="round" stroke-miterlimit="10" stroke-width="1"/>
        <path id="Trazado_1056751" data-name="Trazado 1056751" d="M354.437,205.718a12.023,12.023,0,0,0-2.252-5.4" transform="translate(-348.863 -200.322)" fill="none" stroke="#000" stroke-linejoin="round" stroke-miterlimit="10" stroke-width="1"/>
        <path id="Trazado_1056752" data-name="Trazado 1056752" d="M320.233,340.148a12.153,12.153,0,0,0,3.709-3.7" transform="translate(-320.132 -322.73)" fill="none" stroke="#000" stroke-linejoin="round" stroke-miterlimit="10" stroke-width="1"/>
      </g>
      <g id="Grupo_1225300" data-name="Grupo 1225300" transform="translate(13.101 13.413)">
        <path id="Trazado_1056753" data-name="Trazado 1056753" d="M154.973,336.452a12.153,12.153,0,0,0,3.709,3.7" transform="translate(-153.209 -322.73)" fill="none" stroke="#000" stroke-linejoin="round" stroke-miterlimit="10" stroke-width="1"/>
        <path id="Trazado_1056754" data-name="Trazado 1056754" d="M139.723,200.322a12.023,12.023,0,0,0-2.252,5.4" transform="translate(-137.471 -200.322)" fill="none" stroke="#000" stroke-linejoin="round" stroke-miterlimit="10" stroke-width="1"/>
      </g>
      <path id="Trazado_1056755" data-name="Trazado 1056755" d="M106.79,334.618v-.531a3.438,3.438,0,0,0-2.623-3.339" transform="translate(-94.423 -304.188)" fill="none" stroke="#000" stroke-linejoin="round" stroke-miterlimit="10" stroke-width="1"/>
      <path id="Trazado_1056756" data-name="Trazado 1056756" d="M40.264,330.748a3.438,3.438,0,0,0-2.623,3.339v.531" transform="translate(-34.603 -304.188)" fill="none" stroke="#000" stroke-linejoin="round" stroke-miterlimit="10" stroke-width="1"/>
      <path id="Trazado_1056757" data-name="Trazado 1056757" d="M450.958,334.618v-.531a3.438,3.438,0,0,0-2.623-3.339" transform="translate(-403.899 -304.188)" fill="none" stroke="#000" stroke-linejoin="round" stroke-miterlimit="10" stroke-width="1"/>
      <path id="Trazado_1056758" data-name="Trazado 1056758" d="M384.432,330.748a3.438,3.438,0,0,0-2.623,3.339v.531" transform="translate(-344.079 -304.188)" fill="none" stroke="#000" stroke-linejoin="round" stroke-miterlimit="10" stroke-width="1"/>
      <path id="Trazado_1056759" data-name="Trazado 1056759" d="M193.845,87.3l-2.286-1.062,1.062-2.286" transform="translate(-173.006 -82.269)" fill="none" stroke="#000" stroke-linecap="round" stroke-linejoin="round" stroke-miterlimit="10" stroke-width="1"/>
      <path id="Trazado_1056760" data-name="Trazado 1056760" d="M344.294,398.784l2.494.367-.367,2.494" transform="translate(-310.345 -365.366)" fill="none" stroke="#000" stroke-linecap="round" stroke-linejoin="round" stroke-miterlimit="10" stroke-width="1"/>
      <path id="Trazado_1056761" data-name="Trazado 1056761" d="M9.028,235.026a7.709,7.709,0,1,0,2.7-2.269" transform="translate(-7.5 -215.33)" fill="none" stroke="#000" stroke-linecap="round" stroke-linejoin="round" stroke-miterlimit="10" stroke-width="1"/>
      <circle id="Elipse_13567" data-name="Elipse 13567" cx="3.044" cy="3.044" r="3.044" transform="translate(39.351 21.257)" fill="none" stroke="#000" stroke-linecap="round" stroke-linejoin="round" stroke-miterlimit="10" stroke-width="1"/>
      <circle id="Elipse_13568" data-name="Elipse 13568" cx="7.703" cy="7.703" r="7.703" transform="translate(34.692 16.599)" fill="none" stroke="#000" stroke-linecap="round" stroke-linejoin="round" stroke-miterlimit="10" stroke-width="1"/>
      <circle id="Elipse_13569" data-name="Elipse 13569" cx="5.352" cy="5.352" r="5.352" transform="translate(19.696 7.504)" fill="none" stroke="#000" stroke-linecap="round" stroke-linejoin="round" stroke-miterlimit="10" stroke-width="1"/>
      <line id="Línea_1000" data-name="Línea 1000" x1="3.738" y1="2.158" transform="translate(35.792 2.965)" fill="none" stroke="#000" stroke-linejoin="round" stroke-miterlimit="10" stroke-width="1"/>
      <line id="Línea_1001" data-name="Línea 1001" x1="3.738" y2="2.158" transform="translate(10.567 2.965)" fill="none" stroke="#000" stroke-linejoin="round" stroke-miterlimit="10" stroke-width="1"/>
      <path id="Trazado_1056762" data-name="Trazado 1056762" d="M415.513,140.722H412.68a.5.5,0,0,0-.436.252l-1.417,2.453a.5.5,0,0,0,0,.5l1.417,2.453a.5.5,0,0,0,.436.252h2.833a.5.5,0,0,0,.436-.252l1.417-2.453a.5.5,0,0,0,0-.5l-1.417-2.453A.5.5,0,0,0,415.513,140.722Z" transform="translate(-370.111 -133.317)" fill="none" stroke="#000" stroke-linecap="round" stroke-linejoin="round" stroke-miterlimit="10" stroke-width="1"/>
      <path id="Trazado_1056763" data-name="Trazado 1056763" d="M39.783,140.722H36.95a.5.5,0,0,0-.436.252L35.1,143.427a.5.5,0,0,0,0,.5l1.417,2.453a.5.5,0,0,0,.436.252h2.833a.5.5,0,0,0,.436-.252l1.417-2.453a.5.5,0,0,0,0-.5l-1.417-2.453A.5.5,0,0,0,39.783,140.722Z" transform="translate(-32.254 -133.317)" fill="none" stroke="#000" stroke-linecap="round" stroke-linejoin="round" stroke-miterlimit="10" stroke-width="1"/>
      <circle id="Elipse_13570" data-name="Elipse 13570" cx="3.044" cy="3.044" r="3.044" transform="translate(4.659 21.257)" fill="none" stroke="#000" stroke-linecap="round" stroke-linejoin="round" stroke-miterlimit="10" stroke-width="1"/>
      <path id="Trazado_1056764" data-name="Trazado 1056764" d="M191.767,92.579V98.09a12.074,12.074,0,0,0,12.949,0V86.927a2.52,2.52,0,0,1,.338-1.26l8.761-15.175a2.158,2.158,0,0,0-.859-2.986,2.192,2.192,0,0,0-2.905.873l-2.126,3.683" transform="translate(-173.193 -67.261)" fill="none" stroke="#000" stroke-linecap="round" stroke-linejoin="round" stroke-miterlimit="10" stroke-width="1"/>
      <path id="Trazado_1056765" data-name="Trazado 1056765" d="M109.165,79.606l-6.482-11.227a2.192,2.192,0,0,0-2.905-.873,2.158,2.158,0,0,0-.859,2.986l8.761,15.175a2.52,2.52,0,0,1,.338,1.26v2.124" transform="translate(-89.443 -67.261)" fill="none" stroke="#000" stroke-linecap="round" stroke-linejoin="round" stroke-miterlimit="10" stroke-width="1"/>
      <line id="Línea_1002" data-name="Línea 1002" x1="2.592" y2="4.489" transform="translate(30.376 7.856)" fill="none" stroke="#000" stroke-linecap="round" stroke-linejoin="round" stroke-miterlimit="10" stroke-width="1"/>
    </g>
  </g>
</svg>
