<svg xmlns="http://www.w3.org/2000/svg" xmlns:xlink="http://www.w3.org/1999/xlink" width="113" height="113" viewBox="0 0 113 113">
  <defs>
    <filter id="Trazado_982547" x="0" y="0" width="113" height="113" filterUnits="userSpaceOnUse">
      <feOffset dy="3" input="SourceAlpha"/>
      <feGaussianBlur stdDeviation="3" result="blur"/>
      <feFlood flood-opacity="0.161"/>
      <feComposite operator="in" in2="blur"/>
      <feComposite in="SourceGraphic"/>
    </filter>
  </defs>
  <g id="Grupo_1225889" data-name="Grupo 1225889" transform="translate(-585.509 -1320.375)">
    <g id="Grupo_1225637" data-name="Grupo 1225637" transform="translate(0 -3370.384)">
      <g id="Grupo_1225176" data-name="Grupo 1225176" transform="translate(0 -50.236)">
        <g id="Grupo_1224647" data-name="Grupo 1224647" transform="translate(0 1927)">
          <g id="Grupo_1224292" data-name="Grupo 1224292" transform="translate(0 859.245)">
            <g id="Grupo_1224092" data-name="Grupo 1224092" transform="translate(-88.49 -2620.317)">
              <g id="Grupo_1223184" data-name="Grupo 1223184" transform="translate(683 4581.069)">
                <g id="Grupo_1211216" data-name="Grupo 1211216" transform="translate(0)">
                  <g id="Grupo_1210737" data-name="Grupo 1210737">
                    <g id="Grupo_1210537" data-name="Grupo 1210537">
                      <g id="Grupo_1164202" data-name="Grupo 1164202">
                        <g id="Grupo_1158168" data-name="Grupo 1158168">
                          <g id="Grupo_1152576" data-name="Grupo 1152576">
                            <g id="Grupo_1148633" data-name="Grupo 1148633">
                              <g id="Grupo_1148525" data-name="Grupo 1148525">
                                <g transform="matrix(1, 0, 0, 1, -9, -6)" filter="url(#Trazado_982547)">
                                  <g id="Trazado_982547-2" data-name="Trazado 982547" transform="translate(9 6)" fill="#fdfbec">
                                    <path d="M 47.49999618530273 93.5 C 41.28936767578125 93.5 35.26533126831055 92.28396606445312 29.59518241882324 89.88570404052734 C 24.11771583557129 87.56893157958984 19.19812965393066 84.251953125 14.97308921813965 80.02690124511719 C 10.74803638458252 75.80186462402344 7.431062698364258 70.88227844238281 5.114289283752441 65.40480804443359 C 2.716022968292236 59.73466110229492 1.499996185302734 53.71062469482422 1.499996185302734 47.49999618530273 C 1.499996185302734 41.28936767578125 2.716022968292236 35.26533126831055 5.114289283752441 29.59518241882324 C 7.431062698364258 24.11771583557129 10.74803638458252 19.19812965393066 14.97308921813965 14.97308921813965 C 19.19812965393066 10.74803638458252 24.11771583557129 7.431062698364258 29.59518241882324 5.114289283752441 C 35.26533126831055 2.716022968292236 41.28936767578125 1.499996185302734 47.49999618530273 1.499996185302734 C 53.71062469482422 1.499996185302734 59.73466110229492 2.716022968292236 65.40480804443359 5.114289283752441 C 70.88227844238281 7.431062698364258 75.80186462402344 10.74803638458252 80.02690124511719 14.97308921813965 C 84.251953125 19.19812965393066 87.56893157958984 24.11771583557129 89.88570404052734 29.59518241882324 C 92.28396606445312 35.26533126831055 93.5 41.28936767578125 93.5 47.49999618530273 C 93.5 53.71062469482422 92.28396606445312 59.73466110229492 89.88570404052734 65.40480804443359 C 87.56893157958984 70.88227844238281 84.251953125 75.80186462402344 80.02690124511719 80.02690124511719 C 75.80186462402344 84.251953125 70.88227844238281 87.56893157958984 65.40480804443359 89.88570404052734 C 59.73466110229492 92.28396606445312 53.71062469482422 93.5 47.49999618530273 93.5 Z" stroke="none"/>
                                    <path d="M 47.49999618530273 2.999992370605469 C 41.4912109375 2.999992370605469 35.66376495361328 4.1761474609375 30.17950439453125 6.495796203613281 C 24.88084411621094 8.736953735351562 20.12152099609375 11.94598388671875 16.03375244140625 16.03375244140625 C 11.94598388671875 20.12152099609375 8.736953735351562 24.88084411621094 6.495796203613281 30.17950439453125 C 4.1761474609375 35.66376495361328 2.999992370605469 41.4912109375 2.999992370605469 47.49999618530273 C 2.999992370605469 53.50878143310547 4.1761474609375 59.33622741699219 6.495796203613281 64.82048797607422 C 8.736953735351562 70.11914825439453 11.94598388671875 74.87847137451172 16.03375244140625 78.96623992919922 C 20.12152099609375 83.05400848388672 24.88084411621094 86.26304626464844 30.17950439453125 88.50419616699219 C 35.66376495361328 90.82384490966797 41.4912109375 92 47.49999618530273 92 C 53.50878143310547 92 59.33622741699219 90.82384490966797 64.82048797607422 88.50419616699219 C 70.11914825439453 86.26304626464844 74.87847137451172 83.05400848388672 78.96623992919922 78.96623992919922 C 83.05400848388672 74.87847137451172 86.26304626464844 70.11914825439453 88.50419616699219 64.82048797607422 C 90.82384490966797 59.33622741699219 92 53.50878143310547 92 47.49999618530273 C 92 41.4912109375 90.82384490966797 35.66376495361328 88.50419616699219 30.17950439453125 C 86.26304626464844 24.88084411621094 83.05400848388672 20.12152099609375 78.96623992919922 16.03375244140625 C 74.87847137451172 11.94598388671875 70.11914825439453 8.736953735351562 64.82048797607422 6.495796203613281 C 59.33622741699219 4.1761474609375 53.50878143310547 2.999992370605469 47.49999618530273 2.999992370605469 M 47.49999618530273 -7.62939453125e-06 C 73.7335205078125 -7.62939453125e-06 95 21.26647186279297 95 47.49999618530273 C 95 73.7335205078125 73.7335205078125 95 47.49999618530273 95 C 21.26647186279297 95 -7.62939453125e-06 73.7335205078125 -7.62939453125e-06 47.49999618530273 C -7.62939453125e-06 21.26647186279297 21.26647186279297 -7.62939453125e-06 47.49999618530273 -7.62939453125e-06 Z" stroke="none" fill="#83793c"/>
                                  </g>
                                </g>
                              </g>
                            </g>
                          </g>
                        </g>
                      </g>
                    </g>
                  </g>
                </g>
              </g>
            </g>
          </g>
        </g>
      </g>
    </g>
    <g id="fairness_18127991_1_" data-name="fairness_18127991 (1)" transform="translate(584.979 1313.598)">
      <g id="Grupo_1225888" data-name="Grupo 1225888" transform="translate(26.497 28.336)">
        <path id="Trazado_1057736" data-name="Trazado 1057736" d="M129.86,133.97h35.219V138.3H129.86Z" transform="translate(-116.44 -120.234)" fill="#ed2024" fill-rule="evenodd"/>
        <path id="Trazado_1057737" data-name="Trazado 1057737" d="M381.6,123.36a3.628,3.628,0,1,1-3.628,3.628A3.626,3.626,0,0,1,381.6,123.36Z" transform="translate(-330.336 -111.087)" fill="#ffcd05" fill-rule="evenodd"/>
        <path id="Trazado_1057738" data-name="Trazado 1057738" d="M88.131,123.36a3.628,3.628,0,1,1-3.631,3.628A3.628,3.628,0,0,1,88.131,123.36Z" transform="translate(-77.335 -111.087)" fill="#ffcd05" fill-rule="evenodd"/>
        <path id="Trazado_1057739" data-name="Trazado 1057739" d="M227.771,34.786l4.21,9.287H222.24l4.21-9.287a.725.725,0,0,1,1.321,0Z" transform="translate(-196.081 -34.36)" fill="#eab87b" fill-rule="evenodd"/>
        <path id="Trazado_1057740" data-name="Trazado 1057740" d="M247.956,51.59l3.327,7.338H244.63Z" transform="translate(-215.383 -49.214)" fill="#fedc97" fill-rule="evenodd"/>
        <path id="Trazado_1057741" data-name="Trazado 1057741" d="M263.376,333.718a32.959,32.959,0,0,1,22.448-9.217v-8.885a35.746,35.746,0,0,0-28.265,9.053v9.049Z" transform="translate(-226.53 -276.622)" fill="#047863" fill-rule="evenodd"/>
        <path id="Trazado_1057742" data-name="Trazado 1057742" d="M75.008,333.718A32.943,32.943,0,0,0,52.56,324.5v-8.885a35.752,35.752,0,0,1,28.269,9.053v9.049Z" transform="translate(-49.799 -276.622)" fill="#047863" fill-rule="evenodd"/>
        <path id="Trazado_1057743" data-name="Trazado 1057743" d="M68.033,328.591a32.945,32.945,0,0,0-15.483-4.085v-8.885A36.48,36.48,0,0,1,74.261,319.9c-.117,3.679-2.58,6.888-6.227,8.693Z" transform="translate(-49.791 -276.627)" fill="#03b68c" fill-rule="evenodd"/>
        <path id="Trazado_1057744" data-name="Trazado 1057744" d="M63.57,391.106h5.816c6.594-6.637,15.956-10.257,25.209-8.874v5.117c-7.9-.88-17.605,2.146-22.32,8.541H54.86c-4.715-6.4-14.424-9.42-22.32-8.541v-5.117c9.256-1.383,18.615,2.235,25.209,8.874Z" transform="translate(-32.54 -334.01)" fill="#98ce89" fill-rule="evenodd"/>
        <path id="Trazado_1057745" data-name="Trazado 1057745" d="M310.611,328.611a32.966,32.966,0,0,1,15.534-4.112v-8.885a36.44,36.44,0,0,0-21.815,4.338C304.471,323.624,306.953,326.826,310.611,328.611Z" transform="translate(-266.851 -276.62)" fill="#03b68c" fill-rule="evenodd"/>
        <path id="Trazado_1057746" data-name="Trazado 1057746" d="M345.858,351.58V366.1l-5.774-7.063L334.31,366.1V355.044A30.94,30.94,0,0,1,345.858,351.58Z" transform="translate(-292.697 -307.836)" fill="#d77e28" fill-rule="evenodd"/>
        <path id="Trazado_1057747" data-name="Trazado 1057747" d="M342.188,365.025l-2.095-2.565-5.774,7.063V358.467a35.733,35.733,0,0,1,7.868-2.917Z" transform="translate(-292.705 -311.259)" fill="#fcb13b" fill-rule="evenodd"/>
        <path id="Trazado_1057748" data-name="Trazado 1057748" d="M222.24,104.8h9.741v25.682a2.212,2.212,0,0,1-2.2,2.2h-5.335a2.209,2.209,0,0,1-2.2-2.2Z" transform="translate(-196.081 -95.087)" fill="#c05b32" fill-rule="evenodd"/>
        <path id="Trazado_1057749" data-name="Trazado 1057749" d="M243.81,104.8h6.767v25.682a2.212,2.212,0,0,1-2.2,2.2h-2.357a2.212,2.212,0,0,1-2.2-2.2Z" transform="translate(-214.676 -95.087)" fill="#dd6e42" fill-rule="evenodd"/>
        <path id="Trazado_1057750" data-name="Trazado 1057750" d="M45.47,219.29H63.495l-2.064,5.961h-13.9Z" transform="translate(-43.687 -193.789)" fill="#991b1e" fill-rule="evenodd"/>
        <path id="Trazado_1057751" data-name="Trazado 1057751" d="M45.47,219.29h5.965c3.179.8,5.378,2.521,5.378,4.519a2.915,2.915,0,0,1-.394,1.442H47.533Z" transform="translate(-43.687 -193.789)" fill="#ed2024" fill-rule="evenodd"/>
        <path id="Trazado_1057752" data-name="Trazado 1057752" d="M338.91,219.29h18.027l-2.068,5.961h-13.9Z" transform="translate(-296.663 -193.789)" fill="#991b1e" fill-rule="evenodd"/>
        <path id="Trazado_1057753" data-name="Trazado 1057753" d="M338.91,219.29h6.227c3.178.8,5.378,2.521,5.378,4.519a2.915,2.915,0,0,1-.394,1.442h-9.147Z" transform="translate(-296.663 -193.789)" fill="#ed2024" fill-rule="evenodd"/>
      </g>
      <path id="Trazado_1057754" data-name="Trazado 1057754" d="M68.744,52.872h3.722l1.743-5.5H63.362V63.731a3.178,3.178,0,0,1-3.17,3.17H54.857a3.177,3.177,0,0,1-3.166-3.17V47.369H40.843l1.739,5.5h3.725a.963.963,0,0,1,.876,1.368L45.15,60.112a.964.964,0,0,1-.91.649v0h-13.9a.967.967,0,0,1-.938-.735l-2.033-5.879a.962.962,0,0,1,.907-1.274v0H32l1.79-5.661a4.595,4.595,0,0,1,6.865-6.106H51.69V38.026a1,1,0,0,1,.109-.43l4.187-9.229a1.687,1.687,0,0,1,3.076,0L63.249,37.6a.938.938,0,0,1,.113.454v3.057H74.4a4.594,4.594,0,0,1,6.863,6.106l1.79,5.661h3.722a.963.963,0,0,1,.876,1.368l-2.033,5.872a.964.964,0,0,1-.91.649v0H70.813a.96.96,0,0,1-.938-.735l-2.037-5.879a.962.962,0,0,1,.907-1.274v-.007Zm5.746,0h6.536l-1.4-4.433a4.619,4.619,0,0,1-3.729,0ZM85.42,54.8H70.1l1.4,4.031H84.024ZM34.026,52.872h6.536l-1.4-4.433a4.619,4.619,0,0,1-3.729,0ZM44.954,54.8H29.632l1.4,4.031H43.556ZM56.56,42.72a.965.965,0,1,1,1.931,0V61.264a.965.965,0,0,1-1.931,0Zm6.8.317v2.4h9.96a4.643,4.643,0,0,1,0-2.4Zm-11.672,2.4v-2.4H41.726a4.557,4.557,0,0,1,0,2.4Zm1.931-6.426V63.73a1.244,1.244,0,0,0,1.236,1.24h5.335a1.245,1.245,0,0,0,1.24-1.24V39.015Zm27,34v2.576a38.056,38.056,0,0,1,4.2-.3V68.2A35.461,35.461,0,0,0,70.8,69.759,33.044,33.044,0,0,0,58.491,76.8v3.839c5.774-4.717,14.654-9.62,22.441-9.554a.962.962,0,0,1-.015,1.924Zm0,4.522v3.507a28.325,28.325,0,0,1,6.961-.414V77.4A26.092,26.092,0,0,0,80.624,77.532Zm0,5.465v3.6a.966.966,0,0,1-1.76.552l-2.444-2.991a20.27,20.27,0,0,0-9.413,6.626.967.967,0,0,1-.778.39v0H48.817a.958.958,0,0,1-.809-.445A20.054,20.054,0,0,0,38.993,84.3,27.146,27.146,0,0,0,26.6,82.637a.968.968,0,0,1-1.067-.957h0V76.56a.971.971,0,0,1,.876-.961c.629-.09,1.259-.16,1.884-.211V67.336a.968.968,0,0,1,.895-.965A37.346,37.346,0,0,1,44.84,67.926a35.067,35.067,0,0,1,12.684,7.153,35.059,35.059,0,0,1,12.684-7.153,37.333,37.333,0,0,1,15.651-1.555.968.968,0,0,1,.895.965v8.052c.649.051,1.293.121,1.935.219a.965.965,0,0,1,.825.954v5.12a.962.962,0,0,1-1.129.95A26.4,26.4,0,0,0,80.624,83Zm-5.488-.407-1.251-1.532L70.9,84.71a25.883,25.883,0,0,1,4.233-2.119Zm-7.642,4.751a.967.967,0,0,1-.343-.739V83.365a31.643,31.643,0,0,0-3.072,2.7.963.963,0,0,1-.735.341H51.706a.962.962,0,0,1-.731-.336,30.546,30.546,0,0,0-11.43-7.251,26.973,26.973,0,0,0-12.083-1.411v3.221c7.708-.52,16.953,2.4,21.83,8.627H65.757A17.513,17.513,0,0,1,67.493,87.341Zm-.343-6.36V77.135a48.218,48.218,0,0,0-8.659,6.027v1.31h4.455q1.009-.991,2.071-1.873c.677-.56,1.389-1.1,2.132-1.619ZM78.692,83.9V73.135a30.846,30.846,0,0,0-9.616,3.006V83.9c.473-.575,4.014-4.956,4.2-5.109a.959.959,0,0,1,1.353.141Zm-47.93-8.6A29.492,29.492,0,0,1,40.186,77,32.453,32.453,0,0,1,52.1,84.471h4.46v-1.31c-5.516-4.871-14.725-10.218-22.425-10.152a.962.962,0,0,1-.015-1.924c7.719-.066,16.593,4.773,22.441,9.554V76.8a33.066,33.066,0,0,0-12.309-7.044,35.448,35.448,0,0,0-14.03-1.56v7.082ZM60.9,37.084l-3.373-7.442-3.378,7.442ZM39.178,42.356a2.664,2.664,0,1,0,0,3.763A2.669,2.669,0,0,0,39.178,42.356Zm40.464,0a2.663,2.663,0,1,0,0,3.763A2.665,2.665,0,0,0,79.642,42.356Z"/>
    </g>
  </g>
</svg>
