<svg xmlns="http://www.w3.org/2000/svg" xmlns:xlink="http://www.w3.org/1999/xlink" width="113" height="113" viewBox="0 0 113 113">
  <defs>
    <filter id="Trazado_982547" x="0" y="0" width="113" height="113" filterUnits="userSpaceOnUse">
      <feOffset dy="3" input="SourceAlpha"/>
      <feGaussianBlur stdDeviation="3" result="blur"/>
      <feFlood flood-opacity="0.161"/>
      <feComposite operator="in" in2="blur"/>
      <feComposite in="SourceGraphic"/>
    </filter>
  </defs>
  <g id="Grupo_1225891" data-name="Grupo 1225891" transform="translate(-900.509 -1320.375)">
    <g id="Grupo_1225638" data-name="Grupo 1225638" transform="translate(0 -3370.384)">
      <g id="Grupo_1225177" data-name="Grupo 1225177" transform="translate(0 -50.236)">
        <g id="Grupo_1224648" data-name="Grupo 1224648" transform="translate(0 1927)">
          <g id="Grupo_1224293" data-name="Grupo 1224293" transform="translate(0 859.245)">
            <g id="Grupo_1224093" data-name="Grupo 1224093" transform="translate(226.51 -2620.317)">
              <g id="Grupo_1223184" data-name="Grupo 1223184" transform="translate(683 4581.069)">
                <g id="Grupo_1211216" data-name="Grupo 1211216" transform="translate(0)">
                  <g id="Grupo_1210737" data-name="Grupo 1210737">
                    <g id="Grupo_1210537" data-name="Grupo 1210537">
                      <g id="Grupo_1164202" data-name="Grupo 1164202">
                        <g id="Grupo_1158168" data-name="Grupo 1158168">
                          <g id="Grupo_1152576" data-name="Grupo 1152576">
                            <g id="Grupo_1148633" data-name="Grupo 1148633">
                              <g id="Grupo_1148525" data-name="Grupo 1148525">
                                <g transform="matrix(1, 0, 0, 1, -9, -6)" filter="url(#Trazado_982547)">
                                  <g id="Trazado_982547-2" data-name="Trazado 982547" transform="translate(9 6)" fill="#fdfbec">
                                    <path d="M 47.49999618530273 93.5 C 41.28936767578125 93.5 35.26533126831055 92.28396606445312 29.59518241882324 89.88570404052734 C 24.11771583557129 87.56893157958984 19.19812965393066 84.251953125 14.97308921813965 80.02690124511719 C 10.74803638458252 75.80186462402344 7.431062698364258 70.88227844238281 5.114289283752441 65.40480804443359 C 2.716022968292236 59.73466110229492 1.499996185302734 53.71062469482422 1.499996185302734 47.49999618530273 C 1.499996185302734 41.28936767578125 2.716022968292236 35.26533126831055 5.114289283752441 29.59518241882324 C 7.431062698364258 24.11771583557129 10.74803638458252 19.19812965393066 14.97308921813965 14.97308921813965 C 19.19812965393066 10.74803638458252 24.11771583557129 7.431062698364258 29.59518241882324 5.114289283752441 C 35.26533126831055 2.716022968292236 41.28936767578125 1.499996185302734 47.49999618530273 1.499996185302734 C 53.71062469482422 1.499996185302734 59.73466110229492 2.716022968292236 65.40480804443359 5.114289283752441 C 70.88227844238281 7.431062698364258 75.80186462402344 10.74803638458252 80.02690124511719 14.97308921813965 C 84.251953125 19.19812965393066 87.56893157958984 24.11771583557129 89.88570404052734 29.59518241882324 C 92.28396606445312 35.26533126831055 93.5 41.28936767578125 93.5 47.49999618530273 C 93.5 53.71062469482422 92.28396606445312 59.73466110229492 89.88570404052734 65.40480804443359 C 87.56893157958984 70.88227844238281 84.251953125 75.80186462402344 80.02690124511719 80.02690124511719 C 75.80186462402344 84.251953125 70.88227844238281 87.56893157958984 65.40480804443359 89.88570404052734 C 59.73466110229492 92.28396606445312 53.71062469482422 93.5 47.49999618530273 93.5 Z" stroke="none"/>
                                    <path d="M 47.49999618530273 2.999992370605469 C 41.4912109375 2.999992370605469 35.66376495361328 4.1761474609375 30.17950439453125 6.495796203613281 C 24.88084411621094 8.736953735351562 20.12152099609375 11.94598388671875 16.03375244140625 16.03375244140625 C 11.94598388671875 20.12152099609375 8.736953735351562 24.88084411621094 6.495796203613281 30.17950439453125 C 4.1761474609375 35.66376495361328 2.999992370605469 41.4912109375 2.999992370605469 47.49999618530273 C 2.999992370605469 53.50878143310547 4.1761474609375 59.33622741699219 6.495796203613281 64.82048797607422 C 8.736953735351562 70.11914825439453 11.94598388671875 74.87847137451172 16.03375244140625 78.96623992919922 C 20.12152099609375 83.05400848388672 24.88084411621094 86.26304626464844 30.17950439453125 88.50419616699219 C 35.66376495361328 90.82384490966797 41.4912109375 92 47.49999618530273 92 C 53.50878143310547 92 59.33622741699219 90.82384490966797 64.82048797607422 88.50419616699219 C 70.11914825439453 86.26304626464844 74.87847137451172 83.05400848388672 78.96623992919922 78.96623992919922 C 83.05400848388672 74.87847137451172 86.26304626464844 70.11914825439453 88.50419616699219 64.82048797607422 C 90.82384490966797 59.33622741699219 92 53.50878143310547 92 47.49999618530273 C 92 41.4912109375 90.82384490966797 35.66376495361328 88.50419616699219 30.17950439453125 C 86.26304626464844 24.88084411621094 83.05400848388672 20.12152099609375 78.96623992919922 16.03375244140625 C 74.87847137451172 11.94598388671875 70.11914825439453 8.736953735351562 64.82048797607422 6.495796203613281 C 59.33622741699219 4.1761474609375 53.50878143310547 2.999992370605469 47.49999618530273 2.999992370605469 M 47.49999618530273 -7.62939453125e-06 C 73.7335205078125 -7.62939453125e-06 95 21.26647186279297 95 47.49999618530273 C 95 73.7335205078125 73.7335205078125 95 47.49999618530273 95 C 21.26647186279297 95 -7.62939453125e-06 73.7335205078125 -7.62939453125e-06 47.49999618530273 C -7.62939453125e-06 21.26647186279297 21.26647186279297 -7.62939453125e-06 47.49999618530273 -7.62939453125e-06 Z" stroke="none" fill="#83793c"/>
                                  </g>
                                </g>
                              </g>
                            </g>
                          </g>
                        </g>
                      </g>
                    </g>
                  </g>
                </g>
              </g>
            </g>
          </g>
        </g>
      </g>
    </g>
    <g id="writer_6342716" transform="translate(926.497 1339.795)">
      <path id="Trazado_1057755" data-name="Trazado 1057755" d="M46,63H39l-1.6-9.57a9.318,9.318,0,0,1-2.13,3.3L35,57v6H15V57l-.27-.27a9.367,9.367,0,0,1-2.02-3.02c-.04-.09-.08-.19-.11-.28L11,63H4L5.93,44.71a13.15,13.15,0,0,1,.22-1.4,12.456,12.456,0,0,1,10.26-9.6L21,33V31h8v2l4.59.71a12.447,12.447,0,0,1,10.26,9.6,13.148,13.148,0,0,1,.22,1.4Z" fill="#62c1ea"/>
      <path id="Trazado_1057756" data-name="Trazado 1057756" d="M11,63l1.6-9.57c.03.09.07.19.11.28a9.367,9.367,0,0,0,2.02,3.02L15,57v6H35V57l.27-.27a9.318,9.318,0,0,0,2.13-3.3L39,63h7L44.07,44.71a13.149,13.149,0,0,0-.22-1.4,12.447,12.447,0,0,0-10.26-9.6L29,33V31H24v2l-4.59.71a12.456,12.456,0,0,0-10.26,9.6,13.15,13.15,0,0,0-.22,1.4L7,63Z" fill="#86ddfa"/>
      <path id="Trazado_1057757" data-name="Trazado 1057757" d="M44.734,51,46,63H39l-1.6-9.57L37.961,51Z" fill="#f2b89e"/>
      <path id="Trazado_1057758" data-name="Trazado 1057758" d="M37.036,34A11.163,11.163,0,0,0,41,29a4,4,0,0,1-4-4V14a12,12,0,1,0-24,0V25a4,4,0,0,1-4,4,11.167,11.167,0,0,0,4.67,5.456Z" fill="#383838"/>
      <path id="Trazado_1057759" data-name="Trazado 1057759" d="M37,25V14A12,12,0,0,0,26,2.05,12,12,0,0,0,15,14V25a4,4,0,0,1-4,4,11.167,11.167,0,0,0,4.611,5.418L37.036,34A11.163,11.163,0,0,0,41,29,4,4,0,0,1,37,25Z" fill="#4c4c4c"/>
      <path id="Trazado_1057760" data-name="Trazado 1057760" d="M25,43a12,12,0,0,0,11.474-8.475,12.452,12.452,0,0,0-2.884-.815L29,33V31H21v2l-4.59.71a12.444,12.444,0,0,0-2.884.813A12.005,12.005,0,0,0,25,43Z" fill="#d08c76"/>
      <path id="Trazado_1057761" data-name="Trazado 1057761" d="M16.167,18H15a3,3,0,0,0,0,6h1.667" fill="#d08c76"/>
      <path id="Trazado_1057762" data-name="Trazado 1057762" d="M33.833,18H35a3,3,0,0,1,0,6H33.333" fill="#d08c76"/>
      <path id="Trazado_1057763" data-name="Trazado 1057763" d="M34,16l-.717,8.609a7.909,7.909,0,0,1-2.94,5.517,8.554,8.554,0,0,1-10.686,0,7.909,7.909,0,0,1-2.94-5.517L16,16h1.615A7.954,7.954,0,0,0,25,11a7.954,7.954,0,0,0,7.385,5Z" fill="#d08c76"/>
      <path id="Trazado_1057764" data-name="Trazado 1057764" d="M34,16H32.385A7.954,7.954,0,0,1,25,11a7.939,7.939,0,0,1-6.989,4.97L18,16l.717,8.609a7.911,7.911,0,0,0,2.94,5.517A8.545,8.545,0,0,0,26,31.934a8.545,8.545,0,0,0,4.343-1.808,7.909,7.909,0,0,0,2.94-5.517Z" fill="#f2b89e"/>
      <path id="Trazado_1057765" data-name="Trazado 1057765" d="M36.474,34.524a12.452,12.452,0,0,0-2.884-.814L29,33V32a8.465,8.465,0,0,1-6.526.61V33l-4.59.71-.03.005a2.361,2.361,0,0,0-1.614,3.552,12,12,0,0,0,9.5,5.7A12,12,0,0,0,36.474,34.524Z" fill="#f2b89e"/>
      <path id="Trazado_1057766" data-name="Trazado 1057766" d="M38.333,53.788l-1.867-.718A8.1,8.1,0,0,0,37,50.15a7.943,7.943,0,0,0-.249-2.011l-.721-2.9a1,1,0,0,1,.021-.558l1-3,1.9.632-.908,2.724.649,2.607a10.257,10.257,0,0,1-.357,6.141Z" fill="#62c1ea"/>
      <path id="Trazado_1057767" data-name="Trazado 1057767" d="M5.266,51,4,63h7l1.6-9.57L12.039,51Z" fill="#f2b89e"/>
      <path id="Trazado_1057768" data-name="Trazado 1057768" d="M11.667,53.788a10.263,10.263,0,0,1-.356-6.147l.648-2.6-.908-2.724,1.9-.632,1,3a1,1,0,0,1,.021.558l-.72,2.89A7.993,7.993,0,0,0,13,50.15a8.1,8.1,0,0,0,.534,2.92Z" fill="#62c1ea"/>
      <path id="Trazado_1057769" data-name="Trazado 1057769" d="M31,34H53V62H31Z" fill="#c0cee8"/>
      <path id="Trazado_1057770" data-name="Trazado 1057770" d="M33,47.206A12.794,12.794,0,0,0,45.794,60H53V34H33Z" fill="#d6dfef"/>
      <g id="Grupo_1225890" data-name="Grupo 1225890">
        <path id="Trazado_1057771" data-name="Trazado 1057771" d="M38,37H50v2H38Z" fill="#fff"/>
        <path id="Trazado_1057772" data-name="Trazado 1057772" d="M34,41H50v2H34Z" fill="#fff"/>
        <path id="Trazado_1057773" data-name="Trazado 1057773" d="M34,45H50v2H34Z" fill="#fff"/>
        <path id="Trazado_1057774" data-name="Trazado 1057774" d="M34,49H50v2H34Z" fill="#fff"/>
        <path id="Trazado_1057775" data-name="Trazado 1057775" d="M34,53H50v2H34Z" fill="#fff"/>
      </g>
      <path id="Trazado_1057776" data-name="Trazado 1057776" d="M40,53l-2,5,5-2L59.379,39.621a2.121,2.121,0,0,0-3-3Z" fill="#f2b89e"/>
      <path id="Trazado_1057777" data-name="Trazado 1057777" d="M38.5,45.129H59v4.243H38.5Z" transform="translate(-19.132 48.311) rotate(-45)" fill="#f9cb52"/>
      <path id="Trazado_1057778" data-name="Trazado 1057778" d="M55.75,39.75,44,51.5a2.122,2.122,0,0,0,0,3,2.147,2.147,0,0,0,.275.225L57.5,41.5Z" fill="#ffd986"/>
      <path id="Trazado_1057779" data-name="Trazado 1057779" d="M60,38.121a2.121,2.121,0,0,0-3.621-1.5L54.5,38.5l3,3,1.879-1.879a2.124,2.124,0,0,0,.621-1.5Z" fill="#c0cee8"/>
      <path id="Trazado_1057780" data-name="Trazado 1057780" d="M38,58l2.857-1.143-1.714-1.714Z" fill="#595959"/>
      <path id="Trazado_1057781" data-name="Trazado 1057781" d="M38,37H50v2H38Z"/>
      <path id="Trazado_1057782" data-name="Trazado 1057782" d="M57.879,35a3.1,3.1,0,0,0-2.207.914L54,37.586V34a1,1,0,0,0-1-1H39.665a12.136,12.136,0,0,0,2.263-3.629A1,1,0,0,0,41,28a3,3,0,0,1-3-3V23.618a3.927,3.927,0,0,0,0-5.236V14a13,13,0,1,0-26,0v4.382a3.927,3.927,0,0,0,0,5.236V25a3,3,0,0,1-3,3,1,1,0,0,0-.929,1.371A12.227,12.227,0,0,0,11.7,34.288,13.474,13.474,0,0,0,4.931,44.6L3,62.9,5,63.1,6.164,52h5.008a10.3,10.3,0,0,0,.4,1.5l-1.555,9.332,1.972.328,1.13-6.778A10.456,10.456,0,0,0,14,57.414V63h2V57a1,1,0,0,0-.293-.707l-.274-.274a8.306,8.306,0,0,1-2.185-7.888l.722-2.889a1,1,0,0,0-.021-.558l-1-3-1.9.632.908,2.724-.651,2.606a10.266,10.266,0,0,0-.3,2.354H6.374l.546-5.19a11.455,11.455,0,0,1,6.031-8.923A13.006,13.006,0,0,0,30,43V62a1,1,0,0,0,1,1H53a1,1,0,0,0,1-1V46.414l6.086-6.086A3.121,3.121,0,0,0,57.879,35ZM43,54.586,41.414,53,54.5,39.914,56.086,41.5Zm-2.635.193.856.856L39.8,56.2Zm-.839-25A10.128,10.128,0,0,1,36.692,33H35.069a13.2,13.2,0,0,0-1.329-.282L30,32.143v-.567a9.374,9.374,0,0,0,.968-.67A8.933,8.933,0,0,0,34.237,25H35a3.939,3.939,0,0,0,1-.142V25a5.009,5.009,0,0,0,3.526,4.778Zm-19.244-.433a6.936,6.936,0,0,1-2.568-4.82L17.087,17h.528A8.909,8.909,0,0,0,25,13.115,8.909,8.909,0,0,0,32.385,17h.528l-.627,7.526a6.938,6.938,0,0,1-2.567,4.819,7.554,7.554,0,0,1-9.437,0ZM34.754,19H35a2,2,0,0,1,0,4h-.58ZM25,3A11.013,11.013,0,0,1,36,14v3.142A3.939,3.939,0,0,0,35,17h-.08l.08-.917A1,1,0,0,0,34,15H32.385a6.923,6.923,0,0,1-6.457-4.371,1,1,0,0,0-1.856,0A6.923,6.923,0,0,1,17.615,15H16a1,1,0,0,0-1,1.083l.08.917H15a3.939,3.939,0,0,0-1,.142V14A11.013,11.013,0,0,1,25,3ZM13,21a2,2,0,0,1,2-2h.246l.334,4H15A2,2,0,0,1,13,21Zm-2.525,8.778A5.009,5.009,0,0,0,14,25v-.142A3.939,3.939,0,0,0,15,25h.763a8.937,8.937,0,0,0,3.27,5.907,9.245,9.245,0,0,0,.967.669v.567l-3.74.575a13.614,13.614,0,0,0-2.452.622,10.227,10.227,0,0,1-3.333-3.562ZM25,42a10.934,10.934,0,0,1-10.206-6.889,11.713,11.713,0,0,1,1.769-.417l4.589-.706A1,1,0,0,0,22,33v-.491a9.41,9.41,0,0,0,6,0V33a1,1,0,0,0,.848.988L30,34.166v6.609A10.983,10.983,0,0,1,25,42ZM52,61H32V35H52v4.586l-2,2V41H34v2H48.586l-2,2H34v2H44.586l-2,2H34v2h6.586l-1.293,1.293a1.01,1.01,0,0,0-.222.336L38.923,53H34v2h4.123l-1.052,2.629a1,1,0,0,0,1.3,1.3l5-2a1.016,1.016,0,0,0,.335-.222L45.414,55H50V53H47.414L52,48.414Zm6.672-22.086L57.5,40.086,55.914,38.5l1.172-1.172A1.121,1.121,0,0,1,59,38.121a1.133,1.133,0,0,1-.328.793Z"/>
    </g>
  </g>
</svg>
