<svg xmlns="http://www.w3.org/2000/svg" width="38.481" height="41.423" viewBox="0 0 38.481 41.423">
  <g id="motivated_12056044" transform="translate(-6.9 -7.044)">
    <path id="Trazado_1056777" data-name="Trazado 1056777" d="M324.33,12.842v-1.5h1.158l-2.676-3.7-2.676,3.7h1.158V14.5" transform="translate(-288.184)" fill="none" stroke="#000" stroke-linecap="round" stroke-linejoin="round" stroke-miterlimit="10" stroke-width="1.2"/>
    <path id="Trazado_1056778" data-name="Trazado 1056778" d="M104.267,12.842v-1.5h-1.158l2.676-3.7,2.676,3.7H107.3V14.5" transform="translate(-88.131)" fill="none" stroke="#000" stroke-linecap="round" stroke-linejoin="round" stroke-miterlimit="10" stroke-width="1.2"/>
    <path id="Trazado_1056779" data-name="Trazado 1056779" d="M206.24,107.963a1.778,1.778,0,0,1-.053-.431c0-1.266,1.345-2.293,3-2.293s3,1.026,3,2.293a1.776,1.776,0,0,1-.054.433" transform="translate(-183.05 -89.541)" fill="none" stroke="#000" stroke-linecap="round" stroke-linejoin="round" stroke-miterlimit="10" stroke-width="1.2"/>
    <path id="Trazado_1056780" data-name="Trazado 1056780" d="M446.54,106.086a.847.847,0,0,1,.847-.847h0a.847.847,0,0,1,.847.847V107.6a.847.847,0,0,1-.847.847h0a.847.847,0,0,1-.847-.847" transform="translate(-405.254 -89.501)" fill="none" stroke="#000" stroke-linecap="round" stroke-linejoin="round" stroke-miterlimit="10" stroke-width="1.2"/>
    <path id="Trazado_1056781" data-name="Trazado 1056781" d="M474.631,106.086a.847.847,0,0,1,.847-.847h0a.847.847,0,0,1,.847.847V107.6a.847.847,0,0,1-.847.847h0a.847.847,0,0,1-.847-.847" transform="translate(-431.651 -89.501)" fill="none" stroke="#000" stroke-linecap="round" stroke-linejoin="round" stroke-miterlimit="10" stroke-width="1.2"/>
    <path id="Trazado_1056782" data-name="Trazado 1056782" d="M418.482,121.035a.849.849,0,0,1-.033-.234v-1.516" transform="translate(-378.857 -102.513)" fill="none" stroke="#000" stroke-linecap="round" stroke-linejoin="round" stroke-miterlimit="10" stroke-width="1.2"/>
    <path id="Trazado_1056783" data-name="Trazado 1056783" d="M418.449,106.086a.847.847,0,0,1,.847-.847h0a.847.847,0,0,1,.847.847V107.6a.847.847,0,0,1-.446.746" transform="translate(-378.857 -89.51)" fill="none" stroke="#000" stroke-linecap="round" stroke-linejoin="round" stroke-miterlimit="10" stroke-width="1.2"/>
    <path id="Trazado_1056784" data-name="Trazado 1056784" d="M37.369,106.086a.847.847,0,0,1,.847-.847h0a.847.847,0,0,1,.847.847V107.6a.847.847,0,0,1-.847.847h0a.847.847,0,0,1-.847-.847v-1.516" transform="translate(-28.068 -89.501)" fill="none" stroke="#000" stroke-linecap="round" stroke-linejoin="round" stroke-miterlimit="10" stroke-width="1.2"/>
    <path id="Trazado_1056785" data-name="Trazado 1056785" d="M65.9,145.162a.847.847,0,0,1-.437-.741" transform="translate(-54.465 -125.696)" fill="none" stroke="#000" stroke-linecap="round" stroke-linejoin="round" stroke-miterlimit="10" stroke-width="1.2"/>
    <path id="Trazado_1056786" data-name="Trazado 1056786" d="M65.46,106.086a.847.847,0,0,1,.847-.847h0a.847.847,0,0,1,.847.847V107.6a.843.843,0,0,1-.082.363" transform="translate(-54.465 -89.541)" fill="none" stroke="#000" stroke-linecap="round" stroke-linejoin="round" stroke-miterlimit="10" stroke-width="1.2"/>
    <path id="Trazado_1056787" data-name="Trazado 1056787" d="M10.973,120.8a.847.847,0,0,1-.847.847h0a.847.847,0,0,1-.847-.847v-1.516" transform="translate(-1.672 -102.46)" fill="none" stroke="#000" stroke-linecap="round" stroke-linejoin="round" stroke-miterlimit="10" stroke-width="1.2"/>
    <path id="Trazado_1056788" data-name="Trazado 1056788" d="M9.278,106.086a.847.847,0,0,1,.847-.847h0a.847.847,0,0,1,.847.847" transform="translate(-1.671 -89.681)" fill="none" stroke="#000" stroke-linecap="round" stroke-linejoin="round" stroke-miterlimit="10" stroke-width="1.2"/>
    <path id="Trazado_1056789" data-name="Trazado 1056789" d="M352.81,200.734a6.454,6.454,0,0,1,.643,2.817v2.124" transform="translate(-319.296 -176.775)" fill="none" stroke="#000" stroke-linecap="round" stroke-linejoin="round" stroke-miterlimit="10" stroke-width="1.2"/>
    <path id="Trazado_1056790" data-name="Trazado 1056790" d="M148.53,148.579v-2.124a6.482,6.482,0,0,1,11.064-4.583l.038.039" transform="translate(-129.231 -120.599)" fill="none" stroke="#000" stroke-linecap="round" stroke-linejoin="round" stroke-miterlimit="10" stroke-width="1.2"/>
    <g id="Grupo_1225302" data-name="Grupo 1225302" transform="translate(38.617 32.278)">
      <line id="Línea_1003" data-name="Línea 1003" x1="3.562" y2="5.121" transform="translate(0 10.233)" fill="none" stroke="#000" stroke-linecap="round" stroke-linejoin="round" stroke-miterlimit="10" stroke-width="1.2"/>
      <path id="Trazado_1056791" data-name="Trazado 1056791" d="M482.215,249.754v6.771a1.808,1.808,0,0,1-.324,1.033l-.481.691" transform="translate(-476.639 -249.754)" fill="none" stroke="#000" stroke-linecap="round" stroke-linejoin="round" stroke-miterlimit="10" stroke-width="1.2"/>
    </g>
    <g id="Grupo_1225303" data-name="Grupo 1225303" transform="translate(8.083 32.278)">
      <path id="Trazado_1056792" data-name="Trazado 1056792" d="M17.17,323.644v2.315a1.807,1.807,0,0,0,.324,1.033l5.252,7.55" transform="translate(-17.17 -319.188)" fill="none" stroke="#000" stroke-linecap="round" stroke-linejoin="round" stroke-miterlimit="10" stroke-width="1.2"/>
      <line id="Línea_1004" data-name="Línea 1004" y1="2.345" transform="translate(0 0)" fill="none" stroke="#000" stroke-linecap="round" stroke-linejoin="round" stroke-miterlimit="10" stroke-width="1.2"/>
    </g>
    <g id="Grupo_1225310" data-name="Grupo 1225310" transform="translate(16.575 25.159)">
      <g id="Grupo_1225309" data-name="Grupo 1225309" transform="translate(0 0)">
        <path id="Trazado_1056793" data-name="Trazado 1056793" d="M296.322,258.255v1.825h2.961a1.209,1.209,0,0,0,.979-.5l3.188-4.408V249.75" transform="translate(-284.326 -245.839)" fill="none" stroke="#000" stroke-linecap="round" stroke-linejoin="round" stroke-miterlimit="10" stroke-width="1.2"/>
        <path id="Trazado_1056794" data-name="Trazado 1056794" d="M97.406,249.75v5.422l3.188,4.408a1.209,1.209,0,0,0,.979.5h2.965V258.3" transform="translate(-97.406 -245.839)" fill="none" stroke="#000" stroke-linecap="round" stroke-linejoin="round" stroke-miterlimit="10" stroke-width="1.2"/>
        <path id="Trazado_1056795" data-name="Trazado 1056795" d="M135.984,284.955h-1.067a.874.874,0,0,0-.873.873v.534A1.634,1.634,0,0,0,135.677,288h.384" transform="translate(-131.834 -278.921)" fill="none" stroke="#000" stroke-linecap="round" stroke-linejoin="round" stroke-miterlimit="10" stroke-width="1.2"/>
        <path id="Trazado_1056796" data-name="Trazado 1056796" d="M344.688,288h.372a1.634,1.634,0,0,0,1.634-1.634v-.534a.873.873,0,0,0-.874-.873h-1.067" transform="translate(-329.775 -278.921)" fill="none" stroke="#000" stroke-linecap="round" stroke-linejoin="round" stroke-miterlimit="10" stroke-width="1.2"/>
        <path id="Trazado_1056797" data-name="Trazado 1056797" d="M169.441,186.393a6.688,6.688,0,0,1,2.193-1.5,6.847,6.847,0,0,1,3.985,4.868,1.5,1.5,0,0,0,1.429,1.166v1.789a3.829,3.829,0,0,1-1.212,2.8l-1.825,1.71a3.477,3.477,0,0,1-4.755,0l-1.825-1.71a3.829,3.829,0,0,1-1.212-2.8v-1.789a1.5,1.5,0,0,0,1.429-1.166,7.839,7.839,0,0,1,.581-1.631" transform="translate(-162.07 -184.894)" fill="none" stroke="#000" stroke-linecap="round" stroke-linejoin="round" stroke-miterlimit="10" stroke-width="1.2"/>
        <g id="Grupo_1225304" data-name="Grupo 1225304" transform="translate(8.981 8.325)">
          <path id="Trazado_1056798" data-name="Trazado 1056798" d="M246.329,322.931a1.285,1.285,0,0,0,1.167,0" transform="translate(-246.329 -322.931)" fill="none" stroke="#000" stroke-linecap="round" stroke-linejoin="round" stroke-miterlimit="10" stroke-width="1.2"/>
        </g>
        <g id="Grupo_1225305" data-name="Grupo 1225305" transform="translate(8.501 10.291)">
          <path id="Trazado_1056799" data-name="Trazado 1056799" d="M238.367,355.536a2.343,2.343,0,0,0,2.127,0" transform="translate(-238.367 -355.536)" fill="none" stroke="#000" stroke-linecap="round" stroke-linejoin="round" stroke-miterlimit="10" stroke-width="1.2"/>
        </g>
        <g id="Grupo_1225308" data-name="Grupo 1225308" transform="translate(6.686 6.129)">
          <g id="Grupo_1225306" data-name="Grupo 1225306">
            <path id="Trazado_1056800" data-name="Trazado 1056800" d="M209.925,286.785a1.47,1.47,0,0,0-1.656,0" transform="translate(-208.269 -286.53)" fill="none" stroke="#000" stroke-linecap="round" stroke-linejoin="round" stroke-miterlimit="10" stroke-width="1.2"/>
          </g>
          <g id="Grupo_1225307" data-name="Grupo 1225307" transform="translate(4.101)">
            <path id="Trazado_1056801" data-name="Trazado 1056801" d="M277.93,286.785a1.47,1.47,0,0,0-1.656,0" transform="translate(-276.274 -286.53)" fill="none" stroke="#000" stroke-linecap="round" stroke-linejoin="round" stroke-miterlimit="10" stroke-width="1.2"/>
          </g>
        </g>
      </g>
    </g>
    <g id="Grupo_1225312" data-name="Grupo 1225312" transform="translate(37.334 18.521)">
      <path id="Trazado_1056802" data-name="Trazado 1056802" d="M492.976,148.19a5.658,5.658,0,0,0,.588-2.572v-1.2" transform="translate(-486.223 -144.002)" fill="none" stroke="#000" stroke-linecap="round" stroke-linejoin="round" stroke-miterlimit="10" stroke-width="1.2"/>
      <g id="Grupo_1225311" data-name="Grupo 1225311" transform="translate(0 0)">
        <path id="Trazado_1056803" data-name="Trazado 1056803" d="M383.529,141.646a1.652,1.652,0,0,0-.519-.94l-1.7-1.537a.992.992,0,0,1,1.368-1.437l.878.744h0a1.715,1.715,0,0,1,1.694,1.449l.02.13" transform="translate(-381 -137.458)" fill="none" stroke="#000" stroke-linecap="round" stroke-linejoin="round" stroke-miterlimit="10" stroke-width="1.2"/>
      </g>
    </g>
    <g id="Grupo_1225314" data-name="Grupo 1225314" transform="translate(7.607 18.529)">
      <path id="Trazado_1056804" data-name="Trazado 1056804" d="M9.9,148.254a5.592,5.592,0,0,1-.623-2.638v-1.2" transform="translate(-9.278 -144.001)" fill="none" stroke="#000" stroke-linecap="round" stroke-linejoin="round" stroke-miterlimit="10" stroke-width="1.2"/>
      <g id="Grupo_1225313" data-name="Grupo 1225313" transform="translate(3.073 0)">
        <path id="Trazado_1056805" data-name="Trazado 1056805" d="M61.962,141.679a1.652,1.652,0,0,1,.525-.973l1.7-1.537a.992.992,0,1,0-1.368-1.437l-.878.744h0a1.715,1.715,0,0,0-1.694,1.449l-.02.13" transform="translate(-60.228 -137.459)" fill="none" stroke="#000" stroke-linecap="round" stroke-linejoin="round" stroke-miterlimit="10" stroke-width="1.2"/>
      </g>
    </g>
    <path id="Trazado_1056806" data-name="Trazado 1056806" d="M7.794,209.153H13.22a.294.294,0,0,1,.294.294V211.1a.294.294,0,0,1-.294.294H7.794A.294.294,0,0,1,7.5,211.1v-1.657A.294.294,0,0,1,7.794,209.153Z" transform="translate(0 -184.957)" fill="none" stroke="#000" stroke-linecap="round" stroke-linejoin="round" stroke-miterlimit="10" stroke-width="1.2"/>
    <path id="Trazado_1056807" data-name="Trazado 1056807" d="M410.494,209.153h-5.427a.294.294,0,0,0-.294.294V211.1a.294.294,0,0,0,.294.294h5.427a.294.294,0,0,0,.294-.294v-1.657A.294.294,0,0,0,410.494,209.153Z" transform="translate(-366.007 -184.957)" fill="none" stroke="#000" stroke-linecap="round" stroke-linejoin="round" stroke-miterlimit="10" stroke-width="1.2"/>
    <line id="Línea_1005" data-name="Línea 1005" y1="2.417" transform="translate(26.141 18.931)" fill="none" stroke="#000" stroke-linecap="round" stroke-linejoin="round" stroke-miterlimit="10" stroke-width="1.2"/>
    <path id="Trazado_1056808" data-name="Trazado 1056808" d="M139.661,335.393v.822a6.551,6.551,0,0,1-.569,2.671h0" transform="translate(-121.683 -300.49)" fill="none" stroke="#000" stroke-linecap="round" stroke-linejoin="round" stroke-miterlimit="10" stroke-width="1.2"/>
    <path id="Trazado_1056809" data-name="Trazado 1056809" d="M363.471,335.393v.822a6.552,6.552,0,0,0,.569,2.671h0" transform="translate(-329.167 -300.49)" fill="none" stroke="#000" stroke-linecap="round" stroke-linejoin="round" stroke-miterlimit="10" stroke-width="1.2"/>
    <g id="Grupo_1225315" data-name="Grupo 1225315" transform="translate(22.31 42.608)">
      <path id="Trazado_1056810" data-name="Trazado 1056810" d="M196.3,422.2a3.681,3.681,0,0,1-2.432-1.156l-.913.5a.868.868,0,0,0-.213,1.411l1.67,1.57,1.888-2.146,1.888,2.146,1.67-1.57a.868.868,0,0,0-.213-1.411l-.913-.5A3.68,3.68,0,0,1,196.3,422.2Z" transform="translate(-192.471 -421.046)" fill="none" stroke="#000" stroke-linecap="round" stroke-linejoin="round" stroke-miterlimit="10" stroke-width="1.2"/>
    </g>
    <line id="Línea_1006" data-name="Línea 1006" y2="3.685" transform="translate(26.141 43.948)" fill="none" stroke="#000" stroke-linecap="round" stroke-linejoin="round" stroke-miterlimit="10" stroke-width="1.2"/>
  </g>
</svg>
