<svg xmlns="http://www.w3.org/2000/svg" xmlns:xlink="http://www.w3.org/1999/xlink" width="113" height="113" viewBox="0 0 113 113">
  <defs>
    <filter id="Trazado_982547" x="0" y="0" width="113" height="113" filterUnits="userSpaceOnUse">
      <feOffset dy="3" input="SourceAlpha"/>
      <feGaussianBlur stdDeviation="3" result="blur"/>
      <feFlood flood-opacity="0.161"/>
      <feComposite operator="in" in2="blur"/>
      <feComposite in="SourceGraphic"/>
    </filter>
  </defs>
  <g id="Grupo_1225697" data-name="Grupo 1225697" transform="translate(9 6)">
    <g id="Grupo_1225291" data-name="Grupo 1225291">
      <g id="Grupo_1225173" data-name="Grupo 1225173">
        <g id="Grupo_1224643" data-name="Grupo 1224643">
          <g id="Grupo_1224291" data-name="Grupo 1224291">
            <g id="Grupo_1224091" data-name="Grupo 1224091">
              <g id="Grupo_1223183" data-name="Grupo 1223183" transform="translate(0)">
                <g id="Grupo_1211217" data-name="Grupo 1211217">
                  <g id="Grupo_1210736" data-name="Grupo 1210736">
                    <g id="Grupo_1210537" data-name="Grupo 1210537">
                      <g id="Grupo_1164202" data-name="Grupo 1164202">
                        <g id="Grupo_1158168" data-name="Grupo 1158168">
                          <g id="Grupo_1152576" data-name="Grupo 1152576">
                            <g id="Grupo_1148633" data-name="Grupo 1148633">
                              <g id="Grupo_1148525" data-name="Grupo 1148525">
                                <g transform="matrix(1, 0, 0, 1, -9, -6)" filter="url(#Trazado_982547)">
                                  <g id="Trazado_982547-2" data-name="Trazado 982547" transform="translate(9 6)" fill="#fdfbec">
                                    <path d="M 47.49999618530273 93.5 C 41.28936767578125 93.5 35.26533126831055 92.28396606445312 29.59518241882324 89.88570404052734 C 24.11771583557129 87.56893157958984 19.19812965393066 84.251953125 14.97308921813965 80.02690124511719 C 10.74803638458252 75.80186462402344 7.431062698364258 70.88227844238281 5.114289283752441 65.40480804443359 C 2.716022968292236 59.73466110229492 1.499996185302734 53.71062469482422 1.499996185302734 47.49999618530273 C 1.499996185302734 41.28936767578125 2.716022968292236 35.26533126831055 5.114289283752441 29.59518241882324 C 7.431062698364258 24.11771583557129 10.74803638458252 19.19812965393066 14.97308921813965 14.97308921813965 C 19.19812965393066 10.74803638458252 24.11771583557129 7.431062698364258 29.59518241882324 5.114289283752441 C 35.26533126831055 2.716022968292236 41.28936767578125 1.499996185302734 47.49999618530273 1.499996185302734 C 53.71062469482422 1.499996185302734 59.73466110229492 2.716022968292236 65.40480804443359 5.114289283752441 C 70.88227844238281 7.431062698364258 75.80186462402344 10.74803638458252 80.02690124511719 14.97308921813965 C 84.251953125 19.19812965393066 87.56893157958984 24.11771583557129 89.88570404052734 29.59518241882324 C 92.28396606445312 35.26533126831055 93.5 41.28936767578125 93.5 47.49999618530273 C 93.5 53.71062469482422 92.28396606445312 59.73466110229492 89.88570404052734 65.40480804443359 C 87.56893157958984 70.88227844238281 84.251953125 75.80186462402344 80.02690124511719 80.02690124511719 C 75.80186462402344 84.251953125 70.88227844238281 87.56893157958984 65.40480804443359 89.88570404052734 C 59.73466110229492 92.28396606445312 53.71062469482422 93.5 47.49999618530273 93.5 Z" stroke="none"/>
                                    <path d="M 47.49999618530273 2.999992370605469 C 41.4912109375 2.999992370605469 35.66376495361328 4.1761474609375 30.17950439453125 6.495796203613281 C 24.88084411621094 8.736953735351562 20.12152099609375 11.94598388671875 16.03375244140625 16.03375244140625 C 11.94598388671875 20.12152099609375 8.736953735351562 24.88084411621094 6.495796203613281 30.17950439453125 C 4.1761474609375 35.66376495361328 2.999992370605469 41.4912109375 2.999992370605469 47.49999618530273 C 2.999992370605469 53.50878143310547 4.1761474609375 59.33622741699219 6.495796203613281 64.82048797607422 C 8.736953735351562 70.11914825439453 11.94598388671875 74.87847137451172 16.03375244140625 78.96623992919922 C 20.12152099609375 83.05400848388672 24.88084411621094 86.26304626464844 30.17950439453125 88.50419616699219 C 35.66376495361328 90.82384490966797 41.4912109375 92 47.49999618530273 92 C 53.50878143310547 92 59.33622741699219 90.82384490966797 64.82048797607422 88.50419616699219 C 70.11914825439453 86.26304626464844 74.87847137451172 83.05400848388672 78.96623992919922 78.96623992919922 C 83.05400848388672 74.87847137451172 86.26304626464844 70.11914825439453 88.50419616699219 64.82048797607422 C 90.82384490966797 59.33622741699219 92 53.50878143310547 92 47.49999618530273 C 92 41.4912109375 90.82384490966797 35.66376495361328 88.50419616699219 30.17950439453125 C 86.26304626464844 24.88084411621094 83.05400848388672 20.12152099609375 78.96623992919922 16.03375244140625 C 74.87847137451172 11.94598388671875 70.11914825439453 8.736953735351562 64.82048797607422 6.495796203613281 C 59.33622741699219 4.1761474609375 53.50878143310547 2.999992370605469 47.49999618530273 2.999992370605469 M 47.49999618530273 -7.62939453125e-06 C 73.7335205078125 -7.62939453125e-06 95 21.26647186279297 95 47.49999618530273 C 95 73.7335205078125 73.7335205078125 95 47.49999618530273 95 C 21.26647186279297 95 -7.62939453125e-06 73.7335205078125 -7.62939453125e-06 47.49999618530273 C -7.62939453125e-06 21.26647186279297 21.26647186279297 -7.62939453125e-06 47.49999618530273 -7.62939453125e-06 Z" stroke="none" fill="#83793c"/>
                                  </g>
                                </g>
                              </g>
                            </g>
                          </g>
                        </g>
                      </g>
                    </g>
                  </g>
                </g>
              </g>
            </g>
          </g>
        </g>
      </g>
    </g>
    <g id="company_2973238" transform="translate(9.585 10.085)">
      <g id="Grupo_1225695" data-name="Grupo 1225695" transform="translate(1.207 1.207)">
        <g id="Grupo_1225675" data-name="Grupo 1225675" transform="translate(42.726 25.841)">
          <path id="Trazado_1057335" data-name="Trazado 1057335" d="M17.96,40.911l.314.314,3.536,3.536a.572.572,0,0,0,.121-.121l.374-.374a10.767,10.767,0,0,0,3.476-6.807l.145-1.267,2.462-.616a3.172,3.172,0,0,1-.048-.591V32.571a3.172,3.172,0,0,1,.048-.591l-2.462-.616L25.781,30.1a10.683,10.683,0,0,0-3.355-6.686l-3.85,3.85,1.4,1.4-.8,1.714c.048.109.084.229.133.338l1.786.652v4.828l-1.786.652c-.048.109-.084.229-.133.338l.8,1.714Z" transform="translate(-17.96 -23.41)" fill="#4fc1e9"/>
        </g>
        <g id="Grupo_1225676" data-name="Grupo 1225676" transform="translate(25.527 43.039)">
          <path id="Trazado_1057336" data-name="Trazado 1057336" d="M23.41,41.51l.193.181a10.767,10.767,0,0,0,6.807,3.476l1.267.145.616,2.462a3.173,3.173,0,0,1,.591-.048H35.3a3.172,3.172,0,0,1,.591.048l.616-2.462,1.267-.145a10.683,10.683,0,0,0,6.686-3.355l-3.536-3.536-.314-.314-1.4,1.4-1.714-.8c-.109.048-.229.084-.338.133l-.652,1.786H31.678L31.026,38.7c-.109-.048-.229-.084-.338-.133l-1.714.8-1.714-1.7-.3.3Z" transform="translate(-23.41 -37.66)" fill="#b4dd7f"/>
        </g>
        <g id="Grupo_1225677" data-name="Grupo 1225677" transform="translate(25.539 19.263)">
          <path id="Trazado_1057337" data-name="Trazado 1057337" d="M23.081,24.043l-.181.193,3.838,3.838v.012l1.714-1.714,1.714.8c.109-.048.229-.084.338-.133l.652-1.786h4.828l.652,1.786c.109.048.229.084.338.133l1.714-.8L40.7,28.388l3.85-3.85a.572.572,0,0,0-.121-.121l-.374-.374a10.767,10.767,0,0,0-6.807-3.476l-1.267-.145-.616-2.462a3.172,3.172,0,0,1-.591.048H32.362a3.172,3.172,0,0,1-.591-.048l-.616,2.462-1.267.145A10.767,10.767,0,0,0,23.081,24.043Z" transform="translate(-22.9 -17.96)" fill="#b4dd7f"/>
        </g>
        <g id="Grupo_1225678" data-name="Grupo 1225678" transform="translate(0 26.553)">
          <path id="Trazado_1057338" data-name="Trazado 1057338" d="M52.3,24a9.655,9.655,0,1,0,0,19.311h8.449a9.659,9.659,0,0,0,5.262-1.557,10.909,10.909,0,0,1-1.5-4.417l-.145-1.267L61.9,35.454a3.622,3.622,0,0,1-3.573,3.029H52.3a5.828,5.828,0,0,0-1.7-4.116l-.712-.712.712-.712a5.828,5.828,0,0,0,1.7-4.116H58.33A3.622,3.622,0,0,1,61.9,31.857l2.462-.616.145-1.267a10.909,10.909,0,0,1,1.5-4.417A9.659,9.659,0,0,0,60.744,24Z" transform="translate(-42.64 -24)" fill="#656d78"/>
        </g>
        <g id="Grupo_1225679" data-name="Grupo 1225679" transform="translate(7.242 31.38)">
          <path id="Trazado_1057339" data-name="Trazado 1057339" d="M46,32.828l.712.712a5.828,5.828,0,0,1,1.7,4.116h6.035a3.622,3.622,0,0,0,3.573-3.029,3.173,3.173,0,0,0,.048-.591V31.621a3.172,3.172,0,0,0-.048-.591A3.622,3.622,0,0,0,54.449,28H48.414a5.828,5.828,0,0,1-1.7,4.116Z" transform="translate(-46 -28)" fill="#f0d0b4"/>
        </g>
        <g id="Grupo_1225680" data-name="Grupo 1225680" transform="translate(19.263 25.539)">
          <path id="Trazado_1057340" data-name="Trazado 1057340" d="M40.122,31.415l-2.462.616a3.173,3.173,0,0,1,.048.591v2.414a3.172,3.172,0,0,1-.048.591l2.462.616.145,1.267a10.7,10.7,0,0,0,3.476,6.807l.181.193,3.548-3.548.3-.3-1.7-1.714.8-1.714c-.048-.109-.084-.229-.133-.338l-1.786-.652V31.415l1.786-.652c.048-.109.084-.229.133-.338l-.8-1.714,1.7-1.7V27L43.936,23.16l-.193.181a10.7,10.7,0,0,0-3.476,6.807Z" transform="translate(-37.66 -23.16)" fill="#ef7385"/>
        </g>
        <g id="Grupo_1225681" data-name="Grupo 1225681" transform="translate(26.553 26.553)">
          <path id="Trazado_1057341" data-name="Trazado 1057341" d="M24,31.242v4.828l1.786.652c.048.109.084.229.133.338l-.8,1.714,1.7,1.714,1.714,1.7,1.714-.8c.109.048.229.084.338.133l.652,1.786h4.828l.652-1.786c.109-.048.229-.084.338-.133l1.714.8,1.4-1.4,2.016-2.016-.8-1.714c.048-.109.084-.229.133-.338l1.786-.652V31.242l-1.786-.652c-.048-.109-.084-.229-.133-.338l.8-1.714-1.4-1.4-2.016-2.016-1.714.8c-.109-.048-.229-.084-.338-.133L36.069,24H31.242l-.652,1.786c-.109.048-.229.084-.338.133l-1.714-.8-1.714,1.714-1.7,1.7.8,1.714c-.048.109-.084.229-.133.338Zm4.828,2.414a4.828,4.828,0,1,1,4.828,4.828A4.826,4.826,0,0,1,28.828,33.655Z" transform="translate(-24 -24)" fill="#fcd770"/>
        </g>
        <g id="Grupo_1225682" data-name="Grupo 1225682" transform="translate(27.76)">
          <path id="Trazado_1057342" data-name="Trazado 1057342" d="M25,9.531v.386a7.983,7.983,0,0,0,.833,3.536,2.372,2.372,0,0,1,1.581-.591h2.414a3.258,3.258,0,0,0,3.259-2,2.68,2.68,0,0,1,2.474-1.617,2.72,2.72,0,0,1,2.716,2.716v.905h1.207a2.372,2.372,0,0,1,1.581.591A7.915,7.915,0,0,0,33.98,2a7.749,7.749,0,0,0-6.457,3.452l-.109.169A4.361,4.361,0,0,0,25,9.531Z" transform="translate(-25 -2)" fill="#656d78"/>
        </g>
        <g id="Grupo_1225683" data-name="Grupo 1225683" transform="translate(27.76 10.862)">
          <path id="Trazado_1057343" data-name="Trazado 1057343" d="M36.712,11.712a2.36,2.36,0,0,0-.712,1.7,2.421,2.421,0,0,0,2.414,2.414h1.207V11H38.414a2.372,2.372,0,0,0-1.581.591A1.138,1.138,0,0,1,36.712,11.712Z" transform="translate(-36 -11)" fill="#f0d0b4"/>
        </g>
        <g id="Grupo_1225684" data-name="Grupo 1225684" transform="translate(27.76 56.726)">
          <path id="Trazado_1057344" data-name="Trazado 1057344" d="M36.712,49.712a2.36,2.36,0,0,0-.712,1.7,2.429,2.429,0,0,0,.833,1.822,2.372,2.372,0,0,0,1.581.591h1.207V49H38.414A2.36,2.36,0,0,0,36.712,49.712Z" transform="translate(-36 -49)" fill="#f0d0b4"/>
        </g>
        <g id="Grupo_1225685" data-name="Grupo 1225685" transform="translate(27.76 60.962)">
          <path id="Trazado_1057345" data-name="Trazado 1057345" d="M25.833,52.51a7.919,7.919,0,0,0,7.085,11.454H33.98A7.919,7.919,0,0,0,41.064,52.51a2.372,2.372,0,0,1-1.581.591H38.276v1.207a5.829,5.829,0,0,0-4.116,1.7l-.712.712-.712-.712a5.829,5.829,0,0,0-4.116-1.7V53.1H27.414a2.372,2.372,0,0,1-1.581-.591Z" transform="translate(-25 -52.51)" fill="#b27946"/>
        </g>
        <g id="Grupo_1225686" data-name="Grupo 1225686" transform="translate(31.38 53.105)">
          <path id="Trazado_1057346" data-name="Trazado 1057346" d="M28,54.449v1.207a5.828,5.828,0,0,1,4.116,1.7l.712.712.712-.712a5.828,5.828,0,0,1,4.116-1.7V49.621a3.622,3.622,0,0,0-3.029-3.573A3.173,3.173,0,0,0,34.035,46H31.621a3.172,3.172,0,0,0-.591.048A3.622,3.622,0,0,0,28,49.621Z" transform="translate(-28 -46)" fill="#f0d0b4"/>
        </g>
        <g id="Grupo_1225687" data-name="Grupo 1225687" transform="translate(31.38 7.242)">
          <path id="Trazado_1057347" data-name="Trazado 1057347" d="M28,11.621v4.828a3.622,3.622,0,0,0,3.029,3.573,3.172,3.172,0,0,0,.591.048h2.414a3.172,3.172,0,0,0,.591-.048,3.622,3.622,0,0,0,3.029-3.573V10.716A2.72,2.72,0,0,0,34.94,8a2.68,2.68,0,0,0-2.474,1.617,3.258,3.258,0,0,1-3.259,2Z" transform="translate(-28 -8)" fill="#f0d0b4"/>
        </g>
        <g id="Grupo_1225688" data-name="Grupo 1225688" transform="translate(41.036 56.726)">
          <path id="Trazado_1057348" data-name="Trazado 1057348" d="M25,49v4.828h1.207a2.372,2.372,0,0,0,1.581-.591,1.138,1.138,0,0,1,.121-.121,2.36,2.36,0,0,0,.712-1.7A2.421,2.421,0,0,0,26.207,49Z" transform="translate(-25 -49)" fill="#f0d0b4"/>
        </g>
        <g id="Grupo_1225689" data-name="Grupo 1225689" transform="translate(41.036 10.862)">
          <path id="Trazado_1057349" data-name="Trazado 1057349" d="M25,11v4.828h1.207a2.431,2.431,0,0,0,2.414-2.414,2.429,2.429,0,0,0-.833-1.822A2.372,2.372,0,0,0,26.207,11Z" transform="translate(-25 -11)" fill="#f0d0b4"/>
        </g>
        <g id="Grupo_1225690" data-name="Grupo 1225690" transform="translate(53.105 31.38)">
          <path id="Trazado_1057350" data-name="Trazado 1057350" d="M8,31.621v2.414a3.172,3.172,0,0,0,.048.591,3.622,3.622,0,0,0,3.573,3.029h5.733a2.729,2.729,0,0,0,2.7-2.414,2.523,2.523,0,0,0,.012-.3,2.68,2.68,0,0,0-1.617-2.474,3.258,3.258,0,0,1-2-3.259V28H11.621a3.622,3.622,0,0,0-3.573,3.029A3.172,3.172,0,0,0,8,31.621Z" transform="translate(-8 -28)" fill="#f0d0b4"/>
        </g>
        <g id="Grupo_1225691" data-name="Grupo 1225691" transform="translate(56.726 41.036)">
          <path id="Trazado_1057351" data-name="Trazado 1057351" d="M11,36v1.207a2.431,2.431,0,0,0,2.414,2.414,2.429,2.429,0,0,0,1.822-.833,2.372,2.372,0,0,0,.591-1.581V36Z" transform="translate(-11 -36)" fill="#f0d0b4"/>
        </g>
        <g id="Grupo_1225692" data-name="Grupo 1225692" transform="translate(56.726 27.76)">
          <path id="Trazado_1057352" data-name="Trazado 1057352" d="M11,27.414v1.207h4.828V27.414a2.372,2.372,0,0,0-.591-1.581,1.138,1.138,0,0,1-.121-.121,2.36,2.36,0,0,0-1.7-.712A2.421,2.421,0,0,0,11,27.414Z" transform="translate(-11 -25)" fill="#f0d0b4"/>
        </g>
        <g id="Grupo_1225693" data-name="Grupo 1225693" transform="translate(60.962 27.76)">
          <path id="Trazado_1057353" data-name="Trazado 1057353" d="M5,25.833a2.372,2.372,0,0,1,.591,1.581v2.414a3.258,3.258,0,0,0,2,3.259,2.68,2.68,0,0,1,1.617,2.474,2.523,2.523,0,0,1-.012.3h.012c2.414,0,3.621-8.449,3.621-8.449A4.361,4.361,0,0,0,8.923,25H8.536A7.983,7.983,0,0,0,5,25.833Z" transform="translate(-5 -25)" fill="#b27946"/>
        </g>
        <g id="Grupo_1225694" data-name="Grupo 1225694" transform="translate(60.962 30.173)">
          <path id="Trazado_1057354" data-name="Trazado 1057354" d="M2.591,39.069A2.372,2.372,0,0,1,2,40.65a7.915,7.915,0,0,0,11.454-7.085A7.749,7.749,0,0,0,10,27.109L9.833,27s-1.207,8.449-3.621,8.449H6.2a2.729,2.729,0,0,1-2.7,2.414H2.591Z" transform="translate(-2 -27)" fill="#b27946"/>
        </g>
      </g>
      <g id="Grupo_1225696" data-name="Grupo 1225696">
        <path id="Trazado_1057355" data-name="Trazado 1057355" d="M33.035,39.069a6.035,6.035,0,1,1,6.035-6.035A6.042,6.042,0,0,1,33.035,39.069Zm0-9.655a3.621,3.621,0,1,0,3.621,3.621A3.625,3.625,0,0,0,33.035,29.414Z" transform="translate(4.38 4.38)"/>
        <path id="Trazado_1057356" data-name="Trazado 1057356" d="M11.862,27.553h8.449a10.823,10.823,0,0,1,4.884,1.18,11.715,11.715,0,0,1,1.5-1.657l.337-.333A11.99,11.99,0,0,1,34.6,22.872l.432-.047.141-.565A4.828,4.828,0,0,1,32.552,19.1H32.38A3.616,3.616,0,0,1,29.4,13.44a9.146,9.146,0,0,1-.636-3.315V9.733a5.542,5.542,0,0,1,2.784-4.827A8.949,8.949,0,0,1,38.947,1a9.1,9.1,0,0,1,8.487,12.441,3.586,3.586,0,0,1,.636,2.042A3.625,3.625,0,0,1,44.45,19.1h-.171a4.825,4.825,0,0,1-2.624,3.156l.141.565.432.047A11.949,11.949,0,0,1,49.751,26.7l.337.338A11.978,11.978,0,0,1,53.956,34.6l.048.431.565.141a4.823,4.823,0,0,1,3.156-2.623V32.38A3.616,3.616,0,0,1,63.389,29.4a9.163,9.163,0,0,1,3.318-.636h.39a5.54,5.54,0,0,1,4.827,2.786,8.942,8.942,0,0,1,3.907,7.4,9.1,9.1,0,0,1-12.44,8.488,3.616,3.616,0,0,1-5.664-2.985v-.171a4.83,4.83,0,0,1-3.156-2.623l-.565.141-.048.431a11.937,11.937,0,0,1-3.826,7.525l-.337.333a11.99,11.99,0,0,1-7.566,3.871L41.8,54l-.141.565a4.828,4.828,0,0,1,2.624,3.156h.171a3.616,3.616,0,0,1,2.985,5.664A9.1,9.1,0,0,1,38.947,75.83H37.883A9.1,9.1,0,0,1,29.4,63.389a3.586,3.586,0,0,1-.636-2.042,3.625,3.625,0,0,1,3.621-3.621h.171a4.825,4.825,0,0,1,2.624-3.156l-.141-.565-.432-.047a11.949,11.949,0,0,1-7.523-3.826l-.337-.338a12.074,12.074,0,0,1-1.542-1.7,10.825,10.825,0,0,1-4.889,1.183H11.862a10.862,10.862,0,1,1,0-21.725Zm13.409,7.316-.233,2.1-2.314.578v1.737l2.314.578.234,2.1a9.561,9.561,0,0,0,2.469,5.42l2.139-2.139-1.452-1.452.718-1.536-1.594-.581v-6.52l1.594-.578-.718-1.536,1.452-1.452-2.142-2.142a9.56,9.56,0,0,0-2.467,5.423ZM45.5,43.279l-.678-1.45.54-1.3,1.5-.547V36.847l-.993-.362-.539-.256L44.82,35l.678-1.45-2.217-2.218-1.448.676-1.3-.537-.547-1.5H36.846l-.361.993-.245.533L35,32.007l-1.448-.676L31.33,33.55,32.009,35l-.54,1.3-1.5.548v3.136l.993.362.539.256.511,1.23-.678,1.45L33.549,45.5l1.446-.676,1.3.537.548,1.5h3.137l.361-.993.246-.535,1.244-.513,1.446.676ZM32.38,16.69V14.276a1.207,1.207,0,1,0,0,2.414Zm13.276-1.207a1.208,1.208,0,0,0-1.207-1.207V16.69A1.208,1.208,0,0,0,45.657,15.483ZM44.42,11.862h.03a3.561,3.561,0,0,1,.927.135,6.671,6.671,0,0,0-6.429-8.584,6.539,6.539,0,0,0-5.453,2.92l-.287.43-.286.144a3.144,3.144,0,0,0-1.748,2.827v.391A6.757,6.757,0,0,0,31.452,12a3.528,3.528,0,0,1,.928-.136h2.414a2.08,2.08,0,0,0,2.152-1.278,3.9,3.9,0,0,1,7.473,1.278Zm-2.384.3a1.508,1.508,0,0,0-1.506-1.506,1.484,1.484,0,0,0-1.369.887,4.468,4.468,0,0,1-4.367,2.734V17.9a2.416,2.416,0,0,0,2.414,2.414h2.414A2.416,2.416,0,0,0,42.036,17.9Zm-.075,13.11-2.1-.233-.578-2.314H37.547l-.578,2.314-2.1.233a9.586,9.586,0,0,0-5.42,2.471l2.139,2.139,1.452-1.452,1.536.719.578-1.6h6.519l.579,1.594,1.536-.719,1.76,1.76,2.141-2.141a9.576,9.576,0,0,0-5.729-2.775Zm19.386,5.9A1.208,1.208,0,0,0,60.14,32.38h2.414A1.208,1.208,0,0,0,61.347,31.173Zm5.75,0h-.39a6.75,6.75,0,0,0-1.874.279,3.578,3.578,0,0,1,.135.928v2.414a2.077,2.077,0,0,0,1.279,2.151,3.869,3.869,0,0,1,1.835,1.673,24.352,24.352,0,0,0,1.657-5.966A3.122,3.122,0,0,0,67.1,31.173Zm6.32,7.773a6.529,6.529,0,0,0-1.584-4.259c-.579,2.9-1.633,6.228-3.475,7.115a3.9,3.9,0,0,1-3.39,2.618v.03a3.578,3.578,0,0,1-.135.928,6.675,6.675,0,0,0,8.584-6.432ZM61.347,45.657a1.208,1.208,0,0,0,1.207-1.207H60.14A1.208,1.208,0,0,0,61.347,45.657Zm-4.828-6.035a2.416,2.416,0,0,0,2.414,2.414h5.735a1.508,1.508,0,0,0,1.506-1.506,1.487,1.487,0,0,0-.887-1.369,4.467,4.467,0,0,1-2.734-4.367H58.933a2.416,2.416,0,0,0-2.414,2.414Zm-4.961,2.339.233-2.1,2.314-.578V37.546l-2.314-.578-.234-2.1a9.55,9.55,0,0,0-2.187-5.086l-2.113,2.112L48.4,33.038l-.718,1.536,1.594.581v6.52l-1.594.578L48.4,43.79l-1.76,1.76,2.141,2.141a9.554,9.554,0,0,0,2.776-5.729ZM44.45,60.14v2.414a1.207,1.207,0,0,0,0-2.414ZM31.173,61.347a1.208,1.208,0,0,0,1.207,1.207V60.14A1.208,1.208,0,0,0,31.173,61.347Zm2.414,4.828H32.38V64.968a3.561,3.561,0,0,1-.927-.135,6.671,6.671,0,0,0,6.429,8.584h1.065a6.676,6.676,0,0,0,6.431-8.585,3.528,3.528,0,0,1-.928.136v1.207H43.243a4.591,4.591,0,0,0-3.267,1.353l-1.561,1.561-1.561-1.561a4.591,4.591,0,0,0-3.267-1.353Zm1.207-2.311a6.973,6.973,0,0,1,3.621,1.815,6.973,6.973,0,0,1,3.621-1.815v-4.93a2.416,2.416,0,0,0-2.414-2.414H37.208a2.416,2.416,0,0,0-2.414,2.414Zm.075-12.3,2.1.233.578,2.314h1.736l.578-2.314,2.1-.233a9.561,9.561,0,0,0,5.086-2.188l-2.112-2.112L43.79,48.4l-1.536-.719-.578,1.594H35.156l-.579-1.594-1.536.719-1.452-1.452-2.142,2.142a9.585,9.585,0,0,0,5.423,2.466ZM11.862,46.864h8.449a8.418,8.418,0,0,0,3.65-.835,11.975,11.975,0,0,1-1.087-3.8l-.048-.431-.565-.141A4.822,4.822,0,0,1,17.9,44.45H10.655V43.243A4.656,4.656,0,0,0,9.3,39.976L7.742,38.415,9.3,36.854a4.656,4.656,0,0,0,1.353-3.267V32.38H17.9a4.822,4.822,0,0,1,4.363,2.794l.565-.141.048-.431a12.038,12.038,0,0,1,1.086-3.8,8.433,8.433,0,0,0-3.649-.834H11.862a8.449,8.449,0,0,0,0,16.9Zm8.449-7.242V37.208A2.416,2.416,0,0,0,17.9,34.794H12.963a7.1,7.1,0,0,1-1.812,3.621,7.1,7.1,0,0,1,1.812,3.621H17.9A2.416,2.416,0,0,0,20.311,39.622Z" transform="translate(-1 -1)"/>
        <path id="Trazado_1057357" data-name="Trazado 1057357" d="M51.438,44.255l-.4,2.381-4.631-.772A29.387,29.387,0,0,0,58.964,56.312L58,58.523A31.815,31.815,0,0,1,44.666,47.567l-.686,4.111-2.381-.4,1.406-8.432Z" transform="translate(-33.135 7.66)"/>
        <path id="Trazado_1057358" data-name="Trazado 1057358" d="M54.74,17.455l.771-4.632A29.387,29.387,0,0,0,45.062,25.377L42.85,24.41A31.8,31.8,0,0,1,53.807,11.08L49.7,10.394l.4-2.381,8.432,1.4L57.118,17.85Z" transform="translate(-34.205 0.451)"/>
        <path id="Trazado_1057359" data-name="Trazado 1057359" d="M15.539,22.432l.4-2.381,4.631.772A29.387,29.387,0,0,0,8.013,10.375L8.98,8.164A31.815,31.815,0,0,1,22.312,19.121L23,15.01l2.381.4-1.406,8.432Z" transform="translate(40.987 0.482)"/>
        <path id="Trazado_1057360" data-name="Trazado 1057360" d="M11.95,49.522l-.771,4.632A29.387,29.387,0,0,0,21.627,41.6l2.211.966A31.8,31.8,0,0,1,12.882,55.9l4.111.686-.4,2.381-8.432-1.4L9.57,49.126Z" transform="translate(42.345 7.402)"/>
      </g>
    </g>
  </g>
</svg>
