<svg id="pencil_15129845" xmlns="http://www.w3.org/2000/svg" width="40.329" height="40.33" viewBox="0 0 40.329 40.33">
  <path id="Trazado_1057233" data-name="Trazado 1057233" d="M2.689,40.33H28.231a2.689,2.689,0,0,0,2.689-2.689V22.108L40.139,6.783h0a1.338,1.338,0,0,0-.471-1.841L36.2,2.877a1.356,1.356,0,0,0-1.843.466L30.92,9.052V4.705a2.689,2.689,0,0,0-2.689-2.689H20.65a1.34,1.34,0,0,0-1.157-.672H18.149A1.344,1.344,0,0,0,16.8,0H14.116a1.344,1.344,0,0,0-1.344,1.344H11.427a1.34,1.34,0,0,0-1.157.672H2.689A2.689,2.689,0,0,0,0,4.705V37.642A2.689,2.689,0,0,0,2.689,40.33ZM10.269,6.05a1.34,1.34,0,0,0,1.157.672h8.066A1.34,1.34,0,0,0,20.65,6.05h6.236v9.7l-3.258,5.414a.654.654,0,0,0-.091.266l-.672,5.512a1.134,1.134,0,0,0,1.779,1.075l2.242-1.567V36.3H4.033V6.05Zm13.985,20.6.492-4.033L27.6,24.316Zm4.351-3.305-3.477-2.066L32.4,9.209l3.474,2.065ZM33.781,6.908l3.473,2.064-.688,1.149L33.093,8.057Zm1.731-2.875,3.474,2.062L37.948,7.821,34.475,5.756Zm-5.937.672v6.581L28.231,13.52V6.05a1.344,1.344,0,0,0-1.344-1.344h-6.05V3.361h7.394A1.344,1.344,0,0,1,29.575,4.705ZM14.116,1.344H16.8V2.689H14.116ZM12.771,2.689a1.344,1.344,0,0,0,1.344,1.344H16.8a1.344,1.344,0,0,0,1.344-1.344h1.344V5.377H11.427V2.689ZM1.344,4.705A1.344,1.344,0,0,1,2.689,3.361h7.394V4.705H4.033A1.344,1.344,0,0,0,2.689,6.05V36.3a1.344,1.344,0,0,0,1.344,1.344H26.887A1.344,1.344,0,0,0,28.231,36.3V25.512l.991-.693a.657.657,0,0,0,.19-.2l.163-.269V37.642a1.344,1.344,0,0,1-1.344,1.344H2.689a1.344,1.344,0,0,1-1.344-1.344Z"/>
  <path id="Trazado_1057234" data-name="Trazado 1057234" d="M10.688,38.2a2.689,2.689,0,0,0,2.684-2.642c3.934-1.331,11.741-5.689,12.086-19.279l.887.887a.672.672,0,1,0,.951-.951L25.279,14.2a.672.672,0,0,0-.95,0l-2.017,2.017a.672.672,0,1,0,.951.951l.853-.853c-.163,5.011-1.729,14.757-11.071,17.931A2.683,2.683,0,1,0,10.688,38.2Zm0-4.033A1.344,1.344,0,1,1,9.344,35.51,1.344,1.344,0,0,1,10.688,34.165Z" transform="translate(-2.622 -4.59)"/>
  <path id="Trazado_1057235" data-name="Trazado 1057235" d="M29.18,44.2a.672.672,0,0,0-.95,0l-1.541,1.541L25.147,44.2a.672.672,0,1,0-.951.951l1.541,1.541L24.2,48.23a.672.672,0,1,0,.951.951l1.541-1.541L28.23,49.18a.672.672,0,1,0,.951-.951l-1.541-1.541,1.541-1.541A.672.672,0,0,0,29.18,44.2Z" transform="translate(-7.868 -14.425)"/>
  <path id="Trazado_1057236" data-name="Trazado 1057236" d="M9.2,34.18a.672.672,0,0,0,.95,0l1.541-1.541L13.23,34.18a.672.672,0,1,0,.951-.951l-1.541-1.541,1.541-1.541a.672.672,0,1,0-.951-.951l-1.541,1.541L10.147,29.2a.672.672,0,1,0-.951.951l1.541,1.541L9.2,33.23A.672.672,0,0,0,9.2,34.18Z" transform="translate(-2.95 -9.507)"/>
  <path id="Trazado_1057237" data-name="Trazado 1057237" d="M17.2,22.18a.672.672,0,0,0,.95,0l1.541-1.541L21.23,22.18a.672.672,0,1,0,.951-.951l-1.541-1.541,1.541-1.541a.672.672,0,1,0-.951-.951l-1.541,1.541L18.147,17.2a.672.672,0,1,0-.951.951l1.541,1.541L17.2,21.23A.672.672,0,0,0,17.2,22.18Z" transform="translate(-5.573 -5.573)"/>
</svg>
