<svg xmlns="http://www.w3.org/2000/svg" xmlns:xlink="http://www.w3.org/1999/xlink" width="113" height="113" viewBox="0 0 113 113">
  <defs>
    <filter id="Trazado_982547" x="0" y="0" width="113" height="113" filterUnits="userSpaceOnUse">
      <feOffset dy="3" input="SourceAlpha"/>
      <feGaussianBlur stdDeviation="3" result="blur"/>
      <feFlood flood-opacity="0.161"/>
      <feComposite operator="in" in2="blur"/>
      <feComposite in="SourceGraphic"/>
    </filter>
  </defs>
  <g id="Grupo_1225716" data-name="Grupo 1225716" transform="translate(-900.509 -2132.76)">
    <g id="Grupo_1225295" data-name="Grupo 1225295" transform="translate(0 -2558)">
      <g id="Grupo_1225177" data-name="Grupo 1225177" transform="translate(0 -50.236)">
        <g id="Grupo_1224648" data-name="Grupo 1224648" transform="translate(0 1927)">
          <g id="Grupo_1224293" data-name="Grupo 1224293" transform="translate(0 859.245)">
            <g id="Grupo_1224093" data-name="Grupo 1224093" transform="translate(226.51 -2620.317)">
              <g id="Grupo_1223184" data-name="Grupo 1223184" transform="translate(683 4581.069)">
                <g id="Grupo_1211216" data-name="Grupo 1211216" transform="translate(0)">
                  <g id="Grupo_1210737" data-name="Grupo 1210737">
                    <g id="Grupo_1210537" data-name="Grupo 1210537">
                      <g id="Grupo_1164202" data-name="Grupo 1164202">
                        <g id="Grupo_1158168" data-name="Grupo 1158168">
                          <g id="Grupo_1152576" data-name="Grupo 1152576">
                            <g id="Grupo_1148633" data-name="Grupo 1148633">
                              <g id="Grupo_1148525" data-name="Grupo 1148525">
                                <g transform="matrix(1, 0, 0, 1, -9, -6)" filter="url(#Trazado_982547)">
                                  <g id="Trazado_982547-2" data-name="Trazado 982547" transform="translate(9 6)" fill="#fdfbec">
                                    <path d="M 47.49999618530273 93.5 C 41.28936767578125 93.5 35.26533126831055 92.28396606445312 29.59518241882324 89.88570404052734 C 24.11771583557129 87.56893157958984 19.19812965393066 84.251953125 14.97308921813965 80.02690124511719 C 10.74803638458252 75.80186462402344 7.431062698364258 70.88227844238281 5.114289283752441 65.40480804443359 C 2.716022968292236 59.73466110229492 1.499996185302734 53.71062469482422 1.499996185302734 47.49999618530273 C 1.499996185302734 41.28936767578125 2.716022968292236 35.26533126831055 5.114289283752441 29.59518241882324 C 7.431062698364258 24.11771583557129 10.74803638458252 19.19812965393066 14.97308921813965 14.97308921813965 C 19.19812965393066 10.74803638458252 24.11771583557129 7.431062698364258 29.59518241882324 5.114289283752441 C 35.26533126831055 2.716022968292236 41.28936767578125 1.499996185302734 47.49999618530273 1.499996185302734 C 53.71062469482422 1.499996185302734 59.73466110229492 2.716022968292236 65.40480804443359 5.114289283752441 C 70.88227844238281 7.431062698364258 75.80186462402344 10.74803638458252 80.02690124511719 14.97308921813965 C 84.251953125 19.19812965393066 87.56893157958984 24.11771583557129 89.88570404052734 29.59518241882324 C 92.28396606445312 35.26533126831055 93.5 41.28936767578125 93.5 47.49999618530273 C 93.5 53.71062469482422 92.28396606445312 59.73466110229492 89.88570404052734 65.40480804443359 C 87.56893157958984 70.88227844238281 84.251953125 75.80186462402344 80.02690124511719 80.02690124511719 C 75.80186462402344 84.251953125 70.88227844238281 87.56893157958984 65.40480804443359 89.88570404052734 C 59.73466110229492 92.28396606445312 53.71062469482422 93.5 47.49999618530273 93.5 Z" stroke="none"/>
                                    <path d="M 47.49999618530273 2.999992370605469 C 41.4912109375 2.999992370605469 35.66376495361328 4.1761474609375 30.17950439453125 6.495796203613281 C 24.88084411621094 8.736953735351562 20.12152099609375 11.94598388671875 16.03375244140625 16.03375244140625 C 11.94598388671875 20.12152099609375 8.736953735351562 24.88084411621094 6.495796203613281 30.17950439453125 C 4.1761474609375 35.66376495361328 2.999992370605469 41.4912109375 2.999992370605469 47.49999618530273 C 2.999992370605469 53.50878143310547 4.1761474609375 59.33622741699219 6.495796203613281 64.82048797607422 C 8.736953735351562 70.11914825439453 11.94598388671875 74.87847137451172 16.03375244140625 78.96623992919922 C 20.12152099609375 83.05400848388672 24.88084411621094 86.26304626464844 30.17950439453125 88.50419616699219 C 35.66376495361328 90.82384490966797 41.4912109375 92 47.49999618530273 92 C 53.50878143310547 92 59.33622741699219 90.82384490966797 64.82048797607422 88.50419616699219 C 70.11914825439453 86.26304626464844 74.87847137451172 83.05400848388672 78.96623992919922 78.96623992919922 C 83.05400848388672 74.87847137451172 86.26304626464844 70.11914825439453 88.50419616699219 64.82048797607422 C 90.82384490966797 59.33622741699219 92 53.50878143310547 92 47.49999618530273 C 92 41.4912109375 90.82384490966797 35.66376495361328 88.50419616699219 30.17950439453125 C 86.26304626464844 24.88084411621094 83.05400848388672 20.12152099609375 78.96623992919922 16.03375244140625 C 74.87847137451172 11.94598388671875 70.11914825439453 8.736953735351562 64.82048797607422 6.495796203613281 C 59.33622741699219 4.1761474609375 53.50878143310547 2.999992370605469 47.49999618530273 2.999992370605469 M 47.49999618530273 -7.62939453125e-06 C 73.7335205078125 -7.62939453125e-06 95 21.26647186279297 95 47.49999618530273 C 95 73.7335205078125 73.7335205078125 95 47.49999618530273 95 C 21.26647186279297 95 -7.62939453125e-06 73.7335205078125 -7.62939453125e-06 47.49999618530273 C -7.62939453125e-06 21.26647186279297 21.26647186279297 -7.62939453125e-06 47.49999618530273 -7.62939453125e-06 Z" stroke="none" fill="#83793c"/>
                                  </g>
                                </g>
                              </g>
                            </g>
                          </g>
                        </g>
                      </g>
                    </g>
                  </g>
                </g>
              </g>
            </g>
          </g>
        </g>
      </g>
    </g>
    <g id="design_18291944" transform="translate(901.98 2133.151)">
      <g id="Grupo_1225715" data-name="Grupo 1225715" transform="translate(25.911 23.634)">
        <path id="Trazado_1057398" data-name="Trazado 1057398" d="M97.678,295.6l8.874,3.924c4.16,1.838,5.264,4.987,1.567,6.937l15.1-5.778c5.39-2.066,7.8,2.73,2.334,5.581l-18.494,9.653a3.546,3.546,0,0,1-2.544.321l-13.35-3.123L80.7,317.585l.264-15.316,13.41-6.512A3.806,3.806,0,0,1,97.678,295.6Z" transform="translate(-74.29 -260.342)" fill="#f9b5b2" fill-rule="evenodd"/>
        <path id="Trazado_1057399" data-name="Trazado 1057399" d="M145.818,369.07l-6.408,4.812-12.76,6.329a2.558,2.558,0,0,1-1.72.216l-13.443-3.245-7.386,3.458v-3.365l7.248-2.574,14.073,2.887Z" transform="translate(-94.611 -324.412)" fill="#f598a2" fill-rule="evenodd"/>
        <path id="Trazado_1057400" data-name="Trazado 1057400" d="M34.713,311.81h4.044a2.73,2.73,0,0,1,2.723,2.723v16.383a2.73,2.73,0,0,1-2.723,2.723H34.713a2.733,2.733,0,0,1-2.723-2.723V314.533A2.734,2.734,0,0,1,34.713,311.81Z" transform="translate(-31.99 -274.687)" fill="#af4499" fill-rule="evenodd"/>
        <path id="Trazado_1057401" data-name="Trazado 1057401" d="M37.394,311.81c.008.108.011.216.011.328V331.91a4.541,4.541,0,0,1-.336,1.726H34.713a2.983,2.983,0,0,1-2.723-3.17V314.981a2.981,2.981,0,0,1,2.723-3.17h2.682Z" transform="translate(-31.99 -274.687)" fill="#cb6aaa" fill-rule="evenodd"/>
        <path id="Trazado_1057402" data-name="Trazado 1057402" d="M322.04,38.455,305.434,49.064l-5.114-8,16.607-10.609a4.749,4.749,0,0,1,5.114,8Z" transform="translate(-265.011 -29.707)" fill="#70bf44" fill-rule="evenodd"/>
        <path id="Trazado_1057403" data-name="Trazado 1057403" d="M430.192,38.447l-.138.086A6.9,6.9,0,0,1,425,30.493l.079-.053a4.75,4.75,0,0,1,5.114,8.006Z" transform="translate(-373.162 -29.698)" fill="#6167af" fill-rule="evenodd"/>
        <path id="Trazado_1057404" data-name="Trazado 1057404" d="M198.661,68.067l-2.3-.508a1.254,1.254,0,0,1-.951-1.492l.2-.895a1.24,1.24,0,0,0-.649-1.38,12.933,12.933,0,0,1-2.767-1.932,1.237,1.237,0,0,0-1.519-.13l-.772.492a1.249,1.249,0,0,1-1.727-.38L186.9,59.857a1.254,1.254,0,0,1,.38-1.73l.772-.492a1.233,1.233,0,0,0,.518-1.433,12.741,12.741,0,0,1-.59-3.324A1.239,1.239,0,0,0,187,51.711l-.895-.2a1.257,1.257,0,0,1-.955-1.492l.507-2.3a1.256,1.256,0,0,1,1.492-.951l.895.2a1.24,1.24,0,0,0,1.38-.649,12.933,12.933,0,0,1,1.932-2.767,1.237,1.237,0,0,0,.134-1.519l-.5-.772a1.255,1.255,0,0,1,.38-1.726l1.99-1.269a1.249,1.249,0,0,1,1.726.38l.5.772a1.232,1.232,0,0,0,1.433.518,12.882,12.882,0,0,1,3.324-.593,1.234,1.234,0,0,0,1.167-.978l.193-.895a1.259,1.259,0,0,1,1.492-.955l2.3.507a1.259,1.259,0,0,1,.955,1.492l-.2.895a1.237,1.237,0,0,0,.645,1.38,12.933,12.933,0,0,1,2.767,1.932,1.237,1.237,0,0,0,1.519.13l.772-.492a1.26,1.26,0,0,1,1.73.38l1.269,1.988a1.255,1.255,0,0,1-.38,1.726l-.772.492a1.245,1.245,0,0,0-.522,1.436,12.853,12.853,0,0,1,.593,3.324,1.238,1.238,0,0,0,.982,1.167l.895.193a1.256,1.256,0,0,1,.951,1.492l-.507,2.3a1.257,1.257,0,0,1-1.492.955l-.895-.2a1.237,1.237,0,0,0-1.38.645,12.932,12.932,0,0,1-1.932,2.767,1.237,1.237,0,0,0-.13,1.519l.492.772a1.254,1.254,0,0,1-.38,1.73L208.5,66.318a1.26,1.26,0,0,1-1.73-.38l-.492-.772a1.239,1.239,0,0,0-1.432-.522,12.912,12.912,0,0,1-3.324.593,1.234,1.234,0,0,0-1.167.982l-.2.895A1.257,1.257,0,0,1,198.661,68.067Z" transform="translate(-164.974 -35.592)" fill="gray" fill-rule="evenodd"/>
        <path id="Trazado_1057405" data-name="Trazado 1057405" d="M251.917,113.025a7.792,7.792,0,1,1,9.288-5.931A7.79,7.79,0,0,1,251.917,113.025Z" transform="translate(-217.667 -88.684)" fill="#e6e6e6" fill-rule="evenodd"/>
        <path id="Trazado_1057406" data-name="Trazado 1057406" d="M204.752,107.959l-18.311,11.7a4.777,4.777,0,0,1-.541.3,17.163,17.163,0,0,0-5.311-8.472,4.227,4.227,0,0,1,.433-.313L199.039,99.92c3.871,1.026,5.646,4.257,5.714,8.039Z" transform="translate(-161.036 -90.68)" fill="#70bf44" fill-rule="evenodd"/>
        <path id="Trazado_1057407" data-name="Trazado 1057407" d="M157.251,187.46l-.325.205-2.94,5.994a1.922,1.922,0,0,0,1.775,2.767l6.553-.157.328-.205a17.006,17.006,0,0,0-2.044-4.711A16.725,16.725,0,0,0,157.251,187.46Z" transform="translate(-137.757 -166.7)" fill="#f9b5b2" fill-rule="evenodd"/>
        <path id="Trazado_1057408" data-name="Trazado 1057408" d="M252.385,135.424l-.63-1a.836.836,0,0,0-1.149-.265l-6.3,3.946a.835.835,0,0,0-.264,1.153l.63,1a.833.833,0,0,0,1.149.264l6.3-3.946A.839.839,0,0,0,252.385,135.424ZM240.493,143l-.742-1.183a.733.733,0,0,1,.232-1.007l.88-.553a.733.733,0,0,1,1.007.232l.738,1.183a.729.729,0,0,1-.232,1.007l-.876.553A.735.735,0,0,1,240.493,143Z" transform="translate(-212.316 -120.302)" fill="#c7e1aa" fill-rule="evenodd"/>
      </g>
      <path id="Trazado_1057409" data-name="Trazado 1057409" d="M44.6,43.819l.264-.168a.979.979,0,0,1,.325-.153c.086-.057.161-.108.228-.149L48.058,41.7l-.053-.738a.308.308,0,0,0-.261-.305c-.933-.205-1.69-.268-2.257-1.153a2.175,2.175,0,0,1-.291-1.634h0l.508-2.3a2.181,2.181,0,0,1,2.588-1.653l.895.2a.318.318,0,0,0,.366-.171,13.826,13.826,0,0,1,2.074-2.966.335.335,0,0,0,.033-.407c-.5-.783-1.011-1.38-.783-2.405A2.208,2.208,0,0,1,51.9,26.753l1.917-1.224a2.166,2.166,0,0,1,2.995.661l.492.772a.315.315,0,0,0,.38.134,13.768,13.768,0,0,1,3.562-.63.305.305,0,0,0,.305-.261c.2-.911.268-1.686,1.157-2.253a2.155,2.155,0,0,1,1.63-.295l2.3.507a2.178,2.178,0,0,1,1.653,2.588h0l-.209.936a.324.324,0,0,0,.179.325,12.992,12.992,0,0,1,1.134.661l7.937-5.069a5.666,5.666,0,1,1,6.1,9.549l-7.852,5.018a13.419,13.419,0,0,1,.153,1.537.315.315,0,0,0,.261.309v0c.913.2,1.686.264,2.253,1.153a2.144,2.144,0,0,1,.295,1.634l-.537,2.405a2.16,2.16,0,0,1-2.45,1.567c-.661-.086-1.175-.415-1.369-.045a13.855,13.855,0,0,1-2.07,2.966.331.331,0,0,0-.037.407c.171.264.34.526.508.795a2.152,2.152,0,0,1-.7,2.984l0,0-.012,0-1.954,1.25a2.165,2.165,0,0,1-1.634.287v0c-1.637-.358-1.582-2.066-2.238-1.862a13.643,13.643,0,0,1-3.562.634.311.311,0,0,0-.309.258l0,0c-.205.929-.264,1.686-1.153,2.253a2.161,2.161,0,0,1-1.634.295L57,56.475a2.158,2.158,0,0,1-1.257-.925c-.626-.982-.238-1.7-.089-2.57a.319.319,0,0,0-.175-.325l-1.309-.772-2.645,1.679a.963.963,0,0,1-.238.216,1.55,1.55,0,0,1-.791.343l-6.557.161a2.835,2.835,0,0,1-2.619-4.088l2.94-6v0a.873.873,0,0,1,.336-.38Zm2.35.738a18.284,18.284,0,0,1,4.367,6.968l2.336-1.492a.825.825,0,0,1,.1-.063l4.794-3.058a.749.749,0,0,1,.093-.059l10.06-6.427a8.214,8.214,0,0,0-1.272-4.077,6.685,6.685,0,0,0-3.369-2.473Zm-1.411,1.194L42.965,51a1,1,0,0,0,.929,1.447l5.744-.138a16.211,16.211,0,0,0-3.1-5.491ZM68.229,42.9l-6.781,4.331A6.869,6.869,0,0,0,68.229,42.9ZM59.2,48.664l-3.312,2.119c.6.343,1.063.508,1.407,1.242.62,1.328-.507,2.525.205,2.678l2.3.507a.327.327,0,0,0,.395-.254l.2-.895,0,0a2.155,2.155,0,0,1,2.021-1.7,12.256,12.256,0,0,0,3.088-.553,2.153,2.153,0,0,1,2.48.9l.5.772a.319.319,0,0,0,.209.142v0a.316.316,0,0,0,.25-.045l2-1.279a.344.344,0,0,0,.071-.474,3.173,3.173,0,0,1-.821-2.1,2.158,2.158,0,0,1,.571-1.275,12.013,12.013,0,0,0,1.794-2.57,2.168,2.168,0,0,1,2.395-1.126l.891.2v0a.325.325,0,0,0,.395-.254l.507-2.3a.323.323,0,0,0-.25-.395l-.895-.2v0a2.158,2.158,0,0,1-1.7-2.021,11.94,11.94,0,0,0-.553-3.084,2.159,2.159,0,0,1,.907-2.484l.772-.5a.328.328,0,0,0,.138-.209h0a.33.33,0,0,0-.041-.25l-1.283-2a.343.343,0,0,0-.47-.071,3.183,3.183,0,0,1-2.108.821,2.158,2.158,0,0,1-1.275-.571,11.867,11.867,0,0,0-2.57-1.791A2.171,2.171,0,0,1,66.3,27.253l.2-.895h0a.331.331,0,0,0-.258-.395l-2.3-.507a.322.322,0,0,0-.392.254,3.258,3.258,0,0,1-.921,2.088,2.178,2.178,0,0,1-1.3.5,12.14,12.14,0,0,0-3.088.553,2.164,2.164,0,0,1-2.484-.9l-.492-.772a.345.345,0,0,0-.463-.1l-1.984,1.269a.344.344,0,0,0-.1.463,3.2,3.2,0,0,1,.832,2.126,2.177,2.177,0,0,1-.567,1.275,11.873,11.873,0,0,0-1.794,2.57A2.154,2.154,0,0,1,48.785,35.9l-.895-.193a.326.326,0,0,0-.392.254l-.507,2.3h0c-.149.734,1.384.171,2.342,1.313a2.194,2.194,0,0,1,.478,1.026l3.544-2.212A8.722,8.722,0,0,1,65.479,32.45a8.02,8.02,0,0,1,3.7,3.231A8.706,8.706,0,0,1,59.2,48.664Zm-3.19-11.933,5.125-3.2A6.87,6.87,0,0,0,56.006,36.732ZM70.963,29.85c.559.488.376.451,1.466-.236a2.162,2.162,0,0,1,2.988.7c.328.559.9,1.387,1.269,1.984a2.178,2.178,0,0,1,.276,1.612h0c-.313,1.413-1.72,1.622-1.865,2.021a.534.534,0,0,0,.045.343L80.8,32.658a7.826,7.826,0,0,1-4.1-6.472ZM78.584,25a5.985,5.985,0,0,0,4.066,6.472A3.832,3.832,0,0,0,78.584,25Zm-49.95,34.84h4.044a3.657,3.657,0,0,1,3.574,2.924L45.6,58.22a4.726,4.726,0,0,1,4.073-.175l8.874,3.924c2.32,1.026,4.867,3.048,4.286,5.614L74.511,63.11c6.464-2.477,9.586,3.865,3.088,7.255L59.106,80.018a4.476,4.476,0,0,1-3.178.4L42.869,77.369l-6.557,2.8A3.654,3.654,0,0,1,32.679,83.5H28.634a3.653,3.653,0,0,1-3.644-3.644h0V63.48h0a3.653,3.653,0,0,1,3.644-3.644Zm7.685,4.935v13.4l6.069-2.592A.913.913,0,0,1,43,75.51l13.35,3.123a2.668,2.668,0,0,0,1.913-.238l18.49-9.653c4.424-2.309,2.73-5.561-1.582-3.91l-15.1,5.781a.936.936,0,0,1-.645,0L48.393,66.55a.92.92,0,0,1,.634-1.728l10.631,3.916c3.036-1.85.553-4.025-1.854-5.087L48.93,59.727a2.9,2.9,0,0,0-2.537.149Zm-3.641-3.092H28.634a1.81,1.81,0,0,0-1.8,1.8h0V79.859h0a1.811,1.811,0,0,0,1.8,1.805h4.044a1.811,1.811,0,0,0,1.8-1.805h0V63.48h0A1.81,1.81,0,0,0,32.678,61.679Z" transform="translate(0)"/>
    </g>
  </g>
</svg>
