<svg xmlns="http://www.w3.org/2000/svg" xmlns:xlink="http://www.w3.org/1999/xlink" width="113" height="113" viewBox="0 0 113 113">
  <defs>
    <filter id="Trazado_982547" x="0" y="0" width="113" height="113" filterUnits="userSpaceOnUse">
      <feOffset dy="3" input="SourceAlpha"/>
      <feGaussianBlur stdDeviation="3" result="blur"/>
      <feFlood flood-opacity="0.161"/>
      <feComposite operator="in" in2="blur"/>
      <feComposite in="SourceGraphic"/>
    </filter>
  </defs>
  <g id="Grupo_1225916" data-name="Grupo 1225916" transform="translate(-271 -2377.121)">
    <g id="Grupo_1225643" data-name="Grupo 1225643" transform="translate(0 -2313.639)">
      <g id="Grupo_1225173" data-name="Grupo 1225173" transform="translate(0 -50.236)">
        <g id="Grupo_1224643" data-name="Grupo 1224643" transform="translate(0 1927)">
          <g id="Grupo_1224291" data-name="Grupo 1224291" transform="translate(0 859.245)">
            <g id="Grupo_1224091" data-name="Grupo 1224091" transform="translate(-84.49 -2620.317)">
              <g id="Grupo_1223183" data-name="Grupo 1223183" transform="translate(364.49 4581.069)">
                <g id="Grupo_1211217" data-name="Grupo 1211217" transform="translate(0)">
                  <g id="Grupo_1210736" data-name="Grupo 1210736">
                    <g id="Grupo_1210537" data-name="Grupo 1210537">
                      <g id="Grupo_1164202" data-name="Grupo 1164202">
                        <g id="Grupo_1158168" data-name="Grupo 1158168">
                          <g id="Grupo_1152576" data-name="Grupo 1152576">
                            <g id="Grupo_1148633" data-name="Grupo 1148633">
                              <g id="Grupo_1148525" data-name="Grupo 1148525">
                                <g transform="matrix(1, 0, 0, 1, -9, -6)" filter="url(#Trazado_982547)">
                                  <g id="Trazado_982547-2" data-name="Trazado 982547" transform="translate(9 6)" fill="#fdfbec">
                                    <path d="M 47.49999618530273 93.5 C 41.28936767578125 93.5 35.26533126831055 92.28396606445312 29.59518241882324 89.88570404052734 C 24.11771583557129 87.56893157958984 19.19812965393066 84.251953125 14.97308921813965 80.02690124511719 C 10.74803638458252 75.80186462402344 7.431062698364258 70.88227844238281 5.114289283752441 65.40480804443359 C 2.716022968292236 59.73466110229492 1.499996185302734 53.71062469482422 1.499996185302734 47.49999618530273 C 1.499996185302734 41.28936767578125 2.716022968292236 35.26533126831055 5.114289283752441 29.59518241882324 C 7.431062698364258 24.11771583557129 10.74803638458252 19.19812965393066 14.97308921813965 14.97308921813965 C 19.19812965393066 10.74803638458252 24.11771583557129 7.431062698364258 29.59518241882324 5.114289283752441 C 35.26533126831055 2.716022968292236 41.28936767578125 1.499996185302734 47.49999618530273 1.499996185302734 C 53.71062469482422 1.499996185302734 59.73466110229492 2.716022968292236 65.40480804443359 5.114289283752441 C 70.88227844238281 7.431062698364258 75.80186462402344 10.74803638458252 80.02690124511719 14.97308921813965 C 84.251953125 19.19812965393066 87.56893157958984 24.11771583557129 89.88570404052734 29.59518241882324 C 92.28396606445312 35.26533126831055 93.5 41.28936767578125 93.5 47.49999618530273 C 93.5 53.71062469482422 92.28396606445312 59.73466110229492 89.88570404052734 65.40480804443359 C 87.56893157958984 70.88227844238281 84.251953125 75.80186462402344 80.02690124511719 80.02690124511719 C 75.80186462402344 84.251953125 70.88227844238281 87.56893157958984 65.40480804443359 89.88570404052734 C 59.73466110229492 92.28396606445312 53.71062469482422 93.5 47.49999618530273 93.5 Z" stroke="none"/>
                                    <path d="M 47.49999618530273 2.999992370605469 C 41.4912109375 2.999992370605469 35.66376495361328 4.1761474609375 30.17950439453125 6.495796203613281 C 24.88084411621094 8.736953735351562 20.12152099609375 11.94598388671875 16.03375244140625 16.03375244140625 C 11.94598388671875 20.12152099609375 8.736953735351562 24.88084411621094 6.495796203613281 30.17950439453125 C 4.1761474609375 35.66376495361328 2.999992370605469 41.4912109375 2.999992370605469 47.49999618530273 C 2.999992370605469 53.50878143310547 4.1761474609375 59.33622741699219 6.495796203613281 64.82048797607422 C 8.736953735351562 70.11914825439453 11.94598388671875 74.87847137451172 16.03375244140625 78.96623992919922 C 20.12152099609375 83.05400848388672 24.88084411621094 86.26304626464844 30.17950439453125 88.50419616699219 C 35.66376495361328 90.82384490966797 41.4912109375 92 47.49999618530273 92 C 53.50878143310547 92 59.33622741699219 90.82384490966797 64.82048797607422 88.50419616699219 C 70.11914825439453 86.26304626464844 74.87847137451172 83.05400848388672 78.96623992919922 78.96623992919922 C 83.05400848388672 74.87847137451172 86.26304626464844 70.11914825439453 88.50419616699219 64.82048797607422 C 90.82384490966797 59.33622741699219 92 53.50878143310547 92 47.49999618530273 C 92 41.4912109375 90.82384490966797 35.66376495361328 88.50419616699219 30.17950439453125 C 86.26304626464844 24.88084411621094 83.05400848388672 20.12152099609375 78.96623992919922 16.03375244140625 C 74.87847137451172 11.94598388671875 70.11914825439453 8.736953735351562 64.82048797607422 6.495796203613281 C 59.33622741699219 4.1761474609375 53.50878143310547 2.999992370605469 47.49999618530273 2.999992370605469 M 47.49999618530273 -7.62939453125e-06 C 73.7335205078125 -7.62939453125e-06 95 21.26647186279297 95 47.49999618530273 C 95 73.7335205078125 73.7335205078125 95 47.49999618530273 95 C 21.26647186279297 95 -7.62939453125e-06 73.7335205078125 -7.62939453125e-06 47.49999618530273 C -7.62939453125e-06 21.26647186279297 21.26647186279297 -7.62939453125e-06 47.49999618530273 -7.62939453125e-06 Z" stroke="none" fill="#83793c"/>
                                  </g>
                                </g>
                              </g>
                            </g>
                          </g>
                        </g>
                      </g>
                    </g>
                  </g>
                </g>
              </g>
            </g>
          </g>
        </g>
      </g>
    </g>
    <g id="online-learning_4365509" transform="translate(296.232 2400.702)">
      <g id="Grupo_1225914" data-name="Grupo 1225914" transform="translate(0.965 0.965)">
        <g id="Grupo_1225895" data-name="Grupo 1225895" transform="translate(39.571 52.118)">
          <path id="Trazado_1057800" data-name="Trazado 1057800" d="M45.861,55h7.721a2.9,2.9,0,0,1,0,5.791H42A2.9,2.9,0,1,0,42,55h3.861Z" transform="translate(-42 -55)" fill="#ccd1d9"/>
        </g>
        <g id="Grupo_1225896" data-name="Grupo 1225896" transform="translate(34.745 52.118)">
          <path id="Trazado_1057801" data-name="Trazado 1057801" d="M41.826,55a2.9,2.9,0,0,1,0,5.791h-2.9A1.936,1.936,0,0,1,37,58.861V56.93A1.936,1.936,0,0,1,38.93,55Z" transform="translate(-37 -55)" fill="#e6e9ed"/>
        </g>
        <g id="Grupo_1225897" data-name="Grupo 1225897" transform="translate(38.606 46.327)">
          <path id="Trazado_1057802" data-name="Trazado 1057802" d="M45.826,49a2.9,2.9,0,0,1,0,5.791h-2.9A1.936,1.936,0,0,1,41,52.861V50.93A1.936,1.936,0,0,1,42.93,49Z" transform="translate(-41 -49)" fill="#ffeaa7"/>
        </g>
        <g id="Grupo_1225898" data-name="Grupo 1225898" transform="translate(43.432 46.327)">
          <path id="Trazado_1057803" data-name="Trazado 1057803" d="M48.9,51.9A2.892,2.892,0,0,0,46,49H57.582a2.9,2.9,0,0,1,0,5.791H46a2.9,2.9,0,0,0,2.9-2.9Z" transform="translate(-46 -49)" fill="#fcd770"/>
        </g>
        <g id="Grupo_1225899" data-name="Grupo 1225899" transform="translate(52.118 25.094)">
          <circle id="Elipse_13588" data-name="Elipse 13588" cx="2" cy="2" r="2" transform="translate(-0.083 -0.059)" fill="#fcd770"/>
        </g>
        <g id="Grupo_1225900" data-name="Grupo 1225900" transform="translate(44.397 25.094)">
          <circle id="Elipse_13589" data-name="Elipse 13589" cx="2" cy="2" r="2" transform="translate(-0.362 -0.059)" fill="#fcd770"/>
        </g>
        <g id="Grupo_1225901" data-name="Grupo 1225901" transform="translate(36.676 25.094)">
          <circle id="Elipse_13590" data-name="Elipse 13590" cx="2" cy="2" r="2" transform="translate(0.359 -0.059)" fill="#fcd770"/>
        </g>
        <g id="Grupo_1225902" data-name="Grupo 1225902" transform="translate(28.954 3.861)">
          <path id="Trazado_1057804" data-name="Trazado 1057804" d="M59.954,6.93v9.651a1.936,1.936,0,0,1-1.93,1.93H45.477l-.734,2.924a1.233,1.233,0,0,1-2.394,0l-.734-2.924H32.93A1.936,1.936,0,0,1,31,16.582V6.93A1.936,1.936,0,0,1,32.93,5H58.024A1.936,1.936,0,0,1,59.954,6.93Z" transform="translate(-31 -5)" fill="#e6e9ed"/>
        </g>
        <g id="Grupo_1225903" data-name="Grupo 1225903" transform="translate(44.397 7.721)">
          <path id="Trazado_1057805" data-name="Trazado 1057805" d="M50.861,11.9v1.93a.968.968,0,0,1-.965.965h-1.93A.968.968,0,0,1,47,13.826V9.965A.968.968,0,0,1,47.965,9H49.9a.968.968,0,0,1,.965.965Z" transform="translate(-47 -9)" fill="#ff826e"/>
        </g>
        <g id="Grupo_1225904" data-name="Grupo 1225904" transform="translate(32.815 7.721)">
          <path id="Trazado_1057806" data-name="Trazado 1057806" d="M39.932,10.5a1.57,1.57,0,0,1,0,2.8l-2.673,1.332A1.562,1.562,0,0,1,35,13.227V10.564a1.562,1.562,0,0,1,2.258-1.4Z" transform="translate(-35 -9)" fill="#ff826e"/>
        </g>
        <g id="Grupo_1225905" data-name="Grupo 1225905" transform="translate(1.93)">
          <path id="Trazado_1057807" data-name="Trazado 1057807" d="M22.3,10.651A9.406,9.406,0,0,1,22.013,13a15.494,15.494,0,0,0-14.5,4.1,12.086,12.086,0,0,0-.946,1.052,9.653,9.653,0,1,1,15.732-7.5Z" transform="translate(-3 -1)" fill="#69d6f4"/>
        </g>
        <g id="Grupo_1225906" data-name="Grupo 1225906" transform="translate(0 11.582)">
          <path id="Trazado_1057808" data-name="Trazado 1057808" d="M12.254,22.236,8.547,23.829a2.9,2.9,0,0,0-1.757,2.664V32.3A11.566,11.566,0,0,0,18.373,43.885H11.617a.968.968,0,0,0-.965.965v.965a5.1,5.1,0,0,0-3.368,2.76L5.44,48.044A6.116,6.116,0,0,1,1.434,39.9a20.734,20.734,0,0,0,1.5-7.75V28.442A15.369,15.369,0,0,1,6.5,18.569a12.086,12.086,0,0,1,.946-1.052A15.448,15.448,0,0,1,33.815,28.442v3.706a20.734,20.734,0,0,0,1.5,7.75,6.116,6.116,0,0,1-4.005,8.146l-1.834.531h-.01a5.1,5.1,0,0,0-3.368-2.76V44.85a.968.968,0,0,0-.965-.965H18.373A11.579,11.579,0,0,0,29.954,32.3V27.477a2.892,2.892,0,0,0-2.9-2.9H17.784a7.687,7.687,0,0,1-5.53-2.345Z" transform="translate(-1 -13)" fill="#656d78"/>
        </g>
        <g id="Grupo_1225907" data-name="Grupo 1225907" transform="translate(5.791 20.818)">
          <path id="Trazado_1057809" data-name="Trazado 1057809" d="M30.164,27.811v4.826A11.582,11.582,0,1,1,7,32.636v-5.81a2.9,2.9,0,0,1,1.757-2.664l3.706-1.592a7.687,7.687,0,0,0,5.53,2.345h9.275A2.892,2.892,0,0,1,30.164,27.811Z" transform="translate(-7 -22.57)" fill="#f0d0b4"/>
        </g>
        <g id="Grupo_1225908" data-name="Grupo 1225908" transform="translate(9.651 54.048)">
          <path id="Trazado_1057810" data-name="Trazado 1057810" d="M26.442,58.93V59.9a.968.968,0,0,1-.965.965H11.965A.968.968,0,0,1,11,59.9V57H26.442Z" transform="translate(-11 -57)" fill="#aab2bd"/>
        </g>
        <g id="Grupo_1225909" data-name="Grupo 1225909" transform="translate(9.651 42.466)">
          <path id="Trazado_1057811" data-name="Trazado 1057811" d="M26.442,46.93v9.651H11V45.965A.968.968,0,0,1,11.965,45H25.477a.968.968,0,0,1,.965.965Z" transform="translate(-11 -45)" fill="#ccd1d9"/>
        </g>
        <g id="Grupo_1225910" data-name="Grupo 1225910" transform="translate(15.442 46.327)">
          <circle id="Elipse_13591" data-name="Elipse 13591" cx="2" cy="2" r="2" transform="translate(-0.408 -0.292)" fill="#69d6f4"/>
        </g>
        <g id="Grupo_1225911" data-name="Grupo 1225911" transform="translate(25.094 44.397)">
          <path id="Trazado_1057812" data-name="Trazado 1057812" d="M30.861,54.721A3.86,3.86,0,0,1,27,58.582V47a5.1,5.1,0,0,1,3.861,4.942Z" transform="translate(-27 -47)" fill="#ff826e"/>
        </g>
        <g id="Grupo_1225912" data-name="Grupo 1225912" transform="translate(5.791 44.397)">
          <path id="Trazado_1057813" data-name="Trazado 1057813" d="M10.861,56.651v1.93A3.86,3.86,0,0,1,7,54.721v-2.78A5.1,5.1,0,0,1,10.861,47Z" transform="translate(-7 -47)" fill="#ff826e"/>
        </g>
        <g id="Grupo_1225913" data-name="Grupo 1225913" transform="translate(13.512 34.745)">
          <path id="Trazado_1057814" data-name="Trazado 1057814" d="M22.721,37l-.261,1.052a3.712,3.712,0,0,1-7.2,0L15,37Z" transform="translate(-15 -37)" fill="#ff826e"/>
        </g>
      </g>
      <g id="Grupo_1225915" data-name="Grupo 1225915" transform="translate(0 0)">
        <path id="Trazado_1057815" data-name="Trazado 1057815" d="M56.944,3.861H31.85a2.9,2.9,0,0,0-2.9,2.9V15.5a16.394,16.394,0,0,0-5.936-3.231,10.643,10.643,0,0,0,.145-1.654A10.617,10.617,0,1,0,5.172,18.238,16.3,16.3,0,0,0,1.93,27.989v3.7A19.839,19.839,0,0,1,.507,39.085a7.081,7.081,0,0,0,4.629,9.439l.872.249a6.035,6.035,0,0,0-.217,1.534v2.777a4.835,4.835,0,0,0,3.861,4.728v.1a1.932,1.932,0,0,0,1.93,1.93H25.094a1.932,1.932,0,0,0,1.93-1.93v-.1a4.834,4.834,0,0,0,3.861-4.728V50.306a6.042,6.042,0,0,0-.217-1.535l.873-.249a7.08,7.08,0,0,0,4.628-9.438,19.839,19.839,0,0,1-1.424-7.394v-3.7A16.289,16.289,0,0,0,32.232,19.3h7.55l.548,2.193a2.2,2.2,0,0,0,4.272,0l.548-2.193H56.944a2.9,2.9,0,0,0,2.9-2.9V6.756a2.9,2.9,0,0,0-2.9-2.9ZM18.338,11.582c-.34,0-.672.031-1.007.051.025-.339.042-.678.042-1.016a13.741,13.741,0,0,0-.311-2.9h3.665a8.625,8.625,0,0,1,.507,2.9,8.762,8.762,0,0,1-.094,1.223,16.359,16.359,0,0,0-2.8-.258ZM3.861,10.617a8.625,8.625,0,0,1,.507-2.9H8.032a13.44,13.44,0,0,0,.01,5.791H4.357a8.7,8.7,0,0,1-.5-2.9Zm6.772,2.9h-.609a11.525,11.525,0,0,1-.006-5.791h5.056a11.769,11.769,0,0,1,.368,2.9,11.977,11.977,0,0,1-.074,1.248,16.259,16.259,0,0,0-4.735,1.648ZM12.547,2.705l.916,1.374A11.778,11.778,0,0,1,14.4,5.791H10.69a11.778,11.778,0,0,1,.941-1.711Zm7.217,3.086h-3.27A13.773,13.773,0,0,0,15.07,3.008L14.5,2.161A8.71,8.71,0,0,1,19.764,5.791ZM10.59,2.161l-.566.847A13.773,13.773,0,0,0,8.6,5.791H5.33a8.71,8.71,0,0,1,5.26-3.63ZM5.335,15.442H7.787A16.573,16.573,0,0,0,6.41,16.758a8.659,8.659,0,0,1-1.074-1.315ZM7.721,53.083V50.306a4.122,4.122,0,0,1,1.93-3.491V55.8A2.892,2.892,0,0,1,7.721,53.083Zm3.861,4.826v-1.93H25.095v1.93Zm0-3.861V44.4H25.094v9.651Zm17.373-.965a2.892,2.892,0,0,1-1.93,2.718V46.815a4.119,4.119,0,0,1,1.93,3.491ZM34.378,39.8a5.152,5.152,0,0,1-3.367,6.865l-1.135.323a6.019,6.019,0,0,0-2.851-2.314V44.4a1.932,1.932,0,0,0-1.93-1.93h-.1A12.537,12.537,0,0,0,30.885,31.85V27.024a3.864,3.864,0,0,0-3.861-3.861h-9.28a6.68,6.68,0,0,1-6.232-4.22l-1.792.717a8.776,8.776,0,0,0,.939,1.745L8.13,22.49a3.856,3.856,0,0,0-2.34,3.548V31.85a12.537,12.537,0,0,0,5.891,10.617h-.1a1.932,1.932,0,0,0-1.93,1.93v.279A6.02,6.02,0,0,0,6.8,46.99l-1.134-.324A5.151,5.151,0,0,1,2.3,39.8a21.724,21.724,0,0,0,1.563-8.111v-3.7a14.477,14.477,0,1,1,28.954,0v3.7a21.715,21.715,0,0,0,1.563,8.11Zm-16.04,2.666A10.629,10.629,0,0,1,7.721,31.85V26.038a1.929,1.929,0,0,1,1.17-1.774l3.118-1.336a8.612,8.612,0,0,0,5.735,2.167h9.28a1.932,1.932,0,0,1,1.93,1.93v4.826A10.629,10.629,0,0,1,18.338,42.466ZM57.909,16.407a.967.967,0,0,1-.965.965h-13.3l-.914,3.655a.281.281,0,0,1-.526,0l-.913-3.655H31.85a.967.967,0,0,1-.965-.965V6.756a.967.967,0,0,1,.965-.965H56.944a.967.967,0,0,1,.965.965Z" transform="translate(0 0)"/>
        <path id="Trazado_1057816" data-name="Trazado 1057816" d="M40.9,26a2.9,2.9,0,1,0,2.9,2.9A2.9,2.9,0,0,0,40.9,26Zm0,3.861a.965.965,0,1,1,.965-.965A.967.967,0,0,1,40.9,29.861Z" transform="translate(-1.324 -0.906)"/>
        <path id="Trazado_1057817" data-name="Trazado 1057817" d="M48.9,26a2.9,2.9,0,1,0,2.9,2.9A2.9,2.9,0,0,0,48.9,26Zm0,3.861a.965.965,0,1,1,.965-.965A.967.967,0,0,1,48.9,29.861Z" transform="translate(-1.603 -0.906)"/>
        <path id="Trazado_1057818" data-name="Trazado 1057818" d="M59.791,28.9a2.9,2.9,0,1,0-2.9,2.9A2.9,2.9,0,0,0,59.791,28.9Zm-3.861,0a.965.965,0,1,1,.965.965A.967.967,0,0,1,55.93,28.9Z" transform="translate(-1.882 -0.906)"/>
        <path id="Trazado_1057819" data-name="Trazado 1057819" d="M14.282,38.251a4.674,4.674,0,0,0,9.069,0L23.913,36H13.719Zm7.155-.32a2.744,2.744,0,0,1-5.241,0Z" transform="translate(-0.478 -1.255)"/>
        <path id="Trazado_1057820" data-name="Trazado 1057820" d="M13.861,31.861h1.93V30.9A2.9,2.9,0,1,0,10,30.9v.965h1.93V30.9a.965.965,0,1,1,1.93,0Z" transform="translate(-0.349 -0.976)"/>
        <path id="Trazado_1057821" data-name="Trazado 1057821" d="M24.9,28A2.9,2.9,0,0,0,22,30.9v.965h1.93V30.9a.965.965,0,0,1,1.93,0v.965h1.93V30.9A2.9,2.9,0,0,0,24.9,28Z" transform="translate(-0.767 -0.976)"/>
        <path id="Trazado_1057822" data-name="Trazado 1057822" d="M18.9,48a2.9,2.9,0,1,0,2.9,2.9A2.9,2.9,0,0,0,18.9,48Zm0,3.861a.965.965,0,1,1,.965-.965A.966.966,0,0,1,18.9,51.861Z" transform="translate(-0.558 -1.673)"/>
        <path id="Trazado_1057823" data-name="Trazado 1057823" d="M57.233,48H42.756a2.9,2.9,0,0,0-2.9,2.9v1.93a2.863,2.863,0,0,0,.178.965H38.9a2.9,2.9,0,0,0-2.9,2.9v1.93a2.9,2.9,0,0,0,2.9,2.9H53.373a3.864,3.864,0,0,0,3.861-3.861,3.821,3.821,0,0,0-.537-1.93h.537a3.861,3.861,0,0,0,0-7.721ZM41.791,50.9a.966.966,0,0,1,.965-.965h2.9a1.93,1.93,0,1,1,0,3.861h-2.9a.966.966,0,0,1-.965-.965Zm-2.9,8.686a.966.966,0,0,1-.965-.965v-1.93a.966.966,0,0,1,.965-.965h2.9a1.93,1.93,0,0,1,0,3.861ZM55.3,57.651a1.932,1.932,0,0,1-1.93,1.93H45.115a3.74,3.74,0,0,0,0-3.861h8.258A1.932,1.932,0,0,1,55.3,57.651Zm1.93-3.861H48.975a3.74,3.74,0,0,0,0-3.861h8.258a1.93,1.93,0,0,1,0,3.861Z" transform="translate(-1.255 -1.673)"/>
        <path id="Trazado_1057824" data-name="Trazado 1057824" d="M46,44H59.512v1.93H46Z" transform="translate(-1.603 -1.534)"/>
        <path id="Trazado_1057825" data-name="Trazado 1057825" d="M46,40H59.512v1.93H46Z" transform="translate(-1.603 -1.394)"/>
        <path id="Trazado_1057826" data-name="Trazado 1057826" d="M48,36H59.582v1.93H48Z" transform="translate(-1.673 -1.255)"/>
        <path id="Trazado_1057827" data-name="Trazado 1057827" d="M44,36h1.93v1.93H44Z" transform="translate(-1.534 -1.255)"/>
        <path id="Trazado_1057828" data-name="Trazado 1057828" d="M51.373,9.93A1.932,1.932,0,0,0,49.442,8h-1.93a1.932,1.932,0,0,0-1.93,1.93V10.9H41.507a2.5,2.5,0,0,0-1.182-1.3L37.657,8.266A2.528,2.528,0,0,0,34,10.527v2.668a2.528,2.528,0,0,0,3.657,2.26l2.667-1.334a2.493,2.493,0,0,0,1.183-1.3h4.075v.965a1.932,1.932,0,0,0,1.93,1.93h1.93a1.932,1.932,0,0,0,1.93-1.93v-.965h5.791V10.9H51.373ZM39.461,12.394l-2.668,1.334a.613.613,0,0,1-.863-.534V10.527a.6.6,0,0,1,.863-.534l2.668,1.334a.6.6,0,0,1,0,1.067Zm8.051,1.4V9.93h1.93v3.861Z" transform="translate(-1.185 -0.279)"/>
      </g>
    </g>
  </g>
</svg>
