<svg xmlns="http://www.w3.org/2000/svg" width="43.48" height="43.48" viewBox="0 0 43.48 43.48">
  <g id="audio-book_8730943" transform="translate(-7 -7)">
    <path id="Trazado_1057238" data-name="Trazado 1057238" d="M277.24,325.65v12.723a2.564,2.564,0,0,1-2.564,2.564H256v-3.448" transform="translate(-227.26 -290.957)" fill="none" stroke="#000" stroke-linecap="round" stroke-linejoin="round" stroke-miterlimit="10" stroke-width="1"/>
    <path id="Trazado_1057239" data-name="Trazado 1057239" d="M464.5,220.29h.855a2.564,2.564,0,0,1,2.564,2.564v3.45" transform="translate(-417.939 -194.602)" fill="none" stroke="#000" stroke-linecap="round" stroke-linejoin="round" stroke-miterlimit="10" stroke-width="1"/>
    <path id="Trazado_1057240" data-name="Trazado 1057240" d="M10.919,220.29h-.855A2.564,2.564,0,0,0,7.5,222.854v19.164a2.564,2.564,0,0,0,2.564,2.564H28.74V220.29" transform="translate(0 -194.602)" fill="none" stroke="#000" stroke-linecap="round" stroke-linejoin="round" stroke-miterlimit="10" stroke-width="1"/>
    <path id="Trazado_1057241" data-name="Trazado 1057241" d="M256,162.7v21.937a34.225,34.225,0,0,1,15.96-2.444,1.708,1.708,0,0,0,1.861-1.7V160.371a1.711,1.711,0,0,0-1.536-1.7,34.319,34.319,0,0,0-9.275.369" transform="translate(-227.26 -138.102)" fill="none" stroke="#000" stroke-linecap="round" stroke-linejoin="round" stroke-miterlimit="10" stroke-width="1"/>
    <path id="Trazado_1057242" data-name="Trazado 1057242" d="M47.5,172.914V160.371a1.711,1.711,0,0,1,1.536-1.7,34.319,34.319,0,0,1,9.275.369" transform="translate(-36.581 -138.102)" fill="none" stroke="#000" stroke-linecap="round" stroke-linejoin="round" stroke-miterlimit="10" stroke-width="1"/>
    <path id="Trazado_1057243" data-name="Trazado 1057243" d="M65.321,207.5v21.937a34.225,34.225,0,0,0-15.96-2.444,1.708,1.708,0,0,1-1.861-1.7v-4.582" transform="translate(-36.581 -182.905)" fill="none" stroke="#000" stroke-linecap="round" stroke-linejoin="round" stroke-miterlimit="10" stroke-width="1"/>
    <path id="Trazado_1057244" data-name="Trazado 1057244" d="M87.5,218.536a31.619,31.619,0,0,1,6.141.338" transform="translate(-73.162 -192.971)" fill="none" stroke="#000" stroke-linecap="round" stroke-linejoin="round" stroke-miterlimit="10" stroke-width="1"/>
    <path id="Trazado_1057245" data-name="Trazado 1057245" d="M98.483,375.291A38.639,38.639,0,0,0,87.5,374.084" transform="translate(-73.162 -335.229)" fill="none" stroke="#000" stroke-linecap="round" stroke-linejoin="round" stroke-miterlimit="10" stroke-width="1"/>
    <path id="Trazado_1057246" data-name="Trazado 1057246" d="M98.483,336.817A38.642,38.642,0,0,0,87.5,335.61" transform="translate(-73.162 -300.044)" fill="none" stroke="#000" stroke-linecap="round" stroke-linejoin="round" stroke-miterlimit="10" stroke-width="1"/>
    <path id="Trazado_1057247" data-name="Trazado 1057247" d="M98.483,298.343A38.643,38.643,0,0,0,87.5,297.136" transform="translate(-73.162 -264.858)" fill="none" stroke="#000" stroke-linecap="round" stroke-linejoin="round" stroke-miterlimit="10" stroke-width="1"/>
    <path id="Trazado_1057248" data-name="Trazado 1057248" d="M98.483,259.869A38.639,38.639,0,0,0,87.5,258.662" transform="translate(-73.162 -229.673)" fill="none" stroke="#000" stroke-linecap="round" stroke-linejoin="round" stroke-miterlimit="10" stroke-width="1"/>
    <g id="Grupo_1225626" data-name="Grupo 1225626" transform="translate(20.193 7.5)">
      <path id="Trazado_1057251" data-name="Trazado 1057251" d="M171.389,10.925a8.542,8.542,0,1,1-2.184-2.045" transform="translate(-156 -7.5)" fill="none" stroke="#000" stroke-linecap="round" stroke-linejoin="round" stroke-miterlimit="10" stroke-width="1"/>
      <g id="Grupo_1225625" data-name="Grupo 1225625" transform="translate(4.274 4.21)">
        <path id="Trazado_1057252" data-name="Trazado 1057252" d="M209.419,82.628h-1.709A1.709,1.709,0,0,1,206,80.919V79.209a1.709,1.709,0,0,1,1.709-1.709h1.709Z" transform="translate(-206 -75.727)" fill="none" stroke="#000" stroke-linecap="round" stroke-linejoin="round" stroke-miterlimit="10" stroke-width="1"/>
        <path id="Trazado_1057253" data-name="Trazado 1057253" d="M249.273,65.289,246,63.653V58.524l3.273-1.636a1.282,1.282,0,0,1,1.855,1.147v6.108A1.282,1.282,0,0,1,249.273,65.289Z" transform="translate(-242.581 -56.751)" fill="none" stroke="#000" stroke-linecap="round" stroke-linejoin="round" stroke-miterlimit="10" stroke-width="1"/>
      </g>
    </g>
  </g>
</svg>
